<?xml version="1.0" encoding="UTF-8"?>
<!DOCTYPE svg PUBLIC "-//W3C//DTD SVG 1.1//EN" "http://www.w3.org/Graphics/SVG/1.1/DTD/svg11.dtd">
<!-- Creator: CorelDRAW 2021 (64-Bit) -->
<svg xmlns="http://www.w3.org/2000/svg" xml:space="preserve" width="243.729mm" height="243.729mm" version="1.1" style="shape-rendering:geometricPrecision; text-rendering:geometricPrecision; image-rendering:optimizeQuality; fill-rule:evenodd; clip-rule:evenodd"
viewBox="0 0 17006.02 17006.02"
 xmlns:xlink="http://www.w3.org/1999/xlink"
 xmlns:xodm="http://www.corel.com/coreldraw/odm/2003">
 <defs>
  <style type="text/css">
   <![CDATA[
    .fil0 {fill:#FEFEFE;fill-rule:nonzero}
    .fil1 {fill:white;fill-rule:nonzero}
    .fil2 {fill:#F7A30A;fill-rule:nonzero}
   ]]>
  </style>
 </defs>
 <g id="Capa_x0020_1">
  <metadata id="CorelCorpID_0Corel-Layer"/>
  <path class="fil0" d="M8503.02 0c-1147.72,0 -2261.35,224.88 -3309.89,668.36 -1012.58,428.3 -1921.9,1041.35 -2702.66,1822.14 -780.75,780.73 -1393.81,1690.05 -1822.11,2702.66 -443.49,1048.51 -668.36,2162.11 -668.36,3309.83 0,1147.74 224.88,2261.37 668.36,3309.89 428.3,1012.61 1041.36,1921.9 1822.11,2702.66 780.76,780.78 1690.08,1393.81 2702.66,1822.08 1048.54,443.51 2162.17,668.39 3309.89,668.39 1147.72,0 2261.34,-224.88 3309.86,-668.39 1012.58,-428.25 1921.88,-1041.28 2702.66,-1822.08 780.76,-780.76 1393.81,-1690.05 1822.12,-2702.66 443.49,-1048.54 668.36,-2162.15 668.36,-3309.89 0,-1147.72 -224.88,-2261.32 -668.36,-3309.83 -428.3,-1012.61 -1041.33,-1921.93 -1822.12,-2702.66 -780.78,-780.81 -1690.08,-1393.84 -2702.66,-1822.14 -1048.52,-443.49 -2162.14,-668.36 -3309.86,-668.36zm0 220.86c1118,0 2202.66,219 3223.83,650.94 986.27,417.13 1871.96,1014.28 2632.51,1774.83 760.58,760.6 1357.73,1646.29 1774.88,2632.56 431.92,1021.18 650.92,2105.8 650.92,3223.81 0,1118.03 -219,2202.69 -650.92,3223.85 -417.15,986.25 -1014.3,1871.96 -1774.88,2632.54 -760.55,760.56 -1646.24,1357.7 -2632.51,1774.84 -1021.17,431.94 -2105.83,650.92 -3223.83,650.92 -1118.01,0 -2202.66,-218.98 -3223.83,-650.92 -986.27,-417.15 -1871.98,-1014.28 -2632.56,-1774.84 -760.54,-760.58 -1357.7,-1646.29 -1774.84,-2632.54 -431.92,-1021.17 -650.92,-2105.83 -650.92,-3223.85 0,-1118 219,-2202.66 650.92,-3223.81 417.15,-986.27 1014.3,-1871.96 1774.84,-2632.56 760.58,-760.55 1646.29,-1357.7 2632.56,-1774.83 1021.18,-431.94 2105.83,-650.94 3223.83,-650.94z"/>
  <path class="fil0" d="M1182.9 8334.23l448.77 202.26 8.42 -384.65 -457.2 182.39zm864.74 -345.19l-250.31 99.47 -11.35 518.14 245.65 110.38 -4.01 184.36 -1054.67 -492.25 3.45 -158.96 1075.25 -445.53 -4.01 184.39z"/>
  <path class="fil0" d="M2057.93 6756.58c-30.28,-71.23 -85.63,-128.12 -166.05,-170.73l71.46 -153.13c113.3,55.65 193.37,137.33 240.19,245.02 46.82,107.71 55.85,223.52 27.12,347.43 -35,150.72 -116.82,266.38 -245.36,347.02 -128.64,80.59 -268.84,103.28 -420.59,68.04 -150.81,-34.96 -266.36,-117 -346.85,-246.13 -80.46,-129.12 -103.28,-269.04 -68.2,-419.78 28.45,-122.88 86.97,-222.45 175.36,-298.78 88.47,-76.35 192.86,-115.76 313.13,-118.34l9.08 171.88c-91,2.83 -165.71,29.54 -224.24,80.17 -58.55,50.61 -97.54,117.76 -116.99,201.35 -24.39,105.32 -8.02,202.45 49.18,291.31 57.16,88.89 139.94,145.91 248.39,171.04 108.38,25.18 207.82,10.42 298.29,-44.18 90.48,-54.62 147.91,-134.62 172.38,-239.92 19.35,-83.62 13.95,-161.03 -16.27,-232.29z"/>
  <path class="fil0" d="M1858.41 5424.5l330.14 365.35 161.97 -349.06 -492.1 -16.29zm930.76 30.57l-269.18 -9.23 -218.25 470.22 180.81 199.6 -77.69 167.33 -768.81 -874.1 66.9 -144.22 1163.96 23.09 -77.74 167.3z"/>
  <path class="fil0" d="M3140.08 4622.66c75.89,-102.08 108.25,-204.23 97.01,-306.39 -11.25,-102.12 -61.93,-186.72 -152.09,-253.8 -90.19,-67.03 -185.8,-91.24 -286.91,-72.59 -101.02,18.63 -189.49,78.99 -265.37,181.06l-120.56 162.04 607.37 451.68 120.56 -162.01zm-731.21 -543.72c106.97,-143.8 231.94,-228.82 375.03,-255.18 143.14,-26.31 277.63,7.28 403.58,100.92 125.88,93.61 196.8,212.72 212.75,357.38 16,144.66 -29.49,288.8 -136.39,432.6l-222.02 298.56 -854.97 -635.73 222.02 -298.56z"/>
  <polygon class="fil0" points="4477.57,3427.06 3888.97,3959.14 3174.59,3168.9 3761.95,2637.88 3865.38,2752.32 3404.25,3169.19 3605.74,3392.13 4031.53,3007.21 4133.85,3120.44 3708.14,3505.39 3911.8,3730.63 4374.12,3312.65 "/>
  <polygon class="fil0" points="5809.67,2595.18 5666.07,2677.14 5328.87,2086.04 5348.41,2858.38 5257.27,2910.37 4602.37,2500.48 4939.66,3091.61 4796.01,3173.53 4268.1,2248.21 4397.91,2174.17 5174.39,2659.25 5153.35,1743.16 5281.79,1669.88 "/>
  <polygon class="fil0" points="6235.6,2446.65 5875.88,1443.89 6036.03,1386.44 6395.77,2389.2 "/>
  <path class="fil0" d="M7085.79 1319.15l-101.66 481.69 377.57 -74 -275.91 -407.69zm522.13 771.01l-150.69 -223.23 -508.69 99.67 -55.31 263.62 -180.99 35.47 255.46 -1135.7 156.06 -30.58 665.17 955.33 -180.99 35.42z"/>
  <path class="fil0" d="M9113.52 1910.85c126.57,13.12 230.81,-11.21 312.91,-72.98 82.14,-61.86 128.93,-148.63 140.57,-260.4 11.62,-111.77 -16.35,-206.34 -84.06,-283.71 -67.59,-77.39 -164.72,-122.63 -291.22,-135.77l-200.88 -20.88 -78.2 752.87 200.88 20.88zm94.1 -906.27c178.24,18.51 315.17,82.56 410.89,192.12 95.8,109.61 135.51,242.46 119.36,398.52 -16.27,156.03 -82.44,277.9 -198.65,365.46 -116.23,87.58 -263.43,122.11 -441.66,103.6l-370.1 -38.42 110.05 -1059.74 370.11 38.47z"/>
  <polygon class="fil0" points="10822.16,2452.66 10064.78,2216.45 10381.9,1199.62 11137.73,1435.3 11091.79,1582.52 10498.43,1397.47 10408.95,1684.3 10956.83,1855.18 10911.41,2000.88 10363.51,1830.03 10273.1,2119.86 10868.04,2305.44 "/>
  <polygon class="fil0" points="12213.7,2494.27 12674.36,2795.26 12589.98,2924.41 12129.26,2623.4 11888.31,2992.2 11745.84,2899.11 12328.69,2007.12 12981.11,2433.33 12896.73,2562.48 12386.76,2229.29 "/>
  <path class="fil0" d="M13652.39 3835.01c-102.45,105.95 -214.86,162.71 -337.28,170.41 -122.43,7.63 -232.04,-35.32 -328.8,-128.88 -99.02,-95.83 -147.39,-205.61 -144.93,-329.3 2.41,-123.74 54.86,-238.54 157.31,-344.48l413.38 -427.44 122.29 118.32 -413.41 427.41c-69.27,71.6 -105.69,147.34 -109.22,227.27 -3.54,79.9 25.9,150.03 88.42,210.48 60.19,58.21 129.77,83.44 208.71,75.77 78.96,-7.65 152.74,-46.97 221.24,-117.81l413.41 -427.42 122.26 118.25 -413.38 427.41z"/>
  <polygon class="fil0" points="14609,4363.05 13861.17,4883.56 13763.08,4742.58 14510.86,4222.1 14297.42,3915.4 14424.02,3827.33 14949.94,4582.93 14823.35,4671.05 "/>
  <path class="fil0" d="M14868.06 5415.12l129.47 290.6c20.7,46.45 51.25,77.85 91.54,94.15 40.34,16.24 82.75,14.47 127.3,-5.34 40.69,-18.14 67.54,-47.24 80.41,-87.23 12.98,-39.98 9.34,-82.76 -10.95,-128.27l-130.09 -292.05 -287.69 128.15zm-283.84 488.58c22.82,51.3 54.33,85.44 94.45,102.44 40.02,16.99 82.31,15.56 126.84,-4.28 43.64,-19.43 72.2,-49.85 85.66,-91.22 13.47,-41.43 9.63,-85.84 -11.49,-133.32l-136.49 -306.57 -293.53 130.7 134.57 302.25zm424.56 -20.21c16.61,52.97 12.55,106.41 -12.11,160.37 -24.76,53.96 -69.56,95.38 -134.47,124.3 -81.35,36.21 -158.05,38.72 -229.95,7.49 -71.93,-31.19 -130.12,-96.67 -174.6,-196.46l-210.87 -473.68 973.42 -433.52 206.45 463.5c39.21,88.15 46.55,169.05 21.88,242.7 -24.64,73.65 -76.7,128.17 -156.18,163.54 -57.05,25.45 -111.53,30.82 -163.37,16.22 -51.79,-14.69 -89.92,-40.37 -114.38,-77.07l-5.81 2.61z"/>
  <path class="fil0" d="M15128.17 7366.49c89.03,56.94 188.06,73.85 296.93,50.71 109.93,-23.36 194.23,-79.19 252.99,-167.56 58.71,-88.32 76.87,-185.4 54.4,-291.17 -22.47,-105.79 -78.52,-186.83 -167.93,-243.17 -89.42,-56.32 -189.12,-72.81 -299.09,-49.45 -108.82,23.14 -192.51,78.57 -250.78,166.24 -58.36,87.73 -76.28,184.49 -53.76,290.26 22.43,105.79 78.23,187.15 167.24,244.13zm684.84 -21.14c-83.39,127.73 -200.83,207.68 -352.24,239.85 -151.38,32.17 -290.65,6.74 -417.73,-76.28 -127.11,-83 -206.89,-200.73 -239.24,-353.17 -32.4,-152.44 -7.31,-292.16 75.15,-419.14 82.49,-126.99 199.43,-206.57 350.84,-238.72 152.46,-32.39 292.42,-7.41 419.9,75 127.53,82.36 207.45,199.78 239.87,352.19 32.37,152.48 6.94,292.54 -76.55,420.27z"/>
  <polygon class="fil0" points="14972.46,8841.01 14963.39,8088.75 16028.92,8075.9 16030.94,8246.07 15119.72,8257.06 15126.71,8839.14 "/>
  <path class="fil1" d="M3672.09 13482.42c-1104.91,-1072.15 -1829.56,-2498.31 -2040.44,-4015.74l143.48 -19.91c206.49,1485.6 915.98,2881.93 1997.81,3931.68l-100.85 103.97z"/>
  <path class="fil1" d="M13330.85 13485.47l-100.87 -104.08c1059.97,-1027.23 1765.82,-2392.31 1987.6,-3843.8l143.24 21.88c-226.56,1482.57 -947.45,2876.86 -2029.97,3925.99z"/>
  <polygon class="fil1" points="5437.54,14285.53 4961.84,15121.81 4612.09,14922.87 5087.79,14086.57 4738.11,13887.65 4906.28,13591.96 5955.44,14188.79 5787.3,14484.46 "/>
  <polygon class="fil1" points="5842.68,15522.87 6273.19,14293.84 6652.87,14426.86 6222.37,15655.87 "/>
  <path class="fil1" d="M8290.42 15260.35c-1.47,58.63 -4.06,102.1 -7.85,130.34 -27.07,199.03 -113.62,352.36 -259.59,460.05 -146.07,107.66 -320.51,147.74 -523.43,120.19 -197.73,-26.83 -356.05,-114.68 -475.19,-263.55 -118.97,-148.89 -165.73,-317.7 -140.11,-506.45 25.63,-188.75 115.27,-339.05 269.09,-450.9 153.82,-111.87 330.26,-154.28 529.29,-127.28 155.29,21.11 285.8,73.79 391.4,158.09 105.52,84.26 172.13,189.07 199.55,314.4l-425.59 42.29c-30.79,-90.48 -102.05,-143.33 -213.78,-158.49 -89.89,-12.21 -167.45,8.02 -232.85,60.6 -65.28,52.6 -104.12,124.48 -116.55,215.62 -12.34,91.17 6.3,170.86 55.83,239.06 49.6,68.16 119.4,108.35 209.23,120.54 118.18,16.07 209.3,-14.72 273.4,-92.33l-296.61 -40.22 43.4 -319.75 720.37 97.77z"/>
  <path class="fil1" d="M9155.92 15267.49l219.91 -27.47c50.22,-6.27 88.17,-23.43 114.04,-51.49 25.8,-28.04 36.23,-62.62 31.06,-103.78 -4.72,-38.57 -23.11,-67.62 -54.94,-87.13 -31.85,-19.54 -72.81,-26.17 -122.95,-19.91l-219.84 27.49 32.72 262.3zm450.85 660.62l-385.2 -355.39 -27.1 3.37 49.7 397.33 -399.28 49.92 -161.5 -1292.28 705.88 -88.24c140.2,-17.52 258.14,8.86 353.74,79.19 95.58,70.3 151.75,171.69 168.29,304.17 12.71,101.58 -2.73,192.61 -46.2,273.15 -43.42,80.53 -110.1,142.74 -200,186.6l419.98 382.36 -478.31 59.82z"/>
  <polygon class="fil1" points="11626.88,15346.96 10643.44,15713.45 10188.68,14493.2 11163.06,14130.16 11279.19,14441.58 10681.82,14664.19 10740.84,14822.62 11289.02,14618.34 11393.51,14898.82 10845.31,15103.05 10904.41,15261.52 11510.82,15035.56 "/>
  <path class="fil1" d="M12298.5 13511.62c119.82,-0.93 223.11,42.93 309.9,131.59l-281.69 282.23c-77.12,-71.75 -156.13,-80.78 -237.14,-27.08 -30.23,20.02 -50.04,42.88 -59.55,68.55 -9.4,25.68 -6.57,49.83 8.47,72.54 21.49,32.39 52.53,40.59 93.17,24.51l252 -87.7c123.79,-43.13 229.14,-56.59 316.11,-40.32 86.86,16.2 158.91,67.55 216.29,153.97 55.02,83.17 76.77,169.87 64.96,260.06 -11.74,90.16 -44.26,169.57 -97.4,238.27 -53.24,68.64 -118.72,128.75 -196.55,180.29 -136.12,90.19 -271.13,135.01 -405.21,134.45 -134.08,-0.57 -242.26,-46.62 -324.65,-138.16l298.33 -288.63c82.8,75.74 169.62,83.49 260.38,23.41 32.34,-21.49 54.86,-45.71 67.27,-72.61 12.43,-26.93 10.88,-52.25 -4.9,-76.01 -20.01,-30.25 -54.1,-37.17 -102.32,-20.77l-260.1 93.04c-233.2,84.52 -403.78,45.21 -511.86,-117.9 -75.84,-114.49 -91.89,-231.33 -48.05,-350.52 43.81,-119.21 132.15,-222.84 265.02,-310.86 131.84,-87.34 257.7,-131.44 377.52,-132.35z"/>
  <path class="fil1" d="M13182.92 6452.52c-31.65,41.87 -62.2,82.63 -96.74,114.78l-26.65 25.06 1.42 -37.24c5.56,-77.61 -41.13,-167.56 -129.05,-262.76 -152.9,-159.87 -410.55,-301.54 -551.79,-301.54 -95.8,0 -144.96,44.92 -144.96,134.37 0,401.47 851.9,1263.56 1147.08,1418.9 167.67,88.52 290.55,186.93 380.84,291.07 -68.21,-542.76 -218.61,-1059.89 -438.12,-1538.75 -2.66,1.99 -5.71,3.79 -8.23,5.85 -54.74,41.63 -94.45,96.64 -133.81,150.25z"/>
  <path class="fil1" d="M3624.44 7544.09c294.79,-155.35 1147.91,-1017.44 1147.91,-1418.9 0,-89.42 -51.05,-134.37 -146.38,-134.37 -141.61,0 -398.22,141.66 -550.07,301.54 -90.31,95.23 -135.08,185.15 -130.78,262.76l2.39 37.24 -26.93 -25.06c-36.23,-32.12 -65.35,-72.91 -96.74,-114.78 -39.07,-53.59 -81.04,-108.62 -133.71,-150.22 -2.74,-2.22 -5.96,-4.09 -8.81,-6.2 -219.71,479.22 -370.21,996.75 -438.41,1539.96 90.39,-104.47 213.46,-203.2 381.53,-291.96z"/>
  <path class="fil2" d="M10411.49 8737.43c-62.99,0 -82.06,-17.4 -139.19,-144.02 -56.15,68.73 -78.94,105.62 -118.74,165.95 154.7,158.55 161.76,177.01 279.68,177.01 100.87,0 307.09,-67.62 306.23,-204.36l0 -248.95c-96.32,0 -125.29,0 -178.22,1.06 -44.89,160.17 -0.96,253.31 -149.76,253.31z"/>
  <path class="fil2" d="M6594.24 8737.43c-146.26,0 -105.62,-93.14 -149.58,-253.31 -52.75,-1.06 -82.34,-1.06 -176.32,-1.06l0 248.95c-2.29,136.74 203.27,204.36 303.97,204.36 118.87,0 126.69,-18.46 279.47,-177.01 -38.74,-60.33 -61.07,-97.22 -117.71,-165.95 -57.57,126.62 -77.14,144.02 -139.83,144.02z"/>
  <path class="fil1" d="M13074.95 9408.61c-44.33,37.64 -85.49,74.04 -85.49,192.32l56.54 579.87c-1.4,228.72 -152.88,560.85 -274.95,828.26 -53.88,119.98 -105.62,234.09 -135.58,319.48 -17.3,53.89 -210.82,114.21 -255.38,114.21 -16.81,0 -91.12,-15.61 -211.68,-43.02 -85.66,-19.1 -191.82,-41.97 -205.83,-41.97 -63.63,0 -152.51,61.56 -237.87,160.34 -78.2,94.17 -131.55,196.87 -131.55,256.63 0,32.25 22.13,69.27 42.53,104.34 22.06,36.44 41.16,70.18 41.16,100.53 0,87.85 -172.08,368.36 -316.55,368.36l-58.44 0 -2.27 -13.05c-94.01,-745.34 -527.05,-1277.46 -710.73,-1505.61 -66.38,-79.98 -87.39,-105.6 -87.39,-123.37 0,-32.35 3.62,-39.73 22.89,-53.89l9.73 -5.98 1.92 -2.37 232.86 173.05 13.14 9.75 765.75 567.74c37.07,-48.86 73.01,-121.21 109.98,-198.74 69.59,-143.41 142.1,-292.13 236.08,-292.13l303.13 0c463.2,0 468.47,-1366.15 468.47,-1379.39l-12.18 -438.94c-5.66,-44.2 -8.41,-90.92 -12.28,-136.78 -5.49,-98.73 -15.31,-201.23 -28.85,-298.14 -1.5,-10.58 -2.34,-19.54 -4.5,-29.12 0,-1.87 0,-1.87 -1.63,-2.8 0,-3.8 0,-4.85 -0.96,-9.28 -1.37,-5.2 -3.77,-11.25 -3.77,-17.21 -10.61,-40.02 -29.51,-82.95 -43.42,-120.66 -19.17,-48.86 -31.85,-77.07 -31.85,-95.12 0,-39.33 30.37,-52.28 54.84,-63.53 31.29,-12.18 57.4,-23.93 57.4,-77.74 0,-16.81 -26.12,-87.43 -55.21,-162.6 -20.5,-52.01 -42.46,-109.98 -63.53,-170.68l-14.94 -41.33 36.38 23.65c221.73,141.04 390.09,424.83 495.27,704.57 4.51,11.05 8.39,21.94 13.03,32.72 1.89,8.78 5.09,17.95 8.41,27.52 75.24,211.81 114.21,414.71 114.21,542.9 0,132.29 -48.67,174.92 -96.91,217.18zm-2597.92 -44.13l20.14 -2.29 9.91 -1.3c352.49,-29.98 601.81,-342.74 820.96,-619.97 23.46,-31.22 47.68,-62.03 73,-91.89 8.32,-10.7 22.5,-19.22 41.63,-23.85l0 -33.45 -21.49 -3.43c-67.42,-11.74 -144,-24.19 -216.49,-33.72 -14.57,20.48 -27.64,41.97 -40.79,61.98 -100.77,155.47 -214.05,329.82 -350.09,410.94 -61.37,37.25 -150.15,54.08 -233.82,70.82 -91.81,16.37 -184.66,35.64 -238.07,77.32 -115.37,91.05 -190.64,235.44 -267.03,391.72 -2.26,5.95 -5.02,13.34 -9.35,19.13 -2.29,4.8 -5.12,10.02 -6.91,14.45 -1.53,4.82 -3.77,8.32 -4.53,12.11 -6.7,8.59 -9.82,17.67 -13.79,26.78 -40.59,83 -80.3,167.9 -131.34,245.52 -2.29,18.26 -6.15,36.4 -9.28,57.1 -23.93,121.9 -47.73,248.66 -96.34,384.53l-5.59 9.85 -65.87 0 -3.91 -5.96c-119.68,-160.83 -176.24,-467.09 -176.24,-623.74 0,-154.03 80.86,-487.22 239.77,-596.34l16 -11.6 7.09 19.38c16.77,47.63 27.05,78.64 35.47,106.26l24.3 -2.53 8.39 -0.5c3.79,-33.74 9.48,-64.96 14.47,-96.54 5.29,-18.9 7.95,-37.22 10.81,-55.85 3.29,-13.15 5.46,-26.12 9.45,-39.26 131.32,-570.99 473.1,-690.3 998.62,-690.3 16.37,0 108.53,10.39 206.32,21.27 87.82,10.88 188.43,21.66 204.13,21.66 192.79,0 362.87,-265.32 362.87,-473.12 0,-162.36 -92.47,-299.81 -155.17,-389.35 -33.18,-48.89 -55.14,-82.39 -55.14,-106.96 0,-38.67 24.79,-58.58 52.43,-74.41 4.97,-3.13 8.84,-6.13 15.76,-8.62 6.62,-4.6 15.98,-9.52 22.97,-14.92 26.68,-17.28 49.08,-39.9 49.08,-85.46 0,-83.39 -98.04,-262.59 -218.31,-451.19 -10.78,-15.53 -21,-32.35 -32.15,-47.85 0,-1.33 0,-2.19 -2,-2.19 -4.16,-8.52 -8.86,-15.95 -15.41,-23.44 -168.3,-255.18 -359.25,-506.03 -391.43,-543 -32.32,-35.75 -295.01,-271.06 -465.76,-388.2 -58.78,-39.26 -105.89,-66.75 -132.25,-66.75 -14.48,0 -53.79,19.66 -86.53,34.58 -50.14,23.36 -82.16,37.07 -101.91,37.07 -30.84,0 -98.73,-46.52 -166.05,-94.25 -11.62,-9.18 -20.51,-15.82 -27.02,-19.2 -20.53,-8.32 -589.13,-169.61 -707.14,-169.61 -14.85,0 -83.6,14.91 -142.5,27.39 -82.36,18.06 -132.45,29.32 -149.61,29.32 -91.32,0 -100.11,-275.52 -100.11,-277.02 0,-19.17 14.47,-54.38 36.97,-108.55 14.47,-36.69 33.67,-81.96 33.67,-97.57 0,-62.13 -18.17,-83.76 -61.86,-134.34 -25.7,-31.78 -63.03,-74.71 -107.39,-143.36l20.5 -20.9c107.62,62.13 218.81,138.53 317.04,206.59 96.34,66.29 194.58,133.81 215.57,133.81 28.56,0 109.88,-43.6 182.86,-82.47 99.07,-54.81 162.24,-86.49 194.95,-86.49 93.98,0 144.49,60.31 210.46,136.05 95.3,111.56 226.36,263.6 570.32,348.22 129.55,29.88 290.46,51.35 491.09,58.71l8.41 0 3.62 6.91c160.44,297.48 395.12,612.77 624.68,917.99 207.63,278.64 423.77,567.87 578.45,840.33 0.96,3.52 174.91,321.1 174.91,432.21 0,20.63 -6.15,33.48 -9.48,45.77 -0.84,5 -2.71,10.58 -4.06,17.18l-2.8 7.48 -50.61 21.96 -5.1 0c-87.82,-2.78 -138.87,-61.76 -181.73,-114.6 -37.52,-44.53 -69.76,-83.39 -117.42,-83.39 -33.77,0 -58.04,7.65 -73,23.06 -25.23,26.49 -21.46,73.58 -17.77,109.41 0.96,11.62 0.96,21.64 0.96,29.49 0,83.4 24,168.86 48.12,250.58 24,84.9 48.69,172.63 48.69,259.32 0,194.48 -99.17,312.12 -296.53,349.76l1.82 31.87c325.06,39.04 477.87,217.72 546.6,437.56 12.28,37.17 21.73,75.34 30.15,114.7 2.19,19.01 6.33,37.54 9.28,56.71 1.97,14.48 4.17,30.35 5.94,45.96 8.04,76.68 10.41,155.34 10.41,230.49 0,90.97 -81.4,355.14 -142.2,546.03 -5.69,18.44 -8.96,30.85 -12.18,35.75 1.03,9.57 8.86,15.73 23.33,26.49 13.63,10.49 32.81,25.52 32.81,49.92 0,223.33 -408.17,685.11 -673.39,802.71 -5.56,1.26 -9.72,2.56 -13.05,4.75 -36.13,14.16 -66.85,22.4 -94.82,22.4l-8.04 -0.77c-7.86,-0.64 -19.57,-3.77 -30.35,-7.48 -6.13,-3.5 -13.05,-5.86 -21,-10.66 -65.13,-35.64 -140.41,-121.13 -213.78,-222.2 -109.27,-156.2 -209.89,-346.99 -242.7,-449.59l-5.46 -19.93 20.51 0c207.06,-4.54 834.22,-223.04 834.22,-522.4 0,-17.21 -11.18,-100.87 -20.51,-174.52 -12.31,-82.76 -21.66,-159.53 -21.66,-179.86 0,-107.19 97.37,-114.49 170.53,-117.78 64.12,-3.67 95.6,-9.85 95.6,-36.97 0,-109.98 -36.58,-153.08 -118.35,-247.26 -31.43,-38.3 -71.94,-85.93 -120.1,-148.72l-54.77 0c-22.01,15.9 -58.41,40.59 -104.74,70.44 -17.87,13.89 -40.27,27.79 -64.59,44.6 -35.54,24.62 -73.92,51.55 -110.72,79.07 -51.98,36.21 -100.2,73.94 -141.73,109.56 -44.43,39.06 -80.44,75.54 -96.41,106.38 -8.35,13.05 -10.58,23.93 -10.58,34.71 0,3.77 0.91,8.39 0.91,13.79 1.33,12.38 7.01,28.11 12.11,41.89 5.62,19.03 10.71,37.56 13.05,55.51 0.5,2.46 0.5,6.99 0.5,9.45 0,44.06 -22.06,75.34 -65.99,97.47 -2.76,1.6 -6.92,3.96 -10.78,5.46 -38.68,15.26 -88.22,22.54 -150.15,24.88 -8.15,0.69 -15.31,0.69 -24.59,0.69 -22.1,0 -49.06,-3.03 -77.27,-6.08 -68.13,-9.26 -147.79,-28.82 -222.54,-62.57 -36.41,-15.8 -71.98,-36.21 -103.16,-59.86 -3.52,-3.5 -8.52,-7.58 -13.71,-10.68 -11.62,-10.86 -25.16,-21.47 -36.88,-34.32l-19.27 -21.83zm-1483.58 3375.4c-19.67,11.65 -39.34,23.83 -55.04,33.25 -167.53,108.85 -308.81,346.36 -399.84,515.42l-5.19 7.65 -68.28 0 -3.67 -9.53c-45.86,-113.4 -210.01,-341.52 -332.52,-458.47 -55.23,-53.73 -127.11,-100.8 -204.23,-149.11 -170.21,-111.28 -346.63,-225.5 -346.63,-429.75 0,-118.74 48.22,-169.96 155.81,-169.96 88.69,0 213.68,68.53 348.33,141.91 22.96,13.24 46.71,26.19 71.57,39.51 42.53,22.82 86.5,45.95 128,65.72 24.3,11.28 49.55,21.46 74.9,30.82 52.75,19.86 104.27,32.24 151.45,32.24 44.36,0 95.41,-13.89 150.62,-36.88 28.45,-10.75 56.17,-23.46 84.52,-36.97 54.74,-27.52 111.26,-58.34 165.09,-89.43 138.41,-75.66 268.89,-146.92 360.98,-146.92 152.81,0 152.81,85.93 152.81,169.96 0,225.43 -258.03,384.29 -428.69,490.55zm-1714.28 -2409.03l-4.09 5.96 -66.83 0 -3.29 -9.85c-32.81,-88.69 -47.58,-171.99 -64.49,-251.79 -11.74,-65.72 -24.39,-126.77 -43.39,-189.85 -47.19,-77.62 -87.58,-161.4 -125,-242.7 -2.36,-1.9 -2.36,-2.81 -3.59,-5.94 -4.82,-10.61 -11.81,-21.48 -17,-33.4 -1.72,-4.16 -4.56,-9.28 -6.45,-14.55 -3.86,-7.01 -7.09,-13.07 -9.35,-19.59 -76.77,-158.07 -155.62,-301.58 -271.19,-393.51 -54.27,-41.68 -147.86,-60.95 -238.07,-77.32 -84.04,-16.74 -172.08,-33.58 -235.61,-70.82 -134.64,-81.13 -248.29,-255.47 -347.64,-410.94 -14,-20.01 -25.82,-41.5 -41.43,-61.98 -72.91,9.53 -148.55,21.99 -217.55,33.72l-19.93 3.43 0 33.45c18.58,5.41 33.16,13.15 41.67,23.85 24,29.86 48.3,60.68 74.11,91.89 218.61,277.23 466.9,589.99 819.36,619.97l11.64 1.3 18.17 2.29 -20.63 21.83c-6.87,9.45 -17.57,17.6 -28.45,26.65 -7.36,6.7 -14.35,13.59 -21.36,18.34 -35.17,26.19 -73.08,47.18 -111.75,63.36 -73.84,33.45 -153.45,51.33 -217.96,59.08 -27.03,4.26 -51.89,6.08 -72.89,6.08l-21.54 0c-62.2,-3.03 -111.78,-10.31 -149.21,-25.25 -0.37,-0.32 -0.37,-0.32 -1.77,-1.19 -44.75,-17.37 -69.24,-43.73 -76.88,-80.61 -1.15,-6.52 -1.15,-14.28 -1.15,-21.46 0,-20.23 6.25,-43.13 12.97,-64.96 6.5,-17.4 11.22,-34.68 12.94,-48.49l0 -7.19c0,-13.15 -6.45,-29.95 -19.19,-47.29 -14.18,-23.16 -37.91,-48.1 -67.13,-75.34 -42.16,-37.73 -94.57,-79.24 -150.05,-119.9 -38.28,-27.89 -76.58,-56.05 -113.45,-80.64 -27.45,-17.3 -52.58,-36.53 -74.74,-51.15 -46.03,-29.86 -82.41,-54.54 -104.37,-70.44l-54.17 0c-48.49,62.79 -88.66,110.42 -121.4,148.72 -79.51,94.18 -115.42,137.28 -115.42,247.26 0,27.13 29.29,33.3 95.01,36.97 69.96,3.29 169.52,10.58 169.52,117.78 0,20.33 -10.78,97.1 -22.7,179.86 -9.25,73.65 -20.79,157.31 -20.79,174.52 0,299.36 628.16,517.87 835.65,522.4l19.64 0 -5.19 19.93c-33.21,104.47 -134.18,295.31 -243.86,450.99 -71.75,99.67 -147.02,185.15 -211.49,220.79 -8.24,3.5 -14.28,7.17 -21.46,10.66 -10.78,3.71 -21.73,6.08 -34.04,7.48 0,0 -2.46,0.77 -4.82,0.77 -28.08,0 -59.64,-8.25 -95.65,-22.4 -3.62,-2.19 -6.28,-3.5 -8.74,-3.5 -266.41,-117.36 -678.49,-580.63 -678.49,-803.97 0,-24.39 19.67,-39.43 34.04,-49.92 14.47,-10.76 21,-16.91 22.8,-26.49 -1.8,-4.9 -6.23,-17.3 -12.31,-35.75 -60.21,-190.88 -141.91,-455.05 -141.91,-546.03 0,-76.26 4.16,-155.12 11.81,-232 1.8,-17.32 5.1,-35.66 6.15,-52.57 3.13,-18.41 6.97,-36.77 10.76,-56.94 6.52,-33.45 15.61,-66.66 24.52,-100.2 70.42,-222.27 221.88,-404.67 550.66,-443.71l0 -31.87c-196.01,-37.64 -295.48,-155.28 -295.48,-349.76 0,-86.69 24.67,-174.41 48.86,-259.32 23.85,-81.72 48.22,-167.18 48.22,-250.58 0,-7.85 0,-17.87 2.39,-29.49 1.33,-35.84 3.57,-82.93 -18.27,-109.41 -16.52,-15.41 -40.73,-23.06 -74.21,-23.06 -48.32,0 -79.51,38.86 -119.01,83.39 -43.99,52.85 -92.87,111.83 -181.19,114.6l-3.4 0 -51.81 -21.96 -2.36 -7.48c-0.74,-6.6 -2.19,-12.18 -4.16,-17.18 -3.5,-12.29 -9.65,-25.13 -9.65,-45.77 0,-110.25 172.01,-428.69 174.94,-431.62 155.51,-273.06 370.33,-562.28 579.65,-840.92 227.88,-305.22 463.69,-620.51 624.61,-917.99l2.76 -6.91 9.35 0c198.75,-7.36 361.01,-28.82 490.53,-58.71 343.67,-84.62 474.05,-236.67 570.99,-348.22 65.32,-75.74 116.47,-136.05 209.42,-136.05 32.71,0 95.31,31.68 195.03,86.49 71.97,38.87 153.27,82.47 180.32,82.47 22.5,0 121.3,-67.52 218.9,-133.81 97.74,-68.06 208.66,-144.47 317.19,-206.59l18.92 20.9c-44.82,68.65 -81.2,111.58 -106.75,143.36 -43.69,50.58 -62.03,72.22 -62.03,134.34 0,15.61 19.2,60.88 34.25,97.57 22.5,54.18 36.11,89.38 36.11,108.55 0,1.5 -8.32,277.02 -99.84,277.02 -18.06,0 -67.22,-11.25 -148.45,-29.32 -60.03,-12.48 -127.25,-27.39 -142.67,-27.39 -119.34,0 -686.98,161.3 -710.33,170.65 -3.23,2.34 -13.45,8.98 -25.29,18.16 -66.82,47.73 -135.18,94.25 -166,94.25 -20.16,0 -51.81,-13.71 -100.87,-37.07 -32.37,-14.92 -74.44,-34.58 -89,-34.58 -25.06,0 -72.79,27.49 -129.89,66.75 -171.52,117.14 -434.45,352.46 -465.27,388.2 -32.15,36.97 -224.59,287.82 -394.01,543 -4.9,8.42 -9.85,15.41 -14.38,23.44 -1.5,0.86 -1.97,0.86 -1.97,2.83 -11.94,17.31 -23.73,35.1 -34.32,51.74 -118.27,187.1 -215.75,364.47 -215.75,446.66 0,46.82 23.9,70.15 51.99,87.43 7.19,4.72 14.45,8.78 21.44,12.94 2.46,1.33 4.92,2.49 7.58,3.62 29.42,17.95 60.04,38.01 60.04,79.4 0,24.57 -22.7,58.07 -56.42,106.96 -60.72,89.55 -153.85,227 -153.85,389.35 0,207.8 169.99,473.12 362.48,473.12 15.78,0 115.84,-10.78 203.59,-21.66 96.71,-10.88 189.93,-21.27 207.89,-21.27 525.78,0 866.44,119.31 997,695.59 3.82,9.58 6.28,19.6 8.55,29.32 5.93,27.5 10.61,56.07 16.34,85.56 3.13,22.96 7.36,46.89 9.28,71.48l11.65 0.5 23.04 2.53c8.34,-27.62 17.32,-58.63 33.65,-106.26l6.45 -19.38 16.37 11.6c160.44,109.12 240.88,442.31 240.88,596.34 0,156.65 -55.18,462.91 -175.55,623.74zm-860.68 498.45c-184.3,228.16 -617.98,760.28 -713.09,1505.61l-1.13 13.05 -57.31 0c-85.68,0 -169.89,-94.47 -212.92,-150.71 -60.72,-79.68 -105.35,-171.86 -105.35,-217.65 0,-30.35 21,-64.09 41.15,-100.53 21.64,-35.08 43.1,-72.09 43.1,-104.34 0,-59.76 -52.38,-162.46 -131.88,-256.63 -84.8,-98.78 -173.34,-160.34 -236.3,-160.34 -16.32,0 -122.04,22.87 -206.96,41.97 -121.03,27.41 -194.08,43.02 -211.81,43.02 -44.77,0 -237.29,-60.33 -255.75,-114.21 -29.78,-85.39 -80.64,-199.5 -135.28,-319.48 -122.07,-267.42 -274.58,-599.54 -274.58,-827.77l56.44 -581.58c-0.57,-117.07 -41.3,-153.48 -86.86,-191.11 -45.59,-42.26 -94.17,-84.89 -94.17,-217.18 0,-128.19 38.1,-331.09 111.75,-542.41 2.36,-6.05 3.89,-12.01 6.06,-18.43 5.16,-13.44 10.58,-25.75 15.97,-39.63 105.23,-280.53 273.52,-565.33 495.75,-707.23l36.28 -23.65 -13.71 41.33c-22.57,60.7 -44.16,118.67 -63.07,170.68 -29.31,75.17 -56.54,145.79 -56.54,162.6 0,53.81 27.23,65.55 57.6,77.74 22.01,11.25 55.11,24.2 55.11,63.53 0,18.04 -12.11,46.25 -33.11,95.12 -14.77,35.74 -31.58,80 -42.24,119.43 -1.33,6.06 -2.46,10.86 -2.46,16.72 -1.05,3.03 -1.05,6.15 -4.16,9.35 0,1.65 0,2.59 -0.76,4.46 -0.57,8.78 -2,18.53 -2.76,28.01 -15.14,98.02 -23.83,200.52 -29.98,299.25 -4.8,45.86 -7.28,92.58 -12.36,137.92l-12.7 438.07c0,12.97 5.48,1379.12 468.62,1379.12l303.57 0c93.14,0 167.26,148.72 234.94,292.13 37.64,77.53 73.01,149.88 109.04,198.74l761.19 -563.04 5.52 -4.7 246.09 -182.79 3.32 2.37 9.82 5.98c19.13,14.16 21.46,21.54 21.46,53.89 0,17.77 -21.46,43.39 -85.56,123.37zm1957.81 -4909.48c0,63.36 -65.03,148.19 -121.67,222.11 -34.14,46.05 -73.37,97.27 -73.37,117.26 0,28.92 25.26,35.82 79.51,43.1 51.37,4.56 115.54,11.62 115.54,77.51 0,54.84 -36.58,103.73 -71.18,156.5 -16.64,23.8 -34.61,48.69 -49.16,75.54 -234.09,419.71 -554.92,455.82 -838.38,455.82 -142.5,0 -153.65,-16.08 -163.47,-140.7 -2.46,-23.06 -6.15,-51.52 -9.94,-86 -82.24,9.8 -215.48,103.68 -295.82,161.28 -28.58,20.06 -49.75,35.08 -63.19,42.76 -36.95,21.43 -93.12,29.58 -149.19,37.61 -44.8,6.43 -93.61,12.6 -116.36,27.99 -9.94,6.15 -25.38,21.57 -42.56,43.5 -66.02,81.77 -170.68,249.6 -170.68,287.62 0,117.39 204.7,457.32 327.7,661.25 6.55,12.04 13.64,22.89 18.73,34.71 25.26,39.63 46.35,73.65 57.97,98.07 3.69,4.93 6.25,10.21 8.39,14.74 1.33,1.97 1.33,3.87 3.77,5.69l0.96 4.06 -0.96 4.83 0 2.8c-3.77,15.8 -18.32,32.37 -47.8,32.37 -32.08,0 -789.13,-368.95 -936.25,-562.6 -60.87,-82.26 -62.1,-279.97 -62.1,-281.94 0,-91.15 41.79,-262.08 152.71,-356.27l12.08 -10.39 8.49 12.75c26.19,35.1 46.72,68.65 75.67,120.66 8.88,13.42 17.77,29.12 27.99,45.86 75.32,-178.04 254.42,-335.78 463.76,-459.71 107.3,-64.46 218.48,-118.3 333.65,-162.71 5,-2.85 11.08,-6.54 18.04,-8.91 4.75,-1.79 10.71,-3.37 15.98,-5.66 3.22,-1.33 5.02,-1.7 7.88,-3.13 192.78,-73.08 370.89,-114.6 483.41,-114.6 29.98,0 65.53,10.78 110.45,34.53l8.52 3.5 0 64.46 -3.8 3.59c-26.65,26.21 -92.08,96.86 -92.08,129.16 0,33.37 14.45,48.42 54.17,48.42 26.17,-1.24 201.68,-128.52 289.4,-220.7 -15.32,-12.92 -29.03,-17.65 -45.86,-17.65 -16.71,0 -37.34,4.24 -69.19,11.62l-6.43 2.83 -5.78 -3.57c-3.96,-2.48 -6.43,-3.89 -9.25,-6.15 -17.31,-8.52 -28.56,-16.84 -28.56,-49.09 0,-82.36 229.56,-300.96 328.83,-390 128.96,-116.4 340.28,-290.85 391.32,-290.85 78.11,0 78.11,56.54 78.11,86.12zm375.35 222.11c-57.47,-73.92 -121.45,-158.74 -121.45,-222.11 0,-29.58 0,-86.12 78.11,-86.12 94.79,0 719.05,555.48 719.05,680.84 0,32.25 -11.1,40.57 -27.15,49.09 -2.66,2.26 -6.45,3.66 -9.77,6.15l-6.6 3.57 -6.45 -2.83c-31.85,-7.38 -51.42,-11.62 -67.79,-11.62 -17.28,0 -31.75,4.73 -46.32,17.65 89.35,92.18 263.7,219.46 289.91,220.7 39.31,0 55.11,-15.04 55.11,-48.42 0,-32.3 -68.16,-102.95 -93.64,-129.16l-4.16 -3.59 0 -64.46 8.07 -3.5c47.27,-23.75 79.88,-34.53 111.75,-34.53 112.71,0 291.76,41.52 484.94,116.03l2.74 0.37c7.85,3.01 14.39,5.2 22.42,8.91 6.13,2.24 13.15,4.63 19.2,6.99 110.33,44.4 222.66,100.01 328.56,162.71 209.97,123.93 390.59,281.67 464.51,459.71 9.75,-16.74 19.59,-32.45 26.12,-45.86 30.81,-52.01 50.48,-85.56 75.84,-120.66l9.35 -12.75 12.08 10.39c111.75,94.2 152.91,265.12 152.91,356.27 0,1.97 0,199.67 -62.72,283.36 -146.31,192.22 -903.71,561.17 -937.03,561.17 -27.64,0 -40.69,-14.99 -45.81,-30.58 0,-1.79 -1.03,-2.93 -1.03,-4.6l-1.67 -4.83 2.71 -4.06c0.52,-0.86 1.9,-1.82 2.88,-3.72 0.54,-3.5 2.24,-6.99 6.04,-11.78 10.65,-21 28.45,-50.51 50.95,-86.23 8.02,-16.77 18.34,-33.21 29.98,-51.47 121.11,-203.93 326.39,-543.86 326.39,-661.25 0,-38.03 -103.36,-205.86 -170.28,-287.92 -18.64,-21.64 -33.21,-37.05 -43.5,-43.2 -23.82,-15.39 -70.54,-21.56 -117.33,-27.99 -53.81,-8.02 -108.92,-16.17 -146.39,-37.61 -14.92,-7.68 -35.54,-22.7 -63.53,-42.76 -81.31,-57.6 -212.83,-151.48 -296.49,-161.28 -4.19,34.48 -6.45,62.94 -8.89,86 -11.18,124.62 -21.36,140.7 -164.53,140.7 -283.93,0 -604.64,-36.11 -837.42,-455.82 -16,-26.85 -33.28,-51.74 -50.98,-75.54 -36.97,-52.78 -70.13,-101.66 -70.13,-156.5 0,-65.89 63.98,-72.96 115.05,-77.51 53.68,-7.28 80.86,-14.18 80.86,-43.1 0,-19.99 -39.76,-71.21 -74.46,-117.26zm4746.04 2656.28l2.27 -33.28 1.3 -22.99 2.95 -47.66c0,-711.59 -670.93,-1361.49 -1263.95,-1933.62 -430.19,-416.78 -803.68,-776.25 -803.68,-1067.07 0,-156.04 213.59,-227.52 357.04,-227.52 28.62,0 55.85,1.63 82.9,5.96 20.51,2.27 42.56,5.88 63.26,10.02 25.52,6.64 51.79,12.48 75.17,20.35 229.29,77.54 416.58,259.81 574.22,413.36 143.11,138.54 264.74,257.94 370.36,257.94 68.06,0 156.31,-90.8 218.39,-173.21 -327.06,-609.69 -769.66,-1148.06 -1298.86,-1585.54 -192.7,167.48 -374.26,316.47 -537.78,316.47 -207.26,0 -394.33,-30.89 -418.09,-409.56l-1.52 -16.84 117.53 0c22.2,0 85.39,14.94 148.62,28.82 56.55,12.87 116.38,27.15 133.32,27.15 71.28,0 179.29,-56.96 314.28,-135.48 -877.67,-643.78 -1960.5,-1024.27 -3132.37,-1024.27 -1171.91,0 -2254.79,380.49 -3132.46,1024.35 135.58,78.47 243.05,135.4 316.05,135.4 14.77,0 76.31,-14.28 131.92,-26.1 65.06,-14.94 126.3,-29.88 147.66,-29.88l118.97 0 -1.06 16.84c-25.6,378.67 -213.38,409.56 -418.77,409.56 -163.42,0 -346.16,-149.07 -538.2,-316.57 -529.12,437.43 -971.7,975.7 -1298.75,1585.2 62.03,82.56 150.1,173.65 216.49,173.65 108.65,0 231.18,-119.4 371.39,-257.94 160.17,-154.68 347.76,-338.57 579.8,-414.61 23.8,-7.63 49.16,-14.35 74.11,-19.47 20.9,-4.8 42.44,-8.49 63.33,-10.86 25.55,-3.13 51.27,-4.75 78.98,-4.75 143.87,0 355.76,71.48 355.76,227.52 0,290.82 -372.03,650.3 -801.95,1067.07 -592.45,572.13 -1263.95,1222.03 -1263.95,1933.62l3.2 45.39 0.57 23.44 2.46 35.1 50.12 745.24c0,170.46 -53.76,432.19 -98.88,598.41 690.4,2125.91 2687.13,3662.94 5043.21,3662.94 2355.91,0 4352.57,-1536.83 5043.07,-3662.49 -45,-166.2 -97.06,-428.13 -97.06,-597.83l48.61 -746.27z"/>
  <path class="fil0" d="M8503.02 2792.13c-1525.46,0 -2959.57,594.05 -4038.21,1672.67 -1078.65,1078.65 -1672.7,2512.78 -1672.7,4038.21 0,1525.44 594.05,2959.57 1672.7,4038.21 1078.64,1078.65 2512.76,1672.71 4038.21,1672.71 1525.43,0 2959.56,-594.06 4038.21,-1672.71 1078.62,-1078.64 1672.65,-2512.78 1672.65,-4038.21 0,-1525.43 -594.03,-2959.56 -1672.65,-4038.21 -1078.65,-1078.62 -2512.78,-1672.67 -4038.21,-1672.67zm0 172.3c3058.89,0 5538.58,2479.7 5538.58,5538.58 0,3058.89 -2479.7,5538.61 -5538.58,5538.61 -3058.89,0 -5538.61,-2479.73 -5538.61,-5538.61 0,-3058.89 2479.73,-5538.58 5538.61,-5538.58z"/>
  <path class="fil0" d="M10547.43 9429.91c-3.52,-3.52 -8.51,-7.58 -13.71,-10.68 4.26,3.1 7.95,8.23 12.66,10.68l1.05 0z"/>
  <path class="fil0" d="M10412.14 8735.81c-62.92,0 -81.99,-17.42 -139.05,-144.04 -56.12,68.72 -78.89,105.62 -118.67,165.98 154.59,158.59 161.65,177.05 279.45,177.05 100.8,0 306.83,-67.64 305.97,-204.4l0 -249.02c-96.25,0 -125.15,0 -178.06,1.03 -44.85,160.24 -0.93,253.41 -149.64,253.41z"/>
  <path class="fil0" d="M6598.17 8735.81c-146.14,0 -105.51,-93.16 -149.44,-253.41 -52.7,-1.03 -82.28,-1.03 -176.19,-1.03l0 249.02c-2.27,136.76 203.12,204.4 303.72,204.4 118.76,0 126.57,-18.46 279.25,-177.05 -38.74,-60.36 -61.04,-97.26 -117.6,-165.98 -57.55,126.62 -77.09,144.04 -139.74,144.04z"/>
  <path class="fil0" d="M6668.38 9174.17c-54.25,-41.7 -147.76,-61 -237.87,-77.39 -83.99,-16.69 -171.93,-33.55 -235.42,-70.82 -134.52,-81.13 -248.09,-255.55 -347.36,-411.04 -13.98,-20.04 -25.77,-41.52 -41.38,-62.03 -72.81,9.52 -148.4,22.01 -217.38,33.75l-19.91 3.42 0 33.45c18.59,5.44 33.16,13.15 41.65,23.88 23.97,29.88 48.27,60.68 74.04,91.91 218.43,277.31 466.5,590.19 818.66,620.15l11.65 1.33 0 -3.87 12.55 2.54c147.66,30.37 291.54,106.34 411.71,208.34 -76.72,-158.13 -155.49,-301.7 -270.94,-393.62z"/>
  <path class="fil0" d="M6465.07 9431.72c8.41,-5.96 14.18,-12.48 19.08,-20.14 -7.36,6.7 -14.35,13.59 -21.32,18.34 0.84,1.4 2.24,1.8 2.24,1.8z"/>
 </g>
</svg>
