<?xml version="1.0" encoding="UTF-8"?>
<!DOCTYPE svg PUBLIC "-//W3C//DTD SVG 1.1//EN" "http://www.w3.org/Graphics/SVG/1.1/DTD/svg11.dtd">
<!-- Creator: CorelDRAW 2021 (64-Bit) -->
<svg xmlns="http://www.w3.org/2000/svg" xml:space="preserve" width="212.252mm" height="212.699mm" version="1.1" style="shape-rendering:geometricPrecision; text-rendering:geometricPrecision; image-rendering:optimizeQuality; fill-rule:evenodd; clip-rule:evenodd"
viewBox="0 0 11107.55 11130.94"
 xmlns:xlink="http://www.w3.org/1999/xlink"
 xmlns:xodm="http://www.corel.com/coreldraw/odm/2003">
 <defs>
  <style type="text/css">
   <![CDATA[
    .fil0 {fill:white}
   ]]>
  </style>
 </defs>
 <g id="Capa_x0020_1">
  <metadata id="CorelCorpID_0Corel-Layer"/>
  <path class="fil0" d="M3998.98 9252.83l343.99 121.11 -89.97 294.38c-289.31,-49.05 -240.88,-124.61 -254.02,-415.49zm4723.66 -1256.5c44.27,17.34 209.32,145.12 252.13,181.82 -20.83,58.08 -129.4,177.58 -175.74,220.42 -91.96,-39.2 -145.88,-139.56 -223.48,-198.88 40.59,-83.15 95.97,-133.63 147.09,-203.36zm-716.38 -431.28c320.14,87.17 85.1,72.39 490.92,78.25 -43.93,68.62 -135.21,187.27 -196.62,246.79l-294.3 -325.04zm1235.84 235.75c-122.86,-23.55 -452.09,-281.48 -612.89,-339.07 -33.93,41.65 -14.17,42.46 -70.23,71.73l-62.86 -425.94c63,27.2 94.41,56.83 145.44,83.34 70.53,36.65 94.93,15.8 168.85,52.63 111.13,55.35 174.96,133.24 299.96,168.43 33.25,-133.35 146.8,-280.81 181.98,-436.64l280.24 128.31c-14.51,165.65 -243.91,557.8 -330.51,697.21zm-3204.12 -433.64l857.42 388.32 373.07 -365.2c56.93,27.58 406.75,464.52 437.5,532.55 -38.24,26.86 -45.13,41.52 -94.43,57.33 -66.68,-114.65 -87,-110.82 -148.95,-182.45 -18.12,-20.94 -7.92,-12.35 -25.4,-30.92 -32.34,-34.38 -6.83,-13.88 -41.25,-36.76 -74.71,37.45 -121.48,83.96 -184.19,134.6 -39.99,32.29 -51.93,39.8 -83.92,63.88 -16.28,12.25 -22.82,15.97 -40.93,32.46 -34.83,31.71 -19.56,12.78 -46.83,51.03l404.42 607.67 -87.78 69.75 203.53 317.28c102.34,-26.87 224.59,-141.41 324.9,-188.41 39.07,76.91 180.95,147.05 204.89,227.57 -100.07,85.09 -564.88,379.29 -698.21,405.85 -16.35,-51.19 -313.49,-570.15 -346.64,-604.88l-616.55 217.5 98.15 367.8 308.19 -81.36c34.73,62.25 97.68,209.69 119.37,289.5 -175.31,59.76 -577.03,181.83 -757.44,176.93l-65.98 -684.41c-7.07,-2.33 -744.94,24.87 -865.29,22.43l-26.8 388.7 425.09 13.87 8.55 307.45c-153.68,33.54 -637.45,-18.16 -835.7,-50.96l-102.93 -29.95 120.92 -687.93c-118.04,-34.27 -251.34,-56.97 -370.3,-93.21 -104.5,-31.82 -270.66,-109.3 -358.21,-120.61l-120.9 268.96c-36.17,-181.4 -67.67,-790.46 -23.29,-987.22 22.35,-99.1 75.93,-161.59 105.81,-244.84 63.93,15.51 91.06,37 142.36,74.07l-124.7 370.88c96.58,56 250.83,204.94 355.01,221.46l341.48 -830.9c-125.88,-116.61 -278.01,-215.79 -411.91,-333.74 61.01,-154.5 519.38,-495.42 771.97,-541.39l37.21 130.82 -448.24 273.93c37.51,112.73 143.71,202.94 201.25,307.38 109.88,-29.11 250.2,-143.53 368.17,-196.65 189.5,-85.33 265.35,-71.49 486.31,-88.86l51.8 -586.41c347.08,3.07 554.35,108.42 812.03,244.96l-46.01 144.7c-113.01,-9.88 -336.55,-125.58 -469.73,-162.05l-116.91 419.49zm1717.64 -770.47c466.89,73.75 692.84,334.27 759.01,760.69 13.15,84.75 2.16,119.64 21.06,211.23 -152.47,11.55 -446.92,-48.32 -559.81,-192.64 -136.41,-174.4 25.31,-334.09 -150.7,-606.78 -14.35,-22.23 -29.72,-45 -40.01,-67.76 -27,-59.82 -10.93,-41.22 -29.56,-104.73zm-394.68 143.07l-4.61 153.99c-116.02,-22.13 -44.5,-54.96 -257.23,-190.25 -64.69,-41.14 -81.75,-32.4 -78.35,-93.21 4.91,-87.82 131.14,-92.46 190.28,-38.22 68.28,62.62 95.99,129.64 149.91,167.69zm0 0c-42.44,-76.63 -61.63,-116.06 -67.8,-225.45 89.35,10.57 201.61,48.76 287.31,75.98 99.67,31.66 121.1,93.04 171.6,177.49 130.38,217.99 119.59,312.18 100.29,620.47 -108.29,-28.38 -236.9,-195.67 -305.59,-265.51 -32.6,-33.15 -117.21,-106.28 -131.15,-148.31 -40.83,-123.1 36.07,-138.39 -54.67,-234.67zm-1652.06 454.58c-591.52,77.3 -427.45,156.02 -712.94,247.56 -49.43,-44.98 -59.49,-52.72 -86.33,-112.97 80.55,-92.5 322.83,-180.39 411.37,-276.92l-78.57 -320.37c-138.89,24.73 -496.27,208.93 -589.33,273.1 -175.56,121.07 -304.93,248.43 -412.9,434.96l16.98 19.91c92.11,95.29 319.03,238.83 405.85,330.86l-252.03 633.6c-78.46,-29.06 -117.09,-69.09 -165.24,-115.32l121.55 -351.44c-44.49,-47.58 -226.12,-158.93 -296.23,-182.31 -189.24,243 -236.21,376 -215.94,790.89 14.81,302.95 11.85,684.49 54.35,976.16 -71.56,-16.46 -207.05,-62.18 -248.81,-126.97 -0.04,-122.16 -9.38,-290.46 1.06,-407.27 9.93,-111.1 88.92,-209.08 124.05,-313.09 -56.93,-20.93 -91.72,-43.78 -140.94,-69.06 0.82,-316.5 108.43,-704.44 213.92,-955.35 90.15,-214.4 173.91,-381.19 324.3,-544.99 54.24,-59.07 81.43,-102.35 137.29,-158.12 538.76,-537.77 1831.15,-765.61 2649.76,-227.58 146.25,96.13 622.94,554.94 747.23,692.16 51.29,56.63 89.86,98.35 141.42,154.23l566.52 615.1c100.67,100.24 200.45,195.21 292.94,290.88 -68.16,61.84 -181.33,204.1 -252.7,251.1l-252.63 -237.02c-73.55,-69.29 -179.55,-216.64 -269.5,-253.62 -86.86,89.88 -279.84,241.13 -396.91,305.58 -71.39,-66.5 -312.95,-426.63 -357.89,-527.57 42.06,-43.34 135.43,-124.69 188.89,-148.66 54.01,30.29 208.15,218.37 235.43,261.38 90.51,-30.9 171.51,-159.14 237.33,-223.48 -26.45,-56.81 -84.39,-118.45 -131.87,-174.97 -45.09,-53.69 -93.31,-115.98 -140.71,-173.16 -76.3,-92.06 -217.48,-287.82 -293.73,-347.85l-404.39 397.21 -708.37 -320.8 62.1 -205.25 453.27 165.57 124.95 -348.9c-341.65,-165.48 -598.92,-338.9 -1055.8,-296.95l-46.82 579.74zm2637.87 -761.35c140.11,94.01 402.29,372.3 540.5,489.78 -28.27,92.3 -72.49,172.64 -100.37,259.51 -201.68,-2.4 -388.13,-240.25 -521,-409.16l-64.96 -98.65 167.17 13.3 -21.33 -254.78zm64.27 -55.78c212.71,50.9 414.4,84.3 624.96,142.45 -36.22,107.82 -74.03,238.62 -126.19,342.62 -83.73,-13.01 -301.59,-254.89 -389.32,-343.99 -88.97,-90.35 -81.82,-61.43 -109.46,-141.07zm-1704.86 -130.8c36.67,61.74 54.4,144.11 30.53,219.55 -55.87,19.38 -364.04,-95.23 -364.05,-95.24 -51.33,-51.74 -10.25,-72.09 -3.89,-79.16 29.11,-32.41 266.21,-58.54 337.42,-45.14zm131.37 -82.19c87.06,-31.56 66.84,-62.62 176.34,-70.75 59.06,77.49 69.67,70.08 99.73,168.58 18.34,60.12 51.43,201.43 -18.95,231.83 -71.84,31.02 -179,-43.43 -209.75,-76.1 -69.66,-74.02 -46.72,-134.69 -47.37,-253.56zm-863.76 149.32l-6.66 -91.12c69.16,-5.29 126.18,7.14 192.16,14.6 89.28,10.08 104.96,20.38 105.27,108.67 -46.54,7.54 -252.31,-10.22 -290.77,-32.15zm-2284.63 -89.12l81.26 328.86c-114.32,41.73 -330.84,228.52 -508.13,290.08 -60.13,-95.1 -162.11,-371.83 -161.33,-519.66 0.38,-72.22 0.71,-64.78 71.11,-78.13l517.09 -21.16zm1978.7 103.61l4.91 -203.66c56.78,16.53 104.01,34.9 157.11,56.06 83.94,33.44 81.7,31.34 88.16,135.17l-250.18 12.43zm3450.65 -155.33l102.14 22.33c-13.65,117.5 -68.73,210.25 -109.35,301.67 -242.83,-36.34 -383.25,-303.95 -395.41,-543.1 211.07,-33.62 230.09,-28.87 431.66,11.43l-29.04 207.67zm-1937.28 -534.73c152.83,44.18 215.41,203.26 316.93,264.07 209.88,125.71 -220.72,-238.28 337.15,101.22 108.91,66.28 241.77,151.6 333.69,220.72 115.48,86.86 162.4,234.04 143.69,416.07 -85.02,18.3 -153.92,1.97 -232.25,-13.27 -138.86,-27.02 -271.05,-161.55 -282.43,-256.15 -7.54,-62.69 20.49,-138.63 -10.02,-191.5 -36.89,-63.94 0.92,-10.6 -43.88,-38.43 30.05,111.72 14.43,263.74 -34.1,373 -266.62,81.13 -458.51,-27.51 -530.36,-225.84 -128.39,-354.39 -89.41,-367.66 1.59,-649.87zm-3034.33 341.88c117.08,-61.63 397,-221.24 535.2,-238.16 85.31,99.01 159.9,405.32 137.89,580.71 -135.25,23.36 -456.93,-11.3 -598.63,-31.31l-74.46 -311.24zm5566.71 713.34l-567.31 -174.24c55.38,-129.42 68.54,-155.21 106.34,-316.07 84.52,4.32 188.51,48.86 250.81,18.37l53.05 -369.03 302.36 4.78c12.25,162.96 -93.36,705.63 -145.26,836.21zm-2058.09 -1323.97l104.56 153.12c2.35,3.64 5.01,8.22 7.43,11.87l14.42 -49.62c421.25,45.55 395.36,70.83 632.73,271.32 81.11,68.51 166.52,148.38 226.86,234.86 38.46,55.12 130.06,247.78 83.67,337.33 -106.2,56.37 -240.15,30.04 -340.96,-22.25 -175.89,-91.22 -405.87,-343.5 -495.24,-562.94 -10,-24.55 -19.54,-49.17 -32.31,-77.03 -11.39,-24.85 -6.5,-14.48 -17.3,-35.84l-18.8 -35.37c-18.38,27.44 -6.93,58.4 -6.92,58.41l72.6 236.37c-243.02,6.85 -573,-116.46 -609.27,-441.92 -9.9,-88.86 12.47,-182.31 82.06,-239.38 104.15,46.02 206.13,126.1 296.49,161.07zm1196.59 2.67c224.53,-26.79 337.57,-57.14 518.19,37.34 -20.15,15.69 -3.14,7.82 -36.97,19.84l-169.73 21.18 2.94 402.87c-171.92,-1.19 -221.05,-234.46 -314.43,-481.23zm-6066.55 -326.36c110.27,-40.52 472.68,-51.86 599.19,-37.72l76.31 306.76c-151.93,86.86 -328.7,238.8 -514.34,304.01 -3.27,-3.77 -7.83,-14.77 -9.17,-11.82 -9.91,21.75 -178.12,-378.86 -151.99,-561.23zm4869.96 323.68l-69.24 -77.13c-77.01,-84.28 -149.82,-118.98 -197.39,-252.4 32.11,-30.34 49.28,-36.43 71.11,-64.95 15.4,-20.12 26.47,-53.39 46.72,-81.67 241.52,31.55 412.93,137.27 497.58,349.33 19.11,47.86 66.14,158.68 65.66,213.35 -187.58,-23.21 -239.94,-44.57 -414.44,-86.54zm331.73 -325.33c163.38,-22.16 232.58,-37.19 362.62,39.18 71.66,42.09 215.22,158.89 254.6,207.24 112.83,138.52 173.96,157.6 223.4,236.59 59.46,95 114.1,199.22 144.04,325.26 -136.45,11.23 -306.34,-3.73 -405.94,-44.9l-204.17 -126.32c-276.32,-189.94 -284.19,-311.21 -374.55,-637.06zm-4123.12 -187.16c96.05,-63.25 452.82,-244.72 550.46,-251.06 95.53,125.14 122.96,380.64 138.4,578.16 -172.5,23.7 -430.7,-4.39 -607.45,-19.8l-81.41 -307.3zm3187.34 -1.65c-42.39,-263.86 349.39,-319.44 391.22,-67.22 43.26,260.9 -353.36,302.86 -391.22,67.22zm1788.72 -110.77c5.29,-2.88 13.54,-11.4 16.89,-6.39 3.42,5.11 23,-8.32 33.45,-11.04 8.27,-2.15 41.12,-8.86 48.81,-10.2 32.15,-5.61 72.76,-12 118.16,-9.82 39.94,63.07 75.75,227.04 68.07,326.64l241.46 -19.9c-29.34,76.58 -57.39,158.31 -106.45,210.3 -146.81,-62.15 -165.59,-133.88 -218.99,-225.51 -93.95,-161.2 -156.46,-166.77 -201.39,-254.07zm-713.6 -59.01c160.35,17.4 189.5,-5.03 343.65,36.71 159.07,43.07 419.31,118.86 503.49,253.82 40.74,65.32 96.92,192.83 72.34,288.41 -82.69,44.45 -237.74,14.11 -337.14,-4.29 -48.02,-8.89 -92.33,-27.06 -132.01,-52.21l-210.92 -177.78c-50.55,-52.79 -152.64,-128.86 -182,-189.67 -22.45,-46.51 -39.29,-108.22 -57.41,-154.99zm1342.13 -12.15l288.61 -80.47c73.48,144.69 99.99,608.36 109.58,812.69l-409.12 25.17c-99.88,-129.01 -77.72,-60.38 -159.3,-150.84l56.38 -71.83c25.51,-29.72 32.46,-37.86 50.53,-77.28 51.93,-113.25 -1.96,-103.32 112.36,-142.05l-49.04 -315.38zm-2041.62 -76.54c-5.48,-62.44 81.47,-154.78 166.05,-146.75 67.07,6.36 177.87,63.5 227.02,91.17 159.81,89.95 287.55,140.67 326.92,322.31 11.91,54.92 39.46,128.5 -162.14,139.62 -93.46,5.15 -168.95,-32.24 -230.44,-81.13 -61.46,-48.87 -321.93,-262.71 -327.41,-325.22zm1417.1 -267.84c81.31,43.89 176.31,223.52 182.09,310.48 -150.48,64.79 -323.1,31.73 -455.29,-34.48 -149.72,-74.99 -173.64,-123.67 -209.12,-345.61 130.78,-0.27 390.17,19.87 482.32,69.62zm-1254.77 23.96c26.98,-95.79 45,-142.6 85.55,-230.05 147.56,33.42 343.36,70.26 466.16,134.88 60.15,31.65 143.71,93.77 176.91,136.32l74.88 144.31c22.14,143.85 -408.23,34.34 -464.26,7.37 -114.53,-55.13 -215.24,-149.07 -339.24,-192.83zm-5049.42 -400.28c131.57,-31.41 430.05,-47 572.2,-35.12l77.83 333.82c-138.47,66.61 -339.27,244.27 -506.82,280.66 -42.65,-178.36 -159.79,-347.92 -143.21,-579.36zm3017.13 1271.85c3.35,-3.87 8.86,-14.44 10.51,-11.22 14.97,29.23 17.6,-19.49 19.92,-22.33 12.41,-15.24 4.33,-1.34 25.14,-33.02 61.32,-93.42 22.65,-105.02 136.32,-184.42 -154.86,23.15 -142.43,102.29 -211.77,138.21 -19.29,-134.5 -26.51,-269.04 -37.71,-404.67 -17.76,-215.04 -21.27,-208.71 64.33,-372.26 126.59,-241.88 -190.05,-520.44 246.31,-565.08 236.84,-24.22 573.02,28.31 771.47,109.09 117.97,48.03 151.02,110.62 209.48,232.22 51.27,106.64 86.42,214.83 133.49,327.88 114.25,274.36 145.43,420 39.48,724.56 -77.68,223.31 -170.5,435.5 -347.05,537.14 -202.22,116.41 -457.65,163.48 -707.03,87.28 -282.05,-86.19 -310.67,-239.48 -352.89,-563.39zm3246.73 -1234.2c-69.53,66.44 -327,87.2 -358.52,-23.43 -19.47,-68.33 18.39,-233.49 235.22,-258.01 24.31,88.28 139.06,200.43 123.3,281.44zm-5215.9 -261.18c82.39,-70.85 401.42,-231.98 521.83,-234.74 75.21,86.04 152,428.56 137.33,575.34 -114.49,26.22 -460.98,-7.29 -587.42,-23.48l-71.74 -317.12zm1352.29 383.68c-19.84,-311.75 179.16,-700.9 322.85,-854.95 326.29,-349.86 1220.12,-531.5 1752.04,-126.07 247.55,188.68 312.98,373.45 450.9,710 46.84,114.28 133.73,349.56 37.12,474.56 -0.15,0.19 -257.25,247.34 -358.57,221.89 -203.44,-51.09 -304.55,-536.63 -479.32,-687.11 -164.17,-141.34 -719.26,-239.88 -988.04,-160.87 -433.85,127.53 -146.95,396.8 -736.98,422.55zm4131.32 -500.86c100.4,-35.15 176.08,-106.92 281.04,-137.6 98.38,205.07 210.37,405 274.54,642.47 -59.73,47.12 -522.01,202.35 -625.04,224.23l-95.72 -115.1c105.14,-171.42 114.07,-149.43 43.72,-214.67l249.58 -103.11c-14.91,-95.88 -97.14,-196.31 -128.13,-296.21zm-789.8 98.97c44.2,102.54 68.2,289.1 149.21,349.27 104.05,77.3 313.11,27.49 451.05,47.98 31.23,280.1 -1007.48,56.43 -1166.53,-70.81 -45.26,-36.2 -38.94,-35.48 -63.99,-85.23 -65.97,-131 -103.92,-80.28 -113.22,-177.62 -6.73,-70.45 2.77,36 5.31,-45.62 2.16,-69.29 24.85,18.09 -8.29,-32.88 -13.9,-21.38 -28.54,-1.78 -52.34,-92.58 -10.35,-39.48 -16.12,-83.95 -14.35,-129.99 368.77,-77.29 591.87,17.2 792.89,216.14 65.12,1.03 20.37,15.7 50.96,-13.31 -18.54,-20.98 -104.55,-139.15 -106.1,-144.19 10.45,-118.86 375.57,-93.42 386.24,103.48 -102.47,99.41 -171.2,78.81 -310.83,75.35zm-338.37 -272.18c59.52,-263.44 205.85,-245.29 296.96,-296.56l115.95 84.6c97.07,85.91 -4.21,336.49 -412.9,211.96zm-4599.67 -196.3c128.97,460.9 920.34,3605.81 903.06,3649.11l-214.63 231.38 -909.82 -3609.56c-19.11,-75.92 -66.13,-185.4 -28.79,-244.01 50.66,-79.52 182.51,-52.18 250.18,-26.92zm4037.86 12.73c175.89,-141.32 385.45,-91.04 595.54,-14.54 -26.33,55.94 -56.72,107.78 -88.11,169.78 -60.21,3.77 -143.87,-15.92 -231.41,-7.72 -64.86,6.08 -129.68,29.16 -206.27,36.8l-32.89 -50.85c-37.83,-70.63 -41.99,-82.53 -36.87,-133.48zm270.57 -153.73c17.57,-153.22 91.23,-282.24 233.09,-333.47 28.23,56.39 120.12,115.88 167.13,157.9 58.74,52.48 100.23,106.22 156.21,155.01 -81.95,76.14 -178.55,77.81 -277.01,78.95 -113.31,1.31 -191.41,-3.33 -279.42,-58.39zm-507.64 11.66c36.1,-199.29 357.09,-478.9 611.08,-371.29 -38.58,116.94 -125.83,273.13 -221.28,332.17 -51.77,32.03 -131.14,62.59 -198.69,81 -138.29,37.69 -108.66,13.35 -191.11,-41.88zm1231.51 -417.81c38.88,-57.27 168.2,-165.38 238.39,-199.28 47.14,52.9 68.21,69.73 126.45,127.41l324.68 404.18c-69.45,77.37 -179.76,157.99 -271.41,234.6 -258.98,216.48 -323.63,338.43 -296.12,-106.73 8.9,-144 75.89,-104.01 118.49,-207.56 -95.5,-85.12 -161.21,-163.64 -240.48,-252.62zm-1447.66 243.1c3.5,-86.11 79.82,-307.07 123.51,-363.53 56.83,-73.43 260.25,-140.06 334.47,-128.43 -8.22,143.24 -32.4,248.24 -114.36,327.8 -50.64,49.17 -195.05,179.1 -263.74,206.33 -29.75,-17.01 -45.26,-29.61 -79.89,-42.17zm-355.39 -280.03c-0.5,-225.74 160.86,-421.66 311.67,-425.2 120.95,192.73 66.43,413.21 -124.07,547.35 -96.93,68.25 -74.99,57.09 -186.44,18.71l-1.15 -140.87zm-294.53 118.9c-31.76,-70.52 -68.73,-274.1 -69.97,-359.18 -1.7,-116.09 104.82,-231.05 208.78,-223.92 209.02,14.34 27.16,524.34 -37.22,599.84l-101.58 -16.75zm742.78 -282.3c0.4,-126.33 -46.44,-186.99 -80.38,-273.43 73.66,5.87 295.25,114.7 346.67,164.81l-266.3 108.62zm467.02 -812.5c141.57,47.19 657.32,382.37 714.14,458.98l-417.3 514.08c-218.65,14.48 -206.33,-4.53 -393.17,75.77 9.71,-53.18 26.91,-128.54 40.79,-184.28 23,-92.37 1.31,-29.62 56.9,-89.21 2.54,-2.72 6.55,-6.5 9.01,-9.34l184.89 -288.58c-74.25,-71.99 -233.58,-132.49 -296.94,-184.61l67.89 -234.62c25.46,-62.68 2.1,-23.49 33.79,-58.2zm-6249.13 4109.2c-6.78,-320.26 -12.87,-555.56 33.84,-873.18l715.24 -14.2c12.67,-35.39 166.54,-583.73 177.44,-633.83 -80.3,-32.46 -295.17,-155.34 -375.49,-116.71l-116.12 349.04 -297.86 -57.27c37.65,-285.8 216.9,-576.51 292.75,-814.83 204.83,56.95 449.57,269.15 654.48,310.71 66.28,-203.12 317.65,-486.7 367.15,-602.35 -104.03,-54.78 -211.55,-180.21 -318.8,-233.29 -76.16,70 -139.46,201.82 -218.89,300.45 -61.74,-24.09 -192.19,-110.62 -253.74,-157.08 37.68,-118.01 406.27,-586.54 493.74,-628.7l516.92 451.74c94.12,-54.66 164.78,-161.53 261.71,-244.25 89.71,-76.55 190.26,-149.08 287.92,-226.87 -31.27,-60.04 -185.49,-273.42 -235.78,-313.21 -107.42,52.07 -223.54,170.49 -313.85,231.28 -75.65,-82.87 -175.78,-121.1 -209.32,-235.65 100.79,-54.8 402.76,-331.47 670.86,-464.79 55.01,47.66 362.99,496.9 397.08,570.63 80.33,-16.97 396.12,-189.55 638.34,-267.39l-163.4 -356.39c-123.72,14.35 -200.69,71.64 -321.4,107.64l-118.4 -269.08c65.35,-64.57 586.87,-233.68 712.4,-249.36 71.7,141.01 151.48,565.67 221.54,666.66 227.11,-26.95 409.31,-69.59 655.62,-82.47l-12.26 -388.31 -292.41 10.31c-10.05,-75.7 -63.82,-278.25 -13.52,-310.72 111.99,-28.26 677.13,-57.71 756.73,-7.66 57.57,45.14 27.65,273.04 27.13,345.04 -0.77,106 -15.9,259.57 23.33,351.14 10.29,3.97 670.85,125.79 687.57,126.81l138.03 -364.44 -404.15 -88.3 16.82 -320.48c162.93,21.84 672.01,147 769.23,221.42 -63.25,143.38 -124.69,318.61 -184.05,471.27 -92.16,237 -28.02,173.5 -109.31,221.85 -80.6,47.95 -150.24,56.5 -185.01,126.27 -47.69,-48.22 -109.62,-148.81 -147.3,-199.6 -262.88,17.54 -403.11,340.24 -312.8,628.5 -229.53,120.9 -1348.66,85.53 -1327.36,1442.27 148.75,-16.75 289.28,-13.72 421.55,-60.44 129.33,-45.68 150.77,-194.01 260.84,-207.39 -2.79,174.85 11.66,247.49 -34.78,399.24 -43.15,141.01 -51.48,255.65 -34.15,425.75 27.43,269.25 77.06,526.3 120.53,800.54 -112.01,-14.61 -142.88,-69.59 -173.21,-82.07 -99.96,-41.13 -27.17,-22.51 -59.24,0.52 129.5,221.97 666.54,468.58 1074.08,394.23 190.21,-34.7 386.4,-159.64 481.86,-260.15 99.47,-104.73 146.74,-421.75 164.58,-599.61 76.09,47.02 66.63,86.81 178.9,63.58 -3.16,238.72 -86.42,572.66 -179.66,756.81 -218.9,432.3 -918.88,448.81 -1350.35,204.06 -171.94,-97.53 -408.25,-283.95 -387,-558.92 11.37,-64.2 -38.34,-73.1 -94.33,-91.16 -7.39,263.7 16.61,337.61 145.67,505.29 207.83,270 226.01,153.3 221.68,432.14 -267.17,49.07 -452.2,73.14 -688.08,161.05 -333.99,124.47 -378.76,213.13 -540.08,299.46l-96.68 -372.9c186.01,8.49 648.07,97.19 676.61,-68.65 24.56,-142.73 -73.53,-607.68 -167.39,-686.95 -134.1,-113.25 -510.99,172.9 -646.06,201.27l-148.68 -578.61c369.72,-3.46 683.14,124.12 692.25,-111.12 6.1,-157.33 -66.59,-559.08 -181.12,-650.5 -122.96,-98.15 -518.51,167.01 -641.46,215.14l-150.15 -568.12c723.25,70.19 739.35,58.77 622.71,-458.28 -38.2,-169.36 -55.91,-210.52 -155.88,-328.33 -160.75,-6.35 -526.62,176.12 -591.63,226.82 -131.45,-156.04 -22.43,-440.31 -216.18,-481.89 -63.89,-13.71 -169.4,-19.21 -232.81,-2.06 -273.38,73.93 -77.03,474.45 -36.14,678.03 -569.99,27.19 -793.75,-69.73 -573.66,569.79 128.52,373.43 141.4,338.55 515.99,116.43 55.89,-33.14 137.55,-99.17 192.9,-120.37 23.56,42.31 126.21,448.37 133.93,521.38 -404.32,41.75 -670.66,-46.9 -680.39,189.46 -7.91,191.91 120.02,577.03 223.35,659.89 92.48,34.53 497.35,-240.74 589.99,-296.46l177.61 663.58c-104.41,13.97 -290.4,21.72 -399.97,24.57 -154.35,4.01 -259.95,3.75 -266.98,164.32 -9.49,216.86 112.64,544.77 209.83,664.89 217.24,3.27 456.17,-248.33 593.36,-287.78 39.47,80.95 96.39,369.69 124.55,476.43 44.26,167.77 -30.55,168.23 -141.88,424.52 -98.91,227.7 -165.48,451.33 -207.11,700.23 -13.64,81.54 -17.86,204.52 -38.9,267.22 -93.45,-35.95 -264.83,-208.99 -351.5,-246.56 -36.29,38.67 -67.18,85.69 -108.18,141.34 -39.99,54.27 -86.61,105.04 -108.21,169.06 61.68,78.45 207.47,170.49 287.97,236.14l-175.49 241.79c-86.72,-33.66 -260.14,-179.18 -332.14,-239.27l-157.39 -137.91c-56.45,-48.87 -109.99,-91.77 -143,-156.14 104.34,-167.46 402.76,-354.95 480.35,-521.26l-245.9 -282.35c-41.9,-53.32 -180.51,-274.75 -230.85,-311.46 -86.13,45.54 -234.24,158.55 -297.93,228.92 59.41,129.39 160.36,231.22 229.39,345.02 -58.66,8.68 -181.61,126.54 -263.76,156.71 -134.62,-156.85 -327.78,-457.61 -422.08,-667.88 92.73,-74.55 487.9,-261.01 621.73,-333.39 -41.05,-110.75 -100.88,-224.82 -147.17,-347.18 -47.77,-126.26 -71.37,-257.17 -126.32,-378.31 -102.05,6.09 -296.47,64.32 -372.27,117.34l99.96 348.69 -278.32 129.35c-57.92,-154.9 -217.41,-664.05 -201.86,-828.81l680.44 -150.62c-8.22,-120.87 -20.62,-233.84 -26.86,-359.85 -5.47,-110.67 11.69,-269.77 -3.96,-364.92l-392 -18.3c-35.58,549.62 62.7,353.29 -234.27,418.75 -6.49,1.43 -24.77,6.68 -30.88,8.85 -29.67,10.54 -33.06,13.77 -47.4,23.01 30.64,23.6 33.37,34.33 111.42,24.34l276.46 -22.56 1.44 -386.21 219.72 7.28c23.52,45.78 16.3,94.22 14.73,155.27l27.28 460.55 -698.6 146.95c31.26,199.71 166.47,880.37 265.61,975.54l410.69 -198.41 -97.33 -345.78 223.86 -58.91c43.19,202.52 165.97,421.83 219.79,620.07l-612.23 320.32c10.12,125.2 153.52,315.89 220.56,425.75 74.1,121.43 201.44,270.67 252.65,377.99 88.81,-20.68 342.66,-214.43 393.36,-268.35 -59.95,-105.95 -177.29,-208.29 -218.39,-332.31 41.12,-45.03 137.98,-125.05 184.73,-141.28 130.37,199.1 258.75,354.26 398.55,523.61 -43.61,43.25 -79.64,85.14 -123.44,133.85 -115.96,128.99 -253.57,247.04 -361.26,381.66 106.29,115.62 217.95,226.17 349.15,334.65 78.04,64.53 294.17,251.32 382.53,281.75 70.78,-71.95 213.44,-277.45 270.01,-367.22 -71.71,-47.83 -229.85,-160.32 -289.55,-223.95 7.84,-64.52 79.56,-161.52 126.85,-197.24 133.16,76.9 350.84,287.81 519.51,341.42l-300.03 649.67 199.34 119.58c203.66,95.74 452.97,219.4 680.01,257.53l137.31 -437.79 -354.94 -120.35c16.62,-84.33 46.76,-167.15 100.72,-223.34l615.04 184.48 -121.16 699.32c257.11,48.41 794.82,123.83 1071.68,86.69l-3.85 -465.21 -423.7 -9.06 18.99 -226.39c55.08,-20.28 604.19,-21.61 744.54,-40.13 38.96,102.42 66.46,548.73 69.91,691.85 263.48,-5.97 684.3,-125.35 910.59,-209.49l-187.63 -423.42 -297.94 79.67 -53.77 -224.63 521.28 -178.21 346.31 601.82c93.05,-17.87 351.58,-168.62 442.47,-221.32 106.51,-61.75 330.18,-194.63 376.75,-280.05 -108.54,-76.74 -232.36,-208.36 -294.81,-312.46 -98.66,21.41 -220.02,139.78 -324.41,185.29 -40.61,-39.19 -101.59,-135.66 -129.56,-206.75 209.2,-82.33 366.81,-281.85 529.47,-369.68 49.4,42.73 71.93,75.22 119.37,122.17 54.75,54.19 80.88,74.18 128.58,128.94 54.52,62.59 169.4,208.11 243.4,246.73 159.06,-122.82 505.35,-477.83 620.36,-674.26 -29.48,-39.55 -302.04,-230.73 -361.9,-266.86 -85.33,62.07 -132.61,185.33 -224.33,227.93l-148.98 -164.14c16.17,-32.05 255.91,-344.87 299.46,-389.64 160.93,56.9 480.5,311.71 609.23,334.5 95.09,-116.05 377.38,-657.5 406.76,-826.39 -116.76,-55.38 -283.72,-141.31 -383.73,-200.25l-226.11 447.4c-67.56,-24.38 -149.8,-82.61 -201.01,-120.7 65.61,-184.17 197.29,-404.7 232.01,-611.85 188.43,37.47 508.99,197.54 670.54,204.69 80.82,-184.09 179.77,-759.35 178.79,-992.61 -74.25,-6.2 -145.96,-13.51 -217.54,-19.73 -63.77,-5.54 -177.07,-19.73 -232.95,4.31 -27.32,112.27 -8.95,276.43 -61.45,383.16l-223.12 -36.69 37.45 -630.48 705.37 -37.46c-11.96,-306.75 -34.92,-672.94 -118.21,-937.3 -91.35,-1.8 -366.19,65.16 -443.71,106.87l53.77 305.37c-313.19,59.75 -224.52,35.69 -301.08,-276.95 -23.98,-97.94 -50.46,-180.26 -75.88,-272.98l654.62 -236.36c-14.43,-142.45 -262.04,-690.18 -343.76,-769.62 -119.89,44.81 -263.77,155.08 -396.18,213.04l130.36 261.19c-45.66,40.91 -145.9,76 -214.18,89.96 -43.43,-45.54 -251.45,-417.18 -259.04,-459.2 122.02,-144.83 383.87,-309.47 532.6,-438.29 -51.25,-149.78 -432.35,-534.36 -525.62,-653.08 -72.39,21.38 -328.9,247.22 -363.28,324.17 91.73,64.6 182.35,175.96 256.96,262.26 -56.2,54.34 -106.86,112.57 -167.67,162.31 -39.66,-40.24 -81.54,-73.44 -121.63,-117.26 -118.27,-129.24 -273.15,-250.14 -380.45,-370.88 61.56,-93.3 142.06,-180.45 222.68,-269.75 70.82,-78.45 149.04,-174.32 220.84,-265.63 -29.43,-35.38 -16.27,-18.26 -50.33,-48.09 -194.53,-170.38 -576.52,-416 -805.06,-493.5 -3.08,4.03 -6.61,9.66 -8.4,12.7l-76.18 206.79c-23.64,74.2 -45.1,137.3 -66,211.33 79.82,74.48 213.09,112.29 297.83,186.28l-128.79 183.96c-146.38,-43.44 -351.07,-201.03 -541.55,-255.01 33.51,-197.14 197.02,-468.1 247.28,-672.71 -197.13,-74.66 -690.62,-245.51 -925.76,-247.58l-0.92 459.73 372.33 93.73 -92.28 216.2 -592.06 -96.85 -23.76 -711.16c-184.77,-28.69 -804.36,-49.04 -931.21,30.91l46.54 444.52 299.12 -15.16 -2.85 226.19 -550.34 78.04 -199.79 -676.2c-299.39,34.51 -616.37,197.43 -874.96,288.84 46.16,137.6 162.04,280.18 203.96,413.48 107.42,-8.27 184.49,-79.69 298.55,-94.29l101.27 196.15c-114.81,73.63 -354.19,156.27 -488.95,222.12 -74.63,-55.87 -318.26,-448.07 -406.16,-565.43 -146.9,11.31 -773.43,497.78 -814.16,589.63l310.73 313.63c100.85,-39.37 191.91,-170.27 300.35,-221.1 43.26,27.53 119.06,124.82 147.53,185.24 -143.74,72.55 -375.23,350.28 -464.23,382.82 -169.93,-140.97 -330.1,-341.51 -514.08,-461.06 -85.18,61.6 -232.83,250.92 -314.82,353.92 -89.78,112.79 -197.46,262.99 -268.62,392.95 60.04,56.35 321.66,231.15 403.66,253.78 29.28,-68.1 137.44,-236.09 198.24,-288.24 47.97,16.32 139.56,101.24 177.13,140.37 -48.07,77.72 -99.65,147.4 -159.29,240.58 -52.06,81.33 -93.21,174.02 -149.76,255.13l-635.03 -320.92c-86.67,219.05 -320.2,674.29 -342.89,951.36 98.13,56.13 326.15,83.6 450.25,107.47l120.91 -387.82 212.08 97.63 -140.87 533.28 -718.68 -4.37c-56.1,342.34 -58.19,616.29 -56.66,967.82l89.06 -8.39z"/>
  <path class="fil0" d="M1054.51 5833.53c-98.07,-920.13 226.7,-1946.32 675.91,-2674 565.93,-916.74 1526.35,-1654.56 2566.32,-1938.69 1418.23,-387.47 2840.34,-129.54 3980.18,741.06 122.89,93.86 205.57,168.29 313.54,258.92 797.13,669.09 1402.11,1927.63 1457.42,3040.59 65.03,1308.6 -363.81,2407.26 -1164.99,3314.37 -589.1,666.99 -1693.63,1404.24 -3036.97,1464.81 -1953.41,88.09 -3511.13,-912.93 -4309.12,-2447.61 -285.07,-548.25 -406.97,-1052.78 -482.28,-1759.46zm4305.06 -4959.15c-2551.66,104.53 -4570.88,2218.73 -4485.3,4866.85 81.03,2507.15 2228.11,4581.74 4877.01,4476.69 2536.58,-100.6 4573.75,-2232.16 4473.67,-4864.39 -95.3,-2506.62 -2206.36,-4588.08 -4865.38,-4479.15z"/>
  <path class="fil0" d="M10983.5 5686.6c-165.27,18.21 -125.33,-71.82 -122.6,-224.04l145.65 6.12c-1.05,92.94 -21.14,177.1 -23.05,217.92zm74.99 80.39c71.65,-80.75 43.86,-289.64 43.28,-415.21l-569.89 -6.75 2.79 109.17 234.64 12.51c-11.21,245.77 -241.49,77.07 -243.24,378.27 108.19,-37.9 195.14,-116.79 257.11,-165.83 28.34,137.71 192.28,181.4 275.3,87.84z"/>
  <path class="fil0" d="M5933.98 10781.18c204.08,169.71 153.24,344.41 367.38,307.81 -4.17,-122.44 -13.09,-488.86 -68.53,-562.63l-72.1 4.8c-30.04,108.85 10,245.2 13.66,358.93 -195.88,-156.41 -143.71,-342.77 -373.85,-325.62l51.37 563.44 104.33 -4.95 -22.27 -341.78z"/>
  <path class="fil0" d="M3175.5 622.48c95.63,-21.82 109.56,-62.91 219.88,-52.44 50.36,118.6 -43.97,159.64 -173.18,189.63l-46.7 -137.19zm-146.98 -38.92l230.03 524.6 105.14 -33.19c-35.1,-123.23 -96.07,-166.49 -72.56,-235.21 93.76,-33.74 160.96,22.46 227.81,65.89 100.43,65.26 95.53,43.94 200.81,-2.47 -77.8,-91.33 -201.21,-109.97 -263.62,-171.42 138.74,-86.6 63.68,-266.08 -63.78,-274.78 -107.88,-7.36 -254.51,99.48 -363.84,126.59z"/>
  <path class="fil0" d="M9044.33 1977.01l63.6 75.64c115.28,-63.85 154.57,-173.6 265.09,-223.65l-103.71 402.37 69.93 68.31c72.42,-29.08 347.56,-303.18 412.54,-379.99l-63.5 -67.92c-80.08,73.91 -179.31,177.5 -261.79,231.13 32.56,-315.21 178.81,-336.65 37.16,-479.97 -76.2,33.63 -368.66,318.57 -419.32,374.09z"/>
  <path class="fil0" d="M587.03 3285.84c49.24,-143.38 120.89,-210.17 285.49,-122.7 130.64,69.42 149.71,157.99 40.57,290.29l-326.05 -167.58zm-140.69 79.82l503.94 232.41c34.73,-44.25 128.81,-230.06 134.21,-295.01 10.36,-124.48 -81.16,-211.76 -170.82,-254.73 -286.05,-137.1 -401.25,95.83 -467.33,317.33z"/>
  <path class="fil0" d="M5304.59 568.31l98.46 -2.38 5.29 -351.35c172.11,247.32 181.83,356.76 348.77,344.27l-9.42 -553.94 -105.99 -4.01 3.67 343.73c-167.99,-128.24 -116.8,-343.61 -348.34,-344.63l7.57 568.31z"/>
  <path class="fil0" d="M4310.39 406.83c-52.32,4.69 -100.5,19.7 -148.26,34.23 -92.11,28.01 -101.13,8.59 -75.34,94l126.8 12.21c3.22,0.41 9.79,1.16 14.21,3.16 35.37,143.02 -238.64,198.16 -308.88,8.6 -35.26,-95.16 -22.07,-185.17 39.36,-231.24 99.28,-74.46 152.5,-4.08 227.39,18.18l77.74 -46.07c-141.32,-254.39 -657.71,-12.13 -424.52,357.63 156.48,248.13 491.27,72.81 519.3,-37.33 11.37,-44.68 -35.46,-159.76 -47.79,-213.37z"/>
  <path class="fil0" d="M2597.82 956.5c207.52,-99.2 358.63,248.21 199.83,334.36 -108.4,58.81 -198.17,-13.49 -244.42,-85.86 -74.27,-116.22 -48.38,-204.06 44.59,-248.5zm3.51 -110.65c-405.87,147.39 -122.75,679.01 193.18,554.45 371.57,-146.5 119.22,-667.9 -193.18,-554.45z"/>
  <path class="fil0" d="M1154.44 2328.98c58.1,-136.2 140.5,-199.25 294.45,-92.59 124.22,86.05 126.35,195.79 2.43,302.07 -92.53,-36.68 -202.14,-158.38 -296.88,-209.49zm-141.94 15.31c41.72,58.03 362.43,296.14 438.82,343.93 35.85,-26.32 160.51,-183.21 183.6,-234.05 58.6,-129.07 -26.62,-239.46 -101.31,-302.34 -264.21,-222.45 -413.21,39.7 -521.11,192.46z"/>
  <path class="fil0" d="M10680.34 4681.47c289.43,-108.4 381.57,209.59 164,280.84 -286.64,93.88 -368.08,-204.42 -164,-280.84zm32.33 -133c-166.09,29.56 -277.57,142.52 -235.55,342.22 31.52,149.78 176.06,236.59 362.92,195.66 350.55,-76.78 273.59,-609.23 -127.38,-537.88z"/>
  <path class="fil0" d="M8818.61 1268.17c106.76,-51.49 204.64,28.77 212.06,119.65 7.88,96.37 -76.33,195.4 -137.13,220.82 -237.78,99.38 -307.15,-228.48 -74.93,-340.47zm-24.15 -114.77c-122.49,34.23 -262.08,187.11 -233.69,356.33 21.35,127.28 188.27,264.3 355.23,214.16 116.16,-34.89 250.32,-197.34 224.28,-351.28 -20.47,-121.05 -179.73,-265.61 -345.82,-219.21z"/>
  <path class="fil0" d="M9844.84 2824.3c66.58,-55.63 231.89,-169.22 327.73,-190.73 28.24,80.83 104.58,153.09 26.49,242.34 -52.19,59.65 -152.61,110.17 -264.22,98.56 -39.3,-64.49 -62.17,-73.14 -90,-150.17zm-147.8 -63.59c21.89,64.01 130.63,242.42 164.16,274.9 157.47,152.54 735.29,-43.24 322.44,-546.26 -121.13,27.67 -352.43,225.26 -486.6,271.36z"/>
  <path class="fil0" d="M1500.16 1753.53c38.87,71.08 323.18,359.73 394.24,394.42 47.94,-24.56 282.67,-279.33 297.12,-302.11 -58.89,-59.35 -18.69,-11.2 -30.96,-51.74 -103.04,24.68 -165.81,143.94 -247.7,203.43l-106.19 -95.58c28.11,-42.57 64.66,-74.15 105.38,-112.32 58.8,-55.12 91.01,-61.27 63.68,-135.97 -111.91,-37.61 -110.8,78.04 -247.48,165.54 -45.03,-25.61 -50.64,-34.6 -81.32,-56.69 47.08,-119.12 155.83,-145.92 207.14,-249.3l-52.67 -49.49c-72.45,25.4 -267.24,226.73 -301.23,289.81z"/>
  <path class="fil0" d="M10043.17 3381.94c23.84,81.12 123.51,329.15 177.4,384.03l70.39 -25.09 -117.89 -304.12 151.01 -52.33c14.15,53.93 28.31,81.03 50.07,134.37 7.64,18.72 19.18,51.36 26.69,65.33l41.27 52.61 67.21 -26.31 -104.58 -267.7 108.81 -45.26c85.71,131.19 94.56,323.28 181.37,248.26 37.49,-32.4 51.6,28.66 -44.02,-192.98 -29.48,-68.35 -56.61,-125.57 -81.59,-195.51 -77.7,13.72 -467.6,185.61 -526.14,224.69z"/>
  <path class="fil0" d="M7143.67 582.59c19.01,-38.92 84.92,-129.2 134.41,-156.7l4.83 203.21 -139.23 -46.51zm-266.97 154.82l94.61 28.01c57.64,-34.62 52.29,-57.19 110.79,-95.68l206.33 66.5c6.03,135.3 -18.47,153.03 123.59,169.87l-33.28 -607.06 -111.2 -33.2c-46.45,37.54 -361.16,412.68 -390.85,471.55z"/>
  <path class="fil0" d="M436.73 7305.72c45.8,-48.59 94.6,-102.54 168.09,-123.88l41.51 130.52 -209.61 -6.64zm247.15 -198.34c40.93,-52.89 44.25,-58.07 99.44,-94.32l-31.62 -110.67c-47.05,21.72 -424.51,333.95 -447.44,371.74 -89.16,146.88 117.64,138.15 223.87,142.48 131.47,5.36 263.28,15.35 397.8,13.34l-33.83 -107 -141.89 -11.42 -66.3 -204.14z"/>
  <path class="fil0" d="M10213.56 7888.45c1.57,-55.06 29.1,-92.39 69.01,-130.15l123.7 150.4 -192.71 -20.24zm-296.88 68.16c37.75,30.99 -45.79,8.36 71.03,32.12l533.07 31.56 44.96 -100.6c-37.18,-56.01 -366.34,-419.12 -418.76,-442.19 -62.62,143.13 -40.49,102.79 46.35,202.54l-92.69 193.64c-141.39,10.34 -122.14,-48.95 -183.97,82.95z"/>
  <path class="fil0" d="M3960.51 10802.67c-35.37,-152.12 109.28,-367.06 76.27,-469.09l-100.03 -22.51c-45.21,238.35 -248.92,544.43 79.54,622.31 156.19,37.04 218.79,-26.9 261.7,-148.24 37.29,-105.43 77.77,-246.69 98.89,-354.25l-100.94 -18.87c-104.88,180.95 -42.73,532.29 -315.44,390.65z"/>
  <path class="fil0" d="M564.67 4039.96c-69.52,-26.23 -128.17,-80.45 -169.24,-127.92l208.77 -3.21 -39.54 131.12zm-283.71 -227.01l-40.67 99.82c35.48,61.72 418.89,365.6 472.57,386.32l35.32 -89.43 -97.13 -92.24 58.5 -221.88c142.59,-7.88 148.69,19.09 171.75,-124.38l-600.35 41.79z"/>
  <path class="fil0" d="M5042.05 10735.91c13.42,-20.71 16.53,-19.38 33.82,-31.88l49.32 189.23 -138.78 -12 55.64 -145.35zm-119.79 264.75c1.86,-2.72 7.62,-4.87 9.01,-11.77 1.39,-6.93 5.99,-7.95 9.49,-13.71l210.9 18.49 44.13 137.28 118.84 -1.24c-27.48,-115.94 -66.6,-233.07 -101.24,-345.84 -49.06,-159.69 -13.18,-248.21 -195.37,-237.52l-259.49 543.46 108.2 2.5 55.54 -91.64z"/>
  <path class="fil0" d="M11.26 5948.03l5 103.25c89.2,14.63 288.69,0.42 383.34,-13.31 130.18,-18.88 189.15,-80.1 186.88,-222.89 -4.86,-304.16 -313.32,-233.37 -586.48,-207.48l0.98 105.33c179.17,24.57 607.08,-113.5 454.86,192.62 -133.79,44.69 -298.82,27.2 -444.58,42.47z"/>
  <path class="fil0" d="M4774.41 208.54c43.1,35.32 77.05,106.05 97.65,174.89l-144.61 17 46.96 -191.89zm-217.98 443.56c157.57,-14.38 113.31,-4.18 151.17,-144.86l232.17 -34.81 55.26 115.87 121.78 -18.36 -300.42 -522.72 -117.24 11.49 -142.71 593.39z"/>
  <path class="fil0" d="M10775.71 3966.03c23.72,113.55 79.27,227.19 -95.25,203.7 -37.93,-53.31 -47.44,-89.52 -61.67,-171.47l156.92 -32.23zm-485.89 21.35l16.62 79.71c67.23,23.75 124.04,-20.4 209.52,-26.81 62.94,114.93 75.22,344.97 305.09,234.78 160.41,-76.9 51.56,-362.51 8.76,-444.09 -107.28,9.06 -463.54,111.42 -539.98,156.41z"/>
  <path class="fil0" d="M6423.11 91.98c-25.53,104.53 28.23,64.24 156.45,94.49 14.82,3.5 29.21,7.62 43.15,13.93 27.89,12.62 22.99,11.08 39.1,24.38 -50.43,23.15 -164.97,121.66 -208.91,160.9 -87.3,77.97 -141.42,72.02 -165.68,226.94l453.58 87.14 16.86 -93.9c-63.07,-8.87 -254.15,-35.73 -304.46,-75.68 164.8,-140.44 362.3,-243.8 383.01,-394.26 -139.32,-15.65 -340.37,-87.92 -413.1,-43.93z"/>
  <path class="fil0" d="M8073.74 1051.99l-64.53 -79.22c-90.4,42.34 -165.88,100.62 -231.61,-11 -97.49,-181 192.6,-430.35 284.16,-244.52 46.93,95.25 -28.35,95.99 127.88,108.43 28.28,-292.81 -354.97,-388.49 -500.02,-106.93 -166.04,322.31 208.31,543.84 384.11,333.24z"/>
  <path class="fil0" d="M195.94 6337.08c-249.67,121.92 -89.02,540.34 265.33,445.23 304.87,-81.83 264.22,-500.37 -23.69,-491.94 -16.03,181.26 35.58,69.47 108.03,154.59 47.04,55.27 26.47,143.66 -19.05,180.68 -100.56,81.78 -270.01,76.83 -339.3,-35.18 -30.53,-92.11 42.38,-125.63 56.92,-185.09l-48.26 -68.29z"/>
  <path class="fil0" d="M10883.3 7094.81c-120.89,-5.32 -245.99,0.88 -367.39,2.43 -271.11,3.45 -225.62,-18.93 -266.54,102.46 38.6,74.33 164.41,153.43 228.03,204.87 54.75,44.27 180.67,157.95 245.59,179.46l31.41 -110.47c-58.7,-37.52 -281.27,-196.5 -326.12,-264.37l418.09 0.31 36.94 -114.69z"/>
  <path class="fil0" d="M484.76 7829.53l157.74 303.3 499.62 -251.28 -39.2 -97.87 -226.63 98.31 -108.05 -198.43c-147.87,41.86 -33.65,57.13 19.9,254.2l-112.21 42.61c-89.43,-103.13 -63.2,-194.83 -147.69,-227.4 -59.7,27.29 -64.86,3.05 -43.49,76.55z"/>
  <path class="fil0" d="M11014.42 6513.51c25.7,-62.42 27.01,-146.48 36.91,-217.73 12.66,-91.13 41,-174.08 0.01,-228.7 -101.17,-1.78 -73,31.93 -85.33,144.28 -151.45,35.58 -325.44,-68.74 -475.7,-33.63l-12.87 98.31 464.31 74.48 -4.31 161.95 76.98 1.05z"/>
  <path class="fil0" d="M77.3 4731.2l63.01 9.3 38.71 -155 466.13 78.94c4.51,-20.44 10.7,-35.73 9.92,-51.67l-9.58 -47.88c-1.09,-4.27 -3.62,-11.03 -6.48,-16.03l-434.47 -82.22c17.02,-145.97 73.12,-160.62 -66.91,-182.06 -18.18,104 -99.35,361.87 -60.33,446.61z"/>
  <path class="fil0" d="M7252.71 10799.7c-69.7,-27.03 -196.71,35.92 -283.71,53.37l-120.41 -445.25 -116.26 21.28 148.39 549.68 391.4 -104.21 -19.42 -74.88z"/>
  <path class="fil0" d="M484.08 5203.48l-470.81 -26.06 -4.65 102.17c68.84,28.42 482.35,59.35 563.32,43.82l28.66 -387.28 -90.64 -5.76 -25.88 273.11z"/>
  <path class="fil0" d="M8193.33 1324.05l87.01 47.28c56.75,-70.03 279.78,-406.44 304.95,-488.59l-80.64 -39.59c-76.79,68.92 -299.18,436.06 -311.32,480.9z"/>
  <path class="fil0" d="M5994.47 581.13l115.8 6.13c7.4,-97.23 16.8,-187.12 25.31,-275.03 6.89,-71.28 38.83,-218.9 6.37,-281.64l-93.23 -10.96 -54.24 561.5z"/>
  <path class="fil0" d="M10388.37 6738.77c63.15,18.39 458.56,124.13 532.28,117.77l45.52 -99.06 -554.6 -120.54 -23.2 101.83z"/>
  <path class="fil0" d="M7171.71 3891.24c27.63,-110.21 -48.89,-259.43 -97.8,-339.54 -53.06,-86.92 -139.42,-157.41 -231.77,-205.06 44.22,169.18 182.86,140.83 221.35,438.38 11.69,90.4 7.15,123.13 108.22,106.21z"/>
  <path class="fil0" d="M6211.79 4270.98c119.11,-18.28 168.72,-126.24 311.27,-94.23 133.48,29.97 117.45,112.91 286.65,123.38 -52.27,-225.67 -281.68,-255.89 -530.78,-101.11 -75.02,46.61 -39.29,11.52 -67.14,71.95z"/>
  <path class="fil0" d="M6456.94 4399.66c70.12,5.88 117.56,34.07 171.93,60.83 -38.06,5.37 -199.98,124.36 -171.93,-60.83zm-167.49 -6.27l11.43 12.76 125.52 -6.42 2.83 100.96 -82.97 -30.72 -0.6 24.33c69.73,52.6 121.48,60.09 233.76,40.29 80.95,-14.28 50.87,-21.08 102.95,-45.9 52.21,-24.87 48.07,-4.87 98.88,-39.78 -22.19,-22.57 46.51,-8.67 -102.1,-39.13 -247.43,-50.71 -152.03,-99.8 -389.69,-16.4z"/>
  <path class="fil0" d="M5769.45 5256.43c371.78,-80.44 395.46,100.05 575.64,80.32 -48.66,-198.08 -453.59,-203.83 -575.64,-80.32z"/>
  <path class="fil0" d="M7571.96 3671.44c64.53,37.64 86.21,19.04 137.96,111.61 30.88,55.23 53.72,99.02 107.1,129.74 -63.61,-156.99 -27.87,-236.24 106.09,-304 -150.04,-38.4 -232.77,33.61 -351.15,62.65z"/>
  <path class="fil0" d="M6546.72 5276.89c55.39,-85.47 -96.46,-319.77 -228.7,-334.78 20.58,63.2 94.9,134.36 161.27,256.54 44.16,81.31 8.29,54.73 67.43,78.24z"/>
  <path class="fil0" d="M8004.55 4002.1l247.67 45.48c-9.5,-52.93 -18.07,-84.29 -30.96,-129.3l-49.91 -105.05 -29.61 54.03c-55.42,107.32 -56.99,71.98 -137.18,134.84z"/>
  <path class="fil0" d="M5753.22 4369.42c-41.1,-36.63 -6.81,8.63 -28.56,-57.57l86.21 -9.15c-52.44,57.76 35.44,-35.72 -24.04,35.54 -28.63,34.3 13.66,12 -33.61,31.18zm-70.2 -68.19c28.09,98.51 90.93,150.1 197.54,108 -66.52,-36.5 -51.36,-8.07 -57.09,-95.13l119.35 52.6c-1.22,-9.52 -7.13,-20.63 -9.11,-17.05 -6.56,11.82 -125.11,-204.33 -250.69,-48.42z"/>
  <path class="fil0" d="M5799.89 5378.44c55.19,11.82 128.98,16.71 192.04,29.61 91.07,18.63 133.77,63.12 189.79,-17.59 -47.53,-61.98 -298.21,-51.81 -336.79,-39.29 -41.97,13.62 -20.95,8.31 -45.04,27.28z"/>
  <path class="fil0" d="M5631.86 4147.37c82.31,-11.02 134.85,-52.98 207.18,-25.47 64.2,24.42 40.99,61.53 154.01,74.44 -20.41,-61.31 -80.2,-110.31 -152.34,-132.93 -47.58,-14.93 -72.39,-13.64 -121.62,-0.63 -66.44,17.55 -65.28,33.82 -87.22,84.59z"/>
  <path class="fil0" d="M4986.4 10881.26l138.78 12 -49.32 -189.23c-17.29,12.5 -20.39,11.17 -33.82,31.88l-55.64 145.35z"/>
  <path class="fil0" d="M8420.8 7412.54c-45.03,-37.64 -42.4,-26.31 -105.23,-27.61 1.63,55.41 16.55,78.16 49.16,102.09 79.85,58.63 85.64,10.87 87.79,9.93 9.72,-36.83 -1.91,-59.51 -31.71,-84.42z"/>
  <path class="fil0" d="M7958.81 5345.66c4.33,-89.51 -52.46,-117 -143.75,-120.68 22.28,77.96 45.28,133.5 143.75,120.68z"/>
  <path class="fil0" d="M7612.55 6418.84c-11.27,-81.14 -53.05,-102.66 -147.26,-104 15.37,88.8 39.52,125.92 147.26,104z"/>
  <path class="fil0" d="M6403.09 2269.54c-98.62,-34.29 -92.96,105.18 -63.81,132.22 63.68,59.06 74.05,-86.31 63.81,-132.22z"/>
  <path class="fil0" d="M7747.52 5738.88c-13.23,-95.27 -38.12,-102.67 -133.1,-103.66 10,96.18 24.68,111.29 133.1,103.66z"/>
  <path class="fil0" d="M7748.61 3320.35l109.47 0.59c35.04,-37.25 32.84,-23.81 48.8,-71.75l-107.6 -21.79c-31.45,44.53 -43.97,35.7 -50.67,92.96z"/>
  <path class="fil0" d="M8953.25 5179.68c14.98,-93.08 -37.76,-110.92 -121.93,-119.26 10.12,89.67 30.59,119.15 121.93,119.26z"/>
  <path class="fil0" d="M8063.57 4908.23c16.48,-86.09 -43.71,-119.7 -138.34,-124.93 30.56,87.81 51.25,107.74 138.34,124.93z"/>
  <path class="fil0" d="M5990.6 4541.55c48.4,-26.85 86.53,-107.89 92.81,-169.82 5.54,-54.63 -3.65,-51.07 -16.69,-72.29 -14.27,15.47 -9.75,-7.52 -31.76,44.59l-44.36 197.52z"/>
  <path class="fil0" d="M7188.09 2637.03c84.33,-5.96 125.84,-35.13 125.46,-119.86 -90.2,-10.41 -113.42,37.66 -125.46,119.86z"/>
  <path class="fil0" d="M8259.49 6565.61c-8.47,-103.47 -27.16,-99.58 -130.87,-100.15 12.81,83.49 44.51,110.33 130.87,100.15z"/>
  <path class="fil0" d="M6767.3 2447.15c82.82,-15.66 108.47,-72.7 68.44,-150.67 -78.02,16.79 -73.98,55.41 -68.44,150.67z"/>
  <path class="fil0" d="M7521.06 2893.61c86.88,-2.67 126.75,-30.34 123.7,-115.29 -86.91,-10.02 -110.94,36.3 -123.7,115.29z"/>
  <path class="fil0" d="M8310.74 4539.12c-11.58,-35.54 -12.21,-29.26 -39.98,-67.08l-119.28 -3.87c23.3,73.12 78.86,113.57 159.25,70.95z"/>
  <path class="fil0" d="M8485.12 6100.22c43.45,85.33 19.61,88.85 130.3,118.7 19.76,-83.82 -34.49,-125.75 -130.3,-118.7z"/>
  <path class="fil0" d="M8808.22 5713.62c-3.83,-82.32 -48.21,-99.69 -140.31,-93.23 39.57,74.33 38.85,115.93 140.31,93.23z"/>
  <path class="fil0" d="M6251.33 4901.58c79.94,-30.38 65.16,-38.21 53.82,-125.51l-67.25 -48.1 13.42 173.61z"/>
  <path class="fil0" d="M5882.1 4891.35l81.5 -187.88c-84.95,29.71 -136.91,103.97 -81.5,187.88z"/>
  <path class="fil0" d="M5954.18 4916.34c60.21,23.88 94.56,17.24 156.17,-0.82 -15.03,-10.68 15.27,-48.8 -116.16,-18.11 -40.67,9.49 -16.51,3.33 -40.02,18.93z"/>
  <path class="fil0" d="M6123.99 4946.58l99.05 -3.41c-28.15,-67.54 -68.72,-56.47 -99.05,3.41z"/>
 </g>
</svg>
