<?xml version="1.0" encoding="UTF-8"?>
<!DOCTYPE svg PUBLIC "-//W3C//DTD SVG 1.1//EN" "http://www.w3.org/Graphics/SVG/1.1/DTD/svg11.dtd">
<!-- Creator: CorelDRAW 2021 (64-Bit) -->
<svg xmlns="http://www.w3.org/2000/svg" xml:space="preserve" width="243.729mm" height="243.729mm" version="1.1" style="shape-rendering:geometricPrecision; text-rendering:geometricPrecision; image-rendering:optimizeQuality; fill-rule:evenodd; clip-rule:evenodd"
viewBox="0 0 24298.83 24298.83"
 xmlns:xlink="http://www.w3.org/1999/xlink"
 xmlns:xodm="http://www.corel.com/coreldraw/odm/2003">
 <defs>
  <style type="text/css">
   <![CDATA[
    .fil1 {fill:#17478F;fill-rule:nonzero}
    .fil2 {fill:#FFA301;fill-rule:nonzero}
    .fil0 {fill:white;fill-rule:nonzero}
    .fil3 {fill:#F7A30A;fill-rule:nonzero}
   ]]>
  </style>
 </defs>
 <g id="Capa_x0020_1">
  <metadata id="CorelCorpID_0Corel-Layer"/>
  <path class="fil0" d="M12149.43 0c-1639.9,0 -3231.09,321.31 -4729.29,954.98 -1446.81,611.98 -2746.08,1487.93 -3861.66,2603.55 -1115.56,1115.54 -1991.52,2414.81 -2603.5,3861.66 -633.67,1498.15 -954.98,3089.31 -954.98,4729.21 0,1639.93 321.31,3231.12 954.98,4729.29 611.98,1446.85 1487.94,2746.08 2603.5,3861.66 1115.58,1115.6 2414.85,1991.52 3861.66,2603.46 1498.19,633.71 3089.39,955.02 4729.29,955.02 1639.9,0 3231.08,-321.31 4729.25,-955.02 1446.81,-611.9 2746.05,-1487.83 3861.66,-2603.46 1115.58,-1115.58 1991.53,-2414.81 2603.51,-3861.66 633.67,-1498.19 954.98,-3089.36 954.98,-4729.29 0,-1639.9 -321.31,-3231.05 -954.98,-4729.21 -611.98,-1446.85 -1487.9,-2746.12 -2603.51,-3861.66 -1115.61,-1115.65 -2414.85,-1991.57 -3861.66,-2603.55 -1498.16,-633.67 -3089.35,-954.98 -4729.25,-954.98zm0 315.58c1597.44,0 3147.24,312.92 4606.32,930.09 1409.22,596 2674.73,1449.24 3761.43,2535.94 1086.74,1086.78 1939.98,2352.28 2536.01,3761.5 617.14,1459.09 930.06,3008.85 930.06,4606.29 0,1597.48 -312.92,3147.28 -930.06,4606.36 -596.03,1409.19 -1449.27,2674.73 -2536.01,3761.47 -1086.7,1086.72 -2352.21,1939.93 -3761.43,2535.96 -1459.08,617.17 -3008.88,930.06 -4606.32,930.06 -1597.45,0 -3147.24,-312.89 -4606.33,-930.06 -1409.22,-596.03 -2674.76,-1449.24 -3761.5,-2535.96 -1086.69,-1086.74 -1939.93,-2352.28 -2535.96,-3761.47 -617.14,-1459.08 -930.06,-3008.88 -930.06,-4606.36 0,-1597.44 312.92,-3147.24 930.06,-4606.29 596.03,-1409.22 1449.27,-2674.72 2535.96,-3761.5 1086.74,-1086.7 2352.28,-1939.94 3761.5,-2535.94 1459.09,-617.17 3008.88,-930.09 4606.33,-930.09z"/>
  <path class="fil1" d="M12149.43 560.14c6400.6,0 11589.27,5188.69 11589.27,11589.28 0,6400.59 -5188.68,11589.26 -11589.27,11589.26 -6400.6,0 -11589.3,-5188.68 -11589.3,-11589.26 0,-6400.6 5188.71,-11589.28 11589.3,-11589.28z"/>
  <path class="fil0" d="M1690.17 11908.26l641.23 289 12.03 -549.61 -653.26 260.61zm1235.57 -493.23l-357.65 142.13 -16.21 740.33 351 157.71 -5.73 263.43 -1506.96 -703.35 4.92 -227.13 1536.36 -636.59 -5.73 263.47z"/>
  <path class="fil0" d="M2940.44 9654.05c-43.26,-101.78 -122.36,-183.06 -237.26,-243.95l102.1 -218.79c161.89,79.52 276.3,196.22 343.19,350.09 66.9,153.9 79.8,319.38 38.75,496.43 -50.01,215.35 -166.92,380.62 -350.58,495.84 -183.8,115.15 -384.13,147.57 -600.96,97.21 -215.48,-49.95 -380.58,-167.17 -495.59,-351.68 -114.97,-184.5 -147.57,-384.41 -97.45,-599.79 40.66,-175.57 124.26,-317.84 250.56,-426.91 126.4,-109.1 275.56,-165.41 447.41,-169.09l12.97 245.59c-130.02,4.05 -236.77,42.21 -320.4,114.55 -83.67,72.31 -139.38,168.26 -167.16,287.7 -34.85,150.49 -11.47,289.27 70.27,416.24 81.67,127 199.95,208.48 354.91,244.4 154.86,35.98 296.95,14.88 426.2,-63.13 129.29,-78.04 211.34,-192.34 246.3,-342.81 27.65,-119.48 19.94,-230.09 -23.25,-331.91z"/>
  <path class="fil0" d="M2655.36 7750.72l471.71 522.03 231.42 -498.75 -703.14 -23.28zm1329.9 43.68l-384.62 -13.19 -311.85 671.86 258.35 285.2 -111 239.09 -1098.5 -1248.94 95.59 -206.06 1663.1 32.99 -111.07 239.05z"/>
  <path class="fil0" d="M4486.67 6605.03c108.43,-145.86 154.68,-291.81 138.61,-437.78 -16.07,-145.92 -88.49,-266.8 -217.32,-362.64 -128.87,-95.77 -265.47,-130.37 -409.95,-103.71 -144.34,26.62 -270.74,112.87 -379.17,258.71l-172.27 231.53 867.84 645.37 172.27 -231.48zm-1044.78 -776.89c152.84,-205.46 331.41,-326.94 535.86,-364.61 204.52,-37.6 396.69,10.41 576.65,144.2 179.86,133.75 281.19,303.94 303.98,510.64 22.86,206.69 -42.13,412.65 -194.89,618.12l-317.23 426.59 -1221.61 -908.35 317.23 -426.59z"/>
  <polygon class="fil0" points="6397.72,4896.71 5556.7,5656.96 4535.97,4527.84 5375.21,3769.1 5523,3932.62 4864.12,4528.26 5152.02,4846.8 5760.4,4296.81 5906.6,4458.59 5298.32,5008.63 5589.33,5330.47 6249.91,4733.24 "/>
  <polygon class="fil0" points="8301.07,3708.09 8095.89,3825.2 7614.09,2980.62 7642.01,4084.16 7511.78,4158.45 6576.03,3572.78 7057.97,4417.41 6852.72,4534.45 6098.42,3212.32 6283.9,3106.53 7393.36,3799.64 7363.29,2490.69 7546.81,2385.99 "/>
  <polygon class="fil0" points="8909.66,3495.87 8395.68,2063.08 8624.5,1980.99 9138.51,3413.78 "/>
  <path class="fil0" d="M10124.44 1884.86l-145.26 688.25 539.49 -105.73 -394.23 -582.52zm746.04 1101.64l-215.31 -318.96 -726.84 142.41 -79.03 376.67 -258.61 50.69 365.01 -1622.74 222.98 -43.69 950.41 1365.01 -258.61 50.61z"/>
  <path class="fil0" d="M13021.73 2730.29c180.85,18.74 329.8,-16.01 447.1,-104.28 117.36,-88.39 184.22,-212.36 200.86,-372.08 16.6,-159.7 -23.36,-294.83 -120.11,-405.37 -96.58,-110.57 -235.36,-175.22 -416.1,-194l-287.03 -29.83 -111.74 1075.73 287.03 29.83zm134.46 -1294.91c254.67,26.45 450.33,117.96 587.1,274.5 136.88,156.61 193.62,346.43 170.55,569.41 -23.25,222.94 -117.79,397.08 -283.84,522.18 -166.07,125.14 -376.39,174.48 -631.07,148.03l-528.82 -54.9 157.24 -1514.2 528.83 54.97z"/>
  <polygon class="fil0" points="15463.11,3504.45 14380.94,3166.95 14834.05,1714.06 15914,2050.81 15848.37,2261.17 15000.54,1996.76 14872.7,2406.6 15655.52,2650.75 15590.63,2858.93 14807.77,2614.81 14678.59,3028.94 15528.66,3294.09 "/>
  <polygon class="fil0" points="17451.38,3563.9 18109.6,3993.97 17989.03,4178.51 17330.74,3748.41 16986.46,4275.37 16782.89,4142.36 17615.69,2867.84 18547.89,3476.83 18427.33,3661.36 17698.66,3185.29 "/>
  <path class="fil0" d="M19507.04 5479.6c-146.38,151.38 -307,232.48 -481.91,243.49 -174.94,10.91 -331.55,-50.47 -469.81,-184.15 -141.49,-136.92 -210.6,-293.78 -207.08,-470.52 3.44,-176.8 78.39,-340.84 224.78,-492.21l590.65 -610.74 174.73 169.06 -590.69 610.7c-98.97,102.31 -151.02,210.53 -156.05,324.73 -5.06,114.16 37.01,214.37 126.34,300.74 86,83.18 185.42,119.23 298.21,108.26 112.83,-10.94 218.23,-67.11 316.12,-168.33l590.69 -610.71 174.69 168.97 -590.65 610.7z"/>
  <polygon class="fil0" points="20873.88,6234.08 19805.36,6977.81 19665.21,6776.38 20733.66,6032.7 20428.69,5594.47 20609.58,5468.64 21361.03,6548.27 21180.15,6674.17 "/>
  <path class="fil0" d="M21244.03 7737.32l185 415.22c29.58,66.37 73.23,111.24 130.8,134.53 57.64,23.21 118.24,20.68 181.9,-7.64 58.14,-25.92 96.51,-67.49 114.9,-124.64 18.54,-57.13 13.34,-118.25 -15.64,-183.28l-185.88 -417.3 -411.07 183.1zm-405.55 698.1c32.6,73.3 77.62,122.08 134.95,146.37 57.19,24.28 117.61,22.23 181.24,-6.11 62.35,-27.76 103.16,-71.22 122.39,-130.34 19.24,-59.2 13.76,-122.65 -16.42,-190.49l-195.03 -438.05 -419.41 186.75 192.28 431.86zm606.62 -28.88c23.74,75.69 17.94,152.05 -17.31,229.14 -35.38,77.1 -99.39,136.28 -192.13,177.61 -116.24,51.74 -225.83,55.32 -328.56,10.7 -102.78,-44.56 -185.91,-138.12 -249.47,-280.7l-301.3 -676.82 1390.85 -619.42 294.98 662.26c56.02,125.95 66.51,241.54 31.26,346.78 -35.21,105.23 -109.6,183.13 -223.16,233.67 -81.52,36.37 -159.35,44.04 -233.43,23.18 -73.99,-21 -128.48,-57.68 -163.43,-110.12l-8.3 3.73z"/>
  <path class="fil0" d="M21615.69 10525.52c127.21,81.35 268.7,105.52 424.27,72.46 157.07,-33.38 277.52,-113.15 361.48,-239.41 83.88,-126.2 109.84,-264.9 77.73,-416.03 -32.11,-151.16 -112.2,-266.95 -239.94,-347.45 -127.77,-80.47 -270.22,-104.03 -427.36,-70.65 -155.49,33.06 -275.07,112.26 -358.32,237.54 -83.39,125.35 -109,263.61 -76.82,414.74 32.04,151.16 111.78,267.41 238.95,348.82zm978.52 -30.21c-119.16,182.5 -286.96,296.74 -503.3,342.71 -216.29,45.96 -415.29,9.63 -596.87,-109 -181.63,-118.6 -295.61,-286.82 -341.83,-504.62 -46.29,-217.82 -10.45,-417.45 107.37,-598.89 117.86,-181.45 284.95,-295.16 501.29,-341.09 217.85,-46.28 417.83,-10.59 599.97,107.16 182.22,117.68 296.42,285.45 342.74,503.23 46.25,217.88 9.92,418 -109.38,600.5z"/>
  <polygon class="fil0" points="21393.2,12632.36 21380.25,11557.5 22902.72,11539.15 22905.6,11782.29 21603.62,11798 21613.61,12629.68 "/>
  <path class="fil2" d="M5246.81 19264.18c-1578.74,-1531.92 -2614.14,-3569.67 -2915.46,-5737.84l205.02 -28.45c295.04,2122.68 1308.79,4117.81 2854.54,5617.73l-144.1 148.56z"/>
  <path class="fil2" d="M19047.62 19268.54l-144.13 -148.71c1514.52,-1467.74 2523.07,-3418.22 2839.96,-5492.16l204.67 31.26c-323.71,2118.35 -1353.75,4110.56 -2900.49,5609.61z"/>
  <polygon class="fil2" points="7769.36,20411.69 7089.66,21606.6 6589.92,21322.36 7269.63,20127.41 6769.99,19843.19 7010.28,19420.69 8509.35,20273.47 8269.1,20695.93 "/>
  <polygon class="fil2" points="8348.24,22179.65 8963.37,20423.56 9505.87,20613.63 8890.75,22369.68 "/>
  <path class="fil2" d="M11845.66 21804.56c-2.1,83.77 -5.8,145.89 -11.22,186.23 -38.68,284.38 -162.35,503.47 -370.91,657.34 -208.7,153.83 -457.95,211.1 -747.9,171.74 -282.53,-38.33 -508.74,-163.86 -678.97,-376.57 -169.98,-212.74 -236.8,-453.95 -200.19,-723.63 36.62,-269.69 164.71,-484.44 384.49,-644.26 219.78,-159.84 471.88,-220.44 756.28,-181.86 221.88,30.17 408.37,105.43 559.25,225.89 150.77,120.39 245.95,270.15 285.12,449.23l-608.1 60.43c-44,-129.29 -145.82,-204.8 -305.46,-226.46 -128.44,-17.45 -239.26,11.47 -332.71,86.59 -93.28,75.16 -148.78,177.86 -166.53,308.09 -17.63,130.27 9,244.13 79.77,341.58 70.86,97.39 170.61,154.82 298.95,172.24 168.86,22.96 299.05,-21.04 390.64,-131.93l-423.81 -57.46 62.01 -456.87 1029.29 139.69z"/>
  <path class="fil2" d="M13082.33 21814.76l314.21 -39.25c71.75,-8.96 125.98,-33.48 162.94,-73.58 36.86,-40.06 51.77,-89.48 44.38,-148.28 -6.75,-55.11 -33.02,-96.62 -78.5,-124.5 -45.51,-27.92 -104.03,-37.39 -175.67,-28.45l-314.11 39.28 46.75 374.78zm644.19 943.91l-550.39 -507.79 -38.72 4.82 71.01 567.72 -570.5 71.33 -230.76 -1846.46 1008.59 -126.09c200.33,-25.03 368.84,12.66 505.44,113.15 136.56,100.44 216.83,245.31 240.46,434.61 18.15,145.15 -3.9,275.21 -66.01,390.29 -62.04,115.07 -157.32,203.95 -285.77,266.63l600.08 546.34 -683.43 85.47z"/>
  <polygon class="fil2" points="16612.92,21928.31 15207.75,22451.96 14557.97,20708.43 15950.2,20189.7 16116.13,20634.67 15262.58,20952.74 15346.91,21179.1 16130.17,20887.23 16279.46,21287.99 15496.18,21579.8 15580.62,21806.23 16447.09,21483.37 "/>
  <path class="fil2" d="M17572.55 19305.91c171.21,-1.34 318.79,61.33 442.8,188.03l-402.49 403.26c-110.19,-102.52 -223.09,-115.43 -338.84,-38.69 -43.19,28.6 -71.5,61.27 -85.08,97.95 -13.43,36.69 -9.39,71.19 12.1,103.65 30.71,46.28 75.05,57.99 133.12,35.02l360.07 -125.31c176.87,-61.62 327.4,-80.85 451.66,-57.61 124.11,23.15 227.06,96.52 309.04,220 78.61,118.84 109.7,242.71 92.82,371.58 -16.78,128.83 -63.24,242.28 -139.17,340.45 -76.08,98.07 -169.63,183.96 -280.84,257.61 -194.49,128.87 -387.4,192.91 -578.98,192.1 -191.58,-0.81 -346.15,-66.61 -463.87,-197.41l426.27 -412.4c118.31,108.22 242.36,119.3 372.04,33.45 46.21,-30.71 78.39,-65.31 96.12,-103.75 17.77,-38.47 15.54,-74.66 -7,-108.61 -28.59,-43.22 -77.3,-53.11 -146.2,-29.68l-371.65 132.94c-333.2,120.77 -576.94,64.6 -731.37,-168.47 -108.36,-163.58 -131.29,-330.53 -68.65,-500.83 62.6,-170.33 188.82,-318.4 378.68,-444.17 188.38,-124.79 368.21,-187.81 539.42,-189.11z"/>
  <path class="fil2" d="M12149.43 315.57c-1597.45,0 -3147.24,312.92 -4606.33,930.05 -1409.22,596.07 -2674.76,1449.28 -3761.5,2536.01 -1086.69,1086.71 -1939.93,2352.28 -2535.96,3761.47 -617.14,1459.05 -930.09,3008.88 -930.09,4606.32 0,1597.45 312.95,3147.24 930.09,4606.33 596.03,1409.22 1449.27,2674.72 2535.96,3761.5 1086.74,1086.69 2352.28,1939.93 3761.5,2535.93 1459.09,617.17 3008.88,930.05 4606.33,930.05 1597.44,0 3147.24,-312.88 4606.32,-930.05 1409.22,-596 2674.73,-1449.24 3761.43,-2535.93 1086.74,-1086.78 1939.98,-2352.28 2536.01,-3761.5 617.18,-1459.09 930.06,-3008.88 930.06,-4606.33 0,-1597.44 -312.88,-3147.24 -930.06,-4606.32 -596.03,-1409.19 -1449.27,-2674.76 -2536.01,-3761.47 -1086.7,-1086.73 -2352.21,-1939.94 -3761.43,-2536.01 -1459.08,-617.13 -3008.88,-930.05 -4606.32,-930.05zm0 244.57c6400.6,0 11589.27,5188.69 11589.27,11589.27 0,6400.6 -5188.68,11589.27 -11589.27,11589.27 -6400.6,0 -11589.3,-5188.68 -11589.3,-11589.27 0,-6400.59 5188.71,-11589.27 11589.3,-11589.27z"/>
  <path class="fil2" d="M18836.25 9219.61c-45.22,59.83 -88.87,118.07 -138.22,164l-38.08 35.8 2.03 -53.21c7.95,-110.89 -58.77,-239.41 -184.4,-375.45 -218.47,-228.43 -586.61,-430.85 -788.42,-430.85 -136.88,0 -207.12,64.18 -207.12,191.99 0,573.63 1217.22,1805.42 1638.99,2027.38 239.58,126.47 415.15,267.09 544.16,415.89 -97.46,-775.52 -312.36,-1514.42 -626,-2198.62 -3.8,2.84 -8.17,5.41 -11.75,8.36 -78.21,59.48 -134.95,138.08 -191.19,214.69z"/>
  <path class="fil2" d="M5178.74 10779.27c421.21,-221.96 1640.18,-1453.75 1640.18,-2027.38 0,-127.77 -72.94,-191.99 -209.15,-191.99 -202.34,0 -569,202.41 -785.96,430.85 -129.04,136.07 -193.01,264.54 -186.86,375.45l3.41 53.21 -38.47 -35.8c-51.77,-45.9 -93.38,-104.17 -138.22,-164 -55.82,-76.57 -115.79,-155.21 -191.05,-214.65 -3.91,-3.17 -8.51,-5.84 -12.59,-8.86 -313.93,684.73 -528.97,1424.2 -626.42,2200.35 129.15,-149.27 305,-290.34 545.14,-417.16z"/>
  <path class="fil3" d="M14876.33 12484.36c-90,0 -117.25,-24.86 -198.88,-205.78 -80.23,98.2 -112.8,150.92 -169.66,237.12 221.05,226.54 231.14,252.92 399.61,252.92 144.12,0 438.78,-96.62 437.56,-291.99l0 -355.72c-137.63,0 -179.02,0 -254.64,1.52 -64.14,228.85 -1.37,361.94 -213.98,361.94z"/>
  <path class="fil3" d="M9422.09 12484.36c-208.98,0 -150.92,-133.08 -213.73,-361.94 -75.37,-1.52 -117.65,-1.52 -251.93,-1.52l0 355.72c-3.27,195.37 290.44,291.99 434.33,291.99 169.84,0 181.02,-26.38 399.32,-252.92 -55.35,-86.2 -87.25,-138.92 -168.19,-237.12 -82.26,180.92 -110.22,205.78 -199.8,205.78z"/>
  <path class="fil2" d="M18681.97 13443.37c-63.34,53.78 -122.15,105.8 -122.15,274.79l80.78 828.55c-2,326.8 -218.44,801.36 -392.85,1183.45 -76.99,171.43 -150.92,334.47 -193.72,456.48 -24.72,77 -301.23,163.19 -364.9,163.19 -24.02,0 -130.19,-22.3 -302.46,-61.47 -122.4,-27.3 -274.08,-59.97 -294.1,-59.97 -90.91,0 -217.92,87.96 -339.88,229.1 -111.74,134.56 -187.96,281.29 -187.96,366.68 0,46.08 31.62,98.97 60.77,149.09 31.51,52.06 58.81,100.27 58.81,143.64 0,125.53 -245.88,526.33 -452.29,526.33l-83.5 0 -3.24 -18.64c-134.32,-1064.96 -753.08,-1825.28 -1015.52,-2151.27 -94.85,-114.27 -124.86,-150.88 -124.86,-176.27 0,-46.22 5.17,-56.77 32.71,-77l13.9 -8.54 2.74 -3.38 332.72 247.26 18.77 13.93 1094.13 811.21c52.97,-69.82 104.32,-173.18 157.14,-283.96 99.43,-204.91 203.04,-417.41 337.32,-417.41l433.13 0c661.83,0 669.36,-1952 669.36,-1970.92l-17.41 -627.17c-8.09,-63.16 -12.02,-129.91 -17.55,-195.43 -7.85,-141.07 -21.87,-287.52 -41.22,-425.99 -2.14,-15.12 -3.34,-27.92 -6.43,-41.6 0,-2.67 0,-2.67 -2.32,-4.01 0,-5.42 0,-6.93 -1.38,-13.26 -1.96,-7.43 -5.38,-16.08 -5.38,-24.59 -15.15,-57.19 -42.16,-118.53 -62.04,-172.4 -27.4,-69.82 -45.5,-110.12 -45.5,-135.91 0,-56.2 43.4,-74.7 78.35,-90.77 44.7,-17.41 82.02,-34.19 82.02,-111.07 0,-24.02 -37.32,-124.92 -78.89,-232.33 -29.29,-74.31 -60.67,-157.14 -90.77,-243.88l-21.34 -59.05 51.98 33.8c316.81,201.53 557.38,607.01 707.66,1006.72 6.44,15.79 11.99,31.34 18.61,46.75 2.7,12.55 7.28,25.64 12.02,39.32 107.51,302.64 163.19,592.55 163.19,775.72 0,189.01 -69.54,249.93 -138.47,310.31zm-3712.01 -63.06l28.77 -3.27 14.17 -1.86c503.65,-42.84 859.89,-489.72 1173.02,-885.84 33.52,-44.6 68.12,-88.63 104.31,-131.3 11.88,-15.29 32.14,-27.47 59.48,-34.08l0 -47.79 -30.71 -4.9c-96.34,-16.77 -205.75,-34.56 -309.33,-48.18 -20.82,29.26 -39.5,59.97 -58.28,88.56 -143.98,222.14 -305.84,471.25 -500.23,587.17 -87.68,53.22 -214.55,77.27 -334.09,101.19 -131.18,23.39 -263.85,50.92 -340.16,110.47 -164.85,130.09 -272.4,336.4 -381.54,559.7 -3.23,8.5 -7.17,19.06 -13.36,27.33 -3.27,6.86 -7.32,14.32 -9.88,20.65 -2.18,6.89 -5.38,11.88 -6.47,17.3 -9.57,12.27 -14.04,25.25 -19.7,38.26 -57.99,118.6 -114.73,239.9 -187.67,350.8 -3.27,26.09 -8.79,52.01 -13.26,81.59 -34.19,174.17 -68.2,355.3 -137.66,549.44l-7.99 14.07 -94.11 0 -5.59 -8.51c-171,-229.8 -251.82,-667.4 -251.82,-891.22 0,-220.09 115.54,-696.16 342.6,-852.07l22.86 -16.57 10.13 27.69c23.96,68.05 38.65,112.37 50.69,151.83l34.71 -3.62 11.99 -0.71c5.41,-48.21 13.54,-92.82 20.68,-137.94 7.56,-27.01 11.36,-53.18 15.44,-79.8 4.71,-18.78 7.81,-37.32 13.5,-56.1 187.64,-815.85 675.98,-986.32 1426.87,-986.32 23.39,0 155.07,14.84 294.8,30.39 125.49,15.54 269.23,30.95 291.67,30.95 275.46,0 518.48,-379.1 518.48,-676.01 0,-231.98 -132.13,-428.37 -221.71,-556.32 -47.41,-69.86 -78.78,-117.72 -78.78,-152.82 0,-55.25 35.42,-83.7 74.91,-106.32 7.11,-4.47 12.63,-8.75 22.51,-12.31 9.46,-6.57 22.83,-13.61 32.82,-21.32 38.12,-24.68 70.13,-57.01 70.13,-122.11 0,-119.16 -140.08,-375.2 -311.93,-644.68 -15.4,-22.19 -30,-46.22 -45.93,-68.37 0,-1.9 0,-3.13 -2.85,-3.13 -5.94,-12.17 -12.66,-22.79 -22.01,-33.49 -240.47,-364.61 -513.32,-723.04 -559.29,-775.86 -46.18,-51.07 -421.53,-387.3 -665.5,-554.68 -83.98,-56.1 -151.3,-95.38 -188.96,-95.38 -20.69,0 -76.86,28.09 -123.63,49.41 -71.64,33.38 -117.39,52.97 -145.61,52.97 -44.07,0 -141.07,-66.47 -237.26,-134.67 -16.6,-13.12 -29.3,-22.61 -38.61,-27.44 -29.34,-11.88 -841.77,-242.35 -1010.38,-242.35 -21.22,0 -119.45,21.31 -203.61,39.14 -117.68,25.81 -189.25,41.89 -213.77,41.89 -130.48,0 -143.03,-393.67 -143.03,-395.81 0,-27.4 20.68,-77.69 52.83,-155.11 20.68,-52.43 48.11,-117.11 48.11,-139.42 0,-88.77 -25.96,-119.69 -88.39,-191.96 -36.72,-45.41 -90.07,-106.74 -153.44,-204.84l29.29 -29.86c153.77,88.77 312.64,197.94 453,295.19 137.66,94.71 278.02,191.19 308.02,191.19 40.81,0 157,-62.29 261.28,-117.83 141.56,-78.32 231.81,-123.58 278.55,-123.58 134.28,0 206.45,86.17 300.71,194.39 136.18,159.39 323.42,376.64 814.9,497.55 185.11,42.7 415.02,73.37 701.69,83.88l12.02 0 5.17 9.88c229.24,425.04 564.56,875.54 892.56,1311.65 296.67,398.14 605.49,811.39 826.51,1200.69 1.37,5.03 249.92,458.8 249.92,617.56 0,29.48 -8.79,47.83 -13.54,65.39 -1.2,7.14 -3.87,15.11 -5.8,24.55l-4.01 10.69 -72.31 31.37 -7.29 0c-125.49,-3.97 -198.43,-88.24 -259.66,-163.75 -53.61,-63.63 -99.68,-119.16 -167.77,-119.16 -48.25,0 -82.93,10.94 -104.31,32.95 -36.05,37.84 -30.67,105.13 -25.39,156.33 1.37,16.6 1.37,30.92 1.37,42.13 0,119.17 34.3,241.27 68.76,358.04 34.3,121.31 69.57,246.66 69.57,370.52 0,277.88 -141.7,445.97 -423.7,499.75l2.6 45.54c464.46,55.78 682.8,311.08 781,625.19 17.55,53.11 31.06,107.65 43.08,163.89 3.13,27.16 9.04,53.64 13.26,81.03 2.82,20.69 5.95,43.37 8.48,65.67 11.49,109.56 14.87,221.95 14.87,329.34 0,129.98 -116.31,507.44 -203.18,780.18 -8.13,26.35 -12.8,44.08 -17.41,51.07 1.48,13.68 12.66,22.47 33.34,37.84 19.48,14.98 46.89,36.47 46.89,71.32 0,319.11 -583.2,978.91 -962.17,1146.94 -7.95,1.79 -13.89,3.66 -18.64,6.79 -51.62,20.23 -95.52,32.01 -135.48,32.01l-11.49 -1.1c-11.23,-0.92 -27.96,-5.38 -43.37,-10.69 -8.75,-4.99 -18.64,-8.37 -30,-15.23 -93.07,-50.92 -200.62,-173.07 -305.46,-317.48 -156.12,-223.19 -299.9,-495.8 -346.78,-642.39l-7.81 -28.48 29.3 0c295.85,-6.48 1191.97,-318.69 1191.97,-746.43 0,-24.59 -15.97,-144.13 -29.3,-249.36 -17.59,-118.25 -30.95,-227.95 -30.95,-257 0,-153.16 139.13,-163.58 243.66,-168.29 91.62,-5.24 136.6,-14.07 136.6,-52.83 0,-157.14 -52.26,-218.72 -169.1,-353.29 -44.91,-54.72 -102.8,-122.78 -171.6,-212.49l-78.25 0c-31.44,22.72 -83.46,57.99 -149.65,100.65 -25.53,19.84 -57.53,39.71 -92.29,63.73 -50.79,35.17 -105.62,73.66 -158.2,112.98 -74.27,51.73 -143.17,105.65 -202.51,156.54 -63.48,55.81 -114.93,107.94 -137.76,152.01 -11.92,18.64 -15.12,34.19 -15.12,49.59 0,5.38 1.31,11.99 1.31,19.7 1.89,17.69 10.02,40.16 17.3,59.86 8.03,27.19 15.3,53.67 18.64,79.31 0.71,3.52 0.71,9.99 0.71,13.51 0,62.95 -31.51,107.65 -94.29,139.28 -3.94,2.28 -9.89,5.66 -15.4,7.81 -55.26,21.8 -126.06,32.21 -214.55,35.55 -11.64,0.99 -21.87,0.99 -35.13,0.99 -31.58,0 -70.1,-4.33 -110.4,-8.68 -97.35,-13.23 -211.17,-41.18 -317.97,-89.41 -52.02,-22.58 -102.85,-51.73 -147.4,-85.53 -5.03,-4.99 -12.17,-10.84 -19.59,-15.26 -16.6,-15.51 -35.95,-30.68 -52.69,-49.03l-27.54 -31.19zm-2119.8 4822.9c-28.1,16.64 -56.21,34.05 -78.65,47.52 -239.37,155.53 -441.25,494.89 -571.31,736.45l-7.42 10.94 -97.56 0 -5.24 -13.62c-65.52,-162.03 -300.08,-487.98 -475.12,-655.08 -78.92,-76.78 -181.62,-144.02 -291.81,-213.06 -243.2,-159.01 -495.27,-322.2 -495.27,-614.05 0,-169.66 68.9,-242.85 222.63,-242.85 126.72,0 305.32,97.91 497.7,202.76 32.81,18.92 66.75,37.42 102.27,56.45 60.77,32.6 123.59,65.66 182.89,93.9 34.71,16.11 70.79,30.67 107.02,44.04 75.37,28.38 148.99,46.07 216.4,46.07 63.38,0 136.32,-19.84 215.21,-52.69 40.66,-15.36 80.26,-33.52 120.77,-52.82 78.22,-39.32 158.98,-83.36 235.89,-127.78 197.77,-108.11 384.2,-209.93 515.78,-209.93 218.33,0 218.33,122.78 218.33,242.85 0,322.1 -368.69,549.09 -612.52,700.91zm-2449.43 -3442.11l-5.84 8.51 -95.49 0 -4.71 -14.07c-46.89,-126.72 -67.98,-245.74 -92.15,-359.76 -16.78,-93.9 -34.85,-181.13 -62,-271.26 -67.42,-110.9 -125.14,-230.62 -178.61,-346.78 -3.37,-2.71 -3.37,-4.02 -5.13,-8.48 -6.89,-15.15 -16.88,-30.7 -24.3,-47.72 -2.46,-5.94 -6.51,-13.26 -9.22,-20.79 -5.51,-10.02 -10.13,-18.67 -13.36,-27.99 -109.7,-225.86 -222.35,-430.91 -387.48,-562.27 -77.54,-59.55 -211.27,-87.08 -340.16,-110.47 -120.07,-23.92 -245.88,-47.97 -336.65,-101.19 -192.38,-115.92 -354.77,-365.03 -496.72,-587.17 -20.01,-28.59 -36.9,-59.3 -59.19,-88.56 -104.18,13.62 -212.25,31.41 -310.84,48.18l-28.48 4.9 0 47.79c26.55,7.74 47.38,18.78 59.54,34.08 34.3,42.67 69.01,86.7 105.9,131.3 312.36,396.12 667.12,843 1170.73,885.84l16.63 1.86 25.96 3.27 -29.48 31.19c-9.81,13.51 -25.1,25.14 -40.66,38.08 -10.52,9.57 -20.5,19.42 -30.53,26.21 -50.26,37.42 -104.42,67.41 -159.67,90.52 -105.51,47.79 -219.25,73.34 -311.43,84.41 -38.62,6.08 -74.14,8.68 -104.14,8.68l-30.78 0c-88.88,-4.33 -159.71,-14.74 -213.2,-36.08 -0.53,-0.46 -0.53,-0.46 -2.53,-1.69 -63.95,-24.82 -98.94,-62.49 -109.85,-115.18 -1.64,-9.32 -1.64,-20.4 -1.64,-30.67 0,-28.91 8.93,-61.62 18.53,-92.82 9.28,-24.86 16.03,-49.56 18.49,-69.29l0 -10.27c0,-18.78 -9.21,-42.8 -27.43,-67.56 -20.26,-33.09 -54.16,-68.72 -95.92,-107.65 -60.25,-53.92 -135.12,-113.22 -214.4,-171.32 -54.69,-39.85 -109.42,-80.09 -162.1,-115.22 -39.22,-24.72 -75.13,-52.19 -106.78,-73.09 -65.77,-42.66 -117.75,-77.93 -149.13,-100.65l-77.4 0c-69.29,89.72 -126.68,157.77 -173.46,212.49 -113.6,134.57 -164.92,196.15 -164.92,353.29 0,38.76 41.85,47.58 135.76,52.83 99.96,4.71 242.22,15.12 242.22,168.29 0,29.05 -15.4,138.75 -32.43,257 -13.22,105.23 -29.71,224.78 -29.71,249.36 0,427.74 897.54,739.95 1194,746.43l28.06 0 -7.42 28.48c-47.45,149.27 -191.72,421.94 -348.44,644.4 -102.52,142.41 -210.07,264.55 -302.19,315.48 -11.77,4.99 -20.4,10.24 -30.67,15.23 -15.4,5.3 -31.06,8.68 -48.64,10.69 0,0 -3.51,1.1 -6.89,1.1 -40.13,0 -85.22,-11.78 -136.67,-32.01 -5.17,-3.13 -8.97,-4.99 -12.48,-4.99 -380.66,-167.69 -969.45,-829.63 -969.45,-1148.74 0,-34.85 28.1,-56.34 48.64,-71.32 20.68,-15.37 30,-24.17 32.57,-37.84 -2.57,-7 -8.9,-24.72 -17.59,-51.07 -86.03,-272.74 -202.76,-650.2 -202.76,-780.18 0,-108.96 5.94,-221.64 16.88,-331.49 2.57,-24.75 7.29,-50.95 8.79,-75.12 4.47,-26.31 9.96,-52.54 15.37,-81.35 9.32,-47.79 22.3,-95.24 35.03,-143.17 100.62,-317.59 317.02,-578.21 786.8,-633.99l0 -45.54c-280.07,-53.78 -422.19,-221.86 -422.19,-499.75 0,-123.86 35.24,-249.21 69.82,-370.52 34.08,-116.76 68.9,-238.87 68.9,-358.04 0,-11.22 0,-25.53 3.41,-42.13 1.89,-51.2 5.09,-118.49 -26.1,-156.33 -23.6,-22.01 -58.2,-32.95 -106.04,-32.95 -69.04,0 -113.6,55.53 -170.05,119.16 -62.85,75.51 -132.7,159.78 -258.89,163.75l-4.86 0 -74.03 -31.37 -3.37 -10.69c-1.06,-9.43 -3.13,-17.41 -5.94,-24.55 -4.99,-17.56 -13.79,-35.91 -13.79,-65.39 0,-157.53 245.77,-612.52 249.96,-616.71 222.2,-390.15 529.14,-803.4 828.23,-1201.54 325.61,-436.11 662.54,-886.61 892.46,-1311.65l3.94 -9.88 13.36 0c283.97,-10.52 515.82,-41.18 700.88,-83.88 491.05,-120.91 677.35,-338.16 815.85,-497.55 93.34,-108.22 166.42,-194.39 299.23,-194.39 46.74,0 136.19,45.26 278.66,123.58 102.84,55.54 219,117.83 257.65,117.83 32.14,0 173.32,-96.48 312.78,-191.19 139.65,-97.25 298.14,-206.42 453.21,-295.19l27.04 29.86c-64.04,98.09 -116.03,159.42 -152.54,204.84 -62.42,72.27 -88.63,103.19 -88.63,191.96 0,22.3 27.44,86.98 48.93,139.42 32.14,77.41 51.59,127.71 51.59,155.11 0,2.14 -11.89,395.81 -142.66,395.81 -25.81,0 -96.05,-16.08 -212.11,-41.89 -85.78,-17.84 -181.83,-39.14 -203.85,-39.14 -170.51,0 -981.58,230.47 -1014.95,243.84 -4.62,3.34 -19.21,12.83 -36.13,25.95 -95.48,68.2 -193.15,134.67 -237.19,134.67 -28.8,0 -74.03,-19.59 -144.13,-52.97 -46.25,-21.32 -106.36,-49.41 -127.17,-49.41 -35.8,0 -104,39.28 -185.59,95.38 -245.07,167.38 -620.76,503.61 -664.79,554.68 -45.94,52.82 -320.9,411.25 -562.97,775.86 -7,12.03 -14.08,22.02 -20.55,33.49 -2.14,1.23 -2.81,1.23 -2.81,4.04 -17.06,24.73 -33.91,50.16 -49.03,73.93 -169,267.34 -308.27,520.77 -308.27,638.21 0,66.9 34.16,100.23 74.28,124.93 10.27,6.75 20.65,12.55 30.64,18.49 3.52,1.9 7.03,3.56 10.83,5.17 42.03,25.64 85.79,54.3 85.79,113.45 0,35.1 -32.43,82.97 -80.61,152.82 -86.77,127.95 -219.82,324.34 -219.82,556.32 0,296.91 242.89,676.01 517.92,676.01 22.55,0 165.52,-15.4 290.9,-30.95 138.18,-15.54 271.37,-30.39 297.04,-30.39 751.25,0 1238.01,170.47 1424.55,993.88 5.45,13.69 8.97,28 12.21,41.89 8.47,39.29 15.15,80.12 23.35,122.26 4.47,32.81 10.52,67 13.26,102.13l16.64 0.71 32.92 3.62c11.91,-39.46 24.75,-83.77 48.07,-151.83l9.21 -27.69 23.39 16.57c229.24,155.91 344.18,631.98 344.18,852.07 0,223.83 -78.85,661.42 -250.84,891.22zm-1229.77 712.21c-263.33,326 -883,1086.31 -1018.9,2151.27l-1.62 18.64 -81.88 0c-122.43,0 -242.75,-134.98 -304.22,-215.34 -86.77,-113.85 -150.53,-245.56 -150.53,-310.98 0,-43.37 30,-91.58 58.8,-143.64 30.92,-50.12 61.58,-103.01 61.58,-149.09 0,-85.39 -74.84,-232.12 -188.44,-366.68 -121.17,-141.14 -247.68,-229.1 -337.64,-229.1 -23.32,0 -174.38,32.67 -295.72,59.97 -172.93,39.17 -277.31,61.47 -302.64,61.47 -63.98,0 -339.05,-86.2 -365.43,-163.19 -42.55,-122.01 -115.22,-285.05 -193.29,-456.48 -174.42,-382.1 -392.33,-856.65 -392.33,-1182.75l80.64 -830.98c-0.81,-167.27 -59.01,-219.29 -124.11,-273.07 -65.14,-60.39 -134.56,-121.3 -134.56,-310.31 0,-183.16 54.44,-473.08 159.67,-775.02 3.37,-8.64 5.55,-17.16 8.65,-26.34 7.38,-19.2 15.12,-36.79 22.82,-56.63 150.35,-400.84 390.82,-807.76 708.34,-1010.52l51.84 -33.8 -19.59 59.05c-32.25,86.74 -63.1,169.56 -90.12,243.88 -41.88,107.41 -80.78,208.32 -80.78,232.33 0,76.89 38.9,93.66 82.3,111.07 31.44,16.07 78.75,34.57 78.75,90.77 0,25.78 -17.31,66.09 -47.31,135.91 -21.11,51.06 -45.12,114.3 -60.36,170.64 -1.89,8.65 -3.52,15.51 -3.52,23.89 -1.51,4.33 -1.51,8.79 -5.94,13.36 0,2.36 0,3.7 -1.09,6.37 -0.81,12.55 -2.85,26.48 -3.94,40.02 -21.63,140.05 -34.05,286.51 -42.84,427.58 -6.86,65.52 -10.41,132.28 -17.66,197.06l-18.14 625.93c0,18.53 7.84,1970.54 669.58,1970.54l433.76 0c133.08,0 238.98,212.5 335.7,417.41 53.78,110.78 104.32,214.15 155.81,283.96l1087.62 -804.5 7.89 -6.71 351.63 -261.18 4.75 3.38 14.04 8.54c27.33,20.23 30.67,30.78 30.67,77 0,25.39 -30.67,62 -122.25,176.27zm2797.4 -7014.85c0,90.53 -92.92,211.73 -173.85,317.35 -48.78,65.8 -104.84,138.99 -104.84,167.55 0,41.32 36.09,51.17 113.6,61.58 73.4,6.51 165.09,16.6 165.09,110.75 0,78.36 -52.26,148.21 -101.71,223.62 -23.78,34.01 -49.45,69.57 -70.24,107.93 -334.47,599.7 -792.88,651.3 -1197.91,651.3 -203.61,0 -219.54,-22.97 -233.57,-201.04 -3.52,-32.95 -8.79,-73.62 -14.21,-122.89 -117.51,14 -307.89,148.14 -422.68,230.44 -40.84,28.66 -71.08,50.12 -90.28,61.09 -52.79,30.63 -133.05,42.27 -213.17,53.74 -64.01,9.18 -133.75,18.01 -166.25,39.99 -14.21,8.79 -36.26,30.82 -60.8,62.15 -94.33,116.83 -243.88,356.63 -243.88,410.97 0,167.73 292.48,653.44 468.22,944.82 9.36,17.2 19.49,32.71 26.77,49.59 36.09,56.63 66.23,105.23 82.83,140.12 5.27,7.04 8.93,14.6 11.99,21.07 1.89,2.81 1.89,5.52 5.38,8.13l1.37 5.8 -1.37 6.9 0 4.01c-5.38,22.58 -26.17,46.25 -68.3,46.25 -45.83,0 -1127.53,-527.17 -1337.75,-803.86 -86.97,-117.54 -88.73,-400.03 -88.73,-402.84 0,-130.24 59.72,-374.47 218.2,-509.06l17.27 -14.84 12.13 18.21c37.43,50.16 66.76,98.09 108.12,172.4 12.69,19.17 25.39,41.61 39.99,65.53 107.62,-254.39 363.52,-479.77 662.64,-656.85 153.31,-92.11 312.18,-169.03 476.74,-232.48 7.15,-4.08 15.83,-9.35 25.78,-12.73 6.79,-2.56 15.3,-4.82 22.83,-8.09 4.61,-1.9 7.18,-2.43 11.26,-4.47 275.45,-104.42 529.95,-163.75 690.72,-163.75 42.84,0 93.62,15.4 157.81,49.34l12.17 4.99 0 92.11 -5.42 5.13c-38.08,37.46 -131.57,138.4 -131.57,184.55 0,47.68 20.65,69.18 77.4,69.18 37.4,-1.76 288.16,-183.63 413.51,-315.34 -21.88,-18.46 -41.47,-25.22 -65.53,-25.22 -23.88,0 -53.35,6.05 -98.86,16.6l-9.18 4.05 -8.26 -5.1c-5.66,-3.55 -9.18,-5.55 -13.22,-8.78 -24.73,-12.17 -40.81,-24.06 -40.81,-70.14 0,-117.68 328,-430.03 469.85,-557.24 184.26,-166.32 486.2,-415.57 559.14,-415.57 111.6,0 111.6,80.78 111.6,123.06zm536.32 317.35c-82.12,-105.62 -173.53,-226.82 -173.53,-317.35 0,-42.27 0,-123.06 111.6,-123.06 135.44,0 1027.4,793.69 1027.4,972.82 0,46.08 -15.86,57.96 -38.79,70.14 -3.8,3.23 -9.21,5.23 -13.96,8.78l-9.43 5.1 -9.21 -4.05c-45.51,-10.55 -73.48,-16.6 -96.86,-16.6 -24.68,0 -45.36,6.76 -66.19,25.22 127.67,131.71 376.78,313.57 414.24,315.34 56.17,0 78.75,-21.49 78.75,-69.18 0,-46.15 -97.38,-147.09 -133.79,-184.55l-5.94 -5.13 0 -92.11 11.53 -4.99c67.53,-33.94 114.13,-49.34 159.67,-49.34 161.05,0 416.88,59.33 692.9,165.78l3.91 0.53c11.22,4.3 20.57,7.43 32.03,12.73 8.76,3.2 18.78,6.62 27.44,9.99 157.64,63.45 318.15,142.9 469.46,232.48 300.01,177.08 558.09,402.45 663.71,656.85 13.93,-23.92 27.99,-46.36 37.32,-65.53 44.03,-74.31 72.13,-122.25 108.36,-172.4l13.36 -18.21 17.27 14.84c159.67,134.59 218.48,378.82 218.48,509.06 0,2.81 0,285.3 -89.62,404.88 -209.05,274.65 -1291.26,801.83 -1338.87,801.83 -39.5,0 -58.14,-21.42 -65.46,-43.69 0,-2.56 -1.48,-4.19 -1.48,-6.57l-2.39 -6.9 3.87 -5.8c0.75,-1.23 2.71,-2.6 4.12,-5.31 0.78,-4.99 3.2,-9.99 8.62,-16.84 15.22,-30.01 40.66,-72.17 72.8,-123.2 11.47,-23.96 26.2,-47.45 42.84,-73.55 173.04,-291.38 466.36,-777.09 466.36,-944.82 0,-54.33 -147.68,-294.13 -243.31,-411.39 -26.63,-30.92 -47.45,-52.94 -62.15,-61.73 -34.04,-21.98 -100.79,-30.81 -167.65,-39.99 -76.89,-11.47 -155.64,-23.11 -209.16,-53.74 -21.32,-10.98 -50.79,-32.43 -90.77,-61.09 -116.18,-82.3 -304.09,-216.44 -423.63,-230.44 -5.98,49.27 -9.22,89.94 -12.7,122.89 -15.97,178.07 -30.53,201.04 -235.08,201.04 -405.69,0 -863.93,-51.59 -1196.53,-651.3 -22.86,-38.36 -47.56,-73.92 -72.84,-107.93 -52.83,-75.41 -100.2,-145.26 -100.2,-223.62 0,-94.15 91.41,-104.24 164.39,-110.75 76.71,-10.41 115.54,-20.26 115.54,-61.58 0,-28.56 -56.81,-101.75 -106.4,-167.55zm6781.32 3795.39l3.24 -47.55 1.86 -32.85 4.22 -68.09c0,-1016.75 -958.65,-1945.35 -1805.98,-2762.83 -614.68,-595.51 -1148.32,-1109.14 -1148.32,-1524.67 0,-222.95 305.18,-325.09 510.16,-325.09 40.9,0 79.8,2.32 118.45,8.51 29.3,3.24 60.81,8.4 90.39,14.32 36.47,9.49 73.99,17.84 107.4,29.08 327.62,110.79 595.23,371.23 820.46,590.62 204.49,197.95 378.27,368.56 529.18,368.56 97.25,0 223.34,-129.74 312.04,-247.5 -467.32,-871.15 -1099.72,-1640.39 -1855.85,-2265.48 -275.34,239.3 -534.76,452.18 -768.4,452.18 -296.14,0 -563.43,-44.14 -597.38,-585.2l-2.17 -24.06 167.94 0c31.72,0 122.01,21.34 212.35,41.18 80.79,18.39 166.29,38.79 190.49,38.79 101.85,0 256.18,-81.38 449.06,-193.58 -1254.05,-919.86 -2801.23,-1463.52 -4475.64,-1463.52 -1674.47,0 -3221.73,543.66 -4475.77,1463.63 193.72,112.12 347.27,193.47 451.58,193.47 21.11,0 109.03,-20.4 188.49,-37.29 92.96,-21.34 180.46,-42.69 210.99,-42.69l169.98 0 -1.52 24.06c-36.58,541.06 -304.89,585.2 -598.36,585.2 -233.5,0 -494.6,-212.99 -769.01,-452.32 -756.03,625.02 -1388.4,1394.12 -1855.71,2264.99 88.63,117.96 214.47,248.12 309.33,248.12 155.24,0 330.32,-170.61 530.65,-368.56 228.85,-221.01 496.89,-483.77 828.45,-592.4 34.01,-10.91 70.24,-20.51 105.9,-27.83 29.86,-6.86 60.64,-12.13 90.49,-15.51 36.51,-4.47 73.26,-6.79 112.86,-6.79 205.57,0 508.32,102.14 508.32,325.09 0,415.53 -531.57,929.17 -1145.86,1524.67 -846.52,817.48 -1805.98,1746.08 -1805.98,2762.83l4.58 64.85 0.81 33.49 3.52 50.15 71.61 1064.83c0,243.56 -76.82,617.53 -141.29,855.03 986.47,3037.58 3839.47,5233.74 7205.93,5233.74 3366.21,0 6219.12,-2195.88 7205.72,-5233.1 -64.29,-237.48 -138.68,-611.73 -138.68,-854.2l69.46 -1066.3z"/>
  <path class="fil0" d="M12149.43 3989.49c-2179.63,0 -4228.74,848.8 -5769.95,2389.98 -1541.21,1541.21 -2390.02,3590.36 -2390.02,5769.95 0,2179.6 848.8,4228.74 2390.02,5769.95 1541.2,1541.21 3590.32,2390.03 5769.95,2390.03 2179.59,0 4228.73,-848.81 5769.95,-2390.03 1541.17,-1541.2 2389.95,-3590.35 2389.95,-5769.95 0,-2179.59 -848.77,-4228.73 -2389.95,-5769.95 -1541.21,-1541.17 -3590.36,-2389.98 -5769.95,-2389.98zm0 246.19c4370.65,0 7913.73,3543.08 7913.73,7913.73 0,4370.65 -3543.08,7913.77 -7913.73,7913.77 -4370.65,0 -7913.77,-3543.12 -7913.77,-7913.77 0,-4370.65 3543.12,-7913.73 7913.77,-7913.73z"/>
  <path class="fil0" d="M14998.33 13369.5l1.24 5.51 14.14 -1.86c503.22,-42.83 859.14,-489.89 1172.1,-886.12 33.45,-44.59 67.98,-88.63 104.17,-131.33 11.88,-15.33 32.11,-27.47 59.37,-34.12l0 -47.79 -30.64 -4.89c-96.19,-16.78 -205.57,-34.57 -309.08,-48.22 -20.79,29.3 -39.43,60.01 -58.17,88.63 -143.92,222.17 -305.63,471.39 -499.85,587.35 -87.64,53.22 -214.37,77.3 -333.8,101.19 -131.04,23.42 -263.64,50.95 -339.88,110.53 -164.67,130.13 -272.12,336.51 -381.15,559.88 169.06,-146.62 374.53,-251.75 584.15,-295.12l17.41 -3.65z"/>
  <path class="fil0" d="M15070.56 13473.8c-5.02,-5.02 -12.16,-10.83 -19.59,-15.26 6.09,4.44 11.37,11.75 18.08,15.26l1.51 0z"/>
  <path class="fil0" d="M14877.26 12482.05c-89.9,0 -117.15,-24.89 -198.67,-205.81 -80.19,98.19 -112.73,150.91 -169.56,237.16 220.88,226.6 230.97,252.98 399.29,252.98 144.03,0 438.4,-96.65 437.18,-292.06l0 -355.82c-137.52,0 -178.82,0 -254.42,1.48 -64.08,228.96 -1.34,362.08 -213.81,362.08z"/>
  <path class="fil0" d="M16656.43 15995.34c99.32,-204.98 202.9,-417.55 337.04,-417.55l432.73 0c661.28,0 668.84,-1952.63 668.84,-1971.52l-17.45 -627.34c-8.09,-63.24 -11.99,-129.98 -17.51,-195.51 -7.85,-141.1 -21.91,-287.58 -41.18,-426.12l-17.42 0c-361.16,20.44 -376.46,373.93 -389.12,658.39 -5.55,80.68 -8.65,156.61 -19.27,219.5l-7.64 30.25c11.5,109.59 14.91,221.99 14.91,329.44 0,130.03 -116.28,507.62 -203.04,780.44 -8.09,26.34 -12.84,44.07 -17.45,51.1 1.52,13.61 12.73,22.43 33.38,37.8 19.42,15.01 46.85,36.54 46.85,71.36 0,319.21 -582.74,979.22 -961.32,1147.29l4.02 3.7 -22.65 3.13c-51.6,20.26 -95.46,32.04 -135.38,32.04l-11.49 -1.13c-96.76,23.39 -166.71,40.83 -196.92,40.83 -227.63,0 -477.27,-127.06 -728.21,-293.53l-1.89 0 1093.17 811.49c52.9,-69.82 104.21,-173.25 157,-284.07z"/>
  <path class="fil0" d="M16099.61 9573.2c-233.5,-101.4 -726.28,-317.73 -1104.15,-447.48 -180.43,-62.14 -334.97,-102.95 -422.4,-102.95 -48.07,0 -199.55,12.66 -199.55,181.35 1.37,19.2 81.38,201.46 133.5,265.29l3.91 5.66c2.21,7.56 3.27,11.84 6.75,17.55 157.53,63.52 317.9,142.96 469.07,232.58 299.8,177.16 557.59,402.63 663.14,657.03 13.9,-23.92 27.96,-46.36 37.25,-65.53 44,-74.34 72.1,-122.29 108.29,-172.47l13.33 -18.18 17.31 14.84c159.53,134.63 218.26,378.93 218.26,509.24 0,2.77 0,285.37 -89.51,404.99 -208.95,274.71 -1290.13,802.03 -1337.75,802.03 -39.42,0 -58.09,-21.37 -65.38,-43.65 -34.01,35.28 -70.83,69.36 -109.45,105.16 -170.86,159.09 -366.48,339.62 -366.48,542.83 0,23.14 24.56,131.51 48.04,227.59 25.39,100.38 41.61,171.22 48.18,211.38 187.46,-816.13 675.45,-986.67 1425.68,-986.67 23.39,0 154.97,14.87 294.56,30.43 125.38,15.5 268.98,30.95 291.38,30.95 275.25,0 518.06,-379.2 518.06,-676.26 0,-232.02 -132.03,-428.48 -221.51,-556.5 -47.38,-69.85 -78.71,-117.72 -78.71,-152.85 0,-55.25 35.38,-83.73 74.81,-106.32 14.53,-16.64 38.58,-25.92 55.28,-33.66 38.09,-24.72 70.1,-57.02 70.1,-122.15 0,-119.2 -139.97,-375.31 -311.68,-644.92 -24.02,-22.12 -42.1,-40.1 -54.65,-51.45l-19.41 -6.79c-16.64,-6.72 -56.03,-25.39 -116.28,-51.03z"/>
  <path class="fil0" d="M10133.38 12907.99c6.76,-36.76 24.59,-109.32 51.45,-218.94 22.65,-96.05 50.09,-204.41 50.09,-227.55 0,-202.16 -196.39,-383.75 -370.66,-542.87 -37.29,-37.28 -74,-73.4 -110.01,-107.69 -5.41,22.55 -26.17,46.22 -68.3,46.22 -45.79,0 -1126.55,-527.31 -1336.59,-804.07 -86.88,-117.58 -88.67,-400.17 -88.67,-402.95 0,-130.3 59.65,-374.64 218.03,-509.27l17.23 -14.84 12.14 18.21c37.42,50.2 66.68,98.13 108,172.44 12.7,19.17 25.39,41.64 39.96,65.56 107.55,-254.42 363.24,-479.87 662.08,-657.02 153.2,-92.15 311.9,-169.1 476.36,-232.59 0,-6.79 0.95,-11.74 3.09,-17.55l4.05 -5.7c52.22,-63.8 131.61,-246.08 131.61,-266.87 0,-167.06 -150.36,-179.76 -196.36,-179.76 -88.21,0 -243.7,40.8 -425.91,104.88 -378.34,129.85 -869.91,344.18 -1102.53,445.57 -57.09,25.61 -97.98,44.29 -114.73,51.03l-21.69 8.83c-14.46,11.6 -36.34,31.26 -60.08,55.92 -168.86,267.44 -308.02,520.94 -308.02,638.41 0,66.86 34.15,100.27 74.24,125 16.74,6.75 28.87,14.18 41.43,23.64 41.99,25.67 85.71,54.29 85.71,113.49 0,35.13 -32.39,82.97 -80.57,152.84 -86.67,127.99 -219.64,324.45 -219.64,556.5 0,297.01 242.75,676.27 517.5,676.27 22.57,0 165.37,-15.44 290.64,-30.96 138.12,-15.58 271.13,-30.46 296.81,-30.46 750.61,0 1236.95,170.58 1423.35,994.24z"/>
  <path class="fil0" d="M9427.71 12482.05c-208.81,0 -150.75,-133.11 -213.53,-362.08 -75.3,-1.48 -117.57,-1.48 -251.74,-1.48l0 355.82c-3.24,195.41 290.23,292.06 433.97,292.06 169.69,0 180.85,-26.38 399,-252.98 -55.35,-86.25 -87.21,-138.97 -168.04,-237.16 -82.23,180.92 -110.15,205.81 -199.66,205.81z"/>
  <path class="fil0" d="M9528.03 13108.4c-77.51,-59.58 -211.13,-87.15 -339.88,-110.57 -120,-23.85 -245.66,-47.94 -336.37,-101.19 -192.2,-115.92 -354.48,-365.14 -496.33,-587.31 -19.97,-28.63 -36.82,-59.33 -59.12,-88.63 -104.03,13.61 -212.04,31.44 -310.59,48.22l-28.45 4.89 0 47.79c26.56,7.78 47.38,18.78 59.51,34.12 34.26,42.7 68.97,86.7 105.8,131.33 312.1,396.23 666.55,843.28 1169.74,886.09l16.64 1.89 0 -5.52 17.94 3.63c210.99,43.4 416.56,151.94 588.27,297.68 -109.63,-225.94 -222.17,-431.09 -387.13,-562.42z"/>
  <path class="fil0" d="M6879.19 15577.79l433.38 0c132.97,0 238.8,212.57 335.46,417.55 53.71,110.82 104.2,214.26 155.63,284.07l1086.74 -804.74c-245.67,163.01 -495.52,286.78 -719.42,286.78 -28.24,0 -98.97,-17.45 -198.6,-40.8 13.36,-2.07 29.05,-5.45 44.41,-10.7 -15.36,5.24 -31.06,8.62 -48.6,10.7 0,0 -3.48,1.09 -6.86,1.09 -40.13,0 -85.18,-11.78 -136.6,-32.04l-17.69 -3.13 5.23 -1.89c-380.33,-167.69 -968.6,-829.88 -968.6,-1149.1 0,-34.81 28.07,-56.34 48.61,-71.35 20.65,-15.37 29.93,-24.21 32.53,-37.81 -2.6,-7.03 -8.9,-24.72 -17.59,-51.06 -85.92,-272.86 -202.58,-650.45 -202.58,-780.47 0,-109 5.94,-221.75 16.88,-331.62l-4.71 -28.07c-12.17,-62.88 -14.32,-138.82 -19.84,-219.49 -12.98,-286.08 -28.1,-637.97 -388.78,-658.39l-19.45 -1.59c-21.55,140.11 -33.98,286.61 -42.77,427.71 -6.89,65.52 -10.41,132.32 -17.66,197.13l-18.1 626.11c0,18.49 7.84,1971.13 668.97,1971.13z"/>
  <path class="fil0" d="M9237.53 13476.38c12.02,-8.51 20.26,-17.84 27.26,-28.77 -10.52,9.57 -20.51,19.41 -30.46,26.2 1.2,2 3.2,2.57 3.2,2.57z"/>
 </g>
</svg>
