<?xml version="1.0" encoding="UTF-8"?>
<!DOCTYPE svg PUBLIC "-//W3C//DTD SVG 1.1//EN" "http://www.w3.org/Graphics/SVG/1.1/DTD/svg11.dtd">
<!-- Creator: CorelDRAW 2021 (64-Bit) -->
<svg xmlns="http://www.w3.org/2000/svg" xml:space="preserve" width="69.4661mm" height="102.052mm" version="1.1" style="shape-rendering:geometricPrecision; text-rendering:geometricPrecision; image-rendering:optimizeQuality; fill-rule:evenodd; clip-rule:evenodd"
viewBox="0 0 11348.39 16671.88"
 xmlns:xlink="http://www.w3.org/1999/xlink"
 xmlns:xodm="http://www.corel.com/coreldraw/odm/2003">
 <defs>
  <style type="text/css">
   <![CDATA[
    .fil0 {fill:white;fill-rule:nonzero}
   ]]>
  </style>
 </defs>
 <g id="Capa_x0020_1">
  <metadata id="CorelCorpID_0Corel-Layer"/>
  <path class="fil0" d="M4132.89 9575.53c-45.53,-34.93 -123.91,-51.13 -199.58,-64.84 -70.49,-14 -144.25,-28.13 -197.51,-59.37 -112.84,-67.94 -208.11,-214.16 -291.33,-344.41 -11.75,-16.76 -21.66,-34.81 -34.75,-51.98 -61.08,8.02 -124.48,18.44 -182.35,28.29l-16.71 2.83 0 28.07c15.62,4.56 27.77,11.01 34.93,20 20.11,25.01 40.51,50.89 62.18,76.99 183.17,232.37 391.33,494.54 686.74,519.67l9.75 1.09 0 -3.22 10.54 2.12c123.91,25.42 244.54,89.1 345.34,174.57 -64.32,-132.49 -130.37,-252.82 -227.24,-329.82z"/>
  <path class="fil0" d="M8041.77 9211.12c19.7,-26.15 39.94,-51.98 61.2,-76.99 6.98,-8.99 18.85,-16.12 34.88,-20l0 -28.07 -18.05 -2.83c-56.48,-9.85 -120.61,-20.27 -181.42,-28.29 -12.22,17.17 -23.17,35.16 -34.18,51.98 -84.49,130.25 -179.41,276.4 -293.45,344.41 -51.41,31.24 -125.87,45.37 -196.01,59.37 -76.95,13.71 -154.74,29.85 -199.54,64.84 -96.7,76.29 -159.76,197.33 -223.83,328.32 99.34,-85.98 219.97,-147.65 343.02,-173.07l10.19 -2.19 0.75 3.28 8.36 -1.09c295.41,-25.13 504.33,-287.3 688.06,-519.67z"/>
  <path class="fil0" d="M4330.27 8877.81c-21.84,-21.84 -43.41,-43.05 -64.56,-63.17 -3.22,13.27 -15.37,27.15 -40.11,27.15 -26.86,0 -661.44,-309.25 -784.78,-471.6 -50.94,-68.92 -52.03,-234.61 -52.03,-236.29 0,-76.36 34.98,-219.69 128,-298.58l10.15 -8.76 7.14 10.72c21.91,29.39 39.14,57.52 63.4,101.14 7.43,11.24 14.87,24.37 23.39,38.39 63.22,-149.22 213.36,-281.43 388.79,-385.28 89.9,-54.06 183.08,-99.18 279.68,-136.41 0,-3.92 0.52,-6.86 1.78,-10.31l2.37 -3.28c30.71,-37.41 77.29,-144.32 77.29,-156.54 0,-97.97 -88.3,-105.4 -115.34,-105.4 -51.69,0 -142.98,23.92 -250.06,61.49 -222.05,76.13 -510.73,201.89 -647.26,261.3 -33.49,15.05 -57.52,25.99 -67.37,29.91l-12.74 5.18c-8.46,6.81 -21.32,18.39 -35.27,32.8 -99.11,156.86 -180.85,305.49 -180.85,374.43 0,39.19 20.06,58.78 43.57,73.24 9.85,3.99 16.94,8.36 24.33,13.9 24.67,15.03 50.37,31.86 50.37,66.56 0,20.58 -19.02,48.65 -47.31,89.62 -50.89,75.03 -128.98,190.3 -128.98,326.37 0,174.16 142.52,396.55 303.89,396.55 13.2,0 96.99,-9.05 170.59,-18.15 81.09,-9.1 159.18,-17.81 174.28,-17.81 440.71,0 726.21,100 835.67,583 3.97,-21.55 14.41,-64.09 30.26,-128.34 13.25,-56.38 29.32,-119.94 29.32,-133.49 0,-118.54 -115.32,-225.05 -217.6,-318.35z"/>
  <path class="fil0" d="M3219.5 11107.41c0,0 -4.49,0.69 -6.45,0.69 -23.57,0 -50.02,-6.91 -80.23,-18.79l-10.42 -1.9 3.1 -1.05c-223.32,-98.38 -568.64,-486.7 -568.64,-673.93 0,-20.4 16.48,-33.03 28.52,-41.79 12.11,-8.99 17.58,-14.18 19.08,-22.19 -1.5,-4.1 -5.24,-14.52 -10.32,-29.98 -50.48,-160.03 -118.95,-381.46 -118.95,-457.65 0,-63.97 3.51,-130.07 9.92,-194.5l-2.78 -16.48c-7.14,-36.82 -8.41,-81.37 -11.63,-128.7 -7.61,-167.76 -16.48,-374.14 -228.22,-386.13l-11.42 -0.91c-12.68,82.19 -20,168.1 -25.13,250.82 -4.04,38.44 -6.11,77.57 -10.42,115.66l-10.6 367.12c0,10.9 4.61,1155.98 392.75,1155.98l254.46 0c78.09,0 140.22,124.66 196.97,244.89 31.53,65 61.21,125.63 91.35,166.6l638.11 -472c-144.25,95.62 -290.94,168.17 -422.45,168.17 -16.55,0 -58.04,-10.19 -116.59,-23.92z"/>
  <path class="fil0" d="M7696.48 8874.96c13.72,0 91.01,8.71 172.96,17.87 73.6,9.03 157.91,18.15 171.11,18.15 161.54,0 304.12,-222.41 304.12,-396.62 0,-136.07 -77.52,-251.27 -130.07,-326.32 -27.77,-40.97 -46.22,-69.04 -46.22,-89.67 0,-32.38 20.8,-49.11 43.96,-62.36 8.53,-9.74 22.66,-15.21 32.51,-19.7 22.3,-14.52 41.15,-33.44 41.15,-71.64 0,-69.92 -82.24,-220.1 -183.04,-378.24 -14.07,-12.97 -24.73,-23.52 -32.1,-30.21l-11.42 -3.92c-9.74,-3.97 -32.85,-14.92 -68.24,-29.96 -137.1,-59.42 -426.42,-186.32 -648.3,-262.4 -105.93,-36.43 -196.63,-60.35 -247.99,-60.35 -28.23,0 -117.17,7.38 -117.17,106.33 0.82,11.24 47.78,118.15 78.45,155.56l2.3 3.33c1.21,4.44 1.85,6.98 3.92,10.26 92.5,37.3 186.61,83.86 275.35,136.41 176.01,103.92 327.42,236.13 389.37,385.33 8.18,-14.07 16.42,-27.2 21.91,-38.44 25.81,-43.57 42.3,-71.75 63.57,-101.14l7.78 -10.67 10.19 8.71c93.66,78.95 128.18,222.23 128.18,298.65 0,1.62 0,167.3 -52.55,237.44 -122.7,161.14 -757.51,470.4 -785.46,470.4 -23.17,0 -34.06,-12.56 -38.33,-25.65 -20,20.7 -41.67,40.69 -64.32,61.67 -100.34,93.3 -215.14,199.18 -215.14,318.35 0,13.61 14.39,77.11 28.18,133.49 14.92,58.83 24.42,100.39 28.34,123.96 110.08,-478.63 396.51,-578.63 836.99,-578.63z"/>
  <path class="fil0" d="M9152.52 9499.59c-4.72,-37.1 -7.02,-76.24 -10.31,-114.68 -4.61,-82.7 -12.79,-168.63 -24.15,-249.88l-10.21 0c-212.08,11.97 -221.02,219.29 -228.5,386.13 -3.23,47.31 -5.08,91.86 -11.35,128.68l-4.44 17.81c6.8,64.2 8.76,130.14 8.76,193.2 0,76.18 -68.22,297.6 -119.24,457.59 -4.72,15.5 -7.48,25.94 -10.13,30.03 0.8,8 7.37,13.2 19.47,22.19 11.47,8.76 27.54,21.38 27.54,41.79 0,187.25 -342.15,574.3 -564.38,672.85l2.35 2.12 -13.31 1.85c-30.3,11.93 -56.02,18.85 -79.46,18.85l-6.81 -0.7c-56.77,13.72 -97.86,23.92 -115.55,23.92 -133.65,0 -280.25,-74.45 -427.56,-172.09l-1.16 0 641.85 475.87c31.06,-40.91 61.2,-101.55 92.15,-166.55 58.37,-120.22 119.18,-244.87 197.9,-244.87l254.1 0c388.27,0 392.7,-1145.1 392.7,-1156.22l-10.26 -367.87z"/>
  <path class="fil0" d="M3962.31 9791.33c7.09,-5.02 11.93,-10.49 16.01,-16.89 -6.16,5.6 -12.04,11.42 -17.86,15.39 0.64,1.16 0.64,1.5 1.85,1.5z"/>
  <path class="fil0" d="M7386.15 9789.81l0.87 0c-2.94,-2.94 -7.09,-6.34 -11.53,-8.94 3.63,2.6 6.75,6.86 10.67,8.94z"/>
  <path class="fil0" d="M4289.86 9226.58c-32.44,-50.55 -51.23,-81.49 -98.66,-139.06 -48.24,106.09 -64.68,120.68 -117.17,120.68 -122.64,0 -88.53,-78.04 -125.42,-212.31 -44.21,-0.87 -69.04,-0.87 -147.76,-0.87l0 208.68c-1.96,114.57 170.36,171.27 254.79,171.27 99.59,0 106.16,-15.5 234.22,-148.4z"/>
  <path class="fil0" d="M7273.52 9208.2c-52.78,0 -68.74,-14.57 -116.64,-120.68 -47.08,57.57 -66.16,88.53 -99.52,139.07 129.66,132.9 135.59,148.4 234.38,148.4 84.54,0 257.38,-56.72 256.75,-171.34l0 -208.63c-80.8,0 -105.06,0 -149.43,0.87 -37.64,134.29 -0.82,212.31 -125.53,212.31z"/>
  <path class="fil0" d="M8225.58 8028.81c5.52,-3.87 13.31,-8.02 19.24,-12.51 -9.85,4.49 -23.98,9.98 -32.44,19.72 4.15,-2.6 7.37,-5.13 13.2,-7.2z"/>
  <path class="fil0" d="M10287.16 10942c-108.98,0 -357.79,-461.28 -370.01,-500.08 -39.99,-128.57 -97.56,-393.91 -97.56,-557.24l40.74 -625.53 1.9 -27.9 1.09 -19.24 2.42 -39.94c0,-596.43 -562.31,-1141.22 -1059.33,-1620.72 -360.6,-349.36 -673.66,-650.65 -673.66,-894.44 0,-130.76 179.07,-190.65 299.29,-190.65 23.98,0 46.8,1.32 69.5,4.97 17.12,1.9 35.63,4.95 53.03,8.41 21.38,5.52 43.34,10.42 62.93,17.06 192.2,65 349.19,217.78 481.34,346.42 119.94,116.19 221.83,216.25 310.41,216.25 83.86,0 204.24,-164.31 237.84,-229.2l2.83 -6.58 7.43 0c144.55,-14.57 279.8,-107.18 399.74,-278.29 108.23,-152.09 183.04,-335.36 225.74,-462.44l25.01 3.4 16.19 186.84 0 2.88c-15.9,39.08 -30.65,80.07 -43.68,123.16 -71.64,198.83 -151.05,424.46 -263.72,578.58 -48.93,65.58 -121.59,97.22 -191.97,128.16 -44.71,18.17 -85.52,36.14 -116.01,61.28 -45.87,34.86 -79.18,80.96 -112.1,125.92 -26.56,35.09 -52.21,69.27 -81.14,96.19l-22.3 21.03 1.14 -31.24c4.67,-65.07 -34.45,-140.4 -108.16,-220.2 -128.11,-134.06 -344.06,-252.78 -462.51,-252.78 -80.28,0 -121.54,37.69 -121.54,112.66 0,336.47 714.12,1059.1 961.54,1189.3 484.67,255.88 525.07,609.8 525.07,922.17l0 1080.13 70.54 586.76c0,2.94 -16.08,144.94 -72.03,144.94zm-781.2 -1171.2c-37.12,31.53 -71.64,62.01 -71.64,161.21l47.36 486c-1.14,191.69 -128.05,470.1 -230.41,694.24 -45.17,100.57 -88.51,196.19 -113.64,267.82 -14.47,45.17 -176.71,95.72 -214.06,95.72 -14.05,0 -76.36,-13.09 -177.38,-36.07 -71.82,-16.03 -160.8,-35.22 -172.55,-35.22 -53.37,0 -127.83,51.64 -199.4,134.47 -65.53,78.95 -110.21,165 -110.21,215.07 0,27.04 18.51,58.09 35.63,87.43 18.44,30.6 34.45,58.84 34.45,84.26 0,73.71 -144.25,308.78 -265.34,308.78l-48.98 0 -1.91 -10.95c-78.73,-624.73 -441.74,-1070.73 -595.68,-1261.97 -55.68,-67.01 -73.19,-88.51 -73.19,-103.38 0,-27.15 2.94,-33.31 19.13,-45.19l8.14 -5.02 1.6 -1.96 195.21 145 11.01 8.18 1.09 0c147.36,97.63 293.98,172.09 427.56,172.09 17.76,0 58.84,-10.21 115.61,-23.92 -6.57,-0.59 -16.37,-3.17 -25.42,-6.22 -5.13,-2.94 -10.95,-4.9 -17.58,-9 -54.56,-29.85 -117.67,-101.48 -179.16,-186.2 -91.65,-130.87 -175.96,-290.87 -203.5,-376.85l-4.56 -16.71 17.19 0c173.58,-3.81 699.24,-186.91 699.24,-437.89 0,-14.41 -9.33,-84.54 -17.24,-146.28 -10.31,-69.33 -18.08,-133.7 -18.08,-150.75 0,-89.85 81.6,-95.96 142.91,-98.72 53.78,-3.05 80.18,-8.25 80.18,-30.96 0,-92.2 -30.73,-128.34 -99.24,-207.25 -26.33,-32.1 -60.35,-72.03 -100.68,-124.65l-45.87 0c-18.44,13.31 -48.99,34 -87.78,59.07 -14.98,11.58 -33.78,23.21 -54.17,37.35 -29.8,20.63 -61.96,43.23 -92.79,66.28 -43.57,30.3 -83.97,61.95 -118.78,91.86 -37.23,32.74 -67.42,63.27 -80.8,89.15 -7.02,10.9 -8.87,20.06 -8.87,29.05 0,3.17 0.75,7.04 0.75,11.58 1.09,10.37 5.88,23.52 10.15,35.11 4.66,15.96 8.94,31.46 10.88,46.56 0.47,2.03 0.47,5.83 0.47,7.91 0,36.87 -18.51,63.16 -55.33,81.65 -2.3,1.39 -5.77,3.35 -9.05,4.62 -32.38,12.79 -73.94,18.9 -125.87,20.86 -6.8,0.57 -12.79,0.57 -20.57,0.57 -18.56,0 -41.15,-2.53 -64.77,-5.13 -57.11,-7.73 -123.85,-24.15 -186.5,-52.44 -30.55,-13.27 -60.35,-30.32 -86.5,-50.14l-0.87 0c-3.92,-2.07 -7.04,-6.4 -10.6,-8.94 -9.74,-9.16 -21.09,-17.99 -30.96,-28.77l-16.12 -18.31 16.88 -1.96 -0.75 -3.23 -10.19 2.14c-123.05,25.47 -243.68,87.14 -343.02,173.07 -1.91,5 -4.15,11.22 -7.79,16.08 -1.9,4.04 -4.26,8.35 -5.82,12.11 -1.27,4.04 -3.17,6.98 -3.81,10.08 -5.59,7.27 -8.23,14.87 -11.52,22.48 -34.01,69.56 -67.32,140.74 -110.14,205.81 -1.9,15.32 -5.13,30.53 -7.73,47.83 -20.04,102.17 -40.04,208.45 -80.8,322.32l-4.66 8.3 -55.22 0 -3.23 -5c-100.39,-134.86 -147.76,-391.51 -147.76,-522.79 0,-129.16 67.78,-408.43 200.97,-499.9l13.43 -9.74 5.93 16.25c14,39.94 22.64,65.93 29.73,89.1l20.29 -2.19 7.14 -0.41c3.12,-28.25 7.91,-54.4 12.06,-80.87 4.49,-15.85 6.75,-31.24 9.1,-46.85 2.78,-10.99 4.61,-21.89 7.89,-32.9 -3.86,-23.51 -13.36,-65.07 -28.29,-123.91 -13.77,-56.36 -28.18,-119.93 -28.18,-133.47 0,-119.18 114.81,-225.05 215.14,-318.35 22.66,-20.99 44.32,-40.99 64.32,-61.67 0,-1.5 -0.91,-2.42 -0.91,-3.87l-1.39 -4.02 2.3 -3.41c0.36,-0.74 1.57,-1.49 2.37,-3.1 0.41,-2.94 1.91,-5.88 5.02,-9.92 8.99,-17.58 23.92,-42.3 42.77,-72.27 6.73,-14 15.32,-27.77 25.06,-43.11 101.55,-170.93 273.59,-455.86 273.59,-554.3 0,-31.81 -86.63,-172.48 -142.7,-241.29 -15.62,-18.17 -27.84,-31.07 -36.48,-36.2 -19.95,-12.91 -59.07,-18.1 -98.33,-23.46 -45.06,-6.73 -91.29,-13.54 -122.69,-31.51 -12.51,-6.47 -29.8,-19.03 -53.26,-35.86 -68.12,-48.23 -178.43,-126.95 -248.51,-135.2 -3.51,28.93 -5.36,52.8 -7.43,72.09 -9.39,104.49 -17.92,117.98 -137.91,117.98 -238.02,0 -506.81,-30.32 -701.95,-382.1 -13.38,-22.48 -27.84,-43.34 -42.7,-63.34 -31.01,-44.21 -58.8,-85.2 -58.8,-131.12 0,-55.27 53.6,-61.21 96.48,-65 45.01,-6.11 67.72,-11.88 67.72,-36.14 0,-16.71 -33.24,-59.71 -62.36,-98.26 -48.24,-61.96 -101.84,-133.08 -101.84,-186.22 0,-24.77 0,-72.14 65.41,-72.14 79.54,0 602.77,465.61 602.77,570.67 0,27.02 -9.33,34 -22.76,41.15 -2.25,1.9 -5.42,3.05 -8.18,5.18l-5.54 2.94 -5.41 -2.37c-26.69,-6.16 -43.05,-9.74 -56.77,-9.74 -14.52,0 -26.63,3.99 -38.85,14.82 74.92,77.29 221.02,183.95 242.97,185 32.97,0 46.17,-12.63 46.17,-40.58 0,-27.14 -57.11,-86.32 -78.43,-108.28l-3.51 -3.01 0 -54.06 6.8 -2.88c39.58,-19.95 66.96,-29 93.64,-29 94.47,0 244.59,34.81 406.42,97.28l2.3 0.29c6.63,2.53 12.06,4.38 18.85,7.5 5.08,1.9 11.01,3.86 16.08,5.82 -2.07,-3.35 -2.7,-5.82 -3.92,-10.32l-2.35 -3.28c-30.6,-37.39 -77.58,-144.3 -78.38,-155.54 0,-98.95 88.92,-106.38 117.1,-106.38 51.41,0 142.13,23.92 248.05,60.4 221.88,76.06 511.19,202.97 648.3,262.4 35.34,15.03 58.5,25.99 68.24,29.91l11.4 3.97c7.38,6.68 17.99,17.24 32.1,30.19 -9.05,-12.95 -17.58,-27.09 -26.91,-40.11 0,-1.09 0,-1.78 -1.73,-1.78 -3.46,-7.16 -7.38,-13.38 -12.86,-19.65 -141.08,-213.93 -301.18,-424.18 -328.15,-455.19 -27.09,-29.9 -247.3,-227.18 -390.4,-325.38 -49.22,-32.85 -88.76,-55.9 -110.83,-55.9 -12.15,0 -45.07,16.48 -72.55,28.98 -41.97,19.54 -68.83,31.07 -85.42,31.07 -25.81,0 -82.74,-39.03 -139.17,-79.02 -9.74,-7.73 -17.17,-13.25 -22.66,-16.08 -17.17,-6.98 -493.79,-142.18 -592.67,-142.18 -12.45,0 -70.08,12.5 -119.42,22.99 -69.04,15.11 -111.06,24.55 -125.4,24.55 -76.54,0 -83.92,-230.93 -83.92,-232.19 0,-16.09 12.11,-45.6 30.96,-91.01 12.15,-30.71 28.23,-68.7 28.23,-81.78 0,-52.03 -15.21,-70.18 -51.8,-112.61 -21.55,-26.63 -52.85,-62.59 -90.01,-120.16l17.17 -17.46c90.19,52.03 183.38,116.07 265.73,173.12 80.75,55.56 163.1,112.15 180.68,112.15 23.98,0 92.09,-36.53 153.3,-69.09 83.04,-45.94 135.95,-72.5 163.38,-72.5 78.79,0 121.09,50.53 176.42,114 79.87,93.53 189.72,220.95 477.99,291.9 108.64,25.06 243.5,43.05 411.67,49.21l7.09 0 2.94 5.77c134.52,249.31 331.26,513.62 523.59,769.45 174.1,233.58 355.24,475.98 484.9,704.37 0.75,2.94 146.56,269.15 146.56,362.28 0,17.24 -5.06,28 -7.89,38.33 -0.69,4.2 -2.24,8.87 -3.4,14.41l-2.37 6.27 -42.41 18.39 -4.26 0c-73.66,-2.32 -116.41,-51.75 -152.32,-96.08 -31.46,-37.3 -58.5,-69.86 -98.43,-69.86 -28.31,0 -48.65,6.4 -61.15,19.31 -21.22,22.19 -18.05,61.67 -14.93,91.7 0.75,9.74 0.75,18.15 0.75,24.72 0,69.9 20.16,141.54 40.4,210.07 20.11,71.11 40.79,144.64 40.79,217.33 0,163.04 -83.15,261.65 -248.56,293.18l1.5 26.68c272.48,32.74 400.59,182.53 458.18,366.77 10.26,31.17 18.2,63.16 25.24,96.12 1.85,15.91 5.36,31.46 7.84,47.56 1.6,12.15 3.45,25.47 4.95,38.55l4.44 -17.76c6.22,-36.89 8.12,-81.44 11.29,-128.75 7.5,-166.78 16.42,-374.14 228.52,-386.13l10.26 0c-1.34,-8.82 -2.03,-16.37 -3.87,-24.37 0,-1.55 0,-1.55 -1.32,-2.37 0,-3.17 0,-4.04 -0.8,-7.78 -1.16,-4.33 -3.12,-9.46 -3.12,-14.41 -8.94,-33.54 -24.78,-69.51 -36.41,-101.14 -16.09,-40.92 -26.69,-64.61 -26.69,-79.71 0,-32.97 25.42,-43.86 45.99,-53.26 26.24,-10.19 48.08,-20.06 48.08,-65.18 0,-14.07 -21.84,-73.25 -46.28,-136.3 -17.17,-43.57 -35.56,-92.15 -53.26,-143.04l-12.56 -34.63 30.55 19.82c185.86,118.26 326.99,356.12 415.11,590.62 3.81,9.23 7.04,18.33 10.9,27.38 1.67,7.37 4.33,15.05 7.09,23.05 63.11,177.56 95.73,347.58 95.73,455.06 0,110.89 -40.81,146.62 -81.26,182.05zm-3421.03 2792.22c-16.43,9.74 -32.97,20 -46.12,27.89 -140.38,91.17 -258.82,290.24 -335.13,431.96l-4.36 6.45 -57.23 0 -3.05 -8c-38.44,-94.98 -176.06,-286.27 -278.7,-384.3 -46.33,-45.01 -106.56,-84.48 -171.22,-124.94 -142.7,-93.3 -290.53,-189.03 -290.53,-360.19 0,-99.54 40.4,-142.47 130.59,-142.47 74.35,0 179.13,57.46 291.97,118.9 19.24,11.13 39.19,22.01 59.99,33.13 35.63,19.08 72.5,38.51 107.27,55.1 20.39,9.39 41.54,17.97 62.81,25.81 44.21,16.66 87.43,27.04 126.97,27.04 37.15,0 79.92,-11.65 126.25,-30.89 23.8,-9.05 47.03,-19.72 70.77,-31.01 45.94,-23.05 93.31,-48.93 138.44,-74.98 115.96,-63.34 225.4,-123.1 302.57,-123.1 128.05,0 128.05,72.04 128.05,142.47 0,188.92 -216.28,322.04 -359.32,411.14zm-1436.87 -2019.19l-3.4 5 -56.02 0 -2.76 -8.3c-27.49,-74.33 -39.89,-144.14 -54.06,-211.04 -9.87,-55.1 -20.47,-106.27 -36.37,-159.12 -39.6,-65.07 -73.43,-135.27 -104.78,-203.46 -2.01,-1.55 -2.01,-2.35 -2.99,-4.95 -4.1,-8.87 -9.92,-17.99 -14.29,-28 -1.44,-3.53 -3.81,-7.79 -5.36,-12.17 -3.28,-5.93 -6,-11.01 -7.91,-16.42 -100.8,-85.52 -221.48,-149.15 -345.32,-174.62l-10.6 -2.14 0 3.23 15.27 1.96 -17.3 18.31c-5.75,7.91 -14.75,14.7 -23.85,22.32 -4.1,6.45 -8.94,11.86 -16.03,16.88 0,0 -1.21,-0.34 -1.85,-1.49 -29.5,21.96 -61.31,39.53 -93.71,53.08 -61.9,28.07 -128.63,43.05 -182.63,49.5 -22.71,3.63 -43.52,5.13 -61.15,5.13l-18.05 0c-52.15,-2.53 -93.64,-8.64 -125.06,-21.16 -0.34,-0.28 -0.34,-0.28 -1.55,-0.98 -37.46,-14.57 -57.98,-36.71 -64.43,-67.6 -0.93,-5.47 -0.93,-11.97 -0.93,-17.97 0,-17.01 5.24,-36.14 10.85,-54.47 5.47,-14.59 9.44,-29.05 10.88,-40.63l0 -6.06c0,-10.99 -5.41,-25.13 -16.08,-39.65 -11.93,-19.36 -31.76,-40.29 -56.25,-63.11 -35.39,-31.63 -79.25,-66.44 -125.81,-100.5 -32.1,-23.34 -64.15,-46.97 -95.1,-67.6 -23,-14.47 -44.09,-30.6 -62.59,-42.82 -38.62,-25.08 -69.1,-45.76 -87.55,-59.07l-45.42 0c-40.63,52.62 -74.28,92.55 -101.71,124.65 -66.69,78.91 -96.76,115.04 -96.76,207.25 0,22.71 24.6,27.9 79.69,30.96 58.57,2.76 142.01,8.87 142.01,98.72 0,17.06 -8.99,81.42 -19.02,150.75 -7.73,61.74 -17.35,131.87 -17.35,146.28 0,250.98 526.46,434.08 700.33,437.89l16.48 0 -4.31 16.71c-27.84,87.55 -112.49,247.53 -204.42,378.06 -60.17,83.51 -123.28,155.15 -177.28,185 -6.86,2.94 -11.93,6.06 -17.97,9 -9.05,3.05 -18.22,5.06 -26.11,6.22 58.55,13.71 100.09,23.92 116.64,23.92 131.46,0 278.13,-72.57 422.38,-168.17l4.61 -3.92 206.27 -153.19 2.76 1.96 8.18 5.02c16.09,11.88 18.04,18.04 18.04,45.19 0,14.87 -18.04,36.37 -71.68,103.38 -154.51,191.24 -518,637.24 -597.71,1261.97l-0.98 10.95 -48 0c-71.82,0 -142.47,-79.12 -178.49,-126.31 -50.82,-66.8 -88.28,-144.09 -88.28,-182.46 0,-25.42 17.58,-53.67 34.52,-84.26 18.08,-29.34 36.14,-60.4 36.14,-87.43 0,-50.07 -43.91,-136.12 -110.55,-215.07 -71.16,-82.83 -145.35,-134.47 -198.13,-134.47 -13.66,0 -102.23,19.2 -173.48,35.22 -101.37,22.99 -162.7,36.07 -177.5,36.07 -37.53,0 -198.9,-50.55 -214.34,-95.72 -25.01,-71.64 -67.6,-167.25 -113.42,-267.82 -102.3,-224.14 -230.12,-502.55 -230.12,-693.83l47.31 -487.45c-0.52,-98.15 -34.7,-128.63 -72.84,-160.16 -38.21,-35.43 -78.95,-71.16 -78.95,-182.05 0,-107.48 31.99,-277.49 93.66,-454.65 1.96,-5.08 3.28,-10.03 5.13,-15.45 4.31,-11.24 8.81,-21.55 13.43,-33.2 88.17,-235.13 229.2,-473.84 415.46,-592.81l30.44 -19.82 -11.47 34.63c-18.97,50.89 -37.05,99.47 -52.85,143.04 -24.6,63.04 -47.43,122.23 -47.43,136.3 0,45.12 22.82,54.99 48.23,65.18 18.51,9.39 46.23,20.29 46.23,53.26 0,15.1 -10.15,38.78 -27.72,79.71 -12.4,29.96 -26.45,67.08 -35.45,100.09 -1.09,5.08 -2.07,9.12 -2.07,14.02 -0.8,2.53 -0.8,5.18 -3.45,7.89 0,1.32 0,2.14 -0.64,3.69 -0.52,7.37 -1.68,15.55 -2.3,23.46l11.4 0.91c211.74,11.99 220.61,218.37 228.22,386.13 3.28,47.31 4.49,91.86 11.65,128.75l2.76 16.43c1.5,-14.47 4.26,-29.86 5.2,-44.04 2.58,-15.44 5.82,-30.83 8.99,-47.72 5.54,-28.07 13.13,-55.84 20.57,-84.02 59.02,-186.27 185.98,-339.16 461.52,-371.9l0 -26.68c-164.25,-31.53 -247.6,-130.14 -247.6,-293.18 0,-72.68 20.63,-146.21 40.92,-217.33 20,-68.53 40.47,-140.17 40.47,-210.07 0,-6.57 0,-14.98 1.96,-24.72 1.09,-30.03 2.99,-69.51 -15.34,-91.7 -13.82,-12.91 -34.11,-19.31 -62.18,-19.31 -40.51,0 -66.62,32.56 -99.77,69.86 -36.89,44.32 -77.86,93.76 -151.86,96.08l-2.88 0 -43.39 -18.39 -1.96 -6.27c-0.7,-5.54 -1.85,-10.21 -3.51,-14.41 -2.89,-10.32 -8.07,-21.09 -8.07,-38.33 0,-92.45 144.14,-359.34 146.6,-361.82 130.32,-228.84 310.41,-471.25 485.83,-704.83 191.06,-255.83 388.73,-520.14 523.54,-769.45l2.3 -5.77 7.84 0c166.62,-6.16 302.62,-24.15 411.14,-49.21 288.1,-70.95 397.37,-198.38 478.63,-291.9 54.74,-63.47 97.63,-114 175.55,-114 27.36,0 79.82,26.56 163.43,72.5 60.35,32.56 128.47,69.09 151.18,69.09 18.84,0 101.66,-56.59 183.44,-112.15 81.94,-57.05 174.92,-121.09 265.85,-173.12l15.91 17.46c-37.64,57.57 -68.12,93.53 -89.51,120.16 -36.64,42.43 -51.98,60.58 -51.98,112.61 0,13.09 16.09,51.07 28.7,81.78 18.85,45.42 30.26,74.92 30.26,91.01 0,1.26 -6.98,232.19 -83.68,232.19 -15.16,0 -56.36,-9.44 -124.44,-24.55 -50.3,-10.49 -106.66,-22.99 -119.58,-22.99 -100.05,0 -575.85,135.2 -595.39,143.04 -2.65,1.96 -11.3,7.48 -21.2,15.21 -55.97,39.99 -113.25,79.02 -139.12,79.02 -16.89,0 -43.46,-11.53 -84.56,-31.07 -27.09,-12.5 -62.36,-28.98 -74.58,-28.98 -21.03,0 -61.03,23.05 -108.92,55.9 -143.73,98.2 -364.13,295.48 -390,325.38 -26.86,31.01 -188.16,241.26 -330.16,455.19 -4.15,7.02 -8.3,12.91 -12.06,19.65 -1.32,0.69 -1.67,0.69 -1.67,2.35 -9.97,14.52 -19.88,29.41 -28.75,43.34 13.94,-14.41 26.74,-25.99 35.27,-32.79l12.73 -5.18c9.8,-3.92 33.83,-14.88 67.37,-29.91 136.54,-59.43 425.16,-185.18 647.27,-261.3 107.02,-37.57 198.31,-61.49 250.06,-61.49 27.02,0 115.32,7.43 115.32,105.4 0,12.22 -46.62,119.13 -77.29,156.52l-2.35 3.28c-1.34,3.46 -1.8,6.4 -1.8,10.32 4.15,-2.37 9.23,-5.47 15.05,-7.43 4.04,-1.5 9.05,-2.89 13.43,-4.74 2.71,-1.14 4.2,-1.44 6.57,-2.65 161.6,-61.26 310.92,-96.08 405.21,-96.08 25.13,0 54.92,9.05 92.61,29l7.09 2.88 0 54.06 -3.17 3.01c-22.36,21.96 -77.22,81.14 -77.22,108.28 0,27.95 12.15,40.58 45.42,40.58 21.96,-1.05 169.08,-107.71 242.57,-185 -12.79,-10.83 -24.26,-14.82 -38.37,-14.82 -14.07,0 -31.37,3.58 -57.98,9.74l-5.42 2.37 -4.84 -2.94c-3.35,-2.12 -5.42,-3.28 -7.79,-5.18 -14.46,-7.16 -23.92,-14.13 -23.92,-41.15 0,-68.99 192.44,-252.25 275.6,-326.9 108.12,-97.56 285.22,-243.77 328.04,-243.77 65.48,0 65.48,47.38 65.48,72.14 0,53.14 -54.52,124.26 -102.01,186.22 -28.59,38.55 -61.49,81.55 -61.49,98.26 0,24.26 21.2,30.03 66.67,36.14 43.05,3.79 96.83,9.74 96.83,65 0,45.92 -30.66,86.91 -59.71,131.12 -13.95,20 -28.98,40.86 -41.2,63.34 -196.19,351.78 -465.09,382.1 -702.7,382.1 -119.42,0 -128.76,-13.49 -137,-117.98 -2.07,-19.29 -5.2,-43.16 -8.3,-72.09 -68.99,8.25 -180.62,86.98 -247.99,135.2 -23.92,16.83 -41.72,29.39 -52.96,35.86 -30.94,17.97 -78.09,24.78 -125.06,31.51 -37.53,5.36 -78.45,10.55 -97.51,23.46 -8.36,5.13 -21.27,18.04 -35.74,36.48 -55.32,68.53 -142.98,209.21 -142.98,241.01 0,98.44 171.57,383.37 274.67,554.3 5.49,10.1 11.42,19.15 15.68,29.11 21.16,33.2 38.85,61.72 48.59,82.19 3.1,4.08 5.24,8.53 7.02,12.33 1.09,1.67 1.09,3.28 3.23,4.77l0.75 3.41 -0.75 4.02 0 2.37c21.16,20.18 42.7,41.33 64.55,63.17 102.3,93.3 217.62,199.8 217.62,318.35 0,13.54 -16.08,77.11 -29.39,133.47 -15.8,64.27 -26.29,106.79 -30.21,128.36 3.23,8 5.24,16.42 7.16,24.6 4.95,23.05 8.87,46.97 13.66,71.7 2.65,19.24 6.22,39.31 7.78,59.87l9.8 0.41 19.29 2.19c6.98,-23.17 14.52,-49.16 28.18,-89.1l5.42 -16.25 13.72 9.74c134.45,91.47 201.94,370.74 201.94,499.9 0,131.28 -46.33,387.93 -147.19,522.79zm-3217.52 -101.91c-10.95,38.8 -260.21,500.08 -370.69,500.08 -55.68,0 -71.23,-142 -71.23,-143.39l71.23 -589.23 -0.34 -1079.21c0,-312.37 40.81,-666.29 525.25,-922.17 247.07,-130.2 962.16,-852.84 962.16,-1189.3 0,-74.97 -42.82,-112.66 -122.69,-112.66 -118.67,0 -333.81,118.72 -461.05,252.78 -75.67,79.8 -113.2,155.13 -109.62,220.2l1.96 31.24 -22.54 -21.03c-30.37,-26.92 -54.81,-61.1 -81.08,-96.19 -32.74,-44.96 -67.89,-91.06 -112.04,-125.92 -31.01,-25.14 -72.5,-43.11 -116.25,-61.28 -69.9,-30.94 -143.09,-62.59 -191.29,-128.16 -113.41,-154.12 -193.07,-379.74 -262.56,-578.58 -16.08,-43.1 -30.14,-84.08 -44.26,-123.16l-2.07 -2.88 1.03 -3.22 16.03 -183.62 25.17 -3.4c42.59,127.08 117.17,310.35 225.12,462.44 120.97,171.11 254.85,263.72 400.2,278.29l7.02 0 3.23 6.58c33.59,64.89 154.28,229.2 235.95,229.2 91.04,0 193.75,-100.06 311.33,-216.25 134.22,-129.61 291.44,-283.72 485.88,-347.46 20,-6.39 41.27,-12.04 62.13,-16.37 17.58,-3.97 35.61,-7.07 53.14,-9.03 21.38,-2.66 42.93,-3.99 66.21,-3.99 120.56,0 298.19,59.89 298.19,190.65 0,243.79 -311.9,545.09 -672.22,894.44 -496.62,479.5 -1059.39,1024.29 -1059.39,1620.72l2.66 38.05 0.46 19.65 2.07 29.39 42.02 624.66c0,164.2 -59.48,429.54 -99.13,558.11zm-358.88 -4706.62c-0.8,-114.98 146.74,-578.54 168.81,-614.16 60.35,-94.69 478.69,-126.97 585.54,-126.97 487.57,0 874.17,228.17 1156.16,393.66 145.46,85.13 258.43,152.16 331.09,152.16 12.4,0 64.04,-11.99 110.55,-21.91 54.52,-12.56 105.93,-25.01 123.85,-25.01l99.64 0 -0.87 14.07c-21.5,317.44 -178.82,343.31 -350.98,343.31 -147.65,0 -314.09,-145.12 -488.82,-298.31 -211.28,-183.21 -447.98,-390.44 -699.3,-390.44 -21.11,0 -77.7,55.97 -123.28,101.16 -70.38,70.02 -115.34,113.11 -146.8,113.11l-336.57 0c-136.7,0 -238.48,187.12 -314.84,323.82 -34.13,63.68 -62.7,117.62 -91.58,145.71l-22.59 23.1 0 -133.31zm6727.99 -242.22l0 0c18.61,0 71.57,12.45 124.6,24.15 47.38,10.78 97.51,22.77 111.69,22.77 71,0 184.88,-67.03 329.13,-152.16 281.41,-165.49 669.91,-393.66 1156.21,-393.66 106.73,0 525.48,32.28 585.6,126.97 22.71,35.61 171.16,499.18 168.56,614.16l0 133.31 -21.32 -23.1c-27.77,-28.08 -57.05,-82.03 -92.04,-145.71 -76.88,-136.7 -179.18,-323.82 -314.27,-323.82l-336.86 0c-32.79,0 -76.63,-43.1 -147.93,-113.11 -44.73,-45.19 -100.8,-101.16 -123.16,-101.16 -250.47,0 -489.53,207.23 -698.32,390.44 -175.67,153.19 -340.96,298.31 -488.73,298.31 -173.64,0 -330.52,-25.88 -350.4,-343.31l-1.26 -14.07 98.49 0zm-456.74 -2488.81l0 3023.41c-115.14,-38.51 -217.39,-96.99 -327.58,-160.74 -271.68,-156.13 -610.09,-350.86 -1337.15,-350.86l-4.79 0c-728.94,0 -1067.47,194.73 -1338.67,350.86 -111.81,63.75 -213.24,122.75 -329.31,161.6l0 -3024.28 -4005.42 0 0 1334.52 334.26 0c183.21,0 332.14,149.56 332.14,334.26l14.23 5377.61c0,0 -137.16,4268.11 4979.16,4301.01l28.13 0c5115.33,-32.9 4977.87,-4301.01 4977.87,-4301.01l15.16 -5377.61c0,-184.7 148.92,-334.26 332.76,-334.26l334.67 0 0 -1334.52 -4005.47 0z"/>
  <path class="fil0" d="M3123.49 8028.81c2.01,1.09 4.08,2.07 6.29,2.99 -7.38,-5.52 -14.47,-9.92 -24.28,-13.82 6,3.9 12.11,7.32 17.99,10.83z"/>
  <polygon class="fil0" points="735.31,2606.96 996.61,2606.96 996.61,312.29 1563.66,312.29 1563.66,64.01 167.58,64.01 167.58,312.29 735.31,312.29 "/>
  <polygon class="fil0" points="2151.69,63.96 1895.63,63.96 1895.63,2606.89 2151.69,2606.89 "/>
  <path class="fil0" d="M2965.4 2189.85c275.19,319.92 650.02,480.66 1122.67,480.66 389.71,0 700.45,-115.68 932.88,-346.89 232.83,-230.36 350.34,-542.72 352.36,-935.14l-1102.51 0 0 247.88 815.26 0c-34.23,234.85 -141.61,424.98 -323.82,572.06 -181.78,147.24 -405.28,221.82 -667.79,221.82 -216.75,0 -415.41,-49.68 -599.26,-148.11 -180.9,-98.67 -323.71,-234.74 -426.58,-407.06 -103.21,-172.96 -155.33,-353.46 -155.33,-545.71 0,-186.09 51.02,-364.29 150.43,-531.36 100.11,-168.17 241.65,-301.48 422.15,-398.53 181.03,-98.79 372.13,-147.31 573.66,-147.31 161.49,0 327.24,36.07 497.32,107.77 169.72,72.16 326.54,177.56 469.51,316.91l197.92 -187.36c-181.25,-170.64 -369.14,-295.19 -559.95,-372.23 -192.09,-78.22 -396.68,-117.23 -612.97,-117.23 -268.05,0 -507.63,59.07 -720.18,175.78 -212.72,117.1 -379.91,279.68 -502.09,486.86 -120.68,207.36 -181.71,430.81 -181.71,671.76 0,324.48 106.16,609.22 318.02,855.43z"/>
  <path class="fil0" d="M6946.36 1131.26c-81.44,31.99 -208,48.01 -377.9,48.01l-441.92 -2.94 0 -864.07 453.16 0c174.16,0 298.94,15.16 375.71,45.19 75.61,29.62 135.32,79.07 183.1,149.09 46.51,69.51 69.33,147.26 69.33,232.32 0,87.14 -22.82,167.3 -69.05,237.32 -43.91,72.09 -110.08,123.05 -192.43,155.08zm425.27 -26.56c66.67,-105.52 99.52,-226.78 99.52,-364.81 0,-166.32 -47.15,-305.38 -142.7,-419.44 -95.67,-113.07 -218.65,-187.41 -370.68,-222.41 -101.61,-22.01 -291.62,-34.06 -576.84,-34.06l-509.18 0 0 2542.95 254.79 0 0 -1182.31 147.67 0 918.7 1182.31 314.32 0 -919.85 -1182.31c215.19,-2.19 382.15,-29 503.35,-83.22 122.59,-52.85 216.18,-132.51 280.91,-236.7z"/>
  <polygon class="fil0" points="9502.93,312.26 9502.93,63.97 8041.73,63.97 8041.73,2606.93 9491.52,2606.93 9491.52,2359.57 8296.93,2359.57 8296.93,1357.41 9491.52,1357.41 9491.52,1108.62 8296.93,1108.62 8296.93,312.26 "/>
  <path class="fil0" d="M10672.79 2363.66c-75.61,39.08 -156.06,58.55 -241.47,58.55 -200.68,0 -377.38,-140.1 -530.27,-420.88l-216.35 129.48c107.07,193.7 223.09,333 349.24,416.06 126.22,82.12 267.23,123.62 422.38,123.62 201.14,0 372.47,-67.73 512.64,-204.78 141.95,-134.97 211.26,-295.35 211.26,-480 0,-127.65 -41.38,-255.32 -122.3,-382 -82.99,-127.29 -236.34,-271.2 -457.24,-434.36 -186.27,-137.18 -297.44,-220.85 -331.62,-253.82 -60.74,-60.97 -103.79,-117.56 -126.56,-168.74 -23.51,-51.98 -35.61,-106.11 -35.61,-161.14 0,-91.11 34.63,-167.19 99.47,-230.35 65.87,-61.49 150.13,-91.93 254.33,-91.93 79.48,0 153.99,18.84 221.95,59.99 68.4,40.47 151.28,124.71 246.83,250.18l208.91 -157.04c-117.62,-158.66 -227.76,-267.87 -333.51,-326.88 -105.06,-59.55 -217.51,-89.62 -339.1,-89.62 -114,0 -218.71,26.68 -316.29,78.95 -96.01,52.16 -172.89,124.37 -224.6,215.43 -53.65,90.6 -79.87,191.22 -79.87,301.75 0,139.82 45.42,268.8 134.79,388.91 52.91,71.11 185.47,186.66 398.65,347.46 212.26,158.14 358.18,294.84 438.57,408.5 57.59,81.08 85.7,164.02 85.7,249.7 0,74.58 -19.59,145.64 -58.09,212.78 -39.76,66.96 -96.19,120.16 -171.86,160.16z"/>
  <path class="fil0" d="M8214.61 11089.29l13.31 -1.85 -2.37 -2.14c-4.72,1.05 -8.12,2.14 -10.95,3.99z"/>
  <path class="fil0" d="M3125.52 11086.37l-3.12 1.09 10.44 1.85c-3.05,-1.85 -5.24,-2.94 -7.32,-2.94z"/>
  <path class="fil0" d="M3290.76 15893.05c0,129.66 -8.59,217.78 -27.2,263.84 -17.12,45.99 -50.55,83.45 -96.66,113.02 -47.47,30.09 -103.15,45.07 -168.17,45.07 -62.75,0 -114.27,-12.97 -158.37,-40.24 -41.72,-26.73 -73.19,-61.77 -91.97,-107.18 -18.79,-44.66 -27.43,-120.91 -27.43,-228.97l0 -1252.17 -370.81 0 0 1155c0,230.48 21.5,394.66 68.06,490.62 43.46,98.26 118.49,179.23 221.59,243.55 104.78,63.7 227.31,96.3 367,96.3 108.52,0 200.38,-16.83 282.35,-51.28 79.53,-33.03 150.53,-85.24 214.04,-155.79 60.97,-69.61 102.94,-141.83 125.17,-217.78 21.27,-76.03 33.08,-211.17 33.08,-405.62l0 -1155 -370.68 0 0 1206.64z"/>
  <path class="fil0" d="M4609.42 15864.85l259.87 -664.96 258.25 664.96 -518.11 0zm69.63 -1178.41l-746.39 1937.01 382.73 0 157.96 -399.22 790.14 0 152.5 399.22 382.47 0 -743.36 -1937.01 -376.05 0z"/>
  <polygon class="fil0" points="7266.94,15960.53 6438.49,14686.46 6084.51,14686.46 6084.51,16623.47 6454.11,16623.47 6454.11,15351.82 7281.46,16623.47 7635.79,16623.47 7635.79,14686.46 7266.94,14686.46 "/>
  <polygon class="fil0" points="8446.26,14686.44 8077.48,14686.44 8077.48,16623.44 8983.91,16623.44 8983.91,16271.03 8446.26,16271.03 "/>
 </g>
</svg>
