<?xml version="1.0" encoding="UTF-8"?>
<!DOCTYPE svg PUBLIC "-//W3C//DTD SVG 1.1//EN" "http://www.w3.org/Graphics/SVG/1.1/DTD/svg11.dtd">
<!-- Creator: CorelDRAW 2021 (64-Bit) -->
<svg xmlns="http://www.w3.org/2000/svg" xml:space="preserve" width="232.347mm" height="318.471mm" version="1.1" style="shape-rendering:geometricPrecision; text-rendering:geometricPrecision; image-rendering:optimizeQuality; fill-rule:evenodd; clip-rule:evenodd"
viewBox="0 0 25102.87 34407.74"
 xmlns:xlink="http://www.w3.org/1999/xlink"
 xmlns:xodm="http://www.corel.com/coreldraw/odm/2003">
 <defs>
  <style type="text/css">
   <![CDATA[
    .fil1 {fill:#333335}
    .fil0 {fill:white}
   ]]>
  </style>
 </defs>
 <g id="Capa_x0020_1">
  <metadata id="CorelCorpID_0Corel-Layer"/>
  <g id="_2394425455088">
   <path class="fil0" d="M11206.28 21947.33c135.85,3 353.52,43.33 488.41,57.72 323.3,34.48 1365.63,34.34 1693.2,-0.04 134.46,-14.1 353.28,-57.67 488.48,-57.67 0,250.47 46.49,456.01 60.69,687.73l202.26 2043.04c-182.38,0 -690.72,101.13 -1193.45,101.13 -397.96,0 -1010.54,13.53 -1381.14,-34.79l-641.65 -66.34c18.66,-80.07 33.73,-235.02 39.76,-324.38l243.45 -2406.39zm13896.58 -9447.6l0 132.46c-8.56,432.47 -56.46,1023.33 -104.77,1422.6 -164.63,1360.68 -579.77,2728.33 -1169.59,3907.63 -43.37,86.67 -82.14,163.65 -128.08,256.25l-280.15 508.72c-101.37,167.51 -194.15,331.23 -299.75,489.17 -309.91,463.59 -639.73,904.17 -988.16,1338.06l-1261.96 1286.73c-46.54,43.29 -65.25,47.21 -111.67,90.65 -70.38,65.87 -130.59,120.01 -204.29,180.02 -886.89,722.28 -1633.44,1172.58 -2618.98,1669.36 -265.69,133.91 -541.07,241.34 -819.7,353.49 -1002.58,403.55 -2017.03,622.66 -3109.16,774.63 -238.37,33.17 -499.57,35.98 -722.38,66.49l-742.9 25.83c-158.3,0 -247.49,-20.79 -383.65,-20.98 -361.81,-0.5 -745.26,-32.78 -1096.73,-76.47 -652.37,-81.14 -1347,-194.23 -1955.87,-390.58 -190.98,-61.57 -392.53,-117 -586.77,-181.91 -1177.12,-393.37 -2104.8,-909.26 -3117.45,-1575.43l-672.18 -501.05 -931.78 -828.03c-226.11,-188.99 -646.19,-654.93 -852.24,-906.43 -480.46,-586.46 -908.71,-1177.96 -1284.9,-1831.36 -190.84,-331.45 -366.54,-670.03 -527.26,-1030.32 -338.75,-759.34 -609.25,-1491.72 -796.65,-2318.43 -96.93,-427.58 -183.23,-862.86 -234.71,-1322.87 -33.35,-297.96 -96.4,-1072.23 -101.14,-1407.26l0 -84.03c8.22,-1010.26 125.42,-1945.99 315.61,-2784.86 142.03,-626.49 322.6,-1214.18 554.2,-1792.25 74.95,-187.09 148.75,-355.5 228.3,-540.34 138.16,-320.99 296.59,-625.02 465.88,-929.85 26.02,-46.84 34.85,-72.37 62.78,-119.27 103.19,-173.38 196.56,-326.81 295.83,-493.07 188.67,-315.91 418.7,-621.31 640.59,-916.97l890.44 -1051.43c596.13,-593.12 1197.69,-1143.87 1894.67,-1624.99 713.25,-492.37 1462.38,-910.52 2257.93,-1261.74 90.43,-39.92 174.93,-70.7 274.01,-110.31 1541.46,-616.53 3042.84,-901.61 4802.66,-901.61 975.65,0 2005.67,146.05 2791.48,343.87 638.87,160.81 1452.49,393.17 2049.77,680.99 529.07,254.94 1068.54,485.21 1559,807.67l1149.48 792.41c473.24,389.44 1035.68,839.36 1436.38,1294.38l373.44 415.45c540.35,642.45 1040.49,1315.16 1448.63,2053.95 804.23,1455.76 1344.67,3050.74 1527.27,4720.02 13.74,125.6 17.02,243.5 35.52,369.02l28.85 355.51c6.71,124.3 -6.91,260.19 -0.19,384.53 5.11,94.45 16.89,176.2 20.33,281.94zm-11105.14 9447.6c218.85,0 727.54,-123.88 962.39,-190.6 98.18,-27.89 235.67,-55.98 311.98,-92.6l161.81 667.52c42.41,169.58 483.22,1901.45 485.47,2002.57 -496.53,115.68 -667.26,174.1 -1222.21,274.65 -123.18,22.34 -325.95,66.78 -436.49,69.24 0,-241.07 -45.74,-454.8 -61.38,-687.05 -6.57,-97.52 -26.71,-236.64 -36.33,-327.78l-165.24 -1715.94zm-3216.23 2730.77c-229.6,-5.12 -939.31,-177.19 -1202,-234.21 -81.68,-17.73 -132.07,-27.12 -196.17,-46.57 -65.7,-19.9 -119.86,-41.09 -199.84,-42.88l672.27 -2668.9 883.38 202.99c102.62,20.3 223.29,34.97 325.54,58.8l-283.17 2730.77zm4632.17 -3074.66c242.62,-20.19 972.45,-367.21 1132.78,-404.55 24.68,105.9 738.55,1697.32 814.71,1875.6l277.6 632.66c-107.53,25.04 -261.92,106.78 -372.65,153.29 -139.26,58.51 -252.73,100.96 -392.96,153.19 -149.14,55.52 -682.38,249.09 -812.16,259.89 -7.57,-90.88 -56.01,-244.33 -76.84,-327.72l-412.72 -1670.76c-29.26,-117.03 -155.19,-579.34 -157.75,-671.61zm-6351.56 2690.32c-260.49,-60.69 -552.17,-174.43 -791.25,-260.6l-746.07 -305.79c7.88,-94.56 88.2,-232.7 124.28,-320.72 40.76,-99.46 95.97,-211.75 135.89,-309.15 87.85,-214.38 179.68,-404.1 271.35,-618.67 47.55,-111.24 89.72,-205.15 135.44,-309.58 68.24,-155.89 380.69,-845.3 405.13,-950.13 86.22,7.16 200.92,72.37 280.07,104.24 180.05,72.46 705.44,288.06 852.68,300.31l-582.75 2330.09c-24.99,100.57 -48.1,263.56 -84.77,339.99zm-1658.7 -647.29c-205.24,-4.58 -1336.17,-709.61 -1415.96,-728.2 19.5,-72.94 1066.87,-1765.25 1232.77,-2044.18 61.46,-103.36 126.88,-195.81 183.19,-302.28 73.15,19.54 835.12,511.17 1072.09,566.39 -1.98,88.28 -73.77,216.74 -120.81,324.2l-951.28 2184.07zm9244.16 -2508.26l546.4 -282.95c88.32,-45.72 178.48,-101.46 269.13,-155.68 80.18,-47.97 188.77,-127.49 276.78,-147.98l337.5 592.98c86.15,144.45 1029.04,1665.86 1038.02,1773.69 -543.73,287.7 -773.31,439.24 -1375.51,728.2 -16.91,-72.62 -98.26,-232.07 -134.79,-310.23l-957.52 -2198.04zm-10761.25 1699.14c-234.85,-62.71 -1242.4,-925.97 -1335.04,-950.7 138.48,-206.8 1089.96,-1355.42 1297.25,-1615.6 72.45,-90.93 138.58,-182.33 215.32,-270.11 64.32,-73.56 159.31,-213.11 227.04,-258.45l476.8 372.75c88.38,66.21 158.47,113.82 245.69,179.09 58.7,43.92 208.86,160.41 268.66,176.36 -20.57,88.36 -116.05,223.91 -162.95,302.3 -56.76,94.85 -117.54,187.55 -174,291.27l-1058.78 1773.1zm11974.94 -2386.9c223.09,-118.04 564.55,-407.72 768.65,-566.39l242.76 -202.26c47.09,89.03 134.37,183.72 199.62,265.63l1285.75 1606.83c73.8,93.94 151.4,178.56 213.78,271.71 -100.49,137.14 -1105.01,880.16 -1314.83,991.15 -18.24,-68.28 -287.11,-490.15 -342.87,-587.6 -309.65,-541.26 -784.35,-1271.61 -1052.86,-1779.07zm-13390.9 1314.83c-100.55,-26.87 -783.49,-708.32 -875.26,-803.65 -45.9,-47.71 -244.96,-261.92 -257.5,-308.89 56.41,-84.22 151.12,-162.83 227.17,-238.08l253.25 -232.22c165.76,-165.79 310.82,-331.59 493.54,-477.42 151.07,-120.53 346.98,-342.77 487.53,-483.42l500.64 -470.3 419.55 450.25c79.34,79.37 143.07,121.65 222.71,202.06l227.52 217.5c-22.22,83.25 -1413.93,1772.18 -1600.91,1999.67 -36.37,44.25 -83.67,89.93 -98.24,144.49zm14503.44 -2164.4l541.35 -530.72c46.35,-50.15 51.01,-72.34 100.47,-121.49 83.74,-83.14 149.44,-150.75 207.76,-237.81 199.05,154.45 820.11,819.66 988.16,953.71 238.75,190.49 410.79,410.48 614.65,599.02 102.11,94.47 287.13,230.94 379.51,368.91 -36,53.77 -78.03,87.99 -126.72,136.25 -59.49,59.01 -75.23,94.71 -130.78,152.4l-721.95 694.02c-61.35,47.95 -83.23,102.13 -173.55,109.63 -16.96,-63.55 -49.31,-82.39 -89.59,-132.9l-1375.56 -1719.31c-73.78,-93.96 -151.38,-178.57 -213.76,-271.72zm-1537.34 -13896.59c204.8,0 867.21,-35.58 1011.4,20.14l0 9486.99c0,1147.93 124.38,1818.26 -606.82,2791.48 -56.6,75.33 -85.98,117.71 -156.86,187 -253.95,248.32 -405.96,416.66 -739.85,615.65 -41.28,24.61 -60.75,40.9 -95.27,63.19l-1800.45 1115.54c-267.08,159.92 -2479.32,1558.49 -2527.53,1558.49 -35.64,0 -181.02,-101.58 -218.58,-125.28l-3689.34 -2298.15c-74.18,-46.68 -134.82,-83.84 -210.37,-133.51 -297.61,-195.64 -783.9,-475.25 -1011.07,-768.99 -265.34,-343.05 -346.3,-391.09 -554.18,-861.78 -139.67,-316.24 -243.24,-717.91 -243.24,-1172.7l0 -10478.07 970.95 0 0 -586.6c123.78,-2.74 2347.14,-661.98 2460.75,-694.79l2155.59 -615.65c74.73,-20.98 257.09,-83.74 319.97,-84.17 89.4,-0.62 516.01,131.59 623.98,163.09l1854.62 532.27c106.58,30.34 2370.45,696.88 2476.54,699.25 0,115.2 14.75,508.35 -20.24,586.6zm-14483.2 6553.86c0,884.03 50.34,1467.68 220.85,2287.42 117.17,563.26 294.44,1071.19 487.1,1555.92 95.92,241.33 201.81,464.11 316.94,694.47 168.27,336.6 360.83,655.79 569.09,968.21l553.04 741.53c39.78,49.24 88.54,99.7 118.52,144.47 -232.98,156.01 -511.27,518.42 -733,723.41l-1249.32 1198.24c-19.11,-71.56 -51.24,-72.15 -95.04,-124.93 -720.27,-867.97 -1243.57,-1703 -1745.7,-2706.97 -550.45,-1100.57 -897.7,-2349.07 -1073.25,-3599.44 -152.66,-1087.34 -132.8,-2344.04 17.9,-3423.18 221.85,-1588.74 771.16,-3117.62 1590.03,-4478.34 362.03,-601.58 928.13,-1438.02 1442.99,-1955.3l747.96 -769.14c497.89,-503.75 1363.72,-1101.6 1938.83,-1479.7 307.57,-202.24 642.03,-379.53 972.39,-544.7 97.33,-48.65 155.79,-79.66 261.18,-123.17l791.61 -341.14c557.79,-223.62 1154.02,-409.55 1750.45,-535.33 425.19,-89.67 847.33,-166.74 1295.21,-221.86 229.08,-28.21 476.51,-31.92 687.62,-60.83 123.75,-16.94 253.33,1.36 378.89,-5.42l728.02 0c125.56,6.78 255.13,-11.52 378.91,5.42 216.89,29.7 471.44,31.87 704.96,63.7 881.11,120.04 1683.57,290.17 2509.17,565.47 401.66,133.94 734.33,272.67 1105.79,431.52 180.18,77.08 352.42,164.83 520.08,248.59 169.89,84.89 330.39,174.67 499.45,269.21 640.71,358.29 1258.8,781.46 1820.49,1254.14l1546.55 1528.08c230.11,284.88 464.82,562.31 668.78,868.57 107.87,161.96 202.46,288.96 307.74,460.91l290.97 480.24c243.5,417.69 447.46,832.22 644.28,1274.84 1004.48,2259 1280.96,4983.58 727.23,7408.84 -122.85,537.95 -282.75,1069.67 -454.87,1588.17 -409.2,1232.74 -1279.66,2717.41 -2121.9,3683.5 -56.79,65.13 -96.9,131.04 -166.33,177.53l-379.53 -348.67c-167.13,-154.61 -315.9,-336.15 -493.29,-477.66 -48.52,-38.7 -78.52,-74.37 -123.41,-119.31l-882.04 -854.43c-3.35,-2.63 -8.24,-6.09 -11.64,-8.75l-92.44 -92.62c134,-200.09 293.74,-377.13 439.48,-571.93 38.87,-51.96 61.71,-88.52 98.53,-144.18 39.78,-60.09 75.68,-103.55 108.28,-154.7 344.17,-540.48 637.46,-1064.74 885.24,-1683.71 729.8,-1823.11 904.64,-3910.73 426.73,-5836.19 -112.85,-454.62 -259.85,-895.57 -432.49,-1327.33 -57.81,-144.54 -109.61,-275.01 -176.98,-409.63 -34.36,-68.64 -65.18,-125.1 -94.09,-189.12l-101.82 -201.57c-65.95,-132.24 -129.18,-254.13 -205.85,-380.78l-457.3 -715.93c-192.08,-287.13 -425.12,-548.68 -645.56,-810.84 -58.37,-69.43 -76.88,-96.19 -142.54,-160.88l-303.4 -320.52c-825.83,-827.19 -1820.2,-1512.49 -2897.91,-1977.17 -512.85,-221.12 -1057.38,-410.46 -1601.62,-545.54 -1921.71,-477.01 -4030.38,-304.04 -5856.41,426.73 -144.23,57.72 -281.75,110.67 -410.38,176.25 -131.5,67.04 -262.47,115.75 -397.91,188.69 -374.94,201.91 -745.48,427.25 -1095.15,664.67 -116.56,79.13 -226.32,159.34 -339.14,247.47 -116.29,90.86 -214.06,166.54 -325.93,260.7 -319.06,268.49 -605.01,565.41 -901.43,858.39 -194.21,191.97 -376.04,417.33 -538.2,635.01l-919.81 1426.64c-656.53,1317.22 -1085.57,2664.5 -1085.57,4193.94z"/>
   <path class="fil0" d="M12784.06 15494.62c-25.44,-48.09 -46.71,-68.97 -60.69,-121.37 55.46,-14.81 167.82,-111.66 242.73,-161.83l0 -222.5c55.84,14.91 458.98,315.29 514.24,355.57 173.05,126.15 370.36,232.99 557.83,332.18 -2.98,134.47 -92.5,323.95 -152.9,413.47 -250.5,371.45 -642.27,-1.27 -829.84,-239.87 -184.9,-235.21 -89.34,-146.86 -89.34,-456.81 -61.52,32.56 -120.08,84.61 -182.05,101.16zm222.5 -1557.56l141.61 0 0 80.91c79.25,-53.06 33.9,-65.15 141.65,-80.85 217.26,-31.6 391.53,-21.4 647.24,-80.99l118.07 731.5c27,267.54 23.51,533.11 23.51,826.07 -159.66,-37.2 -759.54,-521.72 -948.1,-670.12 -63.65,-50.13 -134.06,-77.89 -144.83,-178.83l20.85 -627.69zm1051.86 -101.14c262.55,0 858.27,-179.54 970.95,-182.05l430.35 742.85c150.8,313.68 277.62,593.31 277.62,996.74 0,288.8 -195.29,485.47 -485.47,485.47 -384.75,0 -857.03,-246.98 -1092.31,-404.55l20.24 -384.34c0,-239.07 -22.41,-429.91 -41.02,-646.73l-80.35 -607.39zm-242.73 -465.25c47.67,34.93 54.36,85.79 60.69,161.83l-182.05 0c46.59,-69.57 99.9,-81.54 121.36,-161.83zm-3074.65 -546.15c31.46,117.85 515.14,561.06 627.07,728.2 -219.17,0 -545.31,-42.88 -768.65,-80.89 -423.76,-72.11 -420.89,15.27 -135.24,-337.54 48.6,-59.99 205.28,-290.66 276.83,-309.77zm3641.02 -40.45c14.72,55.05 335.53,434.2 402.9,527.59 48.8,67.61 34.44,7.4 42.11,99.48 -143.75,0 -280.17,41.85 -408.06,57.2 -152.79,18.3 -282.51,43.93 -441.52,43.93 -18.86,-226.96 -120.98,-174.81 105.94,-419.98l298.61 -308.22zm566.39 586.6c-17.3,-64.77 -195.55,-278.74 -245.39,-341.21l-260.31 -326.31c167.02,-249.4 493.87,-600.08 647.3,-890.01 401.23,93.49 1193.45,360.82 1193.45,809.12 0,116.33 -120.98,253.51 -195.89,309.79 -107.1,80.49 -206.76,140.29 -330.27,195.67 -268.02,120.19 -780.27,229.21 -808.89,242.95zm-4955.83 -20.21c-288.88,-67.3 -1335.04,-309.65 -1335.04,-687.75 0,-310.04 246.27,-467.99 512.39,-600.13 153.92,-76.45 583.73,-269.68 782.18,-269.68 43.86,164.25 481.67,652.42 586.62,809.12 -19.18,82.35 -479.2,648.46 -546.14,748.44zm930.46 -768.67l157.06 -166.58 146.36 510.47c-83.79,-56.13 -93.23,-94.63 -156.92,-166.74 -71.22,-80.59 -92.05,-74.28 -146.5,-177.15zm283.21 -687.74c-4.56,-54.61 -9.49,-55.04 -20.24,-101.15l121.37 0c-27.84,37.99 -16.78,21.09 -48.43,52.7 -31.54,31.52 -14.74,20.61 -52.7,48.45zm-485.47 -141.6c85.19,116.31 176.15,-45.73 223.33,100.29l59.85 263.81c-26.41,39.41 -226.44,258.73 -262.97,283.17 -31.83,-47.52 -93.9,-119.41 -136.38,-167.02l-272.86 -333.97c-52.44,-63.77 -92.87,-120.96 -136.92,-186.74l607.99 -104.67c104.32,-14.21 100,-20.42 100,104.67 -66.82,5.54 -121.36,26.31 -182.05,40.45zm4268.08 0l-460.55 631.75c-63.05,76.62 -112.96,137.85 -166.5,217.82 -115.13,-77.1 -527.3,-627.08 -627.08,-627.08 -159.21,0 97.84,194.49 219.49,346.91 76.98,96.37 252.58,270.68 326.66,381.3 -76.33,51.14 -346.66,406.27 -404.55,445.03 -39.68,-170.35 -93.31,-350.85 -149.42,-518.11l-154 -513.52c-177.55,14.76 -50.89,249.49 42.84,543.76l179.66 609.23c-113.49,76 -174.07,188.31 -225.63,239.63 -78.38,78.01 -400.05,63.79 -543.02,63.79 0,-191.25 20.21,-300.64 20.21,-485.47l-1193.45 0c0,191.25 20.24,300.64 20.24,485.47 -144.75,-38.66 -240.17,-414.76 -329.58,-641.36 -38.54,-97.65 -236.8,-678.61 -236.8,-754.37 0,-62.17 108.75,-133 141.6,-182.05 119.74,80.2 288.29,303.87 303.42,485.47l1375.49 0c45.82,-196.7 181.59,-395.55 337.86,-511.7 91.48,-67.99 147.6,-79.68 167.84,-135.58l-1982.36 0c51.42,-70.17 74.4,-40.81 283.18,-40.47l1982.36 0c191.63,0.14 251.69,30.12 303.42,-40.45 -53.78,-12.52 -61.1,-22.53 -105.48,-36.13 -421.38,-128.91 -1779.38,-85.24 -2240.96,-85.24 52.5,-71.64 197.18,-40.44 384.32,-40.44l849.57 0c657.75,0.4 -60.88,-86.15 766.93,-18.52 272.57,22.29 1068.7,179.33 1114.26,180.33zm-2649.85 -566.39c22.9,-85.82 8.78,-33.57 73.77,-88.04 40.69,-34.09 46.94,-46.25 88.04,-73.77 -22.6,84.71 -91.6,124.66 -161.81,161.81zm101.13 -869.79c202.26,47.12 183.46,252.55 166.38,286.1 -20.19,39.61 -211.25,182.74 -261.63,226.87 -48.91,42.82 -94.04,125.38 -97.91,22.62 -3.59,-95.52 164.2,-480.85 193.15,-535.6zm445.03 121.37zm2164.37 1254.12l-2164.37 -1254.12zm2164.37 1254.12c-96.35,-2.15 -245.14,-42.9 -342.16,-62.38 -289.77,-58.07 -1226.72,-153.33 -1275.39,-181.02 -1.96,-1.12 -21.42,-18.68 -33.61,-27.06 -97.69,-67.19 -280.72,-32.95 -472.76,-32.95 -276.44,0 -552.89,0 -829.33,0 208.09,-310.75 422.87,-15.21 571.03,-197.63 265.76,-327.23 93.24,-433.58 238.1,-530.57 0,332.42 -114.13,399.77 -202.29,566.39l283.18 0c36.58,-156.99 134.59,-280.5 47.4,-534.24 -34.62,-100.77 -64.67,-91.6 -6.93,-133.29 20.41,87.57 45.76,86.28 67.83,196.51 16.77,83.79 -7.14,147.16 -7.14,268.73 0,76.49 93.61,222.5 161.81,222.5l121.37 0c46.63,0 391.51,-276.87 104.97,-711.82 -79.96,-121.38 -144.3,-216.09 -84.74,-259.12l54.85 127.21c24.08,36.83 8.62,14.56 26.04,34.64 -8.48,-101.95 -40.44,-97.79 -40.44,-222.52 61.9,-16.54 94.63,-49.46 141.6,-80.9 35.34,52.76 53.83,106.94 101.14,141.58 86.31,-63.24 59.8,-86.98 37,-242.13 318.59,-165.31 1837.81,-1232.82 2074.55,-271.41 65.46,265.81 -12.42,540.35 -91.64,753.41 -118.06,317.52 -443.98,876.79 -644.43,1176.09zm-2872.35 -1840.75l42.01 160.27c85.52,649.31 -215.73,634.83 -122.92,1033.2 -62.52,41.85 -44.94,60.49 -121.37,80.89 -152.19,-317.17 222.5,-647.55 222.5,-991.15 0,-116.11 -20.21,-153.57 -20.21,-283.21zm-1294.59 1678.93c-208.36,17.32 -617.16,118.42 -748.44,121.36 -17.69,-66.2 -22.39,-48.9 -60.09,-101.75l-324.23 -484.87c-131.01,-198.1 -254.55,-442 -349.58,-661.83 -108.03,-249.95 -247.73,-750.21 -8.36,-990.68 272.08,-273.31 837.13,-30.34 1113.12,108.45 74.28,37.34 158.95,89.94 235.98,107.89 0,173.38 -38.32,277.04 -8.54,473.79l28.6 497.32c9.72,204.2 63.55,809.46 121.53,930.32zm2002.57 -1092.31c-90.21,-85.58 -111.81,-228.63 -311.64,-416.57 -64.83,-60.97 -230.88,-446 -421.35,-650.73 -376.22,-404.35 -410.46,-157.3 -352.87,-94.3 41.83,45.78 504.96,79.94 108.42,871.88 -69.24,138.31 -191.92,346.65 -196.8,531.56 -6.31,240.23 49.98,449.16 142.6,587.49 -22.12,33.04 -70.47,93.43 -105.52,117 -59.42,39.9 -107.87,24.6 -197.89,24.6 -99.34,148.34 -56.15,67.78 -20.24,202.26 -70.1,33.64 -264.98,58.49 -364.11,60.69l0 -101.13c124.14,0 191.47,-18.18 283.21,-20.24l0 -80.9c-102.37,0 -172.46,20.21 -303.42,20.21 -32.29,-67.28 -71.48,-294.41 -89.71,-395.76 -75.74,-421.27 -112.58,-914.46 -112.58,-1343.84 54.45,14.55 147.86,73.5 198.61,104.96 7.88,4.87 100.27,60.83 100.75,60.99 51.84,17.92 50.6,4.55 105.19,-24.34 -43.96,-60.02 -321.98,-219.28 -404.55,-262.97 0,-241.28 57.32,-556.05 201.57,-648.03 293.6,-187.19 444.97,101.87 648,101.87 -27.63,-103.41 -182.58,-172.36 -280.15,-205.34 -420.01,-141.92 -742.5,226.53 -751.47,630.12l-462.33 -205.2c-323.92,-130.42 -780.84,-228.11 -1067.48,-9.79 -128.25,97.67 -200.8,327.59 -187.35,494.6 54.83,681.23 522.57,1429.98 827.13,1884.77 -103.21,49.53 -312.33,87.59 -437.42,128.97 -1283.94,424.84 -1205.2,1121.64 -65.7,1587.84 91.34,37.36 344.27,136.01 442.44,144.18 -7.36,88.18 -275.01,482.63 -324.82,565.22 -233.96,387.99 -649.86,1217.28 -379.85,1676.75 58.63,99.78 134.32,149.2 245.63,199.4 489.55,220.83 1263.96,-204.39 1653.68,-437.62 92.6,-55.42 180.43,-108.44 274.03,-170.98l533.9 -376.36 0 -141.61c-406.97,272.53 -1683.9,1238.38 -2329.4,1034.81 -510.1,-160.89 -223.27,-874.74 -86.29,-1205.18 122.28,-294.96 303.11,-553.51 477.83,-816.76 62.86,-94.73 125.59,-167.92 178.03,-266.99 239.89,115.11 1336.4,262.95 1577.78,262.95 9.8,117.93 158.95,379.53 215.79,492.19 186.21,368.97 39.59,744.02 195.87,855.99l308.14 217.77c249.62,176.4 56.07,-48.97 297.88,248.31 200.47,246.44 434.37,555.52 759.07,656.88 331.45,103.45 527.67,-100.29 627.65,-370.15 30.73,-82.9 52.03,-214.63 83.64,-280.46l222.71 100.92c81.32,40.33 148.91,67.77 239.58,104.28 154.25,62.1 328.37,116.83 528.76,138.83 1081.44,118.65 730.53,-1071.45 485.35,-1618.17 -130.56,-291.14 -314.67,-595.09 -485.25,-849.81 308.77,-148.14 1157.99,-341.02 1274.41,-891.65 110.83,-524.2 -985.71,-903.11 -1233.94,-908.63 8.87,-106.62 262.2,-466.83 330.03,-580.22l236.32 -451.42c423.09,-947.22 201.24,-1795.07 -978.94,-1383.52 -388.17,135.36 -732.16,326.5 -1077.33,541.16 -84.95,52.82 -76.33,53.47 -173.23,39.85 -216.44,-30.41 -382.59,64.96 -425.17,251.53 -24.61,107.82 10.85,108.49 -76.07,166.66 0,-201.28 10.39,-210.57 80.92,-343.86 -56.45,-37.8 -74.3,-70.8 -127.34,-115.4 -61.14,-51.39 -82.69,-63.43 -140.78,-122.2 -350.82,-354.82 -499.3,-565.36 -90.93,-971.01 29.6,-29.39 263.88,-244.45 126.91,-319.69 -85.42,-46.92 -688.74,762.01 -657.9,881.01l198.3 246.7c71.1,106.51 101.04,160.96 153.76,291.27 31.54,77.88 248.62,306.95 343.54,445.33l52.82 68.54 -40.44 40.47z"/>
   <path class="fil0" d="M8070.94 16303.72l0 -8111.42 8839.62 0 0 8111.42c0,499.57 -371.11,918.43 -754.76,1146.71 -981.14,583.81 -2049.79,1153.63 -3036.47,1737.28 -108.93,64.44 -199.97,115.85 -308.82,176.68 -109.62,61.28 -205.25,120.57 -309.65,175.81l-3660.45 -2084.27c-210.27,-120.8 -361.43,-255.93 -506.81,-443.91 -124.14,-160.53 -262.66,-425.43 -262.66,-708.3zm-182.06 -8414.84l-121.36 0 0 8333.93c0,319.12 108.97,614.2 230.96,820.9 70.24,119.01 134.29,203.89 220.01,305.91 34.99,41.69 92.01,97.84 132.62,130.33 52.78,42.24 95.66,83.72 144.4,118.6 225.83,161.67 410.55,250.45 656.13,395.71l3037.2 1736.61c355.98,210.56 255.14,230.17 692.46,-32.73l1003.67 -574.14c650.43,-384.74 1362.26,-762.25 2022.79,-1152.98 546.4,-323.2 1106.74,-602.74 1290.52,-1359.34 64.22,-264.41 35.9,-296.71 35.9,-469.78l0 -8253.01 -121.36 0 0 -1739.59 -485.48 0 0 1739.59 -8232.76 0 0 -1739.59 -505.7 0 0 1739.59z"/>
   <path class="fil0" d="M16971.24 28015.71l0 283.18c130.45,0 416.45,19.76 538.44,88.64 144.51,81.59 204.73,196.03 236.69,390.36 39.51,240.13 13.75,3347.23 13.75,3748.65 -62.19,-41.64 -379.44,-499.39 -453.67,-598.19l-896.03 -1207.65c-154.49,-207.07 -285.39,-402.96 -441.9,-609.97l-1112.69 -1516.95c-261.59,-363.84 -430.52,-598.31 -999.71,-598.31 -1210.81,0 -1031.62,-87.32 -1031.62,303.42 169.84,39.59 354.47,54.93 511.87,115.2 138.01,52.84 256.78,190.29 256.78,370.26l0 4672.68c0,475.53 -419.03,485.47 -768.65,485.47 0,230.17 -32.62,343.86 60.69,343.86l1962.11 0 0 -343.86 -323.03 -20.86c-101.75,-7.16 -186.8,-36.07 -256.04,-87.83 -137.42,-102.7 -191.32,-265.18 -190.08,-497.68l0.48 -4147.2 3732.46 5006c88.4,120.51 185.18,91.42 394.04,91.42l0 -5400.85c0,-505.66 246.29,-606.84 748.44,-606.84 0,-219.89 30.93,-323.66 -60.69,-323.66l-1860.96 0c-46.61,0 -60.69,14.08 -60.69,60.69z"/>
   <path class="fil0" d="M4874.94 28298.89c365.87,85.24 667.52,-76.45 667.52,768.67l0 2771.22c0,882.83 -110.33,1616.07 -835.83,1955.64 -403.4,188.81 -1171.53,241.28 -1598.8,54.21 -526.69,-230.58 -822.08,-730.05 -822.08,-1362.55l0 -3600.57c0,-494.93 316.47,-549 768.68,-586.63 0,-94.49 38.11,-303.42 -60.69,-303.42l-2467.82 0 0 323.66c962.75,0 768.67,490.01 768.67,1517.09 0,768.65 0,1537.33 0,2305.98 0,1043.79 205.83,1520.26 906.03,1946.12 324.88,197.55 1012.37,319.42 1420.17,319.42 328.7,0 743.28,-69.35 999.11,-153.88 143.17,-47.33 279.91,-100.39 392.89,-173.5 613.98,-397.29 976.75,-1021.56 974.72,-1917.89 -0.96,-411.24 -31.99,-3154.8 25.18,-3433.8 33.23,-162.13 101.08,-251.61 243.74,-322.62 178.06,-88.64 284.85,-61.81 479.47,-107.15l0 -323.63 -1860.96 0 0 323.63z"/>
   <path class="fil0" d="M9163.25 29411.44c45.82,33.57 48.47,67.44 72.55,129.72l548.83 1433.5c45.68,113.58 76.27,209.17 121.16,323.87 44.77,114.39 76.28,208.61 121.22,323.78 39.21,100.41 82.76,233.23 127.41,317.63l-1962.12 0c42.89,-89.37 83.5,-208.9 121.37,-303.42 42.38,-105.76 80.37,-211.53 124.26,-320.78l606.98 -1577.64c28,-75.83 111.5,-244.35 118.34,-326.66zm-2568.94 4510.83l-202.28 0 0 343.86 1921.65 0c0,-366.13 65.13,-314.07 -283.78,-343.29 -88.12,-7.36 -242.5,-25.11 -309.3,-54.79 -255.63,-113.51 -108.06,-389.18 -66.88,-504.6l308.51 -804.04c34.67,-97.79 66.68,-235.16 149.18,-235.16l2144.13 0c85.75,0 116.64,128.54 144.55,199.35l303.56 788.79c186.26,643.78 -566.87,587.08 -751.52,630.11l0 323.62 2629.64 0 0 -323.62c-812.33,0 -858.23,-498.64 -1121.14,-1184.85l-930.42 -2467.89c-105.08,-276.23 -205.49,-556.81 -312.19,-820.57l-465.08 -1234.06c-70.84,-192.04 -71.83,-259.89 -326.71,-259.89 -140.92,0 -163.88,129.54 -230.07,316.08l-2009.4 5110.81c-101.75,255.81 -246.1,520.12 -592.44,520.12z"/>
   <path class="fil0" d="M19358.14 28116.84c0,263.42 47.76,149.37 292.67,192.8 386.25,68.52 455.75,353.78 455.75,757.92l0 4187.18c0,916.73 -768.65,550.84 -768.65,748.45l0 283.17 4753.58 0c320.62,0 364.1,-211.08 364.1,-525.91l0 -1355.28c0,-96.62 -135.44,-60.69 -384.33,-60.69 0,540.13 -91.37,1324 -600.73,1523.21 -214.73,84 -1674.46,54.57 -1968.23,54.57 -253.74,0 -404.55,-127.89 -404.55,-384.34l0 -4672.64c0,-444.12 354.4,-566.39 748.44,-566.39l0 -323.63 -2467.82 0c-5.25,63.27 -20.21,71.85 -20.21,141.59z"/>
   <path class="fil0" d="M10296.02 5360.41l6.03 6.02c-0.39,-0.38 -8.06,-4.01 -6.03,-6.02zm3337.61 -20.24zm0 0zm0 0l-20.24 -20.21 20.24 20.21zm-667.53 -20.21zm-1476.64 0l1476.64 0zm-1476.64 0zm2366.67 20.21l-2366.67 -20.21zm2366.67 20.21c4.16,-2.86 11.01,-11.56 12.92,-7.87 2.58,4.95 13.6,-8.64 25.23,-17.03 62.17,-44.67 67.41,-102.24 90.41,-29.22 26.17,82.95 -124.75,54.45 -128.56,54.12zm-60.69 -80.9c55.07,40.33 75.83,50.17 -20.24,60.69 13.88,-24.68 20.24,-21.64 20.24,-60.69zm-829.34 60.69zm-1476.64 0l1476.64 0zm-1476.64 0l-60.69 0 0 60.69c364.41,84.89 393.1,-25.01 515.72,7.26 108.87,28.65 833.4,12.95 981.14,12.95l-2791.45 0c116.8,0 239.58,-4.57 301.79,-8.01 192.3,-10.63 112.6,6.37 263.64,8.7 234.69,3.63 473.72,-0.69 708.93,-0.69 -6.57,-79.06 12.25,-61.43 -60.69,-80.9 32.23,-48.14 24.49,-21.07 40.47,-80.92 36.6,24.51 68.52,52.56 101.14,80.92zm2831.9 0l56.36 -65.03c-18.99,91.67 14.07,33.11 -56.36,65.03zm-606.84 0c-20.32,8.65 -83.81,-0.53 -12.57,-28.24 53.31,-20.73 28.84,21.32 12.57,28.24zm-1152.98 -40.47c0,-51.72 32.03,-3.25 12.04,0 -0.24,0.05 -12.04,56.48 -12.04,0zm-1415.94 -40.45c20.51,27.12 20.21,-42.55 20.21,60.69l-80.9 0c3.61,-3.15 9.76,-12.31 11.28,-8.96 2.13,4.73 12.9,-10.69 21.22,-19.21 28.43,-29.13 9.29,-6.74 28.19,-32.52zm606.84 20.24l6.02 6.03c-0.38,-0.39 -8.05,-4.02 -6.02,-6.03zm-485.47 0c32.11,-14.21 -15.2,-25.17 25.94,1.22 26.66,17.08 21.89,20.04 34.75,39.23 -39.09,-3.25 -16.3,9.32 -48.38,-10.89 -83.21,-52.46 -4.14,-14 -12.31,-29.56zm-1456.42 0l43.49 11.12 -43.49 -11.12zm4328.76 60.69c-16.65,-78.62 -16.65,-22.53 0,-101.16 41.52,29.99 48.54,53.66 0,101.16zm-3317.38 -80.92l141.61 0 0 20.24 -141.61 0 0 -20.24zm-809.12 0c81.28,21.69 58.56,5.5 60.69,101.14l-40.45 0c-1.76,-79.49 5.54,-47.45 -20.24,-101.14zm-202.26 20.24zm-485.47 -20.24l485.47 20.24zm-485.47 -20.24zm4288.31 40.45l-4288.31 -40.45zm4288.31 40.45l0 -60.69 60.69 0c-35.58,67.26 4.13,53.9 -60.69,60.69zm-869.81 -80.89c59.84,-15.99 32.8,-8.24 80.92,-40.47 0,96.61 -13.74,83.88 -20.24,161.83l-40.45 0c-1.03,-45.87 -6.23,-90.07 -20.24,-121.36zm-1294.57 20.2c-7.26,-38.27 25.47,-71.91 12.78,-12.78 -0.28,1.36 0.57,83.41 -12.78,12.78zm-323.66 -20.2l20.24 40.44 -20.24 -40.44zm3074.64 121.36c18.32,-78.6 42.74,-122.7 101.15,-161.83 29.39,43.91 46.59,38.96 15.46,93.91 -27.3,48.2 -54.87,62.79 -116.61,67.92zm-2872.35 -121.36c1.84,-8.22 52.08,-46.42 33.54,13.83 -16.05,52.21 41.34,15.48 -7.71,2.9 -6.43,-1.65 -34.73,22.71 -25.82,-16.72zm2831.9 -20.24l6.04 6.02c-0.4,-0.39 -8.05,-4.02 -6.04,-6.02zm-3034.19 20.24zm3782.63 -40.47l-3782.63 40.47zm3782.63 -40.47c-7.26,-38.28 25.47,-71.91 12.8,-12.81 -0.3,1.39 0.55,83.43 -12.8,12.81zm-3519.66 0c21.5,-21.51 76.72,32.11 22.54,10.51 -0.45,-0.17 -56.41,23.36 -22.54,-10.51zm-161.83 0l6.04 6.04c-0.4,-0.41 -8.05,-4.04 -6.04,-6.04zm-2063.25 0c21.5,-21.51 76.73,32.11 22.55,10.51 -0.48,-0.17 -56.43,23.36 -22.55,-10.51zm5036.75 -20.21l6.04 6.02c-0.41,-0.38 -8.05,-4.01 -6.04,-6.02zm-141.59 20.21l58.24 -43.39c-5.8,30.08 8.99,33.4 -25.92,48.54l-32.33 -5.15zm0 0c-24.01,-37.82 -22.74,45.17 -16.69,-40.45 3.06,-43.17 2.48,-18.09 16.69,-40.45l0 80.9zm-1274.36 -40.45l-11.13 43.48 11.13 -43.48zm-1476.64 20.24zm-222.51 0l222.51 0zm-222.51 0zm-809.12 40.45l809.12 -40.45zm-809.12 40.45c-42.88,0.62 -5.56,2.29 -6.73,-25.32 -1.65,-38.02 -38.26,-21.99 2.43,-17.75 4.81,0.48 64.92,42.19 4.3,43.08zm-707.97 -20.24l-80.13 22.72c20.27,-54.63 -27.99,-18.09 27.36,-33.6 89.66,-25.11 33,-1.66 52.78,10.88zm5126.75 43.5c-6.78,-107 -27.4,-61.11 31.37,-104.18l-31.37 104.18zm-292.28 -144.63l0 121.37c-84.55,-56.62 -84.55,-64.75 0,-121.37zm-465.23 60.69l6.02 6.02c-0.38,-0.38 -8.03,-4.01 -6.02,-6.02zm-242.73 0l6.02 6.02c-0.38,-0.38 -8.03,-4.01 -6.02,-6.02zm-2386.9 20.24zm-2184.62 -40.47l2184.62 40.47zm-2184.62 -40.47c25.27,58.94 37.03,23.43 -20.24,40.47l20.24 -40.47zm2245.29 0l6.05 6.04c-0.41,-0.4 -8.05,-4.03 -6.05,-6.04zm-1436.17 0c90.4,-21.65 34.78,-12.86 60.69,0 -21.34,64.32 -16.23,38.68 -60.69,0zm4976.06 -20.21l6.02 6.02c-0.38,-0.38 -8.03,-4.01 -6.02,-6.02zm-3276.93 0l0 222.5c-68.7,-5.7 -74.06,-15.41 -121.36,-40.45l70.43 -155.76c14.88,-24.06 -9.51,-19.58 50.93,-26.29zm-546.15 60.69c-29.41,16.51 -21.42,9.79 -60.68,20.21 -16.72,-152.89 -23.75,31.5 -40.47,-121.37 82.61,19.25 81.89,18.54 101.15,101.16zm-586.62 -60.69l6.04 6.02c-0.41,-0.38 -8.05,-4.01 -6.04,-6.02zm-80.9 -40.47c44.7,31.08 25.13,3.32 40.45,60.69l-40.45 0 0 -60.69zm-1254.14 40.47l-40.45 20.21 40.45 -20.21zm2144.17 -20.24l6.04 6.02c-0.41,-0.38 -8.05,-4.01 -6.04,-6.02zm3418.52 -20.24l6.02 6.05c-0.38,-0.41 -8.03,-4.04 -6.02,-6.05zm-3479.21 -20.21l6.04 6.03c-0.4,-0.39 -8.05,-4.02 -6.04,-6.03zm1274.36 20.21c13.81,-57.73 -3.06,-30.43 40.45,-60.69 -13.81,57.73 3.08,30.45 -40.45,60.69zm-2022.79 -20.21c-20.51,-27.14 -20.21,42.52 -20.21,-60.69 18.7,24.73 13.12,-22.74 20.21,60.69zm-80.9 -20.24l6.02 6.03c-0.38,-0.39 -8.05,-4.02 -6.02,-6.03zm1800.28 -60.68c35.7,-17.14 65.46,-23.35 101.14,-40.45 2.29,102.39 29.02,105.7 67.1,175.62l94.73 168.24c-59.84,15.99 -32.8,8.24 -80.92,40.45 -7.3,-87.94 -24.17,-201.16 -80.91,-242.73l-40.45 242.73c0,-70.07 11.82,-163.19 3.41,-191.37 -21.14,-70.85 -48.16,-28.26 -64.1,-152.49zm-121.36 0c84.4,97.12 40.44,49.28 40.44,323.65 -104.81,-42.31 -17.22,-133.93 -64.89,-175.12l-16 -6.93c74.32,-111.02 51.56,-8.12 40.45,-141.6zm-1820.52 40.44c-7.24,-38.27 25.48,-71.93 12.81,-12.8 -0.31,1.38 0.57,83.43 -12.81,12.8zm4106.26 -20.21c76.71,8.39 59.41,-11.44 80.92,80.9 -30.78,-22.53 -18.28,-15.15 -41.83,-39.06 -2.76,-2.78 -7.24,-7.49 -9.94,-10.31l-29.15 -31.54zm-2447.57 80.9c0,103.59 94.45,242.73 -20.24,242.73 -80.32,0 -61.99,-100.84 -80.92,-182.05 -48.19,17.46 -14.9,1.84 -46.32,34.57l-34.57 46.35c0,-101.67 -18.2,-90.58 -20.24,-182.06 58.68,-24.22 129.39,0.08 161.81,-121.36l60.69 0c0,97.14 -20.21,93.58 -20.21,161.81zm-1254.14 -80.9c20.18,-7.14 -10.9,-56.59 40.47,40.45 -78.56,-20.97 -39.78,-39.13 -40.47,-40.45zm-182.05 60.69c13.78,-21.74 11.56,-0.4 18.46,-42.23 3.04,-18.36 1.77,-40.17 1.77,-58.91l60.68 40.46c-0.18,0.27 -41.14,64.41 -41.18,64.47 -39.82,43.86 -18.28,60.92 -39.73,-3.78zm-707.98 -60.69zm4268.1 -20.23l-4268.1 20.23zm4268.1 -20.23c64.29,21.31 38.66,16.2 0,60.68l0 -60.68zm-1415.95 0l6.04 6.02c-0.41,-0.39 -8.05,-4.02 -6.04,-6.02zm-80.92 40.44c22.48,-60.28 -43.39,-31.58 60.69,-40.44 -26.96,24.41 -25.64,21.9 -60.69,40.44zm1314.83 -80.89c-13.12,49.41 8.96,27.32 -40.47,40.45 13.95,-52.56 -7.5,-22.58 40.47,-40.45zm-1780.06 40.45l-20.24 -20.24 20.24 20.24zm-1719.39 -20.24l6.04 6.04c-0.4,-0.41 -8.05,-4.04 -6.04,-6.04zm3843.32 -60.69c2.74,4.32 5.18,6.76 6.18,14.02 4.52,32.8 59.4,90.38 74.73,147.81 -48.13,32.21 -21.07,24.47 -80.91,40.45 -9.68,-116.21 -71.25,-86.05 -80.92,-202.28 2.15,-0.75 6.19,-0.79 6.67,1.48 0.43,2.19 5.97,1.05 6.61,0.98 44.18,-5.4 -41.71,35.66 19.88,-4.18l47.76 1.72zm-2144.17 60.69zm-1314.81 -40.45l1314.81 40.45zm-1314.81 -40.45c63.06,33.37 63.43,40.45 161.81,40.45 -126.36,109.84 60.87,208.9 -141.58,262.97 -75.81,-90.76 71,-99.22 -20.24,-303.42zm3499.41 -40.45c79.52,-1.79 47.45,5.52 101.16,-20.24 -1.38,61.62 -9.15,73.75 -20.24,121.37 -72.8,-38.52 -68.18,-1.99 -80.92,-101.14zm-384.31 60.69l0 -60.69c70.67,18.87 45.42,7.69 80.9,60.69l-80.9 0zm-2791.46 0c-66.84,70.43 -143.37,45.46 -128.44,-13.74 8.93,-35.38 48.48,-38.01 63.58,-36.84 99.51,7.67 52.01,18.76 64.86,50.58zm2973.51 -40.47l6.03 6.04c-0.39,-0.4 -8.03,-4.04 -6.03,-6.04zm-343.89 40.47c39.83,-75.26 26.26,-106.34 121.37,-60.69 -9.8,27.12 -10.18,86.58 -121.37,60.69zm-930.46 -101.16c6.53,78.6 18.23,52.7 20.21,141.61 74.99,-20.03 26.16,-20.43 101.16,-40.45 0,117.87 7.6,112.72 80.89,161.81 -6.47,-77.96 -20.21,-65.22 -20.21,-161.81 121.61,64.34 54.93,-2.46 138.29,84.22 49.14,51.12 53.99,70.02 144.89,77.59 -43.12,89.86 0.39,137.31 20.24,222.5 -53.61,28.38 -58.82,38.61 -141.6,40.47 3.15,-141.39 85.79,-225.91 -60.69,-303.42 -57.73,120.27 0.19,249.48 -161.81,262.95 0,-142.96 20.42,-151.81 -40.47,-242.73 -58.87,43.15 -16.42,20.98 -37.9,43.03 -31.68,32.49 7.34,17.56 -43,37.89 0,-222.55 -26.47,-211.94 -38.13,-254.11 -8.36,-30.15 19.63,-48.26 38.13,-69.55zm-1658.7 60.69zm-222.5 0l222.5 0zm-222.5 0zm222.5 0l-222.5 0zm222.5 0l39.45 -23.25 -39.45 23.25zm-222.5 0l39.45 -23.25 -39.45 23.25zm40.45 -60.69l6.04 6.04c-0.4,-0.4 -8.05,-4.03 -6.04,-6.04zm2791.45 -20.21c-62.92,118.93 -80.7,60.78 -80.91,60.69l4.27 -11.97c30.25,-50.57 24.9,-42.98 76.64,-48.72zm-141.6 0zm-788.89 -20.24l788.89 20.24zm-788.89 -20.24l-20.21 40.45 20.21 -40.45zm-869.79 0c22.44,1.87 77.03,-25.11 103.6,81.45 11.39,45.68 31.15,8.05 -5.72,41.6 -34.5,31.41 -10.83,29.07 -69.07,-69.12l-28.81 -53.92zm2265.52 0l6.04 6.02c-0.41,-0.38 -8.05,-4.01 -6.04,-6.02zm-606.84 20.24c27.14,-20.52 -42.52,-20.24 60.69,-20.24 -24.73,18.71 22.74,13.12 -60.69,20.24zm-586.6 -20.24zm-2083.48 0l2083.48 0zm-2083.48 0l6.04 6.02c-0.4,-0.38 -8.05,-4.01 -6.04,-6.02zm1901.43 -40.45l-20.24 40.45 20.24 -40.45zm1092.31 0zm-1233.92 0l1233.92 0zm-1233.92 0l6.05 6.03c-0.41,-0.39 -8.05,-4.02 -6.05,-6.03zm-1527.19 60.69c-72.95,-45.37 -72.95,-15.31 -10.11,-60.69l10.11 60.69zm1668.8 -60.69zm-182.05 -20.24l182.05 20.24zm-182.05 -20.24l6.04 6.03c-0.41,-0.39 -8.05,-4.02 -6.04,-6.03zm-161.82 121.37c-1.36,16.25 -4.97,54.04 -5.64,64.02 -1.4,21.05 0.84,30.35 -8.03,70.65 -16.02,72.85 -53.39,78.89 54.12,87.83l-40.45 80.92c-1.98,3.94 -4.97,9.96 -6.76,13.49l-13.47 26.96c-8.43,-101.35 -54.66,-161.01 -66.41,-238.56 -9.63,-63.52 8.43,-153.98 44.1,-206.92 2.34,-3.51 6.43,-8.05 8.91,-11.54 52.51,-74.16 39.06,-72.34 94.32,-109.35l0 80.89 80.9 40.47c-126.91,2.82 -62.77,10.45 -141.59,101.14zm-384.33 -161.81c62.43,25.17 22.07,-44.94 51.19,64.36 10.16,38.06 -5.27,27.71 9.49,97.45 -49.53,-33.16 -100.02,-101.34 -60.68,-161.81zm323.65 -20.24l-20.24 20.24 20.24 -20.24zm20.21 -20.24l-20.21 20.24 20.21 -20.24zm-748.42 0c138.26,-32.21 60.23,-21.32 141.58,-80.9 30.06,44.87 51.18,51.87 75.91,106.37 31.54,69.52 7.28,34.4 5.01,136.37 -96.11,-25.66 -71.32,-65.17 -171.44,-131.97l-38.06 -22.66c-2.68,-1.54 -8.93,-4.36 -13,-7.21zm748.42 0zm101.16 -20.21l-101.16 20.21zm101.16 -20.21zm-869.81 20.21l869.81 -20.21zm-869.81 20.21c-52.29,6.49 -6.19,-68.38 -0.67,-25.09l0.67 25.09zm1092.31 141.6c-68.78,-22.82 -8.89,1.32 -14.95,-72.29l-4.38 -15.03c-18.28,-58.4 -6.83,-43.13 19.33,-155.42l44.67 118.52c-3.32,40.41 -31.18,66.3 -44.67,124.21zm-262.97 -222.5l6.04 6.02c-0.4,-0.38 -8.05,-4.01 -6.04,-6.02zm-101.14 121.37c-3.39,152.09 -31.25,104.28 -35.64,105.52l-31.56 -3.59c-2.68,-0.48 -9.05,-2.03 -11.71,-2.7 -72.88,-18.39 -47.75,-11.25 -67.61,-113.12 -9.31,-47.91 -15.29,-73.04 -15.29,-147.96 29.58,31.2 28.07,43.46 94.9,37.22 25.27,-2.33 87.91,-27.97 127.6,-37.22 -65.92,89.98 -39.7,-8.36 -121.36,161.84l60.68 0zm60.69 -161.84l0 -80.89 40.45 0c-7.81,93.93 21.69,35.35 -40.45,80.89zm-141.6 -80.89zm-546.15 0l546.15 0zm-546.15 0l6.04 6.02c-0.4,-0.39 -8.05,-4.02 -6.04,-6.02zm546.15 0zm40.47 -40.47l-40.47 40.47zm40.47 -40.47c5.15,-41.6 106.79,4.97 18.94,1.93 -7.76,-0.29 -24.58,43.41 -18.94,-1.93zm-546.15 0l-20.24 0c-1.89,-2.48 -38.56,-37.94 -40.45,-40.45 -27.85,119.5 -6.74,46.08 20.21,161.81 -3.66,-1.32 -31.52,-15.38 -35.15,-16.29 -99.96,-24.63 -179.18,30.61 -240.88,104.38l-18.32 22.15c-1.84,2.25 -5.92,7.53 -9.08,11.14 41.74,62.33 113.37,164.71 80.92,242.73 -26.05,97.52 -13.05,34.81 -99.2,82.86 -69.74,38.86 -41.74,57.2 -123.3,78.98 -25.85,-110.97 -82.97,-100.67 -40.47,-283.21 54.61,4.57 55.04,9.49 101.15,20.24 -13.4,-50.2 -20.08,-68.11 -161.83,-101.13 22.82,-47.57 17.63,-73.82 40.47,-121.37 -102.76,-8.56 -105.26,-52.37 -118.93,52.3 -8.15,62.5 -3.41,82.7 -164.28,190.43 19.59,-92.5 26.73,-103.31 -60.69,-161.83 -97.71,84.95 -12.17,42.92 -69.88,114.3 -7.08,8.74 -49.46,17.08 -51.49,108.22 -41.68,-22.07 -47.95,-28.07 -101.13,-40.47 24.68,-105.89 23.29,-77.65 -1.89,-100.89 -46.87,-43.25 -32.39,-9.32 -42.7,-3.42 -86.41,49.5 46.07,23.98 -76.25,123.47 -52.13,42.42 -53.9,14.29 -61.2,102.22 -58.77,-43.05 -38.14,2.81 -40.45,-101.14l-60.69 0c-19.96,51.82 28.05,19.35 -25.07,25.18 -47.59,5.23 -13.59,2.67 -22.19,-22.34 -21.44,-62.33 51.91,-21.05 -33.67,-83.76 -58.7,43.01 -18.25,44.22 -42.05,121.89 -15.55,50.68 -41.9,87.49 -59.08,161.31 -148.71,-39.7 -32.93,-82.03 -80.92,-182.05 -27.43,-13.16 -32.86,-26.8 -78.79,-14.89 -88.18,22.84 -27.16,50.17 -26.43,56.7 6.62,59.23 49.98,-23.03 -6.88,66.77 -24.01,37.94 -24.22,-22.07 -49.71,73.47 -45.02,-30.14 -39.88,-36.84 -94.37,-67.47 -77.1,-43.36 -64.73,28.44 -67.47,-94.36 -79.49,1.76 -47.45,-5.52 -101.14,20.24 9.82,36.81 4.21,20.45 19.52,41.14l41.16 39.77c-34.83,23.33 -71.6,30.66 -54.42,94.64 17.75,66.17 42.9,38.82 94.87,26.73 -37.73,51.48 -16.67,23.47 -89.57,34.95 -78.56,12.38 -38.89,43.65 -132.93,106.62l-40.45 -60.68c13.88,-22.36 1.91,-6.74 10.37,-37.87 20.33,-74.85 18.92,-46.86 70.53,-123.95l0 -20.24 0 -40.44c-164.61,3.65 -255.02,228.18 -262.95,323.65 -27.26,-15.31 -22.36,-11.05 -60.69,-20.24 7.62,-11.39 33.49,-41.56 35.98,-46.37 44.61,-86.55 -50.95,-12.71 44.92,-155.91l-80.33 -41.54c-27.52,41.33 -37.41,57.14 -61.26,102.23 -46.13,-10.73 -46.53,-15.68 -101.15,-20.21 16.51,-29.41 9.81,-21.44 20.24,-60.69 -69.48,18.54 -94.37,40 -101.14,121.37 -189.07,0 -126.39,25.21 -254.51,109.59 -58.04,38.22 -42.52,-27.22 -69.15,72.46 391.41,91.2 156.72,4.14 371.25,24.4 66.7,6.28 144.26,-16.75 203.01,2.68 2.98,0.99 7.99,4.08 10.58,5.23 102.74,45.17 24.81,18.01 143.37,8.15 1.36,-2.9 1.61,-11.66 1.91,-9.41 0.33,2.29 1.77,-8.3 2.3,-9.68l36.24 -61.83c52.99,35.5 41.81,10.25 60.69,80.92 123.68,-10.3 100.92,-57.75 60.69,-141.61 62.64,-5.33 38.25,0.27 80.91,-20.2 12.19,25.37 53.54,151.42 60.69,182.05 95.26,-22.19 228.83,-25.44 323.66,40.45l-2245.29 0 0 -141.61 4045.45 -1112.64c744.96,-195.26 425.48,-203.47 1157.27,-4.06l4081.89 1116.7 0 141.61 -3642.58 1.54c-220.48,-0.5 -64.04,-47.28 -200.74,-62.23 106.48,-100.99 -51.3,-113.74 80.92,-202.28 -11.11,47.63 -18.87,59.75 -20.24,121.36l60.69 0c3.32,-149.56 25.75,-13.71 35.25,-176.19l5.81 -51.87c51.48,-117 10.16,104.33 80.3,-196.72 84.65,7.04 81.16,18.15 115.95,86.94l22.33 72.53c1.03,104.43 -189.72,138.36 -77.59,305.79l-60.69 0c57.73,86.17 81.45,62.6 222.16,61.02 100.03,-1.12 204.11,3.2 303.38,-2.09 84.46,-4.46 44,-6.26 108.13,-2.72l458.64 4.47c0,-82.21 -6.76,-65.13 20.24,-121.37 33.9,24.83 19.19,8.85 26.25,39.21l-0.1 18.3c-1.31,34.95 -2.33,51.06 134.39,42.88l143.49 -6.16c93.18,-1.5 155.87,-8.75 262.33,-33.55 -14.2,-53.53 1.62,-16.65 -20.21,-60.69 -128.08,-39.75 77.93,51.35 -37.37,20 -33.92,-9.22 -23.17,-21.95 -43.55,-60.47 60.16,-82.11 70.94,-1.31 80.92,-121.36 -79.27,-38.04 -75.44,-7.2 -161.84,0 12.5,-150.01 39.68,-12.6 182.06,-80.9 -73.15,-99.86 -41.48,0.89 -125.83,-38.11 -51.2,-23.63 -53.78,-76.49 -76.43,-123.73 -105.85,9.03 -36.58,-19.31 -60.69,40.47l-40.47 0c-6.19,-74.45 -6.47,-74.73 -80.9,-80.92 -16.36,149.48 -87.34,-3.94 -101.15,161.81 61.64,-1.36 73.75,-9.12 121.36,-20.21l0 40.45c-51.54,4.3 -108.13,33.17 -174.69,-10.97 -22.03,-14.6 -10.08,23.25 -27.57,-29.48 -58.32,19.33 -41.07,-37.74 -20.24,60.69 -48.12,-32.23 -21.07,-24.48 -80.92,-40.47 5.81,-66.47 4.85,-19.75 12.78,-35.45 4.14,-8.2 27.69,64.28 27.69,-166.81 -131.2,0 -52.41,-41.28 -137.14,-35.19 -4.52,0.33 -62.96,5.88 -68.23,7.02 -43.58,9.35 -36.11,-11.01 -57.61,48.38l-101.13 0c14.26,-61.2 34.52,-131.5 -44.71,-136.94 -109.23,-7.51 -36.98,85.38 -15.98,116.73 -48.1,-5.28 -161.91,-50.31 -159.09,-74.28 0.28,-2.43 2.67,-13.33 2.6,-17.16 0,-0.71 28.23,-54.97 -53.5,-76.92 -38.29,-10.3 -26.51,-3.37 -73.22,6.53 1.76,79.51 -5.52,47.44 20.24,101.15 -91.48,2.03 -80.39,20.21 -182.06,20.21 0,-161.36 -40.44,-61.14 -40.44,-222.5l-101.16 0c-37.71,161.91 -130.52,112.26 -145.22,224.39 -0.18,1.58 -0.85,7.12 -0.79,8.7l26.36 54.69c31.25,59.13 -23.56,32.13 38.74,56.09l0 60.69c-54.61,-4.55 -55.05,-9.49 -101.15,-20.21 8.17,98 18.51,33.95 0,121.36 -96.54,-25.78 -209.53,-105.17 -203.32,-221.08 8.08,-149.97 112.46,-152.74 21.26,-325.07 -78.01,6.48 -79.65,20.21 -182.05,20.21 9.98,120.05 20.77,39.25 80.92,121.37l-92.08 89.98c-21.05,30.6 -14.62,11.05 -29.29,51.62 -61.32,34.45 -22.76,10.87 -40.45,0 0,-138.66 -11.27,-215.97 -20.24,-323.66l-101.13 0c-20.5,50.77 -1.44,40.47 -161.84,40.47 16.37,-45.17 37.68,-36.77 40.47,-161.83 -47.63,-11.08 -59.75,-18.85 -121.36,-20.21 0,79.84 -6.39,82.07 -20.24,141.58l-13.05 -1.84c-2,0.24 -11.18,0.33 -14.12,1.32 -8.84,2.88 -10.2,-3.88 -33.51,20.75 0,-142.11 -11.06,-68.35 -31.8,-121.99l-5.45 -51.62c-13.96,-30.9 -2.01,-10.49 -23.06,-28 -46.09,-38.34 -75.95,-34.26 -118.93,-21.34l-188.12 78.12c-4.73,1.79 -10.02,3.75 -14.77,5.52l-45.13 16.41c-36.77,16.41 -25.8,0.98 -52.44,31.85 -79.99,92.62 84.46,23.2 -1.34,152.24 -45.87,68.99 -56.55,17.65 -65.13,120.86 -119.58,-87.61 -80.77,-203.6 -161.81,-262.97zm-4146.74 890.04c0,197.47 -27.42,283.18 60.69,283.18l9628.48 0 0 -343.86 -602.44 -166.22c-196.07,-55.07 -414.9,-117.32 -613.6,-175.28l-2420.59 -694.52c-159.64,-44.83 -1147.47,-343.63 -1230.3,-332.26l-4704.26 1344.65c-61.45,17.38 -117.98,19.2 -117.98,84.3z"/>
   <path class="fil0" d="M16505.98 1901.43l11.13 -43.51 -11.13 43.51zm0 0c-12.07,144.99 -360.74,1042.92 -364.11,1193.43 67.33,5.62 270.6,75.69 323.66,101.16 55.07,-236.42 542.57,-1497.72 546.15,-1658.7 -136.13,-31.72 -363.86,-139.59 -546.15,-182.05l-606.84 1031.62c4.14,-185.61 116.78,-987.93 121.37,-1193.47 -158.95,-76.25 -389.02,-106.65 -546.15,-182.05 -6.35,76.33 -36.7,142.56 -60.69,202.28l-485.47 1456.42c115.95,27.02 231.65,74.99 343.87,101.14l395.54 -1176.22c13.9,277.64 -92.12,923.83 -92.12,1297.61 97.18,8.08 187.9,58.7 283.21,80.9 93.24,-139.24 637.42,-1035.21 687.73,-1072.07z"/>
   <path class="fil0" d="M21340.47 18528.81l-43.49 -11.14 43.49 11.14zm0 0c201.79,0 975.81,218.55 1152.99,222.5 50.55,-95.54 200.8,-282.87 222.5,-364.11 -233.99,-156.68 -473.34,-308.79 -707.98,-465.23 -73.51,-49.03 -656.81,-446.2 -728.2,-465.26 -47.18,34.57 -67.16,83.09 -106.74,136.02 -36.86,49.26 -79.7,87.87 -95.54,147.19l950.72 627.04c-81.28,-6.76 -211.83,-43.53 -301.96,-62.14l-595.98 -132.23c-75.36,-17.2 -247.09,-45.34 -295.51,-68.57 -54.45,81.33 -235.65,319.48 -242.73,404.56l1083.97 696.09c68.88,45.09 119.9,72.39 186.4,117.02 67.13,45.05 116.04,80.35 186.03,117.37 26.76,-100.2 155.32,-223.45 182.05,-323.66 -65.41,-17.46 -859.03,-544.31 -890.01,-586.59z"/>
   <path class="fil0" d="M12703.14 1780.06l-115.56 -268.77c-41.91,-104.71 -73.13,-182.75 -115.61,-288.96l-163.91 -422.66c-56.41,-150.89 -17.49,-111.91 -494.93,-111.91 0,148.35 0.3,296.71 -0.03,445.03 -0.4,178.85 21.27,273.94 20.39,444.86l-0.84 668.36c-3.48,211.85 -39.8,181.36 304.11,181.36 123.35,0 39.4,-363.93 40.33,-546.01 1.08,-208.97 0.14,-418.19 0.14,-627.22 27.1,31.18 20.69,22.34 38.06,63.1l201.65 526.55c41.33,111.91 76.28,193.73 116.82,307.98 122.9,346.2 46.57,275.61 493.04,275.61 99.05,0 60.69,-206.5 60.69,-404.56l-20.24 -930.49c0,-499.19 73.61,-424.79 -303.42,-424.79 -101.37,0 -60.69,334.05 -60.69,525.92 0,195.55 0,391.08 0,586.63z"/>
   <path class="fil0" d="M2447.59 17254.44zm242.73 -667.52l-242.73 667.52zm242.73 -667.52zm0 0zm0 0c-129.46,193.33 -741.13,738.02 -829.36,869.78l161.83 384.34c61.75,-5.13 1055.83,-456.71 1179.88,-519.27l397.91 -168.48c-2.7,-121.13 -92.77,-221.09 -121.37,-343.87l-756.99 335.31c-104.06,43.24 -166.78,84.57 -274.63,109.7l834.21 -844.69c-41.6,-162.54 -135.87,-256.85 -166.7,-389.22 -77.77,6.47 -322.87,126.86 -403.99,162.38 -131.1,57.39 -256.74,111.65 -391.7,174.7l-687.73 303.44c-46.37,21.78 -74.95,28.21 -114.59,47.22l141.61 343.87c81.52,-43.15 161.08,-70.17 249.38,-114.73l782.24 -350.5z"/>
   <path class="fil0" d="M20329.08 6048.16c6.49,78.18 113.49,201.03 182.05,303.42 102.85,-23.96 378.65,-250.33 473.36,-315.53 85.65,-58.96 153.07,-112.66 234.47,-170.08 41.24,-29.11 70.86,-52.58 117.37,-84.91 52.76,-36.7 68.36,-61.52 125.5,-76.78l-667.52 1011.41c80.13,119.67 163.9,226.11 242.73,343.87 80.82,-18.83 1365,-935.33 1415.96,-1011.4l-202.29 -262.97c-182.07,96.33 -832.01,621 -930.49,647.29l667.52 -1011.39c-80,-119.5 -175.42,-236.93 -242.73,-364.11 -150.15,40.09 -1283.98,955.94 -1415.93,991.17z"/>
   <path class="fil0" d="M19681.77 3924.23c41.14,-47.32 83.21,-87.56 124.35,-138.62 39.85,-49.47 88.4,-99.82 118.38,-144.59 357.15,239.16 240.99,475.8 -45.42,763.72 -69.09,69.47 -88.25,119.14 -165.11,178.75 -118.98,92.21 -248.51,209.84 -431.15,63.33 -49.88,-40.02 -95.92,-69.38 -126.98,-115.75 69.57,-103.9 201.35,-201.47 283.18,-323.66 73.27,49.07 137.14,118.2 202.28,161.82 45.58,-30.51 202.46,-208.1 222.5,-283.18 -66.43,-44.49 -137.75,-95.69 -182.05,-161.82zm-991.17 566.37c12.82,17.51 152.76,143.78 179.07,164.83 71.4,57.2 127.36,104.1 199.23,164.87 449.27,380.16 629.31,350.75 1103.83,-142.17 47.59,-49.43 63.91,-79.78 110.71,-132.03 210.41,-234.97 359.34,-535.8 144.4,-821.77 -88.38,-117.55 -258.53,-236.56 -376.64,-351.55l-207.57 -176.75c-90.79,60.78 -835.61,919.81 -927.48,1034.62l-225.53 259.96z"/>
   <path class="fil0" d="M1496.85 11792.89l-465.23 -20.21c0,-310.4 55.58,-404.58 283.18,-404.58 260.49,0 210.37,361.45 182.05,424.79zm-768.65 364.1c309.42,0 1216.4,95.48 1639.59,124.91 132.17,9.17 97.63,24.32 100.41,-144.45 1.77,-106.24 19.84,-155.34 19.84,-283.88 -247.59,0 -480.63,-40.44 -728.21,-40.44 0,-168.15 -22.81,-384.34 202.29,-384.34 209.72,0 413.12,53.33 566.36,-20.21 0,-165.99 20.24,-246.82 20.24,-404.57 -100.89,23.51 -118.33,68.66 -262.11,61.73 -166.38,-8.01 -580.46,-105.65 -607.69,221.47l-27.96 -52.97c-183.21,-380.18 -636,-261.32 -755.91,-124.08 -138.24,158.2 -120.86,459.87 -143.64,665.48 -7.28,65.82 1.18,132.91 -4.05,198.23 -6.27,78.31 -19.14,82.94 -19.14,183.12z"/>
   <path class="fil0" d="M2326.22 7342.73c119.38,0 205.08,23.47 296.85,67.26 117.83,56.25 613.41,259.7 613.41,418.22 0,243.92 -63.7,183.12 -101.16,343.88l-1072.12 -525.84c26.61,-114.16 123.63,-303.52 263.01,-303.52zm-687.75 546.15c94.61,22.05 1459.97,721 1577.78,748.45 81.85,-154.68 343.87,-706.7 343.87,-829.34 0,-299.98 -166.6,-426.12 -403.34,-567.59 -164.35,-98.22 -424.58,-222.93 -648.14,-262.4 -524.91,-92.64 -644.47,440.49 -870.17,910.88z"/>
   <path class="fil0" d="M5056.99 5218.8c0,175.91 -59.29,140.31 -182.05,323.66 -83.55,-55.95 -777.21,-747.1 -869.81,-809.12 213.82,-319.3 391.98,-224.69 607.26,-61.09 104.69,79.56 444.6,393.18 444.6,546.55zm-1496.88 -384.31l1254.14 1193.43c348.91,-521.07 1029.93,-697.38 227.85,-1502.22 -139.76,-140.25 -445.31,-378.97 -652.63,-378.97 -193.19,0 -368.84,171.83 -470.71,277.72 -43.17,44.87 -44.18,56.09 -81.42,100.65 -32.71,39.13 -63.74,65.75 -100.23,102.04 -83.64,83.23 -111.66,109.8 -177,207.35z"/>
   <path class="fil0" d="M10498.29 1355.28c0,-337.01 383.48,-467.03 490.89,75.5 66.73,336.93 75.49,338.85 75.49,693.15 0,143.9 -106.12,202.28 -242.73,202.28 -249.97,0 -323.65,-762.15 -323.65,-970.94zm-384.32 -20.24c0,459.55 58.58,1274.36 647.29,1274.36 338.25,0 687.75,-166.76 687.75,-566.39 0,-381.68 -62.11,-1254.12 -586.63,-1254.12 -388.11,0 -748.42,131.26 -748.42,546.15z"/>
   <path class="fil0" d="M22817.11 11934.48c0,-160.04 30.21,-212.32 226.93,-258.53 99.82,-23.43 266.17,-45.43 379.68,-45.11 359.14,1 647.53,-91.78 647.53,242.95 0,214.23 -376.46,245.37 -606.7,242.89 -222.76,-2.42 -647.43,78.01 -647.43,-182.2zm-283.21 -101.13c0,263.7 63.53,543.38 335.35,635.6 215.71,73.18 310.29,52.13 554.7,52.13 460.32,0 910.26,-109.07 910.26,-566.37 0,-257.49 11.18,-397.5 -186.48,-582.21 -63,-58.89 -115.78,-79.13 -201.18,-102.23 -305.69,-82.7 -805.47,-34.36 -1051.5,54.38 -211.25,76.19 -361.15,228.61 -361.15,508.7z"/>
   <path class="fil0" d="M21866.39 16829.66c0,-105.89 90.38,-222.52 202.28,-222.52 210.39,0 991.17,340.78 991.17,505.7 0,466.38 -535.35,187.9 -762.17,74.42 -135.83,-67.97 -431.29,-183.63 -431.29,-357.6zm-303.42 80.9c0,479.83 894.27,829.36 1274.36,829.36 310.3,0 525.94,-391.48 525.94,-728.21 0,-430.56 -952.14,-788.89 -1233.91,-788.89 -191.85,0 -315.61,110.57 -399.37,227.68 -72.13,100.82 -167.02,295.92 -167.02,460.06z"/>
   <path class="fil0" d="M21340.47 7524.79c0,124.24 44.42,230.31 83.21,321.35 39.35,92.32 92.94,169.34 164.2,240.35 338.64,337.44 654.43,59.66 1141.81,-183.86 139.43,-69.66 413.08,-244.17 552.66,-276.69 -7.45,-89.63 -120.82,-286.62 -161.82,-364.1 -115.06,26.8 -342.65,163.96 -458.78,228.97 -58.03,32.5 -100.99,50.92 -161.55,81.18 -191.44,95.69 -836.07,561.36 -836.07,53.94 0,-54.16 65.86,-113.45 103.97,-138.76 51.28,-34.04 105.18,-57.14 158.98,-83.76 168.26,-83.19 882.18,-480.28 991.17,-505.68 -7.45,-89.64 -120.82,-286.62 -161.81,-364.1 -119.65,27.85 -281.9,136.87 -390.99,195.62 -155.07,83.53 -689.84,339.95 -794.55,419.14 -105.26,79.64 -230.43,203.36 -230.43,376.39z"/>
   <path class="fil0" d="M14078.63 2285.74c-277.45,0 -242.73,-181.38 -242.73,-343.86 0,-191.39 51.44,-910.26 303.42,-910.26 269.56,0 242.73,180.47 242.73,364.11 0,208.85 -41.62,890.01 -303.42,890.01zm-627.04 -404.55l0 141.6c0,554.5 727.06,664.59 1009.54,443.16 73.9,-57.91 124.35,-130.97 163.85,-220.47 132.4,-299.95 248.14,-984.98 44.2,-1258.23 -47.79,-64.06 -152.6,-128.1 -228.62,-155.73 -349,-126.81 -718.6,-71.84 -850.31,298.31 -65.8,184.96 -138.66,497.97 -138.66,751.36z"/>
   <path class="fil0" d="M7686.62 1699.15c18.11,217.77 546.15,1053.53 546.15,1294.59 0,117.85 -102.74,182.05 -222.52,182.05 -138.16,0 -192.4,-142.72 -237.05,-248.42l-314.94 -656.01c-44.08,-103.23 -135.8,-263.07 -155.98,-349.72 -86.21,7.18 -280.94,101.7 -364.11,141.6l377.58 815.89c205.51,408.76 374.71,882.63 1058.29,458.17 446.55,-277.26 171.71,-710.92 -26.66,-1105.48l-316.89 -674.28c-119.44,27.83 -213.78,111.31 -343.87,141.61z"/>
   <path class="fil0" d="M2305.98 18326.51c60.31,113.99 132.32,219.18 202.29,323.66 59.25,-31.36 90.83,-53.63 149.58,-93.15 57.38,-38.6 94.37,-57.12 149.94,-92.8 105.24,-67.51 206.23,-131.44 307.09,-198.6 50.92,-33.88 93.52,-55.46 150.17,-92.58 197.39,-129.38 465.39,-361.03 610.68,-182.36 193.69,238.14 -224.14,430.04 -481.31,594.91 -68.18,43.72 -558.84,371.03 -623.2,388.21 17.26,74.14 151.01,286.09 202.28,323.66 73.82,-19.72 764.63,-475.96 881.92,-554.26 139.9,-93.41 304.54,-187.31 369.34,-338.66 133.26,-311.32 -153.96,-763.8 -514.71,-836.45 -199.81,-40.26 -399.37,112.09 -517.91,188.16 -300.1,192.54 -594.47,374.95 -886.16,570.26z"/>
   <path class="fil0" d="M3115.1 5987.48l667.53 262.94 -202.28 283.22c-12.38,-46.4 -184.52,-232.2 -227.31,-278.39 -73.33,-79.13 -172.44,-169.98 -237.94,-267.77zm-424.78 0l1152.99 1395.72c68.82,-130.08 156.03,-238.48 222.5,-364.1l-242.73 -262.97c73.15,-138.24 222.76,-309.51 242.73,-384.34 119.48,9.96 249.42,94.65 364.1,121.37 48.6,-35.6 206.09,-273.34 222.5,-343.87 -59.98,-4.99 -1541.08,-490.54 -1699.14,-566.39 -78.85,149.01 -184.11,255.57 -262.95,404.58z"/>
   <path class="fil0" d="M950.7 10012.85c0,320.33 254.31,525.91 525.95,525.91 429.54,0 514.97,-585.96 757.02,-639.57 225.08,-49.88 327.5,221.88 180,383.14 -56.27,61.5 -119.52,57.39 -228.07,49.22 -110.02,-8.27 -73.04,-4.91 -97.42,130.73 -15.13,84.14 -38.71,160.76 -45.16,238.29 99.32,23.15 118.53,40.47 242.73,40.47 517.95,0 796.52,-1254.15 -60.68,-1254.15 -383.81,0 -552.85,647.31 -748.42,647.31 -282.11,0 -291.78,-311.76 -162.87,-385.37 49.48,-28.26 144.4,-19.21 223.55,-19.21 4.81,-57.74 62.86,-326.47 80.9,-364.1 -103.31,-2.29 -363.6,-99.51 -533.02,195.19 -57.22,99.54 -134.51,307.74 -134.51,452.13z"/>
   <path class="fil0" d="M17921.95 2407.12c-3.13,140.47 -147.41,514.48 -161.82,687.75 -82.23,-6.83 -95.35,-32.49 -155.48,-67.01 -52.49,-30.15 -99.01,-48.69 -147.94,-74.57 12.5,-46.85 409.86,-505.59 465.24,-546.18zm0 0zm-1274.37 869.81l1274.37 -869.81zm-1274.37 869.81c143.97,33.54 216.53,158.08 384.34,161.83 18.23,-68.32 47.24,-78.12 96.33,-126.17 54.47,-53.3 66.06,-77.24 105.93,-136.8 83.76,22.36 334.13,174.53 424.79,222.5 -3.11,139.67 -69.72,229.62 -80.9,364.11l364.11 182.05c0,-102.92 145.3,-713.82 178.03,-853.58 34.77,-148.51 63.15,-277.76 96.54,-429.37 18.83,-85.48 32.02,-142.25 47.41,-215.57 62.07,-295.91 87.85,-236.54 -146.98,-355.41 -84.39,-42.69 -123.31,-86.7 -215.48,-108.18 -132.2,88.55 -706.42,694.76 -864.89,874.72l-242.58 242.9c-55.84,55.79 -124.93,95.69 -146.65,176.99z"/>
   <path class="fil0" d="M6169.51 2953.29l277.23 248.69c31.7,26.49 258.48,241.42 268.94,257 -57.39,38.42 -243.31,165.99 -303.42,182.05l-242.76 -687.73zm-384.32 -161.83l270.6 862.16c50.71,152.11 95.21,272.28 138.24,428.15 31.53,114.12 127.91,336.24 137.32,449.3 60.47,-32.01 289.93,-196.7 323.66,-242.73 -93.25,-400.25 -213.44,-282.56 84.93,-481.46 66.16,-44.1 140.01,-107.1 218.49,-125.38l258.48 247.23c75.02,-41.83 288.35,-172.71 328.13,-227.01 -25.3,-37.77 -116.5,-110.04 -159,-144.42l-1031.48 -869.95c-64.74,-52.3 -111.28,-99.6 -185.03,-138.63 -75.22,50.39 -310.35,222.98 -384.32,242.74z"/>
   <path class="fil0" d="M2184.62 14523.68l-872.46 381.63c-101.71,41.65 -206.54,78.85 -300.77,124.05 9.05,108.75 55.98,297.51 80.92,404.57l1618.23 -748.44c0,-178.81 -67.37,-343.24 -80.9,-505.7l-889.56 -40.93c-71.04,0.31 -153.29,4.34 -223.08,0.57 -91.6,-4.95 -110.57,-20.88 -221.71,-21.02 -80.04,-0.1 -164.67,3.73 -244.1,1.36 -103.21,-3.08 -111.07,-20.91 -221.85,-20.91 0.79,35.5 61.32,360.48 70.74,374.31 43.83,64.46 246.13,13.45 409.2,35.78 248.95,34.12 591.4,14.73 875.33,14.73z"/>
   <path class="fil0" d="M22007.99 15838.49l302.32 104.42c8.99,-98.02 65.97,-238.38 93.68,-335.48 29.03,-101.66 87.35,-239.8 89.48,-335.34 73.29,35.19 330.07,99.31 424.78,121.36 -33.35,143.16 -153.45,506.33 -161.81,606.84 55.25,12.88 241.18,60.75 283.17,80.92 26.07,-54.33 155.89,-515.38 161.82,-586.6 133.17,31.01 253.65,70.69 384.33,101.14 -28.23,58.84 -180.43,574.34 -182.05,647.28 97.17,8.1 187.9,58.72 283.18,80.92 35.64,-74.26 250.86,-901.82 303.42,-1011.39 -40.53,-19.45 -147.13,-46.95 -199.78,-63.19 -63.7,-19.66 -134.39,-39.72 -202.29,-60.69l-840.37 -251.93c-82.86,-23.8 -122.64,-33.57 -205.42,-57.53 -88.4,-25.59 -124.02,-52.13 -231.05,-52.13 -6.28,75.58 -45.13,169.96 -69.23,254.39 -24.97,87.39 -47.93,164.67 -74.75,248.89 -24.35,76.41 -51.37,167.88 -76.03,247.64 -23.98,77.62 -52.68,196.41 -83.41,260.46z"/>
   <path class="fil0" d="M22331.64 10235.35l73.54 371.45c18.8,95.5 -17.14,68.38 68.13,93.68l870.2 40.09c129.46,-0.57 165.03,20.06 281.91,21.5 228.45,2.82 389.19,19.43 607.63,19.43 -29.05,-124.76 -51.85,-259.58 -80.9,-384.34l-930.76 -19.94c-135.64,0.76 -185.13,-20.51 -303.15,-20.51l1132.76 -485.47c-24.95,-107.06 -71.87,-295.83 -80.9,-404.55 -62.6,5.21 -335.57,138.54 -411.57,175.03l-822.08 391.6c-128.12,56.98 -279.77,135.84 -404.82,202.02z"/>
   <path class="fil0" d="M2144.58 12525.17l40.04 663.43c-107.59,25.09 -140.25,12.74 -263.36,20.57 -207.28,13.17 -165.64,123.07 -200.75,-325.1 -3.64,-46.19 0.93,-94.37 -1.1,-140.48 -3.87,-87.61 -13.9,-65.25 -20.26,-141.58 -138.16,32.17 -117.5,20.24 -283.18,20.24l20.21 627.04c-159.99,0 -237.46,20.24 -384.32,20.24 0,-141.91 -13.12,-500.24 -40.95,-607.67 -19.71,-76.17 -14.22,-49.03 -81.02,-45.27 -36.59,2.05 -135.77,1.58 -162.01,6.14 -72.31,12.59 -49.23,22.27 -45.2,80.82l46.42 767.82c-0.53,299.23 -30.04,186.39 425.03,183.17 118.09,-0.84 166.37,-21.08 303.15,-20.47l911.5 -59.74c156.1,-3.89 123.01,32.44 80.32,-487.9 -55.42,-675.29 102.9,-599.7 -344.53,-561.26z"/>
   <path class="fil0" d="M21866.39 8657.57c9.22,110.75 301.05,847.75 343.89,1031.62 98.66,-22.99 174.67,-75.86 283.18,-101.14 -1.99,-88.99 -176.78,-572.19 -222.51,-667.52l424.79 -141.61 199.52 607.75c87.61,-41.62 201.08,-61.33 285.95,-102.04l-199.54 -607.77c135.56,-10.58 236.42,-96.97 381.59,-100.22 47.88,205.56 153.15,395.97 202.26,606.84 84.87,-40.72 198.35,-60.43 283.22,-101.14l-251.29 -719.68c-31.73,-81.92 -59.76,-182.81 -92.6,-251.26 -97.65,8.11 -311.64,93.82 -417.14,128.99l-814.05 278.28c-112.66,37.3 -305.18,89.9 -407.27,138.89z"/>
   <path class="fil0" d="M8455.27 1375.49c2.48,111.3 57.13,201.38 80.92,303.42 112.6,-26.23 291.31,-76.72 384.31,-121.37l210.84 679.21c34.22,119.78 67.04,222.79 105.44,339.59 21.38,65.15 30.71,110.45 50.36,172.13 14,44.02 39.23,145.14 58.16,184.59 109.8,-52.68 274.53,-68.69 384.33,-121.37l-320.92 -1014.11c-34.26,-102.13 -94.49,-248.92 -103.86,-361.39 129.78,-10.8 234.33,-90.34 364.11,-101.14 -2.72,-122.06 -51.92,-177.87 -60.69,-283.18 -76.84,6.39 -219.08,57.06 -285.71,78.38l-867.28 245.25z"/>
   <path class="fil0" d="M22392.33 14604.57l282.59 44c8.36,-96.87 34.95,-227.08 52.39,-336.07 17.68,-110.31 49.33,-228.35 49.33,-335.01l1351.61 231.27c108.34,13.86 78.52,-15.74 96.61,-138.21 15.13,-102.45 28.44,-143.05 28.44,-254.88 -151.09,0 -1059.15,-159.68 -1280.09,-196.53 -129.56,-21.62 -316.34,-63.7 -439.29,-66.44 -5.37,241.9 -141.58,746.36 -141.58,1051.86z"/>
   <path class="fil0" d="M1233.91 15818.25c10.06,121.1 74.02,267.94 101.14,384.33 309.49,-72.11 1329.28,-449.18 1658.7,-525.92 -8.2,-98.52 -76.7,-259.17 -101.16,-364.1 -103.64,8.62 -1046.15,316.03 -1245.6,372.63 -77.22,21.91 -121.89,41.95 -199.11,63.83 -84.81,24.04 -147.27,37.23 -213.97,69.22z"/>
   <path class="fil0" d="M1317.39 8779.8c266.1,61.73 1495.79,531.94 1656.12,545.29l118.79 -364.96c-183.52,-42.38 -980.43,-330.23 -1223.69,-411.34 -107.39,-35.8 -333.77,-125.76 -432.43,-133.96l-118.79 364.97z"/>
   <path class="fil0" d="M11873.8 23666.69c0,-594.42 -50.24,-445.33 187.09,-682.68 237.36,-237.34 88.28,-187.09 682.7,-187.09 52.27,0 404.58,352.28 404.58,404.55 0,691.03 28.43,422.28 -164.85,664.51 -193.62,242.69 -113.51,185.06 -704.96,185.06 -40.53,0 -146.52,-109.26 -216.56,-167.79 -44.24,-37.01 -188,-160.05 -188,-216.56zm-141.6 -505.68c0,732.18 -58.97,552.03 227.42,804.21 314.07,276.58 8.76,227.41 864.88,227.41 64.41,0 218.63,-188.28 268.02,-237.69 275.06,-275.04 217.45,-152.71 217.45,-793.93 0,-53.45 -452.26,-505.7 -505.7,-505.7 -725.32,0 -534.02,-62.72 -834.41,237.67 -49.39,49.41 -237.67,203.6 -237.67,268.04z"/>
   <path class="fil0" d="M12055.86 17497.18c0,566.92 809.1,566.92 809.1,0 0,-506.3 -809.1,-518.27 -809.1,0z"/>
   <path class="fil0" d="M13471.79 5906.56l0 748.44c0,76.57 47.19,60.69 161.84,60.69l20.21 -546.15c0,186.05 80.91,360.09 80.91,546.15l141.61 0c0,-186.07 80.9,-360.11 80.9,-546.15l20.23 546.15c221.57,0 161.82,95.97 161.82,-809.12 0,-84.46 -70.19,-60.69 -242.73,-60.69 -4.06,182.77 -80.9,389.31 -80.9,586.6l-20.24 0c0,-197.29 -76.83,-403.83 -80.92,-586.6 -172.52,0 -242.73,-23.77 -242.73,60.69z"/>
   <path class="fil0" d="M14280.91 6715.69l141.61 0 20.21 -546.15c0,179.52 86.33,368.16 101.15,546.15l121.37 0c28.19,-121.04 80.9,-349.18 80.9,-485.47l20.24 0c0,515.25 -50.65,485.47 161.81,485.47l0 -869.81c-376.26,0 -179.28,-14.72 -315.03,473.86 -1.79,6.49 -7.57,24.99 -9.67,30.77 -16.29,44.99 -4.69,18.72 -19.17,41.52 0,-188.81 -76.9,-366.52 -80.92,-546.15l-222.5 0 0 869.81z"/>
   <path class="fil0" d="M15636.19 6715.69l141.59 0 20.24 -525.94c0,178.77 77.07,353.35 80.91,525.94l141.59 0c25.63,-110.04 80.92,-367.48 80.92,-485.47l20.24 0c0,486.85 -50.53,485.47 141.58,485.47l0 -869.81c-245.34,0 -208.02,-15.36 -227.37,96.26 -8.18,47.08 -12.81,78.7 -23.87,137.95 -17.55,93.77 -45.5,211.53 -52.18,291.71l-11.32 -29.1c-140.94,-484.26 86.05,-496.82 -312.31,-496.82l0 869.81z"/>
   <path class="fil0" d="M11186.05 10235.35c0,117.73 3.01,162.46 59.96,263.68l15.2 25.25c24.01,36.87 8.46,14.55 25.97,34.71 0,-205.38 -7.49,-257.59 121.36,-343.88 301.98,70.36 40.47,490.12 40.47,687.75 0,105.08 45.66,182.56 92.15,251.72 70.39,104.71 71.22,112.38 231.49,112.38 -6.96,-83.64 -78.12,-156.25 -109.02,-255.06 -158.01,-505.26 149.5,-752.26 149.5,-877.7 0,-141.85 -292.17,-454.68 -535.36,-130.8 -52.86,70.41 -91.72,116.13 -91.72,231.94z"/>
   <path class="fil0" d="M11853.56 12905.43l1233.92 0c0,-330.59 153.96,-262.97 -546.15,-262.97 -242.73,0 -485.47,0 -728.2,0 14.66,30.6 36.59,216.8 40.44,262.97z"/>
   <path class="fil0" d="M12237.91 16829.66c0,137.57 -94.2,157.8 -141.6,222.5 76.9,43.19 547.22,20.24 667.52,20.24 178.75,0 -80.92,-41.34 -80.92,-242.73 0,-143.09 64.12,-235.5 182.06,-262.97 -43.7,-59.66 -54.61,-42.82 -160.7,-41.57l-648.4 1.12c30.81,85.15 182.05,77.24 182.05,303.42z"/>
   <path class="fil0" d="M10599.44 6209.98l-80.91 0 0 -222.5c144.95,0 141.6,17.53 141.6,161.81 0,46.61 -14.1,60.69 -60.69,60.69zm-222.52 -303.42l0 748.44c0,74.37 43.19,60.69 141.61,60.69l0 -343.89 141.6 0c78.72,337.92 -99.51,343.89 202.26,343.89 -23.49,-100.84 -13.43,-125.05 -20.79,-242.18 -8.12,-129.21 -29.62,-127.08 -80.34,-202.85 131.04,-87.75 137.89,-424.78 -141.61,-424.78 -172.54,0 -242.73,-23.77 -242.73,60.69z"/>
   <path class="fil0" d="M11449.02 7241.6l0 -222.5 80.9 0c65.46,0 83.93,83.26 74.92,135.36 -15.29,88.42 -60.53,87.13 -155.82,87.13zm-121.36 505.7c228.71,0 141.58,34.55 141.58,-364.11l121.36 0c25.83,110.78 14.65,233.09 40.47,343.87l161.82 0c-43.8,-188.02 20.85,-272.81 -80.92,-424.78 37.99,-56.72 80.92,-83.88 80.92,-182.06 0,-286.76 -254.07,-242.73 -465.23,-242.73l0 869.81z"/>
   <path class="fil0" d="M13107.69 6108.85c0,78.65 16.43,212.89 40.47,262.95l-101.16 0c0,-67.97 8.34,-95.71 15.34,-146.5 14.6,-106.17 -20.48,-68.23 45.34,-116.45zm-283.18 606.84l161.81 0c45.85,-196.74 -34.66,-182.05 202.28,-182.05 4.18,50.31 23.13,145.95 40.45,182.05l161.84 0 -96.93 -429.02c-35.78,-151.9 -70.06,-289.34 -105.36,-440.79l-182.05 0c-33.61,144.3 -58.58,280.78 -93.25,432.69 -27.54,120.82 -86.22,321.07 -88.8,437.12z"/>
   <path class="fil0" d="M8940.74 6088.61c7.17,86.03 41.41,220.68 60.69,303.42l-121.36 0 54.85 -289.01c1.12,-3.33 3.06,-10.04 5.82,-14.41zm-283.17 627.08l161.81 0c2.03,-91.48 20.24,-80.39 20.24,-182.05l182.05 0c2.03,91.48 20.21,80.36 20.21,182.05l182.05 0 -150.01 -679.32c-46.75,-218.63 -23.1,-190.49 -173.61,-190.49 -76.91,0 -73.64,95.14 -89.7,173.29 -17.6,85.7 -35.35,145.21 -56.02,227.15 -16.63,65.85 -36.27,163.05 -52.37,230.84 -20.82,87.65 -44.65,135.91 -44.65,238.53z"/>
   <path class="fil0" d="M15292.3 6108.85c59.54,43.61 34.91,31.3 53.09,128.97 11.87,63.93 23.27,99.46 27.83,154.22l-121.36 0c19.78,-84.89 40.44,-178.89 40.44,-283.18zm-262.94 606.84l161.81 0c6.49,-78.03 20.24,-79.66 20.24,-182.05l182.05 0c6.48,78.01 20.21,79.65 20.21,182.05l182.05 0 -141.58 -647.31c-15.34,-64.05 -38.8,-147.96 -40.47,-222.5 -254.61,0 -172.93,-47.61 -282.95,404.79 -29.79,122.49 -98.46,334.11 -101.36,465.02z"/>
   <path class="fil0" d="M14220.24 7100c0,332.9 303.41,199.5 303.41,424.79 0,47.35 -33.56,80.91 -80.91,80.91 -144.11,0 -4.93,-161.81 -161.82,-161.81 -118.38,0 -96.76,303.42 202.29,303.42 201.04,0 347.88,-333.42 82.47,-487.05 -132.5,-76.67 -183.63,-70.84 -183.63,-180.47 0,-46.62 14.1,-60.69 60.69,-60.69 160.98,0 -88.52,121.36 222.52,121.36 0,-137.51 -11.99,-283.21 -222.52,-283.21 -160.31,0 -222.5,85.68 -222.5,242.73z"/>
   <polygon class="fil0" points="9830.77,6715.69 10255.55,6715.69 10255.55,6553.84 9992.61,6553.84 9992.61,6351.58 10235.35,6351.58 10235.35,6189.75 9992.61,6189.75 9992.61,6007.69 10255.55,6007.69 10255.55,5845.88 9830.77,5845.88 "/>
   <path class="fil0" d="M10761.26 6917.95l0 809.12 424.78 0c0,-193.09 34.24,-161.81 -262.97,-161.81l0 -202.29c250.98,0 242.73,20.86 242.73,-101.13 0,-84.48 -70.19,-60.69 -242.73,-60.69l0 -182.05 242.73 0 0 -161.84c-257.38,0 -404.55,-37.51 -404.55,60.69z"/>
   <path class="fil0" d="M13006.56 7100l20.24 0c0,121.92 40.45,181.53 40.45,303.42l-101.14 0c2.4,-107.22 40.45,-188.5 40.45,-303.42zm-262.97 627.08c194.81,0 182.05,33.83 182.05,-182.05l182.06 0c0,102.39 13.73,104.04 20.24,182.05l161.81 0c0,-107.25 -146.41,-716.8 -182.05,-869.81l-161.82 0 -202.28 869.81z"/>
   <polygon class="fil0" points="10983.76,6715.69 11408.54,6715.69 11408.54,6553.84 11145.6,6553.84 11145.6,6351.58 11368.09,6351.58 11368.09,6189.75 11145.6,6189.75 11145.6,6007.69 11388.33,6007.69 11388.33,5845.88 10983.76,5845.88 "/>
   <path class="fil0" d="M10498.29 7727.07c17.5,-210.31 161.83,-684.55 161.83,-869.81l-161.83 0c-16.56,199.06 -80.9,390.41 -80.9,606.84 -2.7,-4.22 -5.95,-16.17 -6.86,-13.35l-59.77 -304.35c-47.86,-288.47 4.97,-289.14 -155.89,-289.14 -100.7,0 0.38,295.25 38.78,487.16 93.72,468.6 32.51,382.65 264.64,382.65z"/>
   <polygon class="fil0" points="11813.12,6715.69 11995.17,6715.69 11995.17,6351.58 12217.67,6351.58 12217.67,6189.75 11995.17,6189.75 11995.17,6007.69 12237.91,6007.69 12237.91,5845.88 11813.12,5845.88 "/>
   <polygon class="fil0" points="13350.43,7019.11 13492.03,7019.11 13492.03,7727.07 13674.08,7727.07 13674.08,7019.11 13815.68,7019.11 13815.68,6857.26 13350.43,6857.26 "/>
   <path class="fil0" d="M12197.43 6917.95l0 101.16 161.84 0 0 707.97 161.81 0 0 -707.97 141.61 0 0 -161.84c-279.46,0 -465.26,-42.05 -465.26,60.69z"/>
   <path class="fil0" d="M15757.57 5340.17c-158.85,-3.53 -160.19,-47.69 -161.84,-121.37 92.01,24.57 54.24,36.84 76.34,62.14l72.82 50.82c2.67,1.66 8.86,5.09 12.68,8.41zm-424.79 -121.37l6.03 6.05c-0.39,-0.41 -8.03,-4.04 -6.03,-6.05zm465.24 -40.44c23.43,-23.44 115.3,34.23 25.25,8.24 -2.41,-0.72 -60.37,26.87 -25.25,-8.24zm-56.34 4.32c11.93,-65.28 -4.6,-48.74 56.34,-65.01l-56.34 65.01zm15.89 157.49c97,0 125.02,30.85 204.79,20.73 128.63,-16.29 111.81,-61.18 -22.74,-61.18 32.23,-48.11 24.47,-21.07 40.45,-80.92 111.79,74.88 91.2,114.27 121.37,161.84 22.45,-55.64 -6.29,-12.52 41.5,-39.42 4.99,-2.8 48.07,-15.72 59.63,-21.26 -88.28,-120.51 16.43,84.12 -161.81,-182.05l-182.06 0c-25.75,-53.71 -18.44,-21.65 -20.24,-101.16 -138.71,3.11 -23.89,3.13 -160.49,62.03 -128.73,55.47 -54.47,18.56 -115.66,86.61 -69.96,77.73 58.62,-49.72 -20.53,19.92 -55.9,49.19 -58.42,-13.83 -67.42,94.42 -74,-19.76 -42.38,-21.34 -101.14,-60.69 31.87,-60.22 54.52,-67.61 60.69,-141.6 108.83,29.07 81.61,89.68 121.37,-80.9 -8.39,-0.71 -45.3,-6.85 -48.69,-6.69 -29.25,1.38 -12.4,-1.98 -37.08,7.2 -41.02,15.24 16.96,-4.12 -34.1,19.83 -3.97,1.87 -9.15,4.85 -13.38,6.62 -117.73,49.37 -115.46,2.72 -190.41,114.63l80.12 -22.7c-77.09,149.66 2.8,-31.44 -80.12,83.37 45.34,169.82 244.07,126.68 247.82,124.47 43.51,-25.44 -5.52,15.3 35.38,-43.55l0 80.92 184.18 -18.11c5.11,-1.46 10.65,-3.27 15.41,-4.81l29.13 -11.34c3.15,-1.22 9.7,-3.47 14.02,-6.21z"/>
   <polygon class="fil0" points="12339.04,6715.69 12763.82,6715.69 12763.82,6553.84 12500.85,6553.84 12500.85,5845.88 12339.04,5845.88 "/>
   <polygon class="fil0" points="9304.85,6715.69 9729.63,6715.69 9729.63,6553.84 9466.66,6553.84 9466.66,5845.88 9304.85,5845.88 "/>
   <path class="fil0" d="M12500.85 9183.49c0,244.61 542.92,725.95 627.08,748.44l36.41 -44.51c-25.09,-108.08 -652.04,-609.58 -461.2,-1007.35 -68.28,18.23 -92.36,55.33 -130.71,112.03 -28.66,42.35 -71.58,135.1 -71.58,191.39z"/>
   <path class="fil0" d="M12015.39 16060.99l869.81 0c-54.83,-81.87 -317.78,-250.86 -424.79,-343.87l-405.39 282.37c-34.38,33.73 -24.2,3.71 -39.63,61.5z"/>
   <path class="fil0" d="M13916.82 6917.95l0 809.12 161.81 0 0 -869.81 -101.14 0c-46.61,0 -60.68,14.1 -60.68,60.69z"/>
   <path class="fil0" d="M7666.39 5704.28c0,52.89 -1.6,80.91 60.69,80.91l869.81 0 0 -141.6 -869.81 0c-46.61,0 -60.69,14.07 -60.69,60.69z"/>
   <path class="fil0" d="M16404.85 5704.28c0,52.89 -1.58,80.91 60.69,80.91l809.12 0c86.27,0 86.27,-141.6 0,-141.6l-809.12 0c-46.61,0 -60.69,14.07 -60.69,60.69z"/>
   <polygon class="fil0" points="11934.48,7727.07 12076.07,7727.07 12076.07,6857.26 11934.48,6857.26 "/>
   <path class="fil0" d="M11954.7 16465.55l991.17 0c-5.27,-63.35 -13.87,-121.36 -80.91,-121.36l-809.1 0c-65.52,0 -74.37,70.74 -101.16,121.36z"/>
   <path class="fil0" d="M16526.22 5947.01c36.1,154.98 191.27,101.15 586.6,101.15 161.1,0 127.14,-141.6 40.47,-141.6 -196.22,0 -551.42,-33.57 -627.08,40.45z"/>
   <path class="fil0" d="M7807.99 5967.25c0,127.38 351.01,80.91 566.37,80.91 148.56,0 158.94,-141.6 60.68,-141.6l-566.36 0c-46.62,0 -60.69,14.07 -60.69,60.69z"/>
   <path class="fil0" d="M12076.07 16303.72l829.36 0 0 -101.14 -890.05 0c1.46,64.82 -6.57,101.14 60.69,101.14z"/>
   <path class="fil0" d="M12339.04 15656.43l0 -40.44c-107.13,-28.63 -239.97,-194.79 -343.87,-222.53 0,80.94 0.48,162.01 -0.16,242.93 -1.24,154.29 -23.03,207.49 33.99,208.97 24.97,0.67 225.92,-166.47 310.04,-188.93z"/>
   <path class="fil1" d="M13127.93 11266.97c-11.42,-49.05 -21.18,-81.16 -40.45,-121.37 -14.69,10.75 -69.86,67.28 -70.63,87.57 -1.84,49.74 46.25,33.81 111.08,33.81z"/>
   <path class="fil0" d="M11449.02 4652.44c-21.52,-92.34 -4.2,-72.54 -80.92,-80.92 18.69,69.92 10.97,62.23 80.92,80.92z"/>
   <path class="fil0" d="M13107.69 4369.23c36.65,-26.86 21.48,-7.98 50.31,-50.82 30.58,-45.46 25.3,-27.04 30.6,-90.76 -48.21,35.32 -65.09,73.76 -80.91,141.59z"/>
   <path class="fil0" d="M13107.69 4369.23c-52.52,35.17 -53.98,20.57 -60.69,101.15l40.47 0c4.54,-54.64 9.49,-55.05 20.21,-101.15z"/>
   <polygon class="fil0" points="11792.89,4369.23 11813.12,4369.23 11801.98,4325.75 "/>
   <polygon class="fil0" points="13350.43,4531.07 13370.66,4531.07 13353.8,4507.46 "/>
   <polygon class="fil0" points="14220.24,4854.7 14200,4854.7 14216.87,4878.31 "/>
   <polygon class="fil0" points="12480.64,4814.25 12480.64,4794.02 12457.03,4810.88 "/>
   <polygon class="fil0" points="13350.43,4531.07 13330.21,4531.07 13347.06,4554.65 "/>
   <path class="fil0" d="M11449.02 4692.88c2.01,2.01 6.02,-8.86 6.02,-6.04l0 0.02c-0.38,0.39 -8.05,4.02 -6.02,6.02z"/>
   <path class="fil0" d="M11853.56 5097.44c2.01,2.01 6.03,-8.87 6.03,-6.02l0.02 0c-0.41,0.38 -8.05,4.01 -6.05,6.02z"/>
   <path class="fil0" d="M13289.74 4531.07l6.04 -6.04c-0.4,0.4 -8.05,4.01 -6.04,6.04z"/>
   <path class="fil0" d="M12460.4 4773.8l6.05 -6.04c-0.41,0.4 -8.06,4.01 -6.05,6.04z"/>
   <path class="fil0" d="M12278.36 4652.44l6.04 -6.05c-0.4,0.41 -8.05,4.02 -6.04,6.05z"/>
   <path class="fil0" d="M13532.48 5178.36l6.05 -6.03c-0.41,0.39 -8.06,4.02 -6.05,6.03z"/>
   <path class="fil0" d="M10983.76 4915.39l6.04 -6.03c-0.4,0.39 -8.05,4.02 -6.04,6.03z"/>
   <polygon class="fil0" points="9648.72,4976.06 9648.72,4996.3 "/>
  </g>
 </g>
</svg>
