<?xml version="1.0" encoding="UTF-8"?>
<!DOCTYPE svg PUBLIC "-//W3C//DTD SVG 1.1//EN" "http://www.w3.org/Graphics/SVG/1.1/DTD/svg11.dtd">
<!-- Creator: CorelDRAW 2021 (64-Bit) -->
<svg xmlns="http://www.w3.org/2000/svg" xml:space="preserve" width="1419.93mm" height="595.12mm" version="1.1" style="shape-rendering:geometricPrecision; text-rendering:geometricPrecision; image-rendering:optimizeQuality; fill-rule:evenodd; clip-rule:evenodd"
viewBox="0 0 142205.06 59601.07"
 xmlns:xlink="http://www.w3.org/1999/xlink"
 xmlns:xodm="http://www.corel.com/coreldraw/odm/2003">
 <defs>
  <style type="text/css">
   <![CDATA[
    .fil0 {fill:white}
   ]]>
  </style>
 </defs>
 <g id="Capa_x0020_1">
  <metadata id="CorelCorpID_0Corel-Layer"/>
  <path class="fil0" d="M4557.18 35145.79c-68.39,-63.34 -354.1,-502.41 -385.84,-601.24l1656.85 -1054.43c696.58,-461.11 1173.15,-652.08 1752.88,194.19 617.49,901.41 128.94,1275.76 -509.71,1686.88 -277.44,178.61 -548.15,365.97 -829.62,546.11l-836.62 524.52c-78.74,-72.81 -338.88,-484.52 -380.86,-582.89l1873.52 -1228.15c175.11,-114.68 505.56,-337.17 291.33,-661.98 -173.88,-263.63 -438.04,-224.87 -696.42,-60.45l-1935.5 1237.44zm35686.67 -2282.18c190.14,88.63 504.11,315.56 686.55,434.48 238.71,155.58 442.66,301.12 678.02,450.79l1378.15 906.63c-42.07,105.88 -392.11,623.5 -461.79,688.57l-2310.07 -503.68 898.18 606.19c207.2,147.61 831.88,520.88 932.11,624.33 -87.67,194.26 -221.46,400.14 -355.4,537.03 -229.55,-145.61 -2580.49,-1706.42 -2734.92,-1761.63 53.33,-132.97 396.42,-629.82 473.76,-702.1l2317.49 506.58c-510.44,-321.52 -1320.65,-946.39 -1852.91,-1232.47 64.1,-150.59 254.99,-408.29 350.82,-554.72zm1415.7 -2280.91c651.85,-179.37 1896.6,526.67 2222.63,821.64 301.23,272.54 446.16,625.12 234.85,1158.65 -146.97,371.09 -368.73,717.37 -742.18,813.08 -680.8,174.5 -1926.22,-524.06 -2253.39,-835.04 -726.09,-690.14 -43.82,-1798.22 538.08,-1958.34zm-35978.64 -449.1l315.79 743.72 -1233.95 1230.16c-178.94,178.94 -334.19,287.76 -392.62,458.91l2003.82 -897.55 253.72 586.38c-85.91,78.44 -2736.87,1272.04 -2992.02,1354.45l-319.64 -753.83 1610.03 -1667.66 -1958.75 875.15c-75.74,-71.76 -244.67,-470.81 -279.71,-594.17l2993.32 -1335.56zm-452.46 -1337.98c106.27,131.8 202.53,475.27 232.07,680.29l-3130.44 982.69 -205.36 -685.93 3103.73 -977.04zm36441.05 1006.54c112.75,-375.66 440.69,-1687.92 587.56,-1936.18l3134.35 933.57 -571.4 1892.52 -513.07 -170.61 343.41 -1145.62c-41.42,-54.08 -11.61,-30.39 -83.05,-69.69l-269.52 -84.29c-126.03,-37.58 -242.96,-81.52 -372.56,-96.22l-326.86 1126.43 -538.5 -152.42 330.02 -1143.91 -831.58 -239.7 -364.07 1247.14 -524.72 -161.02zm-38806.68 -2032.05c305.5,-133.88 860.38,-327.97 1101.52,-487.82l-2460.07 -34.54c-25.42,-195.41 -139.56,-564.61 -111.58,-732.04l3355.65 155.91 170.39 906.14 -3051.34 1426.23 -135.05 -741.14c189.37,-133.91 865.06,-376.42 1130.47,-492.75zm39795.93 -2288.11c277.82,-17.46 2698.43,425.59 3253.27,493.91l-126.43 711.45 -2692.77 -422.4 -193.1 1243.7 -549.67 -84.47 308.7 -1942.19zm-38226.44 -2008.95l124.16 2004.58 -3279.53 203.11 -121.1 -1979.31 547.36 -31 78.12 1258.69 763.45 -47.81 -71.67 -1186.22 547.37 -10.16 68.02 1162.8 877.35 -52.22 -84.66 -1316.53 551.13 -5.95zm39624.42 -5.67c-446.75,0 -849.61,-67.22 -1095.21,-327.5 -383.07,-405.97 -542.53,-1606.21 331.68,-1929.53 354.5,-131.11 836.06,-170.04 1222.83,-170.04 799.9,0 1564.04,64.87 1564.04,1181.01 0,1135.98 -870.22,1246.06 -2023.33,1246.06zm-42900.79 -749.41c20.01,-367.97 54.75,-729.68 82.83,-1097.64 50.98,-667.78 255.6,-1262.54 1133.1,-1062.91 346.41,78.81 457.29,249.74 572.05,571.45 149.1,-342.02 209.56,-437.8 659.66,-451.18 220.06,-6.55 632.88,43.54 796.1,9.05l189.97 -81.4c5.59,-14.28 19.65,-11.47 32.05,-16.19l-74.81 773.98c-762.11,244.33 -1477.84,-468.24 -1428.81,778.24l1369.38 105.92 -72.67 726.38 -3258.85 -255.69zm44196.73 -5035.9l144.84 723.55c-95.1,103.52 -910.14,411.69 -1116.92,500.15l-993.31 419.32c-70.85,34.81 -4.29,-0.47 -73.51,41.12l2391.69 80.54 142.44 724.79 -3377 -149.74 -176.59 -906.36 3058.36 -1433.36zm-41502.12 1624.55c1168.26,205.66 648.62,-1254.76 6.45,-753.01 -383.36,299.54 -493.48,1080.33 -1172.5,1124.23 -734.99,47.5 -1162.28,-485.22 -1042.46,-1220.24 125.79,-771.62 692.61,-1209.35 1220.73,-932.74l-158.05 653.56c-178.45,-22.03 -338.57,-28.7 -448.41,81.39 -96.46,96.7 -153.1,285.35 -100.21,455.08 42.83,137.48 190.43,226.34 387.42,224.17 575.91,-6.34 684.82,-1409.83 1658.27,-1240.73 1294.7,224.91 842.14,1795.57 394.63,2195.26 -279.87,249.96 -562.82,158.66 -922.06,111.42 29.78,-157.05 102.14,-598.83 176.18,-698.37zm-1303.62 -3644.48l3097.97 1062.32 -235.13 689.12c-261.73,-65.53 -3025.38,-1032.87 -3105.36,-1094.85l242.52 -656.59zm41937.5 -579.22l640.35 1869.38 -510.22 169.79 -422.23 -1180.73 -715.51 238.03 391.81 1129.15 -520.75 173.23 -376.13 -1117.38 -834.96 286.65 422.54 1239.97 -516.05 173.94 -662.51 -1913.41 3103.67 -1068.62zm-41562.04 -457.66c101.34,-268.09 256.12,-535.72 379.75,-794.38 473.06,-989.78 866.58,-1201.58 2150.4,-561.83 463.23,230.83 1091.63,565.29 1073.05,1213.03 -8.46,294.89 -514.18,1391.98 -659.02,1578.97l-2210.74 -1063.21c-186.38,-86.45 -583.39,-254.48 -733.44,-372.59zm39379.24 401.58c-290.64,147.78 -645.99,382.95 -1056.3,254.85 -535.53,-167.19 -1369.43,-1404.98 -399.83,-2030.59l2201.5 -1135.51 323.2 624.39c-429.68,233.82 -917.93,465.09 -1349.29,698.96 -548.11,297.17 -1222.54,504.03 -1000.15,972.24 138.98,292.58 427.56,249.4 702.15,106.96l2041.8 -1028.35 314.59 628.08 -1777.68 908.96zm-37404.38 -4005.29c117.43,-244.36 381.13,-495.62 468.12,-741.16l3256.99 1092.28c-49.52,120.06 -345.46,534.57 -427.74,621.52l-682.44 -245.95c-72.47,202.94 -413.73,575.14 -489.65,757.18l449.34 529.96c-45.33,98.72 -317.57,503.58 -406.24,592.85 -128.95,-92.8 -1759.6,-2097.21 -1909.15,-2288.56 -94.36,-120.74 -180.57,-188.58 -259.23,-318.13zm34885.48 -776.39c221.52,-151.4 428.18,-317.12 656.98,-473.7l647.08 -470.84 492.77 661.01 -615.9 970.92c-207.21,326.87 -454.5,640.95 -626.9,980.04 101.65,-43.13 51.38,-18.39 144.88,-86.04 291.21,-210.7 1475.09,-1083.49 1643.9,-1162.83 37.53,83.43 298.19,458.23 356.44,521.72 -88.52,88.72 -220.03,176.01 -333.82,259.39 -104,76.19 -213.87,158.98 -327.65,237.4 -295.91,203.97 -1801.84,1333.28 -2020.39,1430.82 -108.98,-227.05 -309.72,-416.07 -441.96,-642.95 74.59,-216.31 1189.23,-1777.36 1281.78,-2004.35 -137.64,51.72 -330.03,222.42 -463.77,314.18 -271.3,186.11 -1159.37,860.06 -1348.35,952.81 -119.82,-158.06 -299.36,-350.67 -380.86,-529.25l1335.78 -958.33zm-33261.52 -1414.11c38.35,-56.01 10.58,-17.67 53.38,-63.99 169.17,-183.07 -126.68,126.41 36.83,-37.12l794.24 -830.63c752.89,-833.49 1651.32,85.75 2203.95,648.24 74.71,76.04 193.25,236.38 256.97,345.32 437.42,747.66 78.6,1061.03 -383.1,1579.3l-580.65 590.54 -622.87 -549.12c-268.56,-293.07 -1024.81,-933.18 -1183.06,-1113.54 -130.89,-149.17 -152.07,-165.23 -285.13,-279.8 -112.44,-96.82 -223.51,-162.75 -290.56,-289.2zm29640.51 -1571.78c238.46,-260.04 1206.32,-1431.38 1373.33,-1506.49 124.88,156.14 174.3,162.32 300.91,289.87l889.02 876.39c346.83,622.9 -278.09,1323.85 -553.23,1608.5 -251.07,259.76 -830.64,1023 -1551.88,709.57 -162.23,-70.5 -401.71,-243.22 -528.1,-356l-748.94 -680.73 818.88 -941.12zm-24679.76 -2734.43c234.84,125.96 1220.65,1027.54 1489.29,1226.46l1119.91 967.32 -595.68 403.8c-154.03,-100.56 -366.11,-289.09 -479.08,-461.78 -196.89,28.87 -673.68,385.19 -820.23,512.12l234.41 668.73c-195.8,114.71 -420.79,310.67 -621.37,394.01l-1030.28 -3246.46 703.01 -464.19zm21144.6 118.05c235.8,-271.67 769.89,-736.04 1182.14,-1212.13 130.93,36.41 684.41,350.86 800.85,429.23l-726.83 3321.19 -662.09 -366.02 168.37 -679.46 -814.7 -425.26 -248.09 257.03c-68.48,76.56 -136.59,176.48 -194.25,256.1 -126.25,-36.21 -616.3,-293.74 -677.97,-364.98l1172.57 -1215.73zm-16706.32 -179.1c314.1,700.69 482.42,1231.35 -478.14,1686.6 -941.84,446.39 -1281.53,-64.71 -1588.87,-751.59 -212.78,-475.52 -706.4,-1423.01 -839.29,-1788.89 195.4,-96.38 431.23,-235.76 665.52,-307.38 41.32,183.58 519.49,1125.6 637.65,1387 258.4,571.62 458.5,1228.2 946.24,998.95 513.8,-241.49 -63.92,-1058.03 -210.6,-1382.77 -201.58,-446.23 -434.52,-892.63 -634.31,-1339.54 5.73,-5.67 14.2,-13.26 17.89,-16.26l37.5 -31.1c5.47,-3.94 14.32,-10.25 20.25,-14.15l239.25 -114.22c108.71,-48.01 204.87,-96.86 317.02,-135.71 152.69,202.08 311.61,656.96 437.76,898.08 152.19,290.87 297.96,611.64 432.14,910.98zm10499.39 -3318.92c408.97,-48.45 906.23,77.52 1147.12,292.29 274,244.28 336.12,679.6 296.91,1163.89 -62.6,773.39 -188.64,1815.58 -1029.73,1932.14 -410.8,56.93 -918.94,-76.46 -1159.54,-284.33 -284.62,-245.91 -338.36,-684.77 -301.27,-1174.22 62.96,-830.77 209.32,-1830.56 1046.5,-1929.75zm-6483.4 80.62c1082.17,-222.32 1378.99,444.06 1532.08,1364.75 174.66,1050.37 188.63,1747.92 -837.73,1964.71 -1063.14,224.54 -1372.85,-461.32 -1520.98,-1371.05 -167.99,-1031.69 -200.77,-1747.35 826.63,-1958.41zm-4075.31 1097.73c373.81,-79.91 1969.21,-681.5 2175.74,-639.8l142.85 470.14c-109.01,103.67 -537.63,201.3 -729.92,257.5l805.44 2601.51 -687.12 208.27 -823.74 -2588.44 -718.71 212.24 -164.55 -521.43zm6407.11 -1325.86c789.31,-9.5 778.38,-80.6 871.97,97.85l385.64 992.18c96.23,245.72 346.42,943.19 453.77,1096.06l-15.56 -2202.03 657.48 -3.21 23.08 3274.09c-803.21,5.51 -777.34,73.83 -870.1,-117.77 -163.43,-337.55 -668.46,-1867.65 -837.91,-2094.71l10.28 2221.39 -657 2.04 -21.64 -3265.89zm6862.25 621.74c185.68,37.81 944.16,259.18 1027.02,367.02l-230.77 2269.69c178.52,-209.97 989.95,-1696.09 1202.76,-1995.58l1000.83 352.64c-81.22,372.04 -585.46,1778.16 -766.82,2322.14 -49.73,149.18 -190.29,649.65 -273.58,768.36l-615.64 -190.93 783.5 -2405.25c-113.32,182.9 -1311.35,2039.07 -1361.32,2202.59l-552.43 -189.43 218.95 -2621.89c-211.74,632.78 -533.95,1496.79 -723.71,2138.36 -37.05,125.25 -43.25,184.49 -116.74,289.97l-608.99 -193.64 1016.95 -3114.05zm-20502.8 32112.76c-2702.54,-3745.31 -3823.47,-9044.91 -2912.46,-13672.92 487.23,-2475.17 1475.96,-4929.36 2895.08,-6928.3 240.49,-338.76 463.28,-639.77 707.13,-952.87 118.63,-152.32 244.16,-310.12 364.84,-448.12l382.56 -428.89c290.4,-369.77 1452.1,-1484.67 1886.95,-1823.48 1168.31,-910.29 2350.63,-1782.71 3706.91,-2403.92 758.57,-347.46 1475.23,-659.42 2314.88,-936.53 5697.84,-1880.5 11962.3,-769.87 16687.47,2797.94l899.7 725.29 1846.15 1828.5c71.75,94.98 127.3,132.49 198.51,224.92 766.01,994.34 972.74,1187 1694.09,2370.14 2053.43,3368.01 3021.73,7647.59 2410.62,11940.87 -238.54,1675.75 -815.1,3690.53 -1501.52,5033.25 -517.99,1013.23 -1144.05,2204.58 -1828.65,3081.04l-708.33 902.26c76.29,126.52 1199.79,1186.94 1399.34,1387.5l944.15 928.5c144.99,146.33 321.62,313.04 474.25,445.1 179.51,155.31 282.41,295.79 451.64,466.15 160.11,161.17 319.23,280.86 463.36,447.91 100.92,-59.94 402.49,-439.53 517.48,-575.87 1071.89,-1270.94 2143.58,-3023.21 2889.42,-4530.39 3234.83,-6536.97 3021.43,-14385.38 -136.35,-20664.12 -701.11,-1394.04 -1210.53,-2155.35 -2026.94,-3306.83 -307.39,-433.54 -690.98,-855.87 -934.23,-1184.55 -321.82,-434.86 -1664.85,-1843.45 -2083.31,-2192.59l-1427.61 -1221.89c-404.06,-336.4 -1081.92,-809.85 -1536.75,-1113.18 -5899.21,-3934.21 -13235.95,-5032.35 -20398.84,-2747.22 -1557.24,496.79 -3690.98,1478.92 -5074.98,2380.8 -788.9,514.08 -1145.46,780.81 -1895.1,1319.64l-1723.98 1455.46c-357.55,380.73 -1291.03,1270.52 -1564.57,1614.23l-957.26 1163.28c-943.52,1206.58 -1747.05,2483.08 -2455.82,3905.76 -2099.59,4214.44 -2972.4,9071.99 -2132.58,14251.17 369.96,2281.55 1145.48,4583.17 2075.1,6440.86 472.16,943.54 1010.48,1896.72 1553.01,2686.15 297.06,432.25 1415.5,1951.98 1836.44,2387.46 196.59,-117.9 1480.71,-1447.8 1918.53,-1828.02 182.04,-158.1 295.79,-313.99 467.92,-485.34 148.73,-148.06 318.34,-308.83 474.6,-443.97l912.63 -895.59 -1073.47 -1399.59z"/>
  <path class="fil0" d="M14566.07 14695.92l237.39 -16.94 0.04 -3303.68 907.89 1.97 -0.02 3303.53 15732.36 0 -34.86 -3305.5 918.13 0 -0.47 3305.5 237.72 4.38c44.91,423.86 9.6,7335.84 9.6,7960.11 0,1319 0,2638.01 0,3957.02 0,1319.95 31.71,2678.7 -0.79,3993.78 -29.78,1205.52 -767.77,2091.61 -1410.23,2544.05 -436.82,307.62 -1944.62,1133.51 -2523.96,1468.76 -477.82,276.5 -4994.67,2885.56 -5073.85,2885.56 -92.98,0 -4531.5,-2574.41 -5053.22,-2871.15 -423.9,-241.11 -839.87,-475.82 -1258.97,-719.56 -423.71,-246.43 -867.17,-481.73 -1245.31,-733.31 -637.29,-423.98 -1424.4,-1377.58 -1451.03,-2539.02 -60.1,-2621.53 -0.3,-5320.58 -0.3,-7950.8 0,-626.27 -35.86,-7563.27 9.87,-7984.71zm7903.04 -1942.71l282.48 -0.01 -1.98 1604.56 -259.61 -0.04 -20.89 -1604.51zm3826.64 9.79l281.86 -9.8 0 1608.85c-358.16,0 -281.86,122.43 -281.86,-761.39 0,-279.22 0,-558.44 0,-837.66zm-2001.52 1598.35l-291.99 0.7 351.76 -1598.73 351.06 -11.94c52.3,342.09 348.26,1358.93 328.6,1606.33l-249.73 0 -84.94 -332.05 -349.75 1.76 -55.01 333.92zm-2301.48 -836.63c85.28,140.35 137.43,119.61 154.43,358.3 14.23,199.6 -2.26,281.34 51.93,479.04l-304.27 0c-11.07,-149.1 -7.91,-330.36 -24.38,-480.12 -24.68,-224.4 -59.17,-200.33 -281.76,-201.12l-13.95 666.46 -280.26 14.78 -0.1 -1608.85c249.5,0 644.39,-60.08 780.42,111.84 64.94,82.06 91.96,218.71 86.05,347.59 -8.61,187.58 -58.83,248.64 -168.1,312.1zm3196.04 -771.47l868.14 -0.05 -13.64 272.03 -278.48 6.2 0.19 1330.63 -281.97 -14.32 0.11 -1322.62 -282.7 0 -11.65 -271.87zm-2200.93 0.03l879.24 -0.08 -14.32 272.03 -278.47 6.2 0.19 1330.63 -281.97 -14.32 0.11 -1322.62 -290.15 0 -14.63 -271.84zm-2446.16 635.87l453.58 0 -6.15 272.11 -447.43 -0.19 11.42 425.13 493.27 3.76 -0.1 257.33 -776.48 16.39 -0.01 -1610.48 760.27 0 -8.67 272.19 -479.89 -0.27 0.2 364.03zm6581.44 469.1c8.27,166.05 12.08,330.8 216.34,279.58 135.4,-33.96 156.39,-232.14 62.73,-345.65 -145.87,-176.8 -456.6,-101.43 -524.79,-461.05 -158.72,-837.12 951.18,-762.32 801.06,-139.32l-216.83 0c-51.67,-87.49 -60.21,-340.36 -261.43,-199.84 -120.6,84.22 -56.74,271.11 26.78,337.37 242.14,192.12 471.36,117.34 507.5,484.53 34.58,351.35 -116.12,573.18 -459.76,574.66 -338.15,1.47 -433.13,-202.73 -439.67,-529.69l288.07 -0.6zm-8037.33 -1097.74l297.53 -2.82 175.5 1082.17 213.1 -1079.03 281.91 -9.44 -308.03 1609.57 -334.57 -3.23c-67.47,-126.26 -292.22,-1372.83 -325.45,-1597.21zm4187.05 -1950.48l150.99 -1.97 130.92 11.77 0.33 1332.76 478.72 0 2.46 141.08 -14.16 130.84 -739.9 0.26 -9.32 -131.32 -0.03 -1483.42zm-5774.55 4.91l281.99 -4.91 -0.11 1337.79 476.3 14.59 -8.72 261.11 -748.45 -6.48 -1.01 -1602.1zm11213.1 -4.91c440,0 325.06,-110.47 525.12,794.4 46.6,210.73 162.1,624.22 162.69,820.08 -362.65,0 -259.29,36.75 -332.03,-339.21l-351.59 -3.79 -73.21 342.99 -278.55 -1.95 347.55 -1612.52zm-4184.74 3.19l346.73 -2.46 341.89 1613.74 -271.14 0.31 -74.09 -334.72 -341.19 4.9 -67.88 325.07 -286.58 -5.01 352.26 -1601.82zm-7921.74 -1.83l329.1 7.25 346.81 1606.84 -278.23 -4.82 -59.57 -342.09 -359.66 15.21 -66.8 327.09 -282.49 0.79 370.83 -1610.28zm2913.09 -1.36l443.28 0c484.52,0 556.55,600.17 239.54,801.87 305.67,355.16 66.04,430.52 229.25,822.4 -136.99,0 -204.11,12.69 -309.09,-25.22 -52.54,-200.58 5.01,-474.2 -95.9,-646.21l-229.5 2.79 -13.74 658.83 -252.72 0.38 -11.24 -131.44 0.12 -1483.42zm10008.39 -1.33l411.85 8.8 188.61 1044.82c77.68,-192.41 151.07,-781.69 193.98,-1046.68l406.44 4.19 -8.01 1603.33 -243.66 -13.58 -0.9 -994.24c-31.22,39.15 -25.65,25.47 -56.05,92.27l-186.42 916.9c-272.32,0 -194.54,89.03 -302.34,-487.12 -41.48,-221.68 -66,-482.46 -144.17,-678.82l-12.74 1165.94 -237.26 0.26 -9.32 -131.32 0.01 -1484.75zm-2579.08 -1.51l416.86 19.91 188.52 1067.83 191.42 -1077.47 404.02 2.37 -8.01 1603.33 -242.85 -13.57 -11.67 -1012.15c-26.73,41.26 -11.6,7.06 -39.47,83.16l-91.88 446.98c-31.07,160.35 -55.21,336.17 -101.17,496.93l-207.04 1.1 -229.69 -1147.13 -15.1 1146.03 -244.68 0.26 -9.32 -131.32 0.06 -1486.26zm-1509.23 2.84l413.15 9.79c35.9,246.24 122.25,863.67 199.44,1040.51l199.41 -1047.77 388.23 -2.54 -9.8 1614.47 -244.48 0.02 -18.22 -1136.26 -224.43 1136.24 -210.44 1.24 -235.22 -1164.67 -13.49 1163.43 -236.8 0.17 -7.42 -131.23 0.08 -1483.42zm7010.6 96.23c123.93,53.59 91.99,173.5 11.28,216.46 -61.15,32.56 -1078.53,55.97 -1184.67,0.01 -90.75,-47.85 -109.45,-166.15 27.42,-221.65 25.34,-10.28 1052.76,-35.14 1145.97,5.18zm-10165.07 -96.23l750.96 0 0 281.71 -479.05 0 -0.21 364.03 452.61 -0.38 11.17 269.05 -457.65 23.16 -16.32 676.89 -252.17 0.26 -9.33 -131.32 0 -1483.42zm-1600.26 0l761.35 0 0 281.71 -484.66 9.95 -0.12 349.61 450.08 4.2 9.33 272.19 -459.3 9.95 -0.07 411.61 507.52 3.44 -17.9 271.81 -754.57 0.38 -11.24 -131.44 -0.43 -1483.42zm-2195.71 2.28l766.57 -2.28 -0.08 281.71 -484.59 9.95 -0.11 349.58 442.03 4.33 7.34 272.09 -449.26 9.95 -0.17 407.36 494.8 7.58 -12.29 272.69 -763.31 -8.23 -0.92 -1604.73zm-2648.34 98.59c94.92,46.39 95.08,161.55 12.03,208.18 -84.31,47.32 -1084.68,54.5 -1181.44,3.61 -102.14,-53.74 -89.19,-170.92 27.44,-221.6 57.49,-24.98 659.36,-10.13 777.24,-10.81 109.83,-0.64 270.69,-25.33 364.72,20.62zm15172.72 -489.51l1713.09 0 0.44 221.01 -1715.28 0 1.75 -221.01zm-16607.12 0l1714.84 0 -5.07 221.01 -1709.77 0 0 -221.01zm-35.33 -855.4c680.32,-128.93 1617.26,-450.06 2312.39,-658.49 647.41,-194.11 6793.68,-1972.27 6911.17,-1965.76 154.51,8.57 937.3,260.97 1150.8,322l8041.87 2307.23 0 637.5 -18416.24 0 0 -642.48zm-212.76 -152.06l0 1067.38 -1837.19 10.32 0 18124.53c0,809.41 -59.55,1809.2 35.4,2591.89 225.21,1856.41 1234.74,3069.8 2471.89,3991.64 553.25,412.26 5060.41,3190.9 5601.68,3513.42 371.39,221.3 3082.39,1973.08 3195.3,1958.8 2.23,-0.29 8427.87,-5216.16 8758.13,-5465.04 139.35,-105.02 227.31,-174.99 358.58,-276.4l668.35 -639.73c333.22,-408.46 509.36,-544.2 810.09,-1133.22 874.54,-1712.93 667.63,-2595.27 667.63,-4506.02l-5.62 -18160.38 -1918.12 0c36.09,-229.02 23.29,-477.98 26.27,-742.04 4.68,-415.63 48.79,-326.83 -336.63,-432.29l-3706.42 -1061.68c-1650.67,-471.73 -3302.3,-921.01 -4940.29,-1420.81 -524.22,-159.95 -467.52,-130.25 -1209.17,96.43 -414.67,126.74 -818.58,241.66 -1232.63,358.31 -776.16,218.67 -6994.94,2050.53 -7407.26,2124.89z"/>
  <path class="fil0" d="M22733.57 33138.48c-180.55,-1020.86 1302.6,-1276.34 1505.69,-315.51 214.83,1016.38 -1329.35,1312.51 -1505.69,315.51zm11.69 -2008.55l1478.69 6.24c-334.41,209.03 -460.83,636.57 -178.72,849.89 30.45,23.02 33.06,19.88 62.75,42.5 47.11,35.9 23.08,9.6 57.19,49.53l-1358.65 0c5.27,-7.43 15.51,-26.78 18.74,-20.49l80.03 -72.57c43.31,-36.5 46.88,-25.92 94.24,-84.41 192.55,-237.73 29.28,-581.74 -254.27,-770.7zm-130.02 -319.87l1481.6 -4.7c251.76,-3.55 251.5,-42.06 330.58,177.49l-1881.7 -0.25 69.51 -172.54zm829.17 -1204.33c256.61,95.11 731.28,528.63 842.34,580.09l-1642.49 10.52c93.97,-130.12 667.57,-436.32 800.16,-590.6zm-878.08 -648.24c238.42,127.86 434.08,331.41 647.57,431.27 -79.61,100.74 -499.2,386.51 -600,430.81l-47.57 -862.09zm-396.92 -7886.96c-252.45,0 -276.76,50.83 -461.08,-243.25 -477.47,-761.81 479.15,-1014.88 -111.55,-1675.19 -348.92,-4.08 -345.05,294.93 -333.53,638.59 -257.92,-380.36 -231.2,-734.12 27.46,-1080.2 245.72,-328.78 716.88,-274.15 912.14,104.2 200.34,388.21 -559.33,716.51 -250.98,1769.59 59.63,203.65 182.45,368.24 217.53,486.27zm1856.51 -3126.69c-143.86,-167.84 -478.7,-405.54 -456.06,-807.37 11.95,-212.25 143.57,-466.66 327.61,-547.17 -85.65,795.78 393.83,1448.51 924.22,1907.08 -57.57,43.81 -58.93,51.56 -126.08,90.57l-669.69 -643.11zm558.4 714.4c-80.11,277.04 -177.1,289.19 -171.68,691.83 300.56,-142.69 70.79,-289.31 287.49,-551.26 401.36,-485.16 711.86,-157.89 907.45,-257.77 79.02,-40.36 201.25,-127.25 283,-177.96 785.53,-487.2 2299.55,-1297.46 3281.56,-1109.15 1003.47,192.43 947.83,1494.57 628.83,2406.16 -187.79,536.65 -590.47,1268.54 -888.62,1760.27 -109.02,179.83 -249.39,376.74 -335.68,553.65 95.57,69.32 596.5,193.53 771.08,258.74 1452.52,542.49 2475.8,1539.8 675.05,2631.8 -363.68,220.55 -1033.54,527.34 -1488.92,624.78 95.26,231.3 607.7,970.47 916.36,1658.63 263.58,587.68 550.96,1293.6 493.94,2031.94 -62.27,806.39 -573.4,1155.41 -1434.53,1032.93 -779.17,-110.83 -1241.12,-413.75 -1861.37,-668.59 -186.71,543.83 -254.99,1028.32 -675.31,1232.36 -645.6,313.42 -1540.26,-509.6 -1851.81,-914.64 -75.86,-98.63 -147.23,-172.64 -223.39,-271.86 -581.26,-757.22 -12.02,-64.89 -762.15,-615.2 -707.27,-518.88 -580.44,-197.1 -619.74,-1139.66 -15.5,-371.69 6.08,-344.11 -145.02,-637.5 -124.29,-241.34 -429.88,-849.07 -496.42,-1092.86 -522.2,-42.97 -1032.83,-104.47 -1547.55,-187.87 -476.23,-77.18 -979.06,-226.99 -1425.5,-290.73 -101.01,86.53 -259.9,344.03 -340.13,459.42 -500.44,719.76 -1211.29,1916.22 -1303.52,2799.21 -45.18,432.58 56.85,935.5 518.55,1103.37 759.53,276.14 1928.06,-349.5 2479.3,-653.87 361.01,-199.33 680.38,-403.68 1009.09,-616.54l982.84 -671.66c15.23,249 44.76,196.23 -361.98,480.28 -1004.91,701.76 -2983.94,2034.58 -4188.87,1648.04 -1626.21,-521.69 -104.47,-3154.26 453.14,-4111.07 115.48,-198.17 260.27,-366.79 345.34,-576.6 -622.66,-108.46 -2560.5,-879.38 -2534.4,-1817.15 16.88,-606.42 571.52,-950.5 993,-1171.61 760.01,-398.7 1228.48,-402.99 1612.7,-576.36 -511.38,-867.89 -1474.7,-2240.22 -1538.7,-3549.99 -72.27,-1479.29 1336.51,-1377.79 2319.98,-977.29 302.15,123.03 636.11,311.55 896.53,401.08 162.7,-606.35 159.27,-939.63 666.58,-1160.69 230.15,-100.29 500.57,-121.73 744.74,-29.92 166.69,62.66 454.01,230.36 551.63,336.92 -303.1,74.62 -651.3,-532.42 -1230.59,-205.53 -337.53,190.47 -364.5,758.98 -402.72,1240.69l650.13 402.36c95.87,79.5 32.54,-9.72 89.31,108.91 -263.87,113.85 -385.37,-209.56 -741.94,-297.42 0,1748.45 111.29,1796.31 376.35,3359.67l462.06 -45.75c175.5,9.83 61.43,-23.17 134.82,45.29 -46.62,109.92 -294.69,89.77 -564.04,108.01 47.25,242.72 51.33,172.44 325.37,145.54 284.8,-27.96 320.5,16 427.15,-162.18 -40.18,-27.03 -66.03,-21.81 -115.78,-126.7 105.58,-228.21 174.46,-119.4 409.56,-167.83 143.94,-29.64 188.78,-154.75 296.96,-256.13 -152.51,-208.36 -264.25,-636.15 -273.42,-954.2 -11.8,-409.78 141.08,-642.21 282.19,-948.55 221.98,-481.86 599.26,-1580.79 -24.86,-1822.59 -495.31,-191.9 -20.33,-765.6 857.33,626.63 149.79,237.61 231.86,581.9 453.11,783.37 198.38,180.63 386.42,392.04 498.7,746.16 85.74,1.25 47.92,-2.29 83.17,-21.06l89.28 -70.31c-256.94,-545.65 -615.05,-651.62 -731.22,-982.67 -148.88,-424.23 -395.77,-802.84 -671.4,-1016.71 51.9,-301.13 1039.64,-1733.34 1242.6,-1688.68 134.95,29.7 58.73,223.72 4.74,333.91 -82.37,168.1 -88.27,173.35 -214.53,280.77 -734.57,625.03 -620.61,1132.09 136.56,1840.66 86.11,80.58 168.06,153.31 263.06,231.98 107.94,89.37 160.67,158.8 265.15,228.76zm-9454.15 11901.11c-9.65,1100.84 764.79,1884.38 1396.41,2268.71l7038.46 4004.27c45.07,0 6164.45,-3471.62 7013.22,-3993.11 648.46,-398.42 1431.25,-1139.06 1431.25,-2279.88l-10.78 -15303.42 -16877.69 -14.84 9.14 15318.26z"/>
  <path class="fil0" d="M120996.45 23354.71c-389.5,-54.39 -7173.18,-22.74 -7283.68,12.45l16.16 1069.73c42.48,27.09 2.17,11.55 77.45,28.5 122.78,27.66 923.23,34.5 1202.89,80.11 1274.32,207.8 1598.49,1167.86 1597.06,2480.79 -1.77,1620.94 62.68,12880.33 -20.88,13140.09 -23.76,73.85 -10.38,42.83 -43.13,86.3l-3271.34 -4465.77c-1059.71,-1481.48 -2189.91,-2957.04 -3256.35,-4446.19l-3726.37 -5069.91c-620.63,-823.45 -1168.49,-1803.34 -2037.19,-2380.01 -475.31,-315.52 -984.19,-487.45 -1674.32,-515.96 -618.21,-25.55 -3905.69,-115.91 -4294.44,-12.7l-2.62 1051.72c432.33,51.7 1028.51,177.42 1454.09,283.23 1677.47,417.08 1433.06,1834.06 1433.06,3636.43l9.95 14909.5c0,2248.66 -1227.35,2386.19 -2915.05,2341.91 -15.73,277.94 -26.78,966.52 9.77,1216.21l7464.52 0.17 5.09 -1223.67c-1252.02,-34.36 -2180.54,-0.61 -2659.62,-944.38 -384.29,-757.04 -290.23,-2398.09 -290.23,-3333.42l22.4 -13663.29c97.63,63.81 2023.86,2694.55 2264.55,3023.17 1026.07,1400.91 2150.97,2863.49 3157.72,4261.41l3603.29 4876.59c155.45,213.88 300.32,395.65 453.4,606.29 155.52,213.99 289.47,403.38 451.78,607.72l901.24 1218.84c307.45,413.95 598.6,808.73 900.99,1219.17l1355.17 1823.97c144.62,195.7 293.23,403.58 449.08,611.82 562.47,751.56 554.35,937.29 1122.78,941l757.05 -30.36 0 -19663.88c-0.24,-2010.49 543.54,-2551.85 2292.41,-2638.96 576.46,-28.71 473.33,236.72 473.33,-1138.61z"/>
  <path class="fil0" d="M71801.15 29499.43c14.51,2497.02 0.15,4993.34 0.36,7490.08 0.19,2228.41 -60.25,4680.37 -1164.94,6334.45 -509.36,762.67 -1062.16,1264.72 -2029.01,1717.58 -1647.88,771.83 -4674.21,870.22 -6245.31,35.25 -860.88,-457.51 -1399.51,-932.36 -1930.03,-1815.24 -461.67,-768.3 -761.02,-1877.79 -819.47,-2926.66 -66.73,-1197.2 -30.77,-2523.95 -30.77,-3734.02 0,-2497.41 9.95,-4993.09 9.95,-7490.08 0,-1011.56 -107.43,-2657.73 238.79,-3517.66 454.39,-1128.64 1787.45,-974.37 2622.47,-1130.88l-14.41 -1125.45 -9280.62 9.94 3.76 1110.54c622.89,215.05 2407.5,-186.37 2765.76,1544.91 225.75,1090.86 116.41,2976.42 116.41,4168.52 0,2840.05 5.62,5678.46 5.62,8514.66 0,2266.19 162.39,4132.77 1609.9,5900.66l260.59 268.36c289.78,293.65 531.79,505.44 877.7,747.29 2521.77,1763.18 6782.81,1909.75 9613.38,1008.53 1286.58,-409.64 2072.5,-982.28 2977.24,-1861.42l689 -902.24c974.3,-1479.89 1374.82,-3182.34 1383.94,-5020.89 14.01,-2825.7 5.45,-5677.01 5.45,-8513.62 0,-839.61 -49.09,-3604.35 56.91,-4237.6 261.96,-1565.06 1720.92,-1406.21 2673.38,-1609.68l-14.81 -1127.79 -6849.01 -0.15c-64.73,201.88 -24.74,888.14 -24.74,1145.22 1250.08,91.45 2130.31,187.19 2372.43,1382.6 214.53,1059.14 113.55,2508.31 120.1,3634.81z"/>
  <path class="fil0" d="M80883.18 38143.44c35.12,-192.98 787.36,-2089.81 918.46,-2413.48 773.39,-1909.16 1574.17,-4059.93 2327.05,-6011.26 83.35,-216.04 158.3,-403.77 237.03,-611.25l246.6 -575.2 3668.81 9613.71 -7397.95 -2.52zm371.29 7537.38c-349.76,-113.1 -1200.2,-129.99 -1648.61,-218.62 -1565.23,-309.34 -1069.04,-1299.22 -687.63,-2299.8 168.44,-441.87 334.74,-879.91 511.35,-1324.9l792.4 -2034.59c118.52,-269.68 287,-287.56 612.85,-285.82 1234.85,6.64 2474.31,-9.64 3710.74,-9.64 1247.68,0 2500.16,15.61 3745.99,9.56 634.6,-3.07 559.94,163.29 890.92,961.79l1032.89 2676.94c183.78,505.42 220.96,1012.16 -33.49,1482.68 -418.98,774.78 -1618.3,930.59 -2713.36,995.1 0,258.96 -40.35,954.64 24.74,1157.77l9749.91 -10.06 -3.79 -1145.87c-343.9,-128 -1901.86,148.75 -2878.04,-1361.76 -502.3,-777.24 -889.92,-2031.28 -1255.94,-2983.81 -1575.62,-4100.39 -3073.11,-8212.71 -4636.9,-12321.68l-1738.14 -4621.3c-263.27,-691.41 -208.75,-1019.92 -1054.81,-1040.64 -706.36,-17.3 -642.93,140.67 -989.5,1068.87l-1787.07 4572.64c-414.29,1001.44 -800.18,2035.32 -1191.89,3048.51l-2375.54 6067.87c-388.42,1013.97 -778.02,2046.9 -1191.77,3047.85 -311.63,753.91 -913.83,2454.34 -1205.04,3033.52 -668.66,1329.82 -1390.37,1439.7 -2793.46,1439.63l-2.77 1210.46 7131.68 0 -15.73 -1114.7z"/>
  <path class="fil0" d="M141526.02 39621.67l-1318.92 -1.81c-11.51,1674.99 -409.53,4818.68 -2119.38,5582.1 -635.57,283.77 -1541.67,238.47 -2276.08,258.87 -1678.45,46.65 -3372.76,60.17 -5053.69,16.4 -875.41,-22.79 -1445.49,-186.08 -1670.91,-916.59 -188.83,-611.96 -115.84,-1756.4 -115.84,-2448.2l0 -12825c0,-810.16 -43.72,-1750.28 6.93,-2544.41 54.9,-860.75 330.97,-1402.36 805.89,-1785.47 691.83,-558.08 1508.63,-397.32 2024.74,-505.75l-16.1 -1114.91 -9140.53 -0.11c-88.2,203.54 -79.35,865.98 -19.91,1079.69 263.61,122.8 1006.71,82.6 1462.31,229.07 1458.64,468.93 1303.43,2299.26 1303.43,3723.28l0 13390.28c0,2723.21 103.6,3690.37 -2836.25,3851.49l0 1200.31 16357.59 9.95c940.53,0 2240.97,174.41 2526.01,-733.59 190.13,-605.67 107.89,-2449.25 107.89,-3197.6 0,-1046.71 51.26,-2227.71 -27.2,-3268.04z"/>
  <path class="fil0" d="M22293.59 23730.56l2388.14 12.47 -36.69 446.55c-289.62,69.29 -1911.91,27.46 -2309.9,16.77l-41.54 -475.78zm3562.63 -4900.96c35.15,238.4 81.14,244.31 -65.37,423.65l-176.65 -247.31c-145.45,46.9 -146.28,115.82 -290.42,169.18l109.02 366.53c-61.37,-68.15 -152.73,-259.58 -207.55,-263.02 -18.25,43.31 -34.98,-36.71 -4.22,88.62 23.37,95.28 279.4,440.69 374.63,646.88 153.68,332.73 6.46,711.62 -161.21,933.53 -96.22,127.34 -411.45,254.31 -600.93,5.13 -297.96,-391.86 15.17,-439.82 -177.91,-952.43 -69.7,-185.06 -84.78,-161.68 -136.66,-188.12 -69.64,146.54 303.49,812.88 -116.26,1258.29l-439.1 0c57.16,-185.91 424.1,-419.36 361.75,-1093.39 -195.36,95.27 -71.64,125.63 -185.95,522.73 -54.43,189.11 -165.49,362.21 -265.55,476.63 -87.13,99.63 -62.82,94.34 -236.52,96.81 -326.39,4.65 -656.26,-80.94 -875.26,288.11l2039.55 2.43c285.12,-0.81 448.85,-59.13 550.02,150.87 -96.11,215.36 -371.18,140.89 -656.03,140.85l-1695.87 0c-356.31,-0.04 -515.31,-65.67 -701.94,134.79 861.79,66.29 3920.95,-165.47 4465.82,254.32 -118.16,42.8 -3599.73,16.08 -4293.84,15.09 -287.63,-0.42 -378.86,-43.55 -570.57,85.61 109.57,73.37 298.52,41.7 429.21,41.16 627.71,-2.61 3227.76,-33.42 3442.22,19.68 -764.92,289.05 -925.22,1120.51 -1039.7,1155.18l-2473.13 0c-135.38,-29.29 -213.87,-574.42 -633.15,-885.75 -449.64,295.12 -321.57,433.54 -247.68,661.04 92.59,285.04 179.04,571.76 273.87,857.12 120.78,363.45 402.29,1419.12 748.75,1523.54 -5.31,-230.1 -74.49,-756.41 -20.56,-943.97l2219.42 0 -22.17 918.68c214.3,-5.93 822.99,1.36 977.6,-80.73 40.52,-21.51 425.15,-448.43 507.01,-540.2 -157.45,-708.42 -405.98,-1402.59 -608.09,-2069.26l169.56 -109.3c32.35,187.4 454.23,1440.83 582.2,2007.2l206 -198.67c113.62,-107.42 110.85,-113.81 197.82,-226.41l369.26 -432.82c-33.91,-54.29 -62.01,-103.6 -107.14,-156.19 -62.25,-72.56 -88.68,-86.82 -150.31,-168.08l-881.24 -1000.87c266.82,-130.11 319.83,181.64 655.76,485.02l460.05 493c50.76,58.03 89.1,120.16 128.09,180.42 212.1,-92.93 1168.5,-1473.71 1231.13,-1595.16 -240.56,-150.27 -1706.24,-333.07 -2135.12,-385.68l-587.45 -54.76c-236.75,-29.93 -125.33,9.04 -164.59,-89.51 37.42,-19.88 16.14,-15.74 86.24,-24.62 473.68,-59.99 2462.81,377.35 2927.9,421.03 174.56,-422.67 2044.04,-2739.75 1280.07,-3974.83 -411.42,-665.11 -1332.23,-461.64 -2053.79,-162.66 -348.85,144.56 -626.55,293.97 -942.73,470.39 -241.56,134.79 -663.21,374.75 -868.29,550.23z"/>
  <path class="fil0" d="M23070.4 45680.36c-137.56,0 -286.61,-181.15 -374.95,-260.33 -682.17,-611.35 -568.66,-441.73 -568.71,-1223.09 -0.04,-644 -54.31,-548.54 318.36,-872.66 109.55,-95.28 515.62,-550.05 661.74,-550.05 1291.83,0 944.41,-127.39 1635.35,563.52 361.29,361.27 321.91,185.78 321.83,859.19 -0.07,663.97 79.13,545.08 -266.87,914.24 -104.76,111.78 -180.25,211.6 -293.88,306.9 -433.35,363.46 -55,262.28 -1432.87,262.28zm-2511.27 964.65c2026.61,223.03 4084.14,316.14 6115.34,6.41l-514.42 -5195.64c-216.08,-27.53 -958.16,88.92 -1245.14,108.9 -896.66,62.45 -1730.83,54.57 -2628.59,-9.08 -367.19,-26.03 -886.6,-125.16 -1222.01,-119.9l-505.18 5209.31z"/>
  <path class="fil0" d="M26426.8 41400.54c-35.08,88.05 397.76,4878.04 494.63,5201.68 379.89,14.05 2905.48,-513.14 3191.17,-677.13l-1242.7 -5074.42c-398.78,87.18 -794.13,215.07 -1204.54,307.83 -415.25,93.86 -821.99,157.46 -1238.56,242.04z"/>
  <path class="fil0" d="M33734.94 38579.39c8.28,14.83 57.22,139.27 78.18,175.54 30.82,53.33 50.43,80.71 80.67,130.89 338.71,561.7 2443.64,4096.77 2531.56,4173.47 251.45,-88.8 2197.35,-1536.71 2491.51,-1847.07 -45.79,-129.03 -286.13,-398.76 -390.23,-530.35l-2456.23 -3054.71c-145.43,-175.41 -278.57,-369.41 -422.32,-501.61l-471.16 382.52c-412.21,337.75 -1245.43,902.68 -1441.97,1071.32z"/>
  <path class="fil0" d="M10961.66 43120.07c131.33,-123.95 547.18,-884.96 675.94,-1098.74l1349.28 -2254.38c119.05,-194.15 619.46,-978.56 668,-1164.99 -211.28,-72.39 -1240.19,-860.18 -1466.01,-1047.65 -155.96,-129.47 -291.53,-269.44 -479.8,-363.09 -124.7,216.4 -2414.79,3022.8 -2852.05,3567.94 -138.32,172.44 -266.16,311.95 -394.63,505.34 164.63,205.86 1574.1,1249.54 1859.18,1441.74 127.88,86.22 521.6,363.6 640.1,413.82z"/>
  <path class="fil0" d="M30328.27 45872.72c683.78,-119.71 2296.8,-811.67 2988.3,-1092.75l-1569.88 -3642.52c-149.65,-333.87 -358.39,-905.54 -524.58,-1165.7 -321.95,142.21 -691.05,298.06 -1030.55,428.93 -238.6,91.99 -954.53,311.18 -1104.75,406.36l1241.45 5065.69z"/>
  <path class="fil0" d="M20831.95 41385.61c-380.26,-35.19 -816.63,-142.89 -1192.83,-222.59 -352.22,-74.62 -797.14,-238.1 -1118.01,-279.81l-1255.2 5093.02c476.31,95.59 982.68,248.65 1478.56,354.29 522.33,111.27 1043.45,213.82 1576.92,278.83l510.56 -5223.73z"/>
  <path class="fil0" d="M18296.25 40804.9c-628.54,-158.31 -1557.83,-535.9 -2110.03,-802.81 -123.8,105.49 -926.8,2063.99 -1072.54,2385.59 -152.99,337.58 -981.43,2198.33 -1033.73,2409.88 278.88,184.18 2690.71,1124.54 2968.8,1071.33l1247.51 -5064z"/>
  <path class="fil0" d="M17772.44 9643.65c97.8,-164.69 32.78,-36.39 155.42,-153.45l179.61 134.44c88.96,74.85 91.58,59.55 86.92,195.66l-138.11 40.85c-2.54,-28.51 117.74,-115.78 -74.47,-139.92 -146.57,-18.41 -27.87,42.15 -134.12,7.92 -8.4,-2.7 -28.45,-17.4 -34.83,-22.97 -160.48,-140.37 96.39,122.38 -40.42,-62.53zm12252.79 96.5c254.3,34.12 219.37,28.12 242.34,115.17 -131.98,50.03 -282.01,22.24 -437.72,-4.81 -161.48,-28.05 -260.59,30.19 -475.28,30.19l-39.38 -161.89c-109.9,170.33 12.49,101.41 -154.69,134.02 175.8,-496.63 248.74,-391.43 405.58,-462.9 125.28,-57.1 88.44,-135.88 199.04,-82.68 153.81,73.99 -76.18,64.51 136.13,141.77 74.35,27.06 190.38,-4.43 284.52,40.94 170.46,82.16 -54.52,73.56 308.41,295.01 -51.23,28.4 75.73,6.72 -77.82,29.21 -16.24,2.38 -109.28,5.27 -122.63,5.66 -10.08,-77.6 -39.29,-133.8 -86.55,-200.79 -78.29,70.29 -100.19,65.55 -181.94,121.1zm-1075.5 -157.03c93.11,128.05 -26.89,-20.78 91.29,61.84 106.58,74.5 88.79,77.43 123.19,167.23 -7.76,1.54 -343.85,207.62 -392.84,-208.53 57.93,-72.3 96.76,-90.96 154.41,-177.27 -22.42,3.57 -108.81,22.28 -114.99,22.52 -108.88,4.27 -30.92,9.83 -98.01,-17.24 31.45,-54.75 72.75,-107.02 165.12,-130.01 43.74,-10.9 70.78,-18.06 117.35,-2.73 135.94,44.76 129.8,125.31 40.37,150.56 -117.34,33.14 -40.23,-27.1 -40.6,-28.73 -40.19,244.51 -97.21,203.2 -45.29,162.36zm-11020.64 -297.43l3.68 206.08c-155.83,-17.88 -181.9,-43.76 -210,168.2 -32.32,243.82 31.41,59.65 -83.79,238.01 -229.22,-40.8 48.25,-67.82 -505.86,-54.06 -36.49,0.9 -60.97,0.12 -95.35,-0.27 -257.74,-2.98 -122.15,-47.44 -256.21,-78.21 27.34,59.61 -4.19,56.62 -35.32,88.57l-324.88 -60.07c50.65,-78.89 29.9,-30.04 105.26,-85.25l42.98 -29.82c34.23,-27.68 77.5,-86.37 121.64,-126.57 111.1,-101.18 276.32,-84.83 443.62,-84.83l27.2 -57.47c48.27,-154.75 -31.08,59.04 8.13,-44.87l250.28 6.51c21.63,-103.98 -1.15,-93.7 65.51,-177.02l131.42 67.1c-52.44,106.98 -18.92,91.66 -149.45,124.36l76.23 66.95c30.64,24.89 -2.02,-12.61 64.45,49.3 -76.89,100.13 -82.5,62.28 -148.79,184.44 233.48,-32.33 113.41,79.66 203.74,-115.18 90.9,-196.01 139.95,-488.33 455.25,-482.95 2.76,78.98 -9.18,144.13 -67.34,191.52 -143.84,117.21 18.55,-51.46 -122.4,5.54zm2004.66 -520.01c-19.74,-92.73 -64.9,-185.63 78,-194.56 66.92,22.19 52.24,182.97 52.24,182.96 0.17,-4.78 0.96,17.12 3.31,25.29l150.81 71.13c-73.67,59.22 -40.4,38.18 -108.21,123.3 -80.63,101.21 -118.8,166.37 -207.69,65.91l-78.74 -65.84c-3.47,-0.55 3.96,137.59 -28.69,-1.68 -1.37,-5.87 -11.81,-0.35 -17.12,-2.61 -56.22,-168.19 8.79,-169.82 156.09,-203.89zm5717.56 709.33c-57.04,93.7 -67.86,155.94 -105.29,226.86 -70.76,-85.04 -18.13,-135.36 -7.16,-303.35 -72.5,83.03 -70.52,78.91 -184.74,123.91l27.37 244.18 -205.52 76.31c212.68,-5.37 175.93,-97.41 321.95,50.85 -118.18,72.11 -393.78,32.39 -555.7,32.8 -102.24,0.26 -170.59,-1.82 -269.69,-13.01 -490.98,-55.46 -243.68,-67.48 -214.94,-374.52 15.74,-168.16 -21.41,-246.39 113.63,-328.83 109.2,164.39 54.89,234.03 31,468.78l88.81 36.24c68.03,26.71 -5.36,-28.08 108.38,42.19 109.13,-477.65 44.55,-529.1 208.87,-527.47 106.24,160.45 17.06,347.15 -2.49,553l257.63 -66.83c17.27,-208.86 -109.42,-257.27 -32.59,-456.59 -334.72,-71.96 -167.82,-104.25 -384.25,-231.72l-245.01 -114.12c-3.97,232.71 61.61,164.39 60.86,338.53 -122.01,-108.63 -85.04,-60.37 -137.95,-210.89l-32.42 -82.78c-2.76,-6.59 -7.28,-18.75 -13.13,-26.79l-120.77 5.29c-15.23,-89.33 -10.64,-157.71 -25.53,-273.01 -74.92,109.93 -10.97,93.56 -124.68,202.03 69.49,79.97 30.67,49.93 143.97,76.26 -138.86,80.13 -113.46,-12.84 -83.53,171.84 22.83,140.97 39.6,163 3.79,311.53 -108.13,448.33 -58.57,184.71 97.01,484.71l-1512.8 3.29c-156.17,-5.33 -115.1,19.62 -220.32,-58.07 19.02,-182.73 75.54,-112.78 189.79,-247.31 -52.5,-164.3 -129.58,-255.67 -72.3,-455.65 -146.59,-83.45 -34.76,-89.51 -142.48,-253.46 -202.75,33.92 -72.7,65.97 -237.88,151.41 -160.58,83.05 -131.13,-5.51 -256.75,183.6 -4.83,10.74 52.19,70.91 59.19,160.52 11.28,144.4 -35.93,209.75 46.8,310 50.11,-82.22 -11.05,-48.96 30.62,-177.14 18.96,-58.32 75.38,-118.05 90.49,-179.22l63.87 365.56c94.21,59.47 40.16,-68.58 101.02,106.36 -178.45,120.35 -209.59,86.97 -462.31,85.99 -189.67,-0.73 -453.88,75.58 -444.38,-106.07l221.58 45.32c-117.2,-61.36 -54.4,-76.13 -215.95,-119.25l61.68 -222.98c-131.96,-58.47 -108.32,-32.54 -152.9,-187.9 -11.58,23.56 -17.63,24.09 -31.88,81.17 -33.88,135.66 25.68,126.6 71.49,247.07l-151.21 100.71c59.89,40.14 97.62,59.39 131.37,138.83 -233.43,48.81 -1114.4,25.9 -1400.23,17.46l-711.72 -32.21c-1.93,0.39 -85.59,24.82 -130.79,27.97 -100.72,7.05 -238.3,-2.02 -320.83,-28.79l-2.49 -219.45c-133.51,-91.62 -179.08,-115.14 -189.58,-297.42l-213.79 68.15c284.24,-26.35 208.16,193.01 301.74,479.23l-490.66 -26.66c-28.1,-82.84 -47.42,-172.2 -76.84,-263.52 -63.6,-197.43 -141.13,17.63 -39.8,-166 8.03,-5.23 22.27,-17.76 27.16,-9.47l274.9 -89.54c73.23,-66.57 29.3,12.13 36.3,-68.46l-239.85 86.08c-49.38,-117.59 -42.7,-54.64 -73.79,-128.09l114.44 -110.66c6.32,-4.84 18.19,-11.88 26.88,-18.36 -98.51,-62.48 -107.25,-28.06 -143.16,-170.91 130.8,-17.9 87.52,-34.63 147.14,22.44 47.98,45.93 -7.87,4.75 37.52,61.94l309.33 235.92c56.58,-199.67 53.07,-95.68 94.89,-172.56 111.71,-205.28 37.77,-18.95 -8.81,-213.59 146.1,-25.98 79.36,-30.72 214.16,8.79 33.42,120.04 7.12,166.34 -78.44,250.96 89.84,20.83 41.85,14.06 108.63,63.58 106.58,79.02 -23.79,19.82 118.91,85.21 24.69,-143.11 124.97,-308.33 147.02,-437.3 19.84,-116.06 -34.49,-20.29 24.65,-137.95 157.51,9.14 98.67,46.26 117.58,133.35 12.29,56.6 -10.58,131.19 90.62,60.1l63.14 -49.98c5.24,-4.22 14.29,-14.4 22.98,-19.41 14.03,132 72.13,172.84 58.56,273.17 -8.48,62.68 -70.74,-85.79 -19,172.93 18.29,91.45 32.52,107.36 73.89,174.92l46.56 -330.9c189.38,-23.11 201.34,9.29 343.5,58.22 5.4,-186.85 -48.74,-270.83 117.97,-315.48 2.91,6.29 1.52,11.39 1.35,20.74 -0.16,9.19 0.57,17.14 0.28,20.42 -12.61,142.49 49.28,112.36 38.01,317.72 -11.7,213.14 -199.73,286.15 66.35,366.24 198.66,-108.77 130.01,-236.6 80.93,-433 62.28,-49.88 68.81,-44.8 151.77,-48.72 -163.98,-152.72 -386.42,17.13 -239.77,-343.01 52.22,-128.26 63.88,-107.78 214.39,-152.69 -142.73,-239.21 143.04,-224.19 164.37,-58.47l16.96 139.01c39.9,-32.78 71.79,-62.91 108.76,-97.86 229.97,-217.38 153.76,-42.71 196.1,-263.88 23.39,-122.2 -33.81,-89.79 119.1,-99.97 56.21,70.57 33.54,3.08 35.05,110.5 1.15,81.61 -13.87,25.98 -32.87,136.82 252.3,73.87 267.74,72.01 260.24,198.76 -178.26,-88.56 -226.24,-47.2 -191.33,190.31 19.11,129.97 98.3,303.5 188.97,395.51 182.08,-305.95 520.73,-163.59 348.11,-568.42 -44.34,-103.96 -12.47,1.72 -44.71,-95.65 -15.24,-46.03 -19.65,-95.65 -28.22,-148.84 107.37,-81.25 16.58,31.83 17.91,-115.63 79.63,-60.4 157.82,-109.7 259.45,-170.35 141.54,64.05 11.73,87.72 280.47,79.29 -28.04,-79.93 -50.49,-99.03 -70.4,-170.47 -19.93,-71.5 3.26,-48.34 -13.2,-132.57l31.94 5.13c83.19,18.37 27.04,1.81 46.82,10.98 126.18,58.46 124.89,217.04 169.67,316.98 -75.12,7.11 101.5,40.1 -21.09,-10.01 -62.58,-25.59 65.62,11.32 -78.69,-30.61 -17.53,237.34 -158.61,152.61 -216.24,152.13 -117.34,-0.99 -56.15,-40.14 -129.59,35.1 211.33,148.08 100.02,-71.99 364.45,229.77 109.82,125.33 5.27,53.47 153.2,100.65 41.38,-228.18 158.82,-360.7 306.78,-512.37l-6.31 -256.56 258.89 -85.47c176.32,-72.99 291.44,-162.78 455.9,-57.44l79.99 37.32c4.67,1.91 16.95,4.68 24.6,8.84 -43.08,187.07 -28.4,82.69 2.64,332.76l-179.3 -73.46c-41.56,97.84 -2.54,58.64 -93.8,117.17l-175.75 82.83c2.45,179.99 32.45,372.51 80.61,499.92 109.96,50.47 -57.47,-22.21 69.73,11.34l161.4 124.71c-44.8,156.31 -133.79,-14.7 -21.47,278.22 51.12,133.32 87.78,241.66 120.6,388.39 73.18,-135.79 41.7,-153.24 155.19,-282.64l-67.56 -15.33c-46.09,-14.29 -15.42,13.86 -91.83,-35.41 92.49,-181.58 -22.56,-232.29 147.2,-534.8 38.58,-68.73 20.42,-32.92 25.3,-71.49l-31.55 -254.67c-92.79,97.02 -162.92,177.8 -322.89,197.31 46.71,-111.74 3.66,-37.55 82.75,-112.26 141.69,-133.82 195.8,-216.51 412.19,-298.96l-69.36 -274.33c107.44,-18.02 165.73,8.36 250.37,29.5 -20.63,136.84 -45.19,137.86 -68.33,272.69 304.93,-18.72 288.14,-72.58 449.81,-82.94 6.74,6.73 18.13,6.23 21.36,18.98l74.22 79.24c99.25,161.93 6.57,295.39 70.15,497.42 17.63,-43.19 217.38,-259.39 293.87,-328.88 -94.94,-153.38 -68.03,-9.22 -120.77,-193.61l322.17 -43.44c172.8,263.65 -47.04,339.73 -34.95,590.37 7.36,152.57 255.83,375.45 384.06,378.98 22.76,-89.08 -1.73,-75.13 -8.14,-102.63l-37.48 -137.74c-30.9,-165.65 -22.73,-141.92 -69.72,-279.94 33.8,-21.25 43.23,-3.23 94.79,38.13 18.54,-156.73 97.36,-143.33 171.33,-254.47 89.74,-134.83 -31.58,-227.34 181.35,-184.28 5.3,8.63 8.21,13.92 9.14,28.97 0.91,14.74 6.67,22.15 7.74,28.72l74.7 245.15c13.51,53.34 6.39,115.41 6.94,173.72 126.92,-1.57 141.92,-25.46 229.89,-32.77 110.65,-9.18 142.09,23.5 235.16,42.72 -66.51,-131.05 -169.9,-51.26 -103.98,-264.66l156.39 -14.86c46.15,138.28 14.84,56.4 -3.09,181.64 266.38,119.49 150.85,168.16 360.31,120.76 -6.84,-6.92 -18.6,-25.51 -22.2,-18.97l-150.07 -167.48 191.05 8.86 29.23 200.71c310.64,38.23 137.53,2.45 313.88,-83.83 3.08,115.9 11.56,89.43 -89.28,134.22 -55.58,24.7 -19.56,2.79 -82.64,23.54 -9,2.95 -18.97,5.55 -27.59,8.54l-78.23 32.93c60.82,139.98 23.29,83.22 136.42,169.65 72.45,-78.82 -40.59,-52.71 50.68,-127.54 55.85,-45.79 94.85,-0.13 224.64,-3.99 61.41,-197.3 -52.04,-96.19 85.78,-195.16 271.16,75.49 -38.99,50.78 146.29,434.65 38.61,79.98 9.2,41.55 47.96,75.69 -197.84,150.76 8.93,-248.13 -141.97,35.33 184.15,142.53 207.52,104.97 262.89,7.15l48.81 78.52c46.66,44.81 228.67,-68.47 257.49,-121 -99.29,-77.32 -21,-16.45 -113.04,-20.9l-144.23 -14.43c65.15,-101.37 174.36,-146.25 300.06,-103.19 -121.4,-176.37 -99.83,14.48 -121.56,-174.16 175.72,-79.18 153.72,27.36 199.23,141.32 99.64,-23.88 31.56,-20.33 91.44,-55.15 69.75,-40.55 -79.75,-18.35 85.22,-43.37 132.91,112.23 5.98,119.55 139.08,201.49 104.59,64.38 154.3,-25.8 264.67,-19.86 -50.87,92.13 -93.93,96.73 -189.51,106.53 -173.42,17.78 -127.79,-76.27 -176.88,166.16 68.29,-2.26 146.21,-19.71 196.02,-19.74 109.19,-0.07 69.17,-2.17 132.92,47.29 -36.36,100.29 -79.24,81.42 -147.77,186.15 58.32,113.39 71.77,66.32 84.22,187.25 -91.47,24.32 -818.33,67.61 -915.17,25.78 -242.76,-104.87 160.96,42.09 -66.63,-152.17 -1.66,5.44 -15.71,75.34 -16.69,78.37l-46.19 108.08c-471.53,-87.3 -1520.66,96.5 -1958.29,-24.73 -0.01,-6.2 5.58,-21.89 6.01,-17.58 0.42,4.24 5,-14.8 5.47,-17.38 25.3,-139.31 -47.32,-195.77 5.42,-365.77zm-10901.27 512.47l17678.47 0.12 4.95 -291.01 -2207.41 -602.93c-727.48,-217.14 -1474.93,-417.69 -2216.91,-609.28 -741.19,-191.38 -1470.93,-412.3 -2214.92,-611.62 -2503.84,-670.82 -1672.52,-750.03 -3345.53,-300.56l-6648.39 1830c-208.21,61.01 -989.42,225.83 -1080.72,347.56l30.47 237.73z"/>
  <path class="fil0" d="M8216.31 41098.12c145.39,-63.63 732.14,-837.43 879.34,-1018.34 203.12,-249.67 2357.12,-2893.68 2444.99,-3057.74l-1683.89 -1683.51 -957.26 905.66c-416.21,488.81 -2648.89,2486.15 -2790.58,2769.42 98.12,94.88 170.6,152.17 261.14,261.13 324.47,390.55 255.96,264.49 524.73,535.42 96.46,97.24 167.73,168.04 265.09,264.85 91.2,90.67 159.11,188.05 251.64,277.97 174.37,169.43 673.93,573.8 804.79,745.14z"/>
  <path class="fil0" d="M33475.18 38720.4c-101.36,99.38 -352.95,235.18 -483.08,312.68 -170.36,101.47 -336.2,191.55 -513.53,298.16 -260.31,156.49 -940.81,454.4 -1022.04,565.62l2066.42 4764.69c638.71,-184.05 2172.36,-1116.68 2680.93,-1453.53l-2014.54 -3382.37c-85.32,-142.6 -565.17,-1011.95 -714.16,-1105.23z"/>
  <path class="fil0" d="M15931.44 39891.13c-341.74,-149.46 -756.97,-356.8 -1059.88,-533.21l-991.77 -589.9c-123.37,123.76 -2581.67,4210.85 -2698.83,4493.37 402.5,292.24 2245.64,1317.86 2677.87,1435.88l2072.62 -4806.14z"/>
  <path class="fil0" d="M35844.81 36903.6c22.59,156.48 2157.59,2761.78 2436.64,3105.58l829.02 1015.79 2150.5 -2135.39 -1401.72 -1376.93c-148.77,-154.9 -310.29,-299.92 -470,-448.63 -172.89,-160.96 -325.36,-295.36 -496.52,-457.61 -292.71,-277.47 -1130.72,-1191.16 -1420.21,-1358.36 -124.21,243.86 -1397.19,1531.53 -1627.7,1655.55z"/>
  <path class="fil0" d="M26499.64 25975.86c7.55,869.15 315.73,1312.84 202.02,3099.6 237.36,242.91 1184.49,651.72 1627.18,747.27 774.27,167.12 1338.61,-86.7 1400.79,-851.67 66.85,-822.41 -525.61,-1972.58 -938.79,-2647.47 -137.75,-225 -303.9,-532.7 -470.66,-731.38 -608.3,128.43 -1175.05,296.57 -1820.54,383.65z"/>
  <path class="fil0" d="M19057.82 21835.49c224.69,-19.44 482.46,-83.32 714.27,-118.44 159.93,-24.23 601.44,-34.7 709.69,-141.94 -142.15,-558.03 -250.73,-1950.83 -257.48,-2604.19 -2.69,-260.73 30.45,-753.05 2.05,-966.68 -297,-215.14 -1270.29,-617.82 -1747.55,-667.77 -843.25,-88.24 -1226.82,501.69 -1071.15,1329.52 122.82,653.15 416.95,1209.33 694.94,1705.1 143.99,256.78 314.24,523.89 459.52,742.13 168.57,253.23 356.97,488.77 495.72,722.28z"/>
  <path class="fil0" d="M76346.8 55016.91c-139.74,-1.89 -224.46,-36.98 -270.29,61.84 69.17,81.07 -63.75,23.11 95.86,75.67 242.26,79.77 550.04,-104.54 550.04,701.6l0 2543.81c0,1414.09 -626.07,641.18 -665.65,1104.73l1598.9 0c-28.63,-395.15 -635.48,195.31 -635.95,-998.74 -0.22,-547.43 -25.77,-2226.86 9.95,-2650.11 395.42,705.63 1043.09,2319.54 1481.37,3209.86l167.7 361.92c55.23,85.81 -7.74,22.91 72.63,77.08 94.74,-32.76 51.77,-10.08 102.41,-85.19l1549.43 -3466.22c18.15,-41.03 30.34,-71.98 58.63,-117.87 52.29,-84.84 13.87,-32.04 68.19,-88.18 37.67,671.88 8.08,2274.4 8.08,3041.35 0,823.65 -541.25,382.79 -610.57,671.28 109.5,94.49 1649.65,44.82 1907.07,44.82 -39.21,-386.84 -595,163.97 -595,-751.43l0 -3003.1c0,-202.62 15.5,-403.12 157.87,-498.23 82.3,-55 141.82,-58.09 245.32,-75.52 190.97,-32.19 204.28,-39.11 179.53,-157.92l-1334.46 0c-513.96,1091.35 -971.76,2270.96 -1491.36,3381.78 -111.98,-110.32 -972.64,-2097.02 -1183.1,-2523.72 -538.28,-1091.39 -38.04,-840.19 -1466.6,-859.51z"/>
  <path class="fil0" d="M22292.65 57173.52c0,-351.6 -48.8,-1475.87 4.21,-1739.66 71.56,-356.09 1119.45,-69.6 1306.61,101.8 340.46,311.8 352.75,922.05 32.84,1274.73 -296.9,327.32 -899.24,362.11 -1343.66,363.12zm-741.48 -2155.16c-312.07,-0.1 -467.07,-52.47 -539.45,60.39 79.91,82 5.35,61.61 225.55,103.13 289.5,54.59 359.5,208.15 359.5,568.15l0 2967.77c0,973.88 -545.08,392.55 -579.97,786.76l1886.42 0c-40.54,-400.03 -606.95,174.64 -611.21,-750.42 -2.02,-439.17 0.64,-879.21 0.53,-1322.02l364.15 -6.45 1614.91 2077.26 1094.81 1.62c-16.85,-232.56 -100.87,-107.27 -318.46,-220.51 -214.27,-111.52 -577.76,-624.81 -722,-797.44 -157.79,-188.84 -799.65,-949.67 -922.48,-1156.97 641.4,-46.16 1201.23,-440.81 1201.23,-1084.98 0,-1479.87 -1843.02,-1225.91 -3053.54,-1226.3z"/>
  <path class="fil0" d="M89648.29 55315.81c1487.12,-276.58 2616.09,696.89 2426.13,2308.52 -29.91,253.84 -71.87,419.35 -172.45,640.87 -244.69,538.88 -809.12,872.6 -1452.81,951.7 -887.91,109.1 -851.86,73.83 -851.78,-711.07 0.05,-564.24 -63.12,-2861.63 50.91,-3190.02zm-1217.57 -298.46c-159.56,25.15 -55.73,-30.33 -124.22,61.4 84.11,74.58 -102.67,6.18 118.5,83.25 187.17,65.24 476.5,-64.68 476.5,588.03l0 3003.1c0,873.67 -545.25,403.34 -590.66,706.62 129.02,121.18 1372.8,44.56 1640.31,44.96 513.2,0.77 1024.63,-17.52 1485.01,-185.26 728.58,-265.47 1401.83,-948.8 1401.83,-1944.2 0,-1152.2 -407.48,-1819.86 -1423.35,-2170.07 -474.04,-163.41 -979.44,-187.13 -1498.83,-186.82l-1485.1 -1z"/>
  <path class="fil0" d="M42739.25 55308.34c353.77,-165.19 1712.75,-3.44 2187.34,986.26 388.25,809.65 174.7,2052.11 -360.84,2472.96 -320.76,252.09 -644.16,408.65 -1171.95,460.62 -868.75,85.54 -770.54,-15.73 -770.49,-793.02l-0.01 -2437.8c-0.07,-190.98 -73.09,-600.74 115.95,-689.02zm1387.79 -192.81c-330.22,-79.15 -2564.14,-179.51 -2776.75,-72.1 15.71,239.77 191.99,36.68 443.16,213.76 140.84,99.29 143.93,341.26 143.93,528.18l0 2967.76c0,193.25 -14.73,421.81 -158.15,513.72 -243.74,156.21 -399.6,-28.87 -432.68,192.9 44.12,38.07 -20.72,44.82 131.06,44.82l1731.2 0c908.98,0 1583.82,-169.22 2171.62,-805.51 692.73,-749.88 998.53,-3043.76 -1253.39,-3583.52z"/>
  <path class="fil0" d="M35341.61 57622.56c-105.37,936.98 -704.62,1478.63 -1633.06,1594.49 -871.78,108.8 -852.19,69.38 -852.05,-711.22 0.06,-343.12 -50.07,-3055.11 53.04,-3161.93 201.18,-208.4 2709.73,-190.17 2432.07,2278.66zm-3439.34 -2604.89c-379.76,-5.47 -283.45,-6.34 -326.7,61.09 80.98,81.51 3.66,60.14 226.6,99.01 287.41,50.09 368.4,174.49 368.4,572.27l0 3003.1c0,219.64 -21.67,442.66 -171.74,520.37 -312.14,161.64 -400.87,-57.39 -423.26,231.07 1501.61,0 3278.99,256.67 4123.18,-912.7 702.16,-972.63 610.35,-2854.8 -1022.97,-3388.73 -803.6,-262.7 -1894.53,-172.83 -2773.51,-185.47z"/>
  <path class="fil0" d="M18821.24 25075.95l1046.83 -1370.74 -1190.65 -1613.23c-487.76,79.16 -1060.21,322.44 -1465.36,522.58 -760.33,375.59 -1435.23,1106.17 -630.31,1644.39 525.96,351.68 1771.05,842 2239.49,817z"/>
  <path class="fil0" d="M134704.71 55199.86c589.23,-114.8 1021.51,185 1257.14,469.83 545.33,659.18 537.7,2162.14 185.9,2889.64 -167.13,345.6 -491.16,689.36 -965.8,769.92 -248.46,42.16 -532.52,14.09 -744.98,-85.17 -269.06,-125.71 -321.81,-206.78 -497.43,-386.27 -604.65,-617.95 -806.73,-3351.68 765.18,-3657.95zm-1.86 4401.22l536.8 0c269.53,-123.47 518.85,-91.98 838.42,-297.12 757.41,-486.21 1150.1,-1195.51 1089.86,-2211.97 -175.74,-2964.83 -4388.19,-2879.78 -4441.63,106.48 -13.97,780.83 203.82,1189.03 543.65,1657.49 434.48,598.92 1169.48,643.82 1432.89,745.13z"/>
  <path class="fil0" d="M119865.87 55199.86c588.91,-114.78 1022.92,183.05 1257.3,469.61 673.08,822.91 686.56,3409.87 -780.03,3659.82 -562.71,95.9 -909.46,-121.86 -1241.22,-473.27 -278.9,-295.41 -398.11,-836.97 -430.09,-1338.43 -33.2,-520.66 8.94,-1099.1 230.67,-1538.92 171.92,-341.02 495.16,-687.56 963.37,-778.81zm-1.86 4401.22l564.66 0c249.22,-119.3 987.45,-203.66 1417.5,-821.11 1093.84,-1570.47 287.62,-3915.92 -1793.53,-3862.25 -576.47,14.86 -1209.68,261.88 -1566.29,679.36 -812.12,950.74 -797.98,2232.44 -55.91,3259.63 432.91,599.24 1162.62,640.15 1433.57,744.36z"/>
  <path class="fil0" d="M73272.33 55202.35c562.35,-111.86 912.29,113.98 1257.55,458.24 269.43,268.66 391.35,829.91 422.73,1325.74 32.85,518.94 -16.23,1109.79 -207.2,1542.65 -412.8,935.74 -1636.79,1092.09 -2225.6,343.7 -688.28,-874.81 -711.23,-3379.2 752.52,-3670.34zm-6.84 4398.72l508.94 0c303.69,-122.33 510.15,-94.46 845.11,-280.98 758.05,-422.1 1156.14,-1229.82 1114.02,-2191.33 -97.61,-2228.62 -2527.34,-2834.55 -3803.84,-1557.87 -962.45,962.59 -881.09,3000.52 511.41,3769.32 328.5,181.36 553.7,153.07 824.35,260.86z"/>
  <path class="fil0" d="M63472.83 55214.79c546.75,-132.15 1034.14,145.45 1263.35,418.39 577.94,688.2 571.47,2149.73 243.73,2880.48 -155.42,346.52 -498.47,703.08 -931.06,802.69 -598.85,137.9 -1002.92,-132.78 -1268.66,-421.14 -301.9,-327.59 -422.26,-750.74 -466.95,-1306.94 -92.12,-1146.66 218.02,-2145.89 1159.58,-2373.48zm11.07 4386.28l511.42 0c299.49,-115.64 498.59,-81.36 844.96,-273.09 782.26,-433.02 1152.77,-1198.92 1131.21,-2165.06 -66.7,-2988.3 -4354.66,-2974.89 -4435.45,-35.61 -18.93,688.46 182.79,1321.66 524.81,1711.29 603.8,687.86 985.97,586.43 1423.04,762.48z"/>
  <path class="fil0" d="M27237.84 23811.2c44.44,101.59 378.75,481.85 480.68,616.66l484.29 650.58c323.31,19 1215.2,-297.95 1512.44,-417.04 1249.16,-500.53 1410.61,-1376.08 182.2,-2025.25 -337.32,-178.27 -1025.25,-466.59 -1431.75,-521.29l-1227.86 1696.33z"/>
  <path class="fil0" d="M5013.3 55014.82c-190.21,16.3 -91.4,-23.75 -147.63,63.94 63.22,61.89 -15.52,49.1 199.97,93.49 272.15,56.06 240.8,166.19 453.61,315.23l2.12 3124.34c0,199.74 -6.68,496.06 -167.24,619.85 -277.43,213.88 -457.53,-27.72 -496.64,272.91l1607.07 0c-14.98,-206.85 -34.63,-124.2 -254.6,-176.59 -352.32,-83.93 -381.24,-432 -381.35,-786.82 -0.18,-618.55 -26.58,-2126.41 7.47,-2645.13 266.85,296.41 512.35,616.71 754.74,929.93 129.12,166.86 248.89,300.22 381.44,465.69l1132.79 1411.06c122.96,146.83 251.23,312.7 379.43,469.26 86.35,105.46 110.9,133.89 188.81,234.32 98.94,127.52 61.93,177.05 254.61,156.66 0,-620.24 -30.87,-3349.14 19.14,-3845.96 80.95,-804.23 702.69,-375.47 609.42,-698.62l-1569.8 -0.08c-42.44,215.64 92.91,101.25 352.8,200.15 117.23,44.62 176.2,110.65 221.64,238.34 116.24,326.69 69.36,2357.97 69.36,2781.66l-2379.11 -2946.51c-230.24,-286.72 -143.94,-276.1 -598.73,-273.69l-639.32 -3.41z"/>
  <path class="fil0" d="M99348.83 55018.03c-390.12,-4.07 -307.73,-26.03 -372.5,60.72 76.22,64.48 -117.77,17.58 241.26,98.13 168.84,37.89 414.6,251.66 414.6,467.17l0 2932.43c0,462.98 -39.23,674.57 -413.11,754.73 -173.86,37.29 -214.53,-13.86 -238.42,128.54 69.12,64.93 1479.98,99.02 1594.71,0 -27.07,-161.83 -158.98,-89.66 -353.86,-165.28 -143.12,-55.53 -188.59,-118.55 -234.44,-298.24 -89.51,-350.87 -47.65,-2633.88 -47.65,-3089.77 78.35,49.97 12.9,1.66 70.54,59.57l335.14 413.08c138.7,171.88 236.53,288.18 380.87,466.75 484.82,599.82 1648.89,1999.81 2080.79,2582.58 77.36,104.38 65.91,151.07 241.76,134.5 0,-870.56 0,-1741.11 0,-2611.66 0,-549.45 -123.24,-1504.15 246.5,-1707.55 331.57,-182.4 411.6,47.04 389.45,-225.37l-1577.2 -0.08c-33.09,168.1 38.48,129.37 149.24,153.73 185.14,40.72 321.63,36.31 419.28,290.69 119.58,311.55 65.48,2364.7 65.48,2778.2l-222.62 -254.94c-67.89,-87.21 -132.08,-166.99 -188.11,-235.91l-1958.57 -2458.14c-294.35,-366.39 -166.89,-264.94 -1023.15,-273.88z"/>
  <path class="fil0" d="M67452.74 55026.48c-152.84,-20.11 -1058.75,-33.73 -1159.07,16.96 15.79,240.15 113.03,10.76 410.54,212.23 104.94,71.07 247.21,217.35 247.21,388.39l0 2791.11c0,213.41 4.22,575.66 -112.35,736.18 -186.25,256.49 -511.73,64.82 -549.13,288.41 114.73,99.02 1525.59,64.93 1594.71,0 -50.15,-298.91 -635.84,177.62 -635.95,-883.27l2.49 -2657.57c155.41,102.62 283.33,311.85 407.3,466.65 553.94,691.74 1393.44,1676.01 1877.7,2326.5 129.37,173.79 237.89,293.41 379.6,467.8 182.52,224.62 254.02,390.78 426.9,383.01 96.23,-352.32 -37.6,-3084.95 23.75,-3814.59 17.13,-203.78 45.51,-382.73 172.33,-473.03 195.26,-139.03 383.03,-54.22 459.33,-196.49 -64.94,-86.98 32.89,-47.94 -157.52,-63.94l-1063.43 3.21c-53.73,-0.56 -168.99,-7.08 -214.98,-3.21 -190.4,15.99 -92.58,-23.04 -157.52,63.94 106.45,199.48 456.75,1.47 583.56,388.52 112.43,343.17 62.34,2325.27 62.34,2763.68 -135.21,-98.53 -1776.78,-2181.46 -1945.7,-2397.87l-486.88 -608.24c-73.88,-90.96 -86.67,-134.93 -165.24,-198.37z"/>
  <path class="fil0" d="M142205.06 55148.95l0 -130.59 -1587.46 -0.08c-62.4,317.03 403.95,-21.67 567.63,445.2 112.43,320.67 95.35,2563.15 48.95,2778.07l-2340.37 -2925.52c-204.87,-259.84 -146.31,-301.66 -574.64,-298.04l-675.02 -3.17c-190.39,15.99 -92.57,-23.04 -157.51,63.94 62.26,114.82 -22.12,42.95 147.75,83.72 245.36,58.88 118.13,-24.27 345.51,184.34 218.47,200.41 164.43,174.71 162.72,544.47 -3.44,748.75 31.75,2179.11 -4.56,2827.68 -51.11,913.09 -594.39,426.73 -647.09,740.79 69.12,64.93 1479.98,99.02 1594.71,0 -43.07,-257.79 -447.05,43.66 -581.24,-468.46 -91.79,-350.32 -85.97,-2821.91 -39.78,-3087.79l2649.01 3270.16c83.9,104.46 113.06,136.29 190.21,233.29 104.48,131.35 55.6,177.31 254.94,156 0,-599.7 -31.01,-3343.23 13.37,-3812.98 42.22,-446.88 175.09,-566.57 632.85,-601.02z"/>
  <path class="fil0" d="M112370.37 55986.76l-19.64 -978.2 -3603.24 0c14.88,435.56 594.43,-258.97 590.98,846.42l0.12 2828.93c0.4,188.73 21.76,448.1 -134.71,561.96 -74.61,54.29 -164.67,68.66 -264.73,85.52 -201.97,34 -182.19,-9.51 -191.67,163.42l3665.18 -7.76 288.58 -1147.61c-233.48,0 -169.21,-11.31 -265.14,181.55 -148.7,298.98 -354.3,542.66 -709.98,633.57 -295.32,75.47 -1452.5,186.39 -1649.3,-40.33 -91.34,-206.43 -42.79,-1494.77 -42.79,-1829.86 358.1,0 999.99,-36.58 1325.32,20.97 187.1,33.1 300.02,112.43 364.01,272.34 142.19,355.28 -24.78,384.61 264.22,352.6l-7.89 -1561.87c-182.27,-17.15 -143.69,-36.61 -190.8,124.68 -80.05,274.05 -107.41,459.94 -459.64,505.17 -350.64,45.04 -895.41,14.21 -1272.84,14.21 -34.12,-243.63 -12.44,-615.8 -12.44,-873.78 0,-207.87 -72.48,-668.37 57.73,-800.48 118.84,-120.6 1225.67,-69.89 1466.86,-42.19 268.84,30.88 396.36,86.63 484.48,258 224.32,436.21 2.77,429.28 317.31,432.76z"/>
  <path class="fil0" d="M96786.39 55986.81l-26.71 -977.69 -3592.99 -0.56c14.87,434.92 590.68,-255.62 591.01,846.04l0.02 2829.32c-2.98,1033.11 -559.85,377.45 -595.91,810.69l3608.13 0c121.86,-30.47 345.34,-1087.66 350.5,-1155.18 -602.6,0 104.41,895.29 -1869.71,893.76 -952.4,-0.74 -803.12,234.68 -803.12,-1933.9 210.6,-35.39 1078.37,-30.05 1298.17,0.68 629.54,88.01 226.08,629.53 645.73,640.1l-13.01 -1579.15c-400.53,8.75 3.98,555.7 -654.87,637 -281.68,34.76 -981.62,33.61 -1268.56,7.06 -30.71,-331.91 -63.65,-1500.33 53.39,-1707.24 267.38,-42.64 1199.5,-34.71 1478.61,-0.43 428.45,52.62 478.72,189.1 581.57,549.45 47.5,166.38 28.12,138.55 217.74,140.05z"/>
  <path class="fil0" d="M20503.5 55986.93l-22.5 -977.81 -3602.94 -0.56c8.4,191.95 27.79,125.45 233.03,163.33 97.29,17.96 204.34,51.08 255.3,99.14 117.5,110.81 112.62,391.46 112.78,584.36l-0.02 2828.06c-4.94,1036.06 -570.98,377.46 -601.09,811.49l3671.57 -12.51 292.33 -1143.01 -178.7 0c-137.24,201.79 -153,340.56 -333.45,534.96 -532.96,574.16 -2055.56,348.12 -2119.92,249.78 -79.4,-251.94 -35.33,-1475.96 -35.33,-1839.82 365.53,0 952.96,-34.31 1292.54,16 361.62,53.58 383.04,246.24 451.39,505.68 48.49,184.04 -5.02,130.35 204.46,134.03l-15.65 -1579.15c-173.68,3.97 -145.59,-12.04 -188.97,155.81 -170.43,659.29 -488.41,495.72 -1728.83,495.72 -38.34,-228.09 -14.93,-626.61 -14.93,-873.78 0,-234.54 -41.86,-702.1 65.2,-805.45 130.97,-117.78 1223.82,-66.02 1469.53,-37.22 464.04,54.41 491.07,229.34 582.58,549.62 47.94,167.79 23.56,139.65 211.65,141.3z"/>
  <path class="fil0" d="M128885.4 55008.4c-533.32,-4.13 -360.34,-15.91 -408.04,70.36 120,88.99 -122.73,-1.88 121.81,76.28 73.35,23.45 272.58,15.52 381.41,145.83 165.82,198.53 91.78,1705.67 91.78,2003.71 0,419.23 90.91,1791.24 -143.48,1950.53 -265.51,180.44 -428.54,-60.96 -451.95,239.5l3667.24 -0.98 299.39 -1154.19c-328.15,0 -201.1,172.05 -499.51,503.86 -151.97,168.98 -228.47,251.03 -530.52,318.1 -320.29,71.12 -1353.88,146.79 -1586.92,-6.87 -147.24,-228.84 -68.17,-1486.52 -68.17,-1870.16 736.21,0 1488.17,-151.05 1680.77,293.41 162.84,375.78 -36.3,362.3 272.79,362.3l-10.38 -1579.15c-185.14,0 -147.98,-36.19 -195.19,136.48 -77.49,283.33 -81.94,447.48 -463.2,501.19 -335.84,47.32 -908.34,13.86 -1272.34,13.86 -45.28,-323.25 -28.91,-1386.79 12.93,-1706.6 235.89,-47.43 1230.39,-43.28 1503.53,-8.79 246.37,31.1 398.55,98.82 499.23,271.7 195.2,335.2 -23.5,418.48 311.79,418.15l-18.06 -958.59c-217.14,-55.6 -2591.01,-15.26 -3194.89,-19.92z"/>
  <path class="fil0" d="M2079.38 59601.07l557.19 0c271.88,-127.51 749.28,-93.81 1094.46,-578.89 442.53,-621.92 316.49,-2062.27 315.44,-2955.24 -0.5,-422.91 -38.31,-768.64 347.89,-868.04 38.81,-9.98 144.95,-25.62 172.2,-36.16 100.38,-38.82 65.88,2.87 106.11,-83.98 -56.23,-87.68 42.57,-47.63 -147.63,-63.94l-1413.99 3.47c-32.31,164.16 36.85,125.99 119.01,150.64 30.45,9.13 104.65,19.14 146.72,30.44 117.11,31.46 196.31,73.91 245.91,142.32 185.59,256 112.38,1724.52 112.42,2139.56 0.09,1019.85 -87.93,1767.12 -1190.66,1801.47 -1176.15,36.63 -1248.02,-752.51 -1247.93,-1801.47 0.03,-314.8 -72.36,-1962.11 96.32,-2174.28 60.38,-75.94 151.51,-104.5 265.56,-126.35 14.21,-2.72 147.28,-23.1 150.85,-24.22 105.37,-32.75 70.51,6.38 117.61,-77.64 -53.07,-71.09 -0.51,-31.17 -93.51,-55.86l-1409.91 -4.58c-374.32,-1.35 -365.45,-47.67 -423.41,60.44 45.64,114.72 -33.47,43.98 131.27,85.22 119.82,29.99 317.53,9.13 416.16,215.68 246.76,516.7 -288.08,2901.51 422.81,3709.17 423.91,481.63 740.68,381.59 1109.14,512.25z"/>
  <path class="fil0" d="M54504.96 59601.07l473.61 0c205.8,-75.38 454.21,-77.06 667.19,-176.21 215.64,-100.39 363.86,-241.08 474.53,-373.86 479.61,-575.42 335.54,-2118.76 336.58,-3018.47 0.27,-229.26 -17.32,-548.37 135.95,-712.32 241.48,-258.33 514.58,-7.62 490.64,-301.84l-1439.5 -1.01c-159.57,25.15 -55.74,-30.33 -124.22,61.4 57.42,115.29 -40.81,39.88 138.3,93.23 105.97,31.57 252.37,24.31 377.19,188.74 189.35,249.44 114.7,1745.14 114.84,2155.84 0.29,892.02 -14.6,1774.33 -1282.99,1767.42 -1132.39,-6.17 -1155.61,-861.03 -1155.61,-1873.41 0,-378.07 -76.77,-1958.29 116.94,-2135.41 212.41,-194.22 485.46,13.8 495.52,-231.74 -100.63,-50.84 -1814.56,-50.84 -1915.18,0 14.5,257.23 370.17,3.95 536.58,297.75 134.14,236.81 76.35,2086.83 75.64,2422.7 -3.77,1796 1008.5,1660.61 1483.97,1837.18z"/>
  <path class="fil0" d="M27229.76 59601.07l233.76 0c164.59,-57.15 354.2,-48.98 558.56,-136.96 506.94,-218.23 848.17,-723.38 738.02,-1345.11 -177.45,-1001.63 -1851.25,-1347.62 -2178.52,-1993.12 -206.45,-407.19 48.77,-796.94 388.51,-891.89 564.27,-157.71 1089.03,217.38 1337.28,721.54 214.99,436.59 8.62,401.17 274.59,414.58 4.25,-9.73 7.05,-22.69 8.61,-30.67 1.55,-7.92 5.92,-20.95 7.47,-30.75 1.55,-9.78 4.12,-20.24 5.32,-31.13l-20.35 -281.9c-14.32,-129.6 -25.98,-257.01 -39.75,-386.49 -16.83,-158.18 -27.53,-591.35 -102.62,-686.85 -278.18,18.02 -37.06,334.69 -518.2,183.48 -206.1,-64.77 -420.52,-154.2 -646.35,-179.2 -546.86,-60.53 -967.25,204.01 -1152.31,485.41 -250.04,380.22 -305.41,867.76 -33.46,1275.2 205.13,307.34 543.35,488.55 908.9,716.16 573.73,357.22 1205.02,640.52 1072.6,1333.97 -148.4,777.19 -1498.74,942.55 -2088.29,-388.3 -124.43,-280.87 -49.33,-200.13 -192.68,-215.97 -73.96,106.81 -27.62,240.5 -5.96,380.95l103.66 742.47c50.01,425.76 16.01,308.36 115.18,320.45 247.44,30.18 -75.45,-363.35 558.89,-147.44 205.99,70.1 518.11,116.01 667.13,171.57z"/>
  <path class="fil0" d="M105895.5 59601.07l615.42 0c182.63,-84.57 467.1,-103.23 654.69,-203.13 181.1,-96.44 327.66,-217.96 444.62,-368.25 455.13,-584.79 293.21,-2097.17 314.9,-2997.06 10.92,-452.89 -4.42,-749.21 401.36,-846.45 187.38,-44.91 223.27,18.37 229.86,-142.74 -95.84,-48.42 -1466.02,-48.42 -1561.87,0 9.88,242.7 256.19,37 488.25,274.98 235.41,241.43 143.51,1807.78 144.07,2162.82 1.66,1074.57 -102.67,1787.56 -1246.89,1802.74 -1147.93,15.22 -1201.82,-817.54 -1201.75,-1838.07 0.02,-382.08 -80.49,-2004.1 123.58,-2173.82 231.74,-192.71 485.32,11.01 498.84,-228.66 -100.63,-50.84 -1814.56,-50.84 -1915.19,0 6.78,165.26 75.29,99.72 267.78,140.69 418.94,89.16 339.5,448.2 339.09,919.22 -0.47,541.74 0.78,1083.51 -0.11,1625.25 -2.97,1811.69 964,1669.02 1403.36,1872.48z"/>
  <path class="fil0" d="M49688.93 55949.37l737.58 1805.03 -1517.26 -6.38 779.67 -1798.65zm-812.11 3510.38c-51.46,-229.48 -635.32,42.18 -398.58,-631.13 87.42,-248.64 236.53,-547.14 297.55,-792.49l1787.06 2.62c89.16,269.02 471.99,952.63 360.78,1216.8 -44.66,61.95 43.89,23.14 -106.23,74.83 -242.66,83.54 -309.37,-79.06 -330.49,174.19l1730.73 0c-21.58,-268.63 -265.88,-55.99 -468.69,-422.87 -81.06,-146.63 -189.86,-400.76 -264.86,-582.89l-1517.28 -3463.46c-88.53,-154.37 27.56,-59.32 -115.85,-97.44 -124.09,30.59 -52.94,-33.22 -127.71,119.72l-437.61 1046.02c-219.36,530.43 -1067.57,2582.3 -1299.39,2975.06 -229.29,388.49 -402.52,164.31 -446.89,381.04 81.57,76.6 1255.89,76.6 1337.46,0z"/>
  <path class="fil0" d="M37838.26 57754.39c39.29,-188.87 659.2,-1672.04 760.24,-1816.55l744.82 1815.92 -1505.06 0.63zm-45.29 1705.36c-44.29,-225.44 -642.84,39.9 -403.79,-625.55 95.01,-264.52 233.28,-534.88 302.78,-797.65l1784.58 -0.28c75.22,313.41 471.29,902.86 360.77,1229.24 -41.62,67.93 -127.54,67.72 -237.9,84.03 -175.4,25.92 -170.9,-17.73 -196.03,110.22 120.86,104.3 1466.28,44.82 1720.47,44.82 -18.47,-229.98 -70.32,-105.79 -265.33,-203.84 -241.58,-121.46 -834.59,-1663.05 -991.54,-2011.45l-798.49 -1814.09c-91.91,-212.43 -249.54,-795.72 -433.57,-412.31l-438.92 1044.28c-333.31,764.57 -678.81,1669.71 -1021.62,2404.47 -94.95,203.5 -156.56,377.67 -278.5,570.24 -268.38,423.87 -399.23,149.25 -450.32,377.87 73.44,68.97 1245.18,88.22 1347.4,0z"/>
  <path class="fil0" d="M83490.33 57754.39c16.09,-135.52 666.47,-1689.58 756.1,-1815.89l746.47 1815.57 -1502.56 0.32zm-50.27 1705.36c-46.19,-235.11 -634.21,63.29 -402.51,-624.25 89.05,-264.27 245.57,-560.95 301.49,-799.23l1787.06 0c75.45,333.44 460.38,844.59 367.57,1211.5 -111.67,176.14 -392.03,5.15 -443.2,211.99 120.85,104.3 1476.44,44.82 1730.42,44.82 -26.7,-263.84 -273.17,-57.02 -469.79,-432.41 -286.99,-547.93 -1303.36,-2908.66 -1604.74,-3623.37 -42.89,-101.74 -88.12,-201.36 -127.79,-296.86 -65.71,-158.18 -33.01,-199.55 -209.64,-212.86 -112.01,104 -1287.73,2999.88 -1544.9,3575.37 -101.86,227.96 -255.02,673.63 -486.48,787.55 -162.13,79.8 -213.31,16.43 -244.89,157.77 73.44,68.97 1245.17,88.22 1347.4,0z"/>
  <path class="fil0" d="M41646.5 31248.22c326.1,-103.41 1132.74,322.6 1402.71,458.04 193.03,96.83 464.23,228.53 560.69,395.72 132.88,230.32 -13.75,530.54 -200.72,604.98 -319.41,127.16 -1187.8,-323.31 -1437.16,-451.21 -200.43,-102.81 -479.67,-250.24 -558.14,-395.66 -127.91,-236.97 24.45,-545.86 232.63,-611.87zm13.06 -665.52c-581.9,160.12 -1264.18,1268.19 -538.08,1958.34 327.17,310.97 1572.59,1009.54 2253.39,835.04 373.45,-95.71 595.21,-441.99 742.18,-813.08 211.31,-533.53 66.38,-886.11 -234.85,-1158.65 -326.03,-294.97 -1570.78,-1001.01 -2222.63,-821.64z"/>
  <path class="fil0" d="M22373.27 43808.31c0,1034.74 -96.78,899.17 329.63,1286.04 481.4,436.77 279.57,339.63 1321.41,339.63 186.89,0 797.49,-661.11 797.49,-813.06 0,-991.86 84.48,-767.3 -379.16,-1230.94 -460.11,-460.1 -239.9,-379.16 -1195.61,-379.16 -195.01,0 -873.78,718.5 -873.78,797.49z"/>
  <path class="fil0" d="M115303.39 59601.07l75.5 0c160.18,-282.22 349.19,-847.39 481.6,-1189.54l938.3 -2382.04c75.22,-192.62 146.07,-424.34 258.54,-590.21 180.41,-266.09 204.68,-199.4 361.13,-275.85 66.79,-32.65 115.22,-13.09 87.73,-145.07l-1094.21 -1.36c-337.3,-5.47 -245.43,-3.49 -280.41,61.75 37.57,94.08 -0.62,43.82 103.48,75.47 12.35,3.75 90.53,10.99 120.04,16.13 541.22,94.36 126.96,776.44 -135.23,1481.08 -100.77,270.81 -594.24,1664.26 -692.17,1781.54 -107.79,-191.1 -256.71,-544.32 -352.91,-771.9 -233.16,-551.65 -989.13,-2002.89 -949.5,-2385.58 344.26,-227.76 421.28,-18.61 492.14,-196.74 -57.97,-108.11 -49.09,-61.79 -423.41,-60.44l-1375.18 0.05c-31.12,304.21 197.67,-35.44 470.73,400.29 401.56,640.73 1555.14,3567.27 1913.84,4182.42z"/>
  <path class="fil0" d="M14432.14 59601.07l73.01 0 960.65 -2411c110.85,-287.62 597.37,-1583.82 744.97,-1798.93 257.45,-375.18 457.38,-71.7 426.67,-372.78l-1093.9 -1.36c-340.19,-5.52 -250.25,-1.28 -290.68,61.75 105.03,230.49 704.63,-114.96 408.08,716.72l-993.91 2639.99c-89.52,-106.91 -1392.15,-2913.81 -1324.04,-3109.4 87.63,-251.6 503.51,-88.05 495.88,-247.32 -43.3,-93.35 1.81,-57.24 -161.95,-63.9 -73.47,-2.98 -174.33,3.11 -251.65,3.43l-1375.59 0c-55.12,280.05 210.17,-26.31 497.5,443.29l815.68 1763.18c359.99,787.31 695.32,1627.34 1069.29,2376.31z"/>
  <path class="fil0" d="M57286.26 56173.54c398.68,-7.99 109.38,-479.97 518.25,-736.51 256.02,-160.64 768.5,-131.18 1091.54,-131.18 0,544.05 29.21,3203.2 -9.15,3617.86 -19.85,214.5 -44.42,314.1 -219.75,379.23 -406.55,151.03 -400.15,-76.55 -397.03,206.73l1957.68 -14.59c0.51,-330.85 -582.88,101.59 -640.81,-563.42 -35.32,-405.62 -5.03,-3075.32 -5.03,-3615.85 331.04,0 839.56,-51.62 1097.94,133 107.76,77 183.55,191.45 243.58,357.52 140.34,388.24 1.38,363.1 233.25,377.16l-15.24 -1155.44 -3808.91 14.98 -46.33 1130.5z"/>
  <path class="fil0" d="M124536.22 55014.34c-171.28,5.49 -123.97,-27.44 -192.54,64.42 84.03,74.51 -102.7,6.32 118.55,83.23 173.29,60.24 476.45,-58.35 476.45,588.05l0 3038.43c0,805.55 -542.92,386.71 -590.67,671.28 87.62,82.29 3298.56,57.03 3646.3,38.59l323.04 -1176.32c-358.05,-5.6 -233.03,357.53 -688.32,694.34 -330.41,244.44 -1607.15,284.79 -1966.77,140.71 -63.75,-522.88 -27.71,-2753.43 -27.71,-3442.36 0,-198.87 15.22,-396.92 188.92,-482.83 77.32,-38.23 163.97,-51.15 255.6,-64.41 187,-27.05 171.93,21.69 177.9,-124.04 -94.45,-47.72 -1421.79,-38.68 -1720.75,-29.09z"/>
  <path class="fil0" d="M24866.96 26279.06c-6.05,-6.34 -10.99,-28.5 -13.13,-22.79 -27.86,74.26 -21.36,-36.18 -26.84,-42.29 -22.51,-25.11 -10.24,-98.63 -273.03,-35.61l-86.6 1327.26c288.72,156.1 1716.98,1388.42 2091.26,1492.02 90.32,-863.45 -59.62,-2152.28 -239.84,-2993.91 -246.87,34.67 -503.37,63.73 -747.36,88.95 -325.77,33.68 -560.56,-7.42 -704.47,186.38z"/>
  <path class="fil0" d="M10245.38 55018.34c-353.13,-0.63 -397.14,-51.26 -468.76,60.41 273.6,265.62 665.65,-138.06 665.65,706.62l0 2932.44c0,230.26 -11.26,473.1 -172.89,554.5 -332.67,167.53 -473.16,-59 -492.77,222.3l1599.46 0.1c252.73,1.22 419.05,48.47 413.61,-70.3 -111.93,-242.24 -651.53,142.42 -651.53,-600.62l0 -3179.75c0,-692 661.99,-344.04 651.53,-565.29 -43.83,-94.46 -47.16,-62.31 -197.53,-63.53l-1346.78 3.12z"/>
  <path class="fil0" d="M29783.18 55018.34c-353.14,-0.63 -397.15,-51.26 -468.77,60.41 104.14,101.93 11.59,57.5 263.14,96.78 91.15,14.23 177.87,35.23 242.56,78.4 134.43,89.69 159.96,304.45 159.96,496.1l0 3003.1c0,508.04 -113.59,541.3 -486.83,592.7 -200.65,27.63 -166.82,-23.52 -178.84,148.78 317.52,0 1860.37,67.38 2013.07,-34.86 -47.03,-336.17 -661.48,257.6 -661.48,-777.27l0 -2861.78c0,-987.37 674.19,-476.87 661.48,-741.95 -43.83,-94.46 -47.16,-62.31 -197.53,-63.53l-1346.77 3.12z"/>
  <path class="fil0" d="M23965.71 28934.14c37.25,101.75 75.55,124.54 116.51,227.23 104.85,-36.03 219.14,-116.45 310.5,-171.68 70.07,561.88 -172.47,522.97 548.66,1183.23 133.11,121.86 185.46,176.01 351.87,284.52 708.67,462.09 1117.89,-364.95 1202.18,-993.64 -354.01,-164.08 -739,-418.5 -1056.19,-636.04 -171.89,-117.9 -332.28,-223.86 -507.44,-341.81 -124.21,-83.63 -383.42,-317.77 -499.41,-316.93 -4.66,699.06 -173.88,403.91 -466.69,765.13z"/>
  <path class="fil0" d="M22373.27 43808.31c0,-78.99 678.76,-797.49 873.78,-797.49 955.71,0 735.5,-80.94 1195.61,379.16 463.63,463.64 379.16,239.08 379.16,1230.94 0,151.96 -610.6,813.06 -797.49,813.06 -1041.85,0 -840.01,97.15 -1321.41,-339.63 -426.42,-386.87 -329.63,-251.31 -329.63,-1286.04zm697.12 1872.06c1377.87,0 999.52,101.18 1432.87,-262.28 113.63,-95.3 189.12,-195.12 293.88,-306.9 346,-369.15 266.8,-250.26 266.87,-914.24 0.08,-673.42 39.46,-497.92 -321.83,-859.19 -690.94,-690.91 -343.52,-563.52 -1635.35,-563.52 -146.12,0 -552.18,454.77 -661.74,550.05 -372.67,324.12 -318.4,228.66 -318.36,872.66 0.05,781.36 -113.46,611.73 568.71,1223.09 88.34,79.18 237.39,260.33 374.95,260.33z"/>
  <path class="fil0" d="M20031.66 1714.36c-478.22,141.41 -289.6,873.21 -203.04,1384.26 74.57,440.18 158.93,1136.62 735.51,965.01 465.53,-138.55 259.4,-953.21 188.45,-1356.95 -75.69,-430.77 -142.46,-1163.38 -720.92,-992.32z"/>
  <path class="fil0" d="M44763.36 21741.81c-359.7,0 -1251.35,39.1 -1479.07,237.17 -84.79,73.75 -479.36,782.21 701.25,771.11 388.82,-3.66 1197.61,-7.73 1465.7,-229.67 109.73,-90.85 486.82,-778.61 -687.88,-778.61z"/>
  <path class="fil0" d="M26073.02 3425.47c0,304.22 21.29,530.11 324.65,601.77 325.36,76.84 435.44,-94.62 528.11,-316.1 122.53,-292.87 243.43,-1147.27 243.43,-1486.9 0,-730.36 -646.84,-748.02 -847.27,-280.85 -123.94,288.89 -248.92,1135.75 -248.92,1482.08z"/>
  <path class="fil0" d="M5753.91 15190.86c312.85,-766.25 323.69,-770.65 -670.6,-1304.89 -674.25,-362.27 -1147.97,-472.88 -1399.9,320.61 129.18,87.56 1956.05,962.54 2070.5,984.28z"/>
  <path class="fil0" d="M7378.33 8613.78c85.21,152.65 279.56,318.54 399.79,423.25 78.51,68.37 134.46,110.97 209.63,179.9 82.49,75.64 119.72,144.54 202.29,220.12 145.06,132.77 301.35,241.02 435.93,378.1 158.93,161.87 237.21,284.84 425.96,386.79 67.5,-52 218.31,-226.48 277.52,-308.87 312.22,-434.37 -261.09,-856.17 -636.31,-1240.21 -824.71,-844.12 -1126.92,-164.9 -1314.81,-39.08z"/>
  <path class="fil0" d="M22733.57 33138.48c176.34,997 1720.52,700.87 1505.69,-315.51 -203.09,-960.83 -1686.24,-705.34 -1505.69,315.51z"/>
  <path class="fil0" d="M37393.02 7332.25c83.8,74.17 102.26,64.26 177.45,156.23 -86.08,124.18 -109.52,155.69 -212.12,261.43 -71.36,73.55 -119.24,147.58 -181.42,227.91 -169.69,-69.1 -227.79,-204.78 -398.28,-301.96l-563.11 614.96c61.88,95.36 215.26,243.75 331.74,313.08 135.44,80.61 266.72,112.16 449.42,23.66 303.13,-146.83 1040.72,-968.11 1136.16,-1304.86 105.47,-372.14 -252.5,-615.49 -445.88,-722.77 -124.81,214.08 -310.74,341.71 -456.81,570.58 48.28,46.56 107.86,113.06 162.85,161.74z"/>
  <path class="fil0" d="M19236.96 25189.56c742.15,96.82 1439.02,229.07 2213.52,280.16l-957.08 -1060.87c-149.82,-152.82 -188.1,-262.84 -370.68,-365.57 -73.33,146.88 -105.96,154.37 -213.81,279.89 -147.11,171.21 -602.6,724.09 -671.94,866.39z"/>
  <path class="fil0" d="M26391.47 25368.55c156.77,-5.74 1280.27,-139.21 1493.24,-204.76 154.7,-47.61 -132.53,55.71 52.65,-19.92 7.18,-2.93 19.13,-9.79 24.83,-12.34 5.71,-2.55 16.76,-7.97 24.45,-13.1 -85.35,-173.47 -292.34,-395.09 -423.93,-570.61 -139.28,-185.79 -296.24,-401.43 -464.61,-557.78l-803.2 897.09c-40.43,118.65 32.91,377.06 96.58,481.42z"/>
  <path class="fil0" d="M19196.09 21974.02c47.89,132.6 827.75,1098.98 1045.68,1297.74l429.67 -485.48c74.95,-141.86 -38.68,-570.25 -124.14,-722.16l-325.45 -1.28c224.99,-220.79 348.92,54.59 295.24,-306.1 -187.39,-28.58 -1163.96,134.37 -1321.01,217.27z"/>
  <path class="fil0" d="M22169.4 21070.53c-35.08,-118.03 -157.91,-282.61 -217.53,-486.27 -308.34,-1053.08 451.32,-1381.38 250.98,-1769.59 -195.26,-378.35 -666.43,-432.98 -912.14,-104.2 -258.66,346.09 -285.38,699.85 -27.46,1080.2 -11.52,-343.66 -15.39,-642.67 333.53,-638.59 590.69,660.32 -365.93,913.38 111.55,1675.19 184.32,294.08 208.63,243.25 461.08,243.25z"/>
  <path class="fil0" d="M22335.13 24206.34c397.99,10.7 2020.28,52.53 2309.9,-16.77l36.69 -446.55 -2388.14 -12.47 41.54 475.78z"/>
  <path class="fil0" d="M22745.26 31129.93c283.55,188.96 446.82,532.98 254.27,770.7 -47.36,58.49 -50.93,47.9 -94.24,84.41l-80.03 72.57c-3.22,-6.29 -13.47,13.06 -18.74,20.49l1358.65 0c-34.1,-39.93 -10.08,-13.63 -57.19,-49.53 -29.69,-22.62 -32.31,-19.48 -62.75,-42.5 -282.11,-213.32 -155.69,-640.86 178.72,-849.89l-1478.69 -6.24z"/>
  <path class="fil0" d="M1719.82 22020.26l918.77 81.09c15.02,-478.01 77.01,-834.85 -448.34,-854.12 -426.85,-15.65 -537.38,380.78 -470.43,773.02z"/>
  <path class="fil0" d="M63291.82 54599.24c280.19,0 315.49,-37.49 510.64,-161.1l820.09 -521.12c103.57,-65.78 287.08,-265.92 105.32,-431.31 -256.65,-233.55 -696.06,336.1 -801.23,441.27 -129.53,129.53 -574.51,550 -634.82,672.26z"/>
  <path class="fil0" d="M134488.53 54593.62c365.33,0 273.78,-19.93 525.17,-169.38l827.28 -516.23c363.6,-242.39 24.12,-730.36 -361.48,-325.99 -235.39,246.87 -870.7,833.99 -990.97,1011.6z"/>
  <path class="fil0" d="M24695.6 18586.95c67.15,-39.01 68.51,-46.76 126.08,-90.57 -530.39,-458.57 -1009.87,-1111.3 -924.22,-1907.08 -184.03,80.51 -315.66,334.92 -327.61,547.17 -22.63,401.83 312.2,639.53 456.06,807.37l669.69 643.11z"/>
  <path class="fil0" d="M22542.46 20891.52c63.41,-33.7 192.48,-126.95 228.73,-172.34 78.83,-98.72 26.37,-165.18 26.65,-330.97 0.47,-284.56 461.04,-1035.74 207.07,-1880.44l-83.61 -165.16c148.95,1845.51 -652.05,1238 -378.84,2548.91z"/>
  <path class="fil0" d="M32966.37 5262.66c132.97,124.73 391.87,235.61 561.87,312.14 98.02,-116.62 352.48,-1153.84 393.93,-1387.3 -98.65,59.61 -903.11,992.53 -955.8,1075.17z"/>
  <path class="fil0" d="M5670.02 11016.26c33.67,25.41 199.09,244.44 232.71,285.54 85.14,104.08 158.9,149.7 243.89,249.19l456.93 528.3c106.21,-74.85 317.52,-399.55 388.09,-527.79 -129.07,-129.24 -446.11,-205.67 -635.93,-279.56 -204.63,-79.66 -478.2,-209.06 -685.69,-255.68z"/>
  <path class="fil0" d="M11983.03 6621.01c165.59,-54.28 397.59,-239.03 559.17,-340.77 -85.48,-137.72 -874.94,-875.79 -1058.05,-1012.91l498.89 1353.68z"/>
  <path class="fil0" d="M23444.4 29605.73c-132.59,154.28 -706.19,460.48 -800.16,590.6l1642.49 -10.52c-111.06,-51.46 -585.73,-484.97 -842.34,-580.09z"/>
  <path class="fil0" d="M23070.09 20445.31c44.06,-27.04 715.22,-531.09 726.72,-649.89 10.29,-106.36 -56.04,-305.67 -112.29,-378.75 -291.01,-378.07 -398.06,245.07 -413.16,284.63 -101.71,266.58 -241.12,388.39 -201.27,744.01z"/>
  <polygon class="fil0" points="14404.92,10642.4 16114.69,10642.4 16119.76,10421.39 14404.92,10421.39 "/>
  <path class="fil0" d="M14697.36 10901.09c-116.63,50.69 -129.58,167.86 -27.44,221.6 96.75,50.9 1097.13,43.72 1181.44,-3.61 83.05,-46.63 82.89,-161.79 -12.03,-208.18 -94.03,-45.95 -254.89,-21.26 -364.72,-20.62 -117.89,0.68 -719.76,-14.17 -777.24,10.81z"/>
  <path class="fil0" d="M22545.72 30982.6l1881.7 0.25c-79.09,-219.55 -78.83,-181.03 -330.58,-177.49l-1481.6 4.7 -69.51 172.54z"/>
  <path class="fil0" d="M22613.89 29819.58c100.8,-44.31 520.39,-330.07 600,-430.81 -213.49,-99.87 -409.15,-303.41 -647.57,-431.27l47.57 862.09z"/>
  <path class="fil0" d="M20541.06 23624.91l611.99 673.77 -292.49 -1007.08c-126.9,71.03 -255.03,218.66 -319.51,333.32z"/>
  <path class="fil0" d="M22870.39 9295.01c40.63,122.48 111.87,59.62 102.56,193.94 -8.27,119.34 -109.09,93.28 57.45,175.57l-11.72 -451.39c302.15,157.9 25.33,328.64 228.37,522.05 57.11,-103.08 9.09,-305.76 35.64,-444.51 88.38,94.4 99.93,337.14 130.75,471.73l114.23 -103.5c-85.03,-262.69 -258.14,-458.66 -332.91,-707.23l-324.37 343.34z"/>
  <path class="fil0" d="M25651.31 9475.01c74.12,-109.35 72.12,-77.04 187.62,-149.33 -3.4,-216.09 -8.9,-181.37 44.69,-366.37l295.86 113.3c137.94,-144.24 80.41,-63.15 174.48,-133.39 -88.31,-43.9 -72.38,-20.26 -129.5,-126.39l-110.65 167.85c-8.13,-9.01 -12.31,-25.76 -12.85,-21.47l-14.38 -108.25 -257.03 -94.27c-49.68,46.26 -96.1,85.05 -145.67,110.3 -152.86,77.89 -118.02,-7.8 -136.61,140.71l48.48 4.72c2.19,0.21 11.36,1.39 13.91,1.66 328.78,34.47 101.48,187.28 17.16,223.2 31.51,147.08 37.87,96.41 24.5,237.73z"/>
  <path class="fil0" d="M19933.75 8765.68c-147.3,34.07 -212.32,35.7 -156.09,203.89 5.31,2.26 15.74,-3.25 17.12,2.61 32.65,139.27 25.23,1.13 28.69,1.68l78.74 65.84c88.89,100.46 127.06,35.3 207.69,-65.91 67.81,-85.13 34.54,-64.09 108.21,-123.3l-150.81 -71.13c-2.35,-8.17 -3.14,-30.06 -3.31,-25.29 0,0.01 14.68,-160.77 -52.24,-182.96 -142.89,8.93 -97.74,101.83 -78,194.56z"/>
  <path class="fil0" d="M19793.07 11506.67l254.58 -9.97c103.81,-265.73 110.7,-455.2 -246.05,-422.87l-8.53 432.85z"/>
  <path class="fil0" d="M21580.68 13449.97l265.04 -37.19c65.89,-301.61 60.41,-412.35 -269.47,-423l4.44 460.19z"/>
  <path class="fil0" d="M22753.58 9152.67l157.28 -325.13c31.24,-115.84 -64.66,-23.57 61.31,-130.83 -176.72,-94.56 -47.53,-89.48 -156.25,-204.52 -124.71,124.59 -47.79,176.41 -0.62,303.2 -60.24,-110.78 -41.24,-122.83 -169.19,-164.37l-65.47 83.01c0.84,3.58 10.79,4.92 13.75,18.55 2.89,13.36 14.26,17.62 18.16,22.68l84.15 131.26c55.3,116.28 46.34,132.49 56.88,266.13z"/>
  <path class="fil0" d="M18056.29 9861.15l138.11 -40.85c4.66,-136.11 2.04,-120.81 -86.92,-195.66l-179.61 -134.44c-122.64,117.05 -57.63,-11.24 -155.42,153.45 136.81,184.92 -120.06,-77.84 40.42,62.53 6.38,5.58 26.43,20.27 34.83,22.97 106.25,34.23 -12.45,-26.33 134.12,-7.92 192.21,24.14 71.93,111.41 74.47,139.92z"/>
  <path class="fil0" d="M23103.86 7960.85l26.4 66.92c-7.06,103.57 -37.64,-27.82 -47.88,155.34l321.79 -48.01 59.03 -154.98c89.23,-110.51 25.83,51.88 44.57,-45.74l-296.04 -3.66c-8.77,73.11 101.27,103.38 -107.86,30.13z"/>
  <polygon class="fil0" points="25788.05,25419.45 26172.63,25395.92 26120,25084.13 "/>
 </g>
</svg>
